<svg fill="none" viewBox="0 0 31 40" xmlns="http://www.w3.org/2000/svg" xmlns:xlink="http://www.w3.org/1999/xlink"><linearGradient id="a" gradientUnits="userSpaceOnUse" x1="14.6" x2="14.6" y1="0" y2="40"><stop offset=".1" stop-color="#73d10f"/><stop offset=".8" stop-color="#51a704"/><stop offset="1" stop-color="#459800"/></linearGradient><linearGradient id="b" gradientUnits="userSpaceOnUse" x1="15.9" x2="15.9" y1="0" y2="40"><stop offset="0" stop-color="#64ce0e"/><stop offset=".8" stop-color="#7de424"/><stop offset="1" stop-color="#82e928"/></linearGradient><linearGradient id="c" gradientUnits="userSpaceOnUse" x1="37.3" x2="-1.3" y1="12" y2="31.4"><stop offset="0" stop-color="#26bf0d"/><stop offset="1" stop-color="#a7dd0f"/></linearGradient><linearGradient id="d" gradientUnits="userSpaceOnUse" x1="17" x2="17" y1="32" y2="39.1"><stop offset="0" stop-color="#99fe3a"/><stop offset="1" stop-color="#9cff61"/></linearGradient><path d="m.9 23.5c1.8 3.4 11.5 16.3 13.5 16.5h.4c2-.2 11.7-13 13.5-16.5s.2-4 .2-4-2.2-1-4.4-1.7c-2.2-.6-2.6 3.6-3.5 3.7-1 0-1-1.8-1-1.8l-3.8-19.7h-2.6l-3.5 19.7s-.2 1.9-1.1 1.8c-1-.1-1.3-4.3-3.5-3.7s-4.4 1.7-4.4 1.7-1.7.5.2 4z" fill="url(#a)"/><path d="m2.2 23.5c1.8 3.4 11.5 16.3 13.5 16.5h.4c2-.2 11.7-13 13.5-16.5 1.9-3.5.2-4 .2-4s-2.2-1-4.4-1.7c-2.2-.6-2.6 3.6-3.5 3.7-.9 0-1-1.8-1-1.8l-3.8-19.7h-2.6l-3.5 19.7s-.2 1.9-1 1.8c-1-.1-1.4-4.3-3.6-3.7s-4.4 1.7-4.4 1.7-1.6.5.2 4z" fill="url(#b)"/><path d="m8 31.8c3.9 1.2 5-1.6 10.2-2.8 3.2-.7 5.2.8 6.3 2 2.4-3 4.5-6.1 5.2-7.5 1.9-3.5.2-4 .2-4s-2.2-1-4.4-1.7c-2.2-.6-2.6 3.6-3.5 3.7-.9 0-1-1.8-1-1.8l-3.8-19.7h-2.6l-3.6 19.7s-.2 1.9-1 1.8c-1-.1-1.4-4.3-3.6-3.7s-4.4 1.7-4.4 1.7-1.6.5.2 4a77 77 0 0 0 5.8 8.2h.2z" fill="#a2b600"/><path d="m8 31.8c3.9 1.2 5-1.6 10.2-2.8 3.2-.7 5.2.8 6.3 2 2.4-3 4.5-6.1 5.2-7.5 1.9-3.5.2-4 .2-4s-2.2-1-4.4-1.7c-2.2-.6-2.6 3.6-3.5 3.7-.9 0-1-1.8-1-1.8l-3.8-19.7h-2.6l-3.6 19.7s-.2 1.9-1 1.8c-1-.1-1.4-4.3-3.6-3.7s-4.4 1.7-4.4 1.7-1.6.5.2 4a77 77 0 0 0 5.8 8.2h.2z" fill="url(#c)"/><path d="m21.7 32.2c1.2 1.1-2.8 5.2-4.7 6.6-1.8 1.4-5.5-3.1-4.8-4 .6-.6 2 1 3.2 2 .8.8 2-1 2.9-2s2.4-3.6 3.4-2.6z" fill="url(#d)"/></svg>