<svg xmlns="http://www.w3.org/2000/svg" xml:space="preserve" fill-rule="evenodd" stroke-linejoin="round" stroke-miterlimit="2" clip-rule="evenodd" viewBox="0 0 24 40"><g fill-rule="nonzero"><path fill="#f0ae8e" d="M6.25 25.12H18V40H6.25z"/><path fill="#513425" d="M18.04 34.42 24 40H.04l6.25-5.58h11.75Z"/><path fill="#f0ae8e" d="M3.45 22.03s-1.7-.97-2.04-1.6c-.2-.4-1.11-2.56-1.11-3.95 0-1.4 2.35-.64 3.15 0v5.55Z"/><path fill="#cc7f66" d="M6.25 25.01H18v6.33a8.05 8.05 0 0 1-5.92 2.84 7.97 7.97 0 0 1-5.83-2.8v-6.37Z"/><path fill="#f0ae8e" d="M2.62 7.15a6.08 6.08 0 0 0-.54 3.43c.33 2.26.44 5.75.51 6.78.07 1.03.41 3.14 0 5.55-.1.64-.35 2.04-.21 2.7.11.5.42.96.71 1.4l.36.51a19.14 19.14 0 0 0 3.22 3.52c1.25.96 5.11 1.15 6.54.77 2.44-.66 5-4.1 5.7-7.05.73-3.1.7-5.12.53-7.87-.19-2.74-.7-8.77-2.24-10.3C15.66 5.06 4.04 4 2.62 7.15Z"/><path fill="#cc7f66" d="M8.4 14.27c3.75.58 7.8-1.83 7.8-1.83.89 1.52 1.62 2.48 3.15 3.27-.24-3.01-.8-7.78-2.15-9.11C15.66 5.07 4.04 4 2.62 7.15a6.09 6.09 0 0 0-.54 3.43c.33 2.26.44 5.75.51 6.78l.07.75c1.22-2 .99-4.65 1.34-6.96.71 1.77 2.55 2.83 4.4 3.12Z"/><path fill="#513425" d="M2.5 23.4c-.1.7-.23 1.7-.12 2.2.11.52.42.97.71 1.4l.35.52a19.14 19.14 0 0 0 3.23 3.52c1.25.96 5.1 1.15 6.54.77 2.44-.66 5-4.1 5.7-7.05.2-.86.34-1.64.44-2.37-4.98 3-11.3 2.98-16.84 1.01Z"/><path fill="#f0ae8e" d="M18.81 21.75s1.9-.57 2.28-1.27c.23-.44 1.24-2.86 1.24-4.41 0-1.56-2.62-.72-3.52 0v5.68Z"/><path fill="#513425" d="M1.25 17.21C.87 16 .4 14.86.2 13.6c-.5-2.91-.16-6.2 1.88-8.32.63-.66 1.66-1.2 2.42-.68a6.7 6.7 0 0 1 1.84-2.83C8.4-.07 3.08 9.74 3.08 10.9c0 3.82.14 3.86-.34 11.34-.55-.18-1.01-3.45-1.5-5.03Z"/><path fill="#513425" d="M20.7 17.25c.37-1.22.84-2.35 1.05-3.61.48-2.91.15-6.2-1.9-8.32-.63-.66-1.66-1.2-2.42-.68a6.56 6.56 0 0 0-1.84-2.83C13.54-.03 10.45-.4 7.8.39c-2.64.78-4.03 2.46-5.92 4.46-.67.7.37 2.54 1.67 3.53.83.63 1.5 1.45 2.28 2.14a9.27 9.27 0 0 0 9.73 1.43c.54-.25 1.12-.63 1.19-1.23 0 0 .66 2.47 2.33 3.29l.27 8.2c.55-.17.86-3.39 1.34-4.96Z"/><path fill="#0f0f0f" d="M15.04 17.23h-.03c-.38 0-.69.3-.69.68v1.1c0 .38.31.69.69.69h.03a.7.7 0 0 0 .69-.69v-1.1c0-.38-.3-.69-.69-.69ZM6.55 19.7h.04c.38 0 .68-.31.68-.69v-1.1c0-.38-.3-.69-.68-.69h-.04a.69.69 0 0 0-.68.69V19c0 .38.3.68.68.68Z"/><path fill="#1a1a1a" d="M14.73 15.98a1.93 1.93 0 0 1 1.97.47c.23.22.57-.12.35-.34a2.41 2.41 0 0 0-2.45-.6.25.25 0 0 0-.17.3c.02.06.06.12.12.15.05.03.12.04.18.02Zm-9.24.37a1.93 1.93 0 0 1 1.94-.57c.3.08.44-.39.13-.47-.88-.22-1.8.01-2.42.7-.2.23.14.57.34.34Zm6.5 6.25a.23.23 0 0 0-.28-.16l-.48.1-.32.06-.08.01h-.01c.02-.14 0-.37 0-.54v-3.4c0-.3-.45-.3-.45 0v3.82c-.01.13 0 .25.07.36a.47.47 0 0 0 .5.2l.28-.05.61-.12a.23.23 0 0 0 .16-.28Zm-1.17.01c.02 0 .01 0 0 0Zm6.21-12.11a7.4 7.4 0 0 0 .37-5.68.16.16 0 0 0-.06-.04h-.08a.16.16 0 0 0-.07.02c-.09.07-.1.22-.06.34.42 1.27.41 2.79.03 4.07-.11.36-.26.7-.44 1.04a.31.31 0 0 0-.02.18.5.5 0 0 0 .09.16c.09.07.18.02.24-.1Zm-2.94 1.58a4.4 4.4 0 0 0 1.32-2.87 5.38 5.38 0 0 0-.71-3.14 6.8 6.8 0 0 0-2.48-2.38 9.84 9.84 0 0 0-3.5-1.14 15.5 15.5 0 0 0-4.7.11.16.16 0 0 0-.05.12c0 .08.08.17.16.16 1.32-.18 2.65-.28 3.97-.15 1.2.12 2.41.4 3.5.94 1 .49 1.9 1.18 2.55 2.1a5 5 0 0 1 .96 2.94 4.29 4.29 0 0 1-1.24 3.09c-.15.14.07.37.22.22Z"/><path fill="#1a1a1a" d="M12.47 12c.52-.83.53-1.9.19-2.81a5.25 5.25 0 0 0-1.84-2.28A9.92 9.92 0 0 0 5.2 4.97a8.87 8.87 0 0 0-3.34.58.16.16 0 0 0-.1.07.16.16 0 0 0 0 .12c0 .04.03.08.07.1.03.02.08.02.12.01a8.85 8.85 0 0 1 5.68-.18c.93.28 1.81.7 2.62 1.23.78.51 1.5 1.16 1.93 2 .48.9.56 2.06.01 2.95-.1.17.17.33.28.16Z"/><path fill="#1a1a1a" d="M10.6 12.1a2.32 2.32 0 0 0-.63-1.74 3.93 3.93 0 0 0-1.69-1.09c-.73-.25-1.5-.36-2.26-.54a6.52 6.52 0 0 1-3.75-2.32.16.16 0 0 0-.1-.04.16.16 0 0 0-.12.04.16.16 0 0 0 0 .23A6.82 6.82 0 0 0 5.44 8.9c1.36.4 2.95.41 4.05 1.42.5.45.86 1.07.8 1.77a.16.16 0 0 0 .15.16.16.16 0 0 0 .16-.16Zm7.5-4.12a5.56 5.56 0 0 1 2.7 4.7c0 .6-.1 1.18-.28 1.74-.06.2.24.28.31.08a5.83 5.83 0 0 0-2.57-6.8c-.17-.1-.33.17-.15.28Z"/><path fill="#1a1a1a" d="M18.1 10.38a3.4 3.4 0 0 1 1.75 2.61.16.16 0 0 0 .16.16c.05 0 .09-.02.12-.05a.16.16 0 0 0 .04-.1 3.73 3.73 0 0 0-1.92-2.9c-.18-.1-.34.18-.16.28Z"/></g></svg>