<svg xmlns="http://www.w3.org/2000/svg" xml:space="preserve" fill-rule="evenodd" stroke-linejoin="round" stroke-miterlimit="2" clip-rule="evenodd" viewBox="0 0 1175 788"><path fill="url(#a)" d="M903.42 372.3c0-195.17-158.45-353.62-353.62-353.62-195.17 0-353.62 158.45-353.62 353.62v5.24c0 195.17 158.45 353.62 353.62 353.62 195.17 0 353.62-158.45 353.62-353.62v-5.24Z"/><path fill="#534330" fill-rule="nonzero" d="M468.18 379.15 86.67 395.56l82.05 45.13 377.4 61.53 53.33-94.35-131.28-28.71Z"/><path fill="url(#b)" d="M576.36 365.64S612.5 323 629.39 286.7l5.78 6.03s-16.36 24.1-36.52 51.21c0 0 39.8-45.55 49.66-64.05 0 0 33.59 13.2 33.38 34.05l-80.3 64.95s63.79-50.31 84.37-63.27l4.4 6.03a574.77 574.77 0 0 0-91.54 63.27l-22.26-19.28Z"/><path fill="url(#c)" d="M599.68 403.93s-8.34 7.38-21.08 18.07l-3.65 3.02-1.39 1.17-.51.42c-37.9 32.03-104.19 85.42-116 77.83-15.9-10.28 92.98-129.23 103.08-140.22l.75-.82c13.44-5.09 46.9 15.85 38.8 40.53Z"/><path fill="url(#d)" d="M595.33 425.97c-37.9 32.03-104.2 85.41-116 77.82-15.91-10.27 92.97-129.22 103.07-140.22-8.1 9.04-79.75 89.3-74.15 110.36 5 18.8 67.64-31.7 87.08-47.96Z"/><path fill="#eaddff" d="m373.3 590.98-5.52-8.88 29.47-199.3 124.37 18.37-34.74 201.05-6.99 4.52-106.6-15.76Z"/><path fill="#eaddff" d="M397.25 382.85s4.82-47.45 59.08-72.76l31.64 4.67s39.89 29.1 33.65 86.47l-124.37-18.38Z"/><path fill="#6b43bc" fill-rule="nonzero" d="m447.76 292.3-3.57 24.17 55.8 8.24 3.56-24.18-55.8-8.23Z"/><path fill="#6a40a4" fill-opacity=".3" d="M401.26 383.36s6.93-44.77 47.57-66.28l45.65 6.75s17.2 15.9 23.86 58.84l-117.08.7Z"/><path fill="#ffefed" d="M494.26 354.5c1.69 6.7 2.77 13.54 3.26 20.43l15.36 2.29a47.4 47.4 0 0 0-4.4-21.4l-14.22-1.32Zm-7.07-56.31-1.06 24.53 7.2 1.08 3.6-24.16-9.74-1.45Z"/><path fill="url(#e)" d="m239.02 546.9-.49.19c-55.64 18.35-117.68-84.6-126.54-167.7-4.64-44.05 5.7-82.5 39.9-94.36 30.12-10.43 60.64 14.76 83.9 53.23l1.09 1.78c42.39 71.65 59.6 187.22 2.14 206.87Z"/><path fill="url(#f)" d="M235.46 367.46a29.42 29.42 0 0 1-1.66 7.5c-4.58 13.74-21.69 43.66-85.92 66.64.72-3.1 13.25-52.72 87.58-74.14Z"/><path fill="#980034" fill-opacity=".3" d="M235.47 367.46a29.42 29.42 0 0 1-1.66 7.5c-67.13 16.87-84.84 63.6-85.87 66.52.66-2.98 13.2-52.6 87.53-74.02Z"/><path fill="url(#g)" d="M196.05 312.08c-.3 2.36-.83 4.68-1.6 6.93-3.94 12.32-17.32 37.54-61.67 45.77.66-2.86 12.3-48.21 63.27-52.7Z"/><path fill="#980034" fill-opacity=".3" d="M196.06 312.08c-.3 2.36-.84 4.68-1.6 6.93-45.86 1.63-60.74 43.05-61.62 45.65.6-2.75 12.24-48.09 63.22-52.58Z"/><path fill="#ffc591" d="M146.85 390.23s6.99-1.56 10.4 3.32c0 0-7.54.7-10.4-3.32Zm25.49-95.83s4.4 5.63 1.44 10.78c.03 0-3.85-6.5-1.44-10.79Zm30.28 50.31s4.1 6.57.36 11.78c0 0-3.4-7.41-.36-11.78Zm-25.97 36.76s4.1 6.56.36 11.78c0 0-3.43-7.39-.36-11.78Zm-34.49-69.03s7.56-1.56 11.14 3.77c0 0-8.13.63-11.15-3.77Z"/><path fill="url(#h)" d="M304.07 419.97s15.82-14.37 13.56-35.07c-2.26-20.7 23.1-22.38 23.1-22.38l3.02 3.34s-15.52-2.26-19.89 12.05c-4.37 14.31 8.62 30.34 8.05 40.5.09.06-5.12 4.46-27.84 1.56Z"/><path fill="url(#i)" d="M270.87 453.63c-12.9 1.53-1.96-30.13-3.62-42.55-1.66-12.41-32.39-122.47-95.84-180.29 0 0 51.22 27.36 103.62 175.14 0 0-22-97.92-96.42-176.65 0 0-20.73-29.5-18.8-54.5 0 0 119.86 142.09 120.85 235.76 0 0 6.03-87.77-71.38-181.32 0 0 88.2 50.65 76.47 181.77 0 0 17.11 18.08 17.3 31.1.18 13.01-32.18 11.53-32.18 11.53Z"/><path fill="url(#j)" fill-rule="nonzero" d="M364.26 430.63a50.89 50.89 0 1 0-100.6-15.36 50.89 50.89 0 0 0 100.6 15.36Z"/><path fill="#4f7506" d="M298.28 377.58s11.81 3.56 34.29 0c0 0-18.56-10.4-34.29 0Z"/><path fill="#4f7506" d="M319.05 355.95s-4.34 5.12-5.13 20.1h3.02a63.1 63.1 0 0 1 9.58-17.63s-4.13-4.07-7.47-2.47Z"/><path fill="#ffd384" fill-opacity=".5" d="M346.44 393.28c1.26 2.77.8 5.7-1.03 6.54-1.84.84-4.34-.7-5.63-3.47-1.3-2.77-.82-5.7 1.02-6.54 1.84-.84 4.34.7 5.63 3.47Z"/><path fill="url(#k)" fill-rule="nonzero" d="M599.6 405.23s52.27-1.64 79.64 16.1c0 0-77.83 5.01-83.03 6.18-5.2 1.17 3.4-22.28 3.4-22.28Z"/><path fill="url(#l)" fill-rule="nonzero" d="m88.53 394.45 61.2 283.97s38.93 17.1 59.6 21.95c0 0 245.82-6.09 354.1-29.37l31.11-265.81s-221.75 32.4-429.34 18.14c0 0-61.89-15.7-76.67-28.88Z"/><g fill-rule="nonzero"><path fill="#f91155" d="M587.5 408s-139.04 20.3-207.96 23.6c-70.18 3.35-214.35-6.62-214.35-6.62l6.31 277.85 423.04-12.49L587.5 408Z"/><path fill="#fff" d="M211.46 609.14a45.8 45.8 0 0 0-19.2 6.48 46.14 46.14 0 0 0-14.57 14.15 46.47 46.47 0 0 0-5.44 39.36c6.45 20.78 27.03 34.4 48.55 32.1a46.12 46.12 0 0 0 33.77-20.63 46.47 46.47 0 0 0 5.43-39.37c-6.43-20.77-27.01-34.38-48.54-32.1Zm12.72 69.36a24.52 24.52 0 0 1-27.42-8.15 24.76 24.76 0 0 1 10.55-38.2 24.5 24.5 0 0 1 27.67 7.23 24.78 24.78 0 0 1-10.78 39.12h-.02Zm52.06-80.96a10.76 10.76 0 0 0-8.56 10.22c-.05 1.6.25 3.2.89 4.67 2.02 4.8 7.36 7.22 12.41 6.17l29.34-6.12-33.2 70.1a3.1 3.1 0 0 0 1.7 4.22 3 3 0 0 0 1.68.12l71.63-14.9c5.05-1.04 9-5.42 8.96-10.6a10.87 10.87 0 0 0-3.94-8.4 10.75 10.75 0 0 0-8.98-2.22l-35.75 7.43 33.19-70.05a3.12 3.12 0 0 0-3.42-4.38l-65.95 13.74Zm286.26-59.28c-4.67 2.05-7.08 7.31-6.05 12.33l7.23 35.21-66.22-33.59a3.06 3.06 0 0 0-4.29 1.7c-.2.54-.24 1.14-.12 1.7l14.94 72.71c1.03 5.02 5.31 8.88 10.4 8.9a10.7 10.7 0 0 0 8.43-3.92 10.82 10.82 0 0 0 2.25-9.07l-7.3-35.51 66.22 33.59a3.07 3.07 0 0 0 4.29-1.7c.2-.54.24-1.14.13-1.71l-14.98-72.97a10.86 10.86 0 0 0-5.64-7.44 10.76 10.76 0 0 0-9.3-.23Zm-144.26 49.69c24.06-5 44.68 4 47.02 15.42 2.34 11.4-13.01 27.9-37.08 32.9-24.06 5-44.68-4.01-47.02-15.42-2.34-11.4 13.01-27.9 37.07-32.9Zm-4.35-21.15c-34.83 7.23-58.9 33.4-53.75 58.43 5.14 25.03 37.55 39.43 72.38 32.2 34.83-7.25 58.9-33.4 53.75-58.43-5.15-25.05-37.55-39.45-72.38-32.2Z"/><path fill="url(#m)" d="M474.85 582.67c43.33-1.27 77.42-37.64 76.15-81.22-1.27-43.59-37.42-77.88-80.75-76.6-43.33 1.27-77.42 37.64-76.14 81.22 1.27 43.59 37.42 77.88 80.74 76.6Z"/><path fill="url(#n)" d="M476.18 581.52c43.32-1.28 77.42-37.65 76.14-81.24-1.27-43.58-37.42-77.87-80.74-76.6-43.33 1.28-77.42 37.65-76.15 81.24 1.27 43.58 37.43 77.87 80.75 76.6Z"/><path fill="url(#o)" d="M483.25 584.64c48.54-1.44 86.73-42.17 85.3-91-1.42-48.82-41.54-78.65-90.07-77.22-48.54 1.43-87.1 33.59-85.67 82.4 1.42 48.83 41.92 87.25 90.44 85.82Z"/><path fill="#fff" d="M422.56 553.87c.52 2.53-1.24 3.87-3.45 4.33l-5.24 1.09-2.53-12.3 5.07-1.06c2.15-.47 3.96.13 4.4 2.27a2.67 2.67 0 0 1-1.38 3.13v.04c1.44-.06 2.71.46 3.13 2.5Zm-8-4.97.5 2.4 2.02-.4c.82-.18 1.29-.75 1.13-1.53-.16-.77-.84-1.06-1.6-.9l-2.05.43Zm5.11 5.2c-.18-.9-.93-1.18-2.03-.96l-2.12.43.56 2.68 2.13-.45c1.02-.21 1.67-.8 1.46-1.7Zm3.13-3.1c-.8-3.91 1.53-7 5.4-7.8a7.53 7.53 0 0 1 4.67.45l-.98 2.7a5.26 5.26 0 0 0-3.11-.35c-2.13.47-3.44 2.15-2.98 4.38.46 2.24 2.33 3.28 4.46 2.84 1.04-.23 2-.78 2.72-1.56l1.96 2.09a7.54 7.54 0 0 1-4.1 2.27c-3.87.81-7.23-1.07-8.04-5.02Zm20.77-.48.5 2.48-7.64 1.6-2.54-12.3 7.59-1.58.5 2.48-4.85 1 .41 2.01 4.39-.9.51 2.47-4.39.91.6 2.87 4.92-1.03Zm7.57-9.16-4.75.99 2 9.75-2.7.57-2.54-12.3 7.47-1.56.52 2.55Zm13.07 5.07.98 4.75-2.53.53-.47-2.2-7.18 1.49.46 2.2-2.53.52-.98-4.75 1.44-.3c.27-1.72.2-3.49-.22-5.2l-1.02-4.98 8.5-1.77 2.07 10.03 1.48-.32Zm-8.07 1.68 3.9-.81-1.53-7.47-3.1.64.5 2.46c.42 1.7.5 3.46.23 5.18Zm16.76-3.71-4.72.98-.32 2.68-3.04.63 2.3-13.3 2.86-.6 7.35 11.3-3.02.63-1.4-2.32Zm-1.33-2.25-2.42-4.02-.61 4.65 3.03-.63Zm19.3-3c.59 2.87-1.15 4.36-3.35 4.82l-5.05 1.05-2.52-12.3 2.7-.57 5.9-1.22.53 2.55-5.9 1.22.37 1.83 2.35-.47c2.2-.48 4.37.2 4.97 3.09Zm-2.8.59c-.2-1.04-1-1.37-2.03-1.16l-1.96.41.62 3 1.95-.4c1-.22 1.61-.83 1.4-1.87l.03.02Zm13.52-2.82c.59 2.86-1.15 4.36-3.35 4.82l-5.05 1.05-2.53-12.3 2.71-.57.9 4.38 2.34-.47c2.2-.49 4.39.2 4.98 3.09Zm-2.8.58c-.21-1.04-1-1.36-2.04-1.15l-1.95.4.62 3.01 1.95-.4c1.01-.21 1.62-.84 1.4-1.86h.03Zm5.03-9.75 2.53 12.3-2.7.57-2.53-12.3 2.7-.57Zm2.67 5.85c-.8-3.91 1.53-7 5.4-7.83a7.53 7.53 0 0 1 4.66.46l-.97 2.7a5.21 5.21 0 0 0-3.12-.34c-2.13.44-3.44 2.14-2.98 4.38.46 2.23 2.33 3.27 4.47 2.83a5.31 5.31 0 0 0 2.72-1.56l1.95 2.08a7.54 7.54 0 0 1-4.1 2.29c-3.87.82-7.24-1.07-8.03-5Zm19.93-7.97-3.21.67 2.02 9.83-2.72.55-2.01-9.83-3.24.68-.5-2.48 9.15-1.88.51 2.45Zm10.35-.63c.48 2.41-.56 4.46-3.65 5.08l-1.67.35.87 4.22-2.7.56-2.54-12.3 4.37-.91c3.08-.65 4.87.78 5.32 3Zm-2.87.65c-.22-1.07-1.05-1.36-2.16-1.15l-1.44.3.65 3.15 1.43-.3c1.12-.2 1.74-.9 1.52-2Zm16.84-1.25c.8 3.86-1.5 7-5.13 7.77a6.33 6.33 0 0 1-7.77-5.08c-.8-3.85 1.49-7 5.13-7.76 3.63-.75 6.98 1.23 7.77 5.08Zm-9.9 2.07c.46 2.21 2.23 3.3 4.2 2.88 1.96-.4 3.17-2.1 2.71-4.32-.45-2.2-2.24-3.3-4.2-2.88-1.95.4-3.17 2.1-2.72 4.3v.02Zm-129.25-1.92 1.22 5.93-18.34 3.82-6.05-29.48 18.12-3.77 1.22 5.94-11.64 2.42.99 4.82 10.46-2.18 1.23 5.94-10.47 2.17 1.4 6.87 11.86-2.48Zm24.41 1.1-8.9-8.86-4.67 11.69-8.29 1.72 7.7-17.8-12.75-11.88 8.24-1.72 7.62 7.5 4.02-9.92 8.25-1.71-7 15.98 14.08 13.28-8.3 1.72Zm27.2-26.56c1.2 5.77-1.35 10.64-8.75 12.19l-4 .82 2.08 10.1-6.49 1.35-6.05-29.47 10.46-2.18c7.44-1.54 11.68 1.88 12.75 7.19Zm-6.87 1.56c-.53-2.57-2.5-3.26-5.19-2.67l-3.43.7 1.55 7.55 3.43-.72c2.7-.58 4.19-2.25 3.65-4.84l-.01-.02Zm19.31 5.1-1.3.28 2.3 11.15-6.5 1.35-6.05-29.48 11.72-2.43c6.57-1.37 10.8 2 11.85 7.15.89 4.3-.71 8.18-5.02 10.18l10.72 9.75-8.12 1.69-9.6-9.64Zm-2.42-5.2 4.26-.9c2.6-.53 3.86-1.85 3.35-4.29-.46-2.19-2.17-3.16-4.76-2.6l-4.27.89 1.42 6.9Zm39.87 2.89 1.22 5.93-18.34 3.82-6.06-29.48 18.13-3.77 1.22 5.94-11.63 2.42.98 4.82 10.47-2.18 1.22 5.94-10.47 2.17 1.4 6.87 11.86-2.48Zm17.99-26.71-1.53 6.33c-2.94-.72-5.07-.88-7-.48-2.05.43-2.53 1.3-2.34 2.29.18.88.84 1.36 2.73 2.02l5.48 2.06c3.96 1.42 6.5 3.35 7.35 7.46 1.16 5.69-2.06 9.56-8.88 10.98-3.83.82-7.82.58-11.53-.68l1.73-6.46c3.16 1.15 6.12 1.54 8.8.98 2.34-.47 3.43-1.55 3.12-3.1-.28-1.35-1.58-1.92-3.41-2.59l-5.06-1.89c-4.28-1.49-6.45-3.97-7.13-7.3-.99-4.81 1.51-8.52 7.71-9.81a24.4 24.4 0 0 1 9.96.18Zm22.78-4.74-1.54 6.33c-2.93-.72-5.06-.87-7-.47-2.04.42-2.52 1.28-2.33 2.28.18.88.84 1.36 2.73 2.02l5.48 2.07c3.96 1.41 6.5 3.34 7.35 7.45 1.16 5.69-2.06 9.56-8.88 10.98-3.84.82-7.82.58-11.53-.67l1.73-6.46c3.15 1.14 6.12 1.53 8.8.98 2.34-.48 3.43-1.55 3.12-3.11-.28-1.35-1.58-1.92-3.42-2.58l-5.05-1.87c-4.28-1.5-6.45-3.98-7.13-7.3-.99-4.82 1.51-8.53 7.71-9.82a24.4 24.4 0 0 1 9.96.17Z"/></g><path fill="url(#p)" fill-rule="nonzero" d="M165.2 423.32s52.07 48.1 67.63 106.8l330.57-5.89 27.15-31.66-425.36-69.25Z"/><path fill="url(#q)" fill-rule="nonzero" d="m88.53 394.45 61.2 283.97s38.93 17.1 59.6 21.95c-25.66-102.84-44.13-277.04-44.13-277.04s-61.89-15.7-76.67-28.88Z"/><path fill="url(#r)" fill-rule="nonzero" d="M165.2 423.32s-31.57 40.89-49.86 94.45l-11.34-51 61.2-43.45Z"/><path fill="url(#s)" fill-rule="nonzero" d="M165.2 423.3s-53.77 38.38-76.62 82.46c0 0-72.76-34.29-88.58-63.66 0 0 38.54-48 88.58-47.64-.06-.03 34.05 16.82 76.61 28.84Z"/><path fill="url(#t)" fill-rule="nonzero" d="M165.2 423.32s59.94 31.04 87.93 82.46c0 0 305.43 0 416.18-24.49 0 0-34.54-60.73-74.77-76.45-.09.04-249.63 32.75-429.35 18.48Z"/><path fill="url(#u)" fill-rule="nonzero" d="M625.85 760.5s-29.63-8.6-73.24-14.96c-43.6-6.37-155.36 14.27-235.41 22.2-43.76 4.33-84.45.86-115.71-5.4-25.94-5.18-45.38-12.27-54.72-18.38-20.6-13.48-32.5-48.35-4.77-65.8 27.74-17.44 39.64-3.16 65.8 19.03a90.5 90.5 0 0 0 10.62 7.62c30.95 19.3 89 36.3 129.67 32.8 45.97-3.97 136.35-19.03 183.91-16.66 47.56 2.37 65.8 10.72 65.8 10.72 26.68 6.72 28.05 28.82 28.05 28.82Z"/><path fill="url(#v)" fill-rule="nonzero" d="M960.05 727.15a53.78 53.78 0 0 1-1.85 12.1l-.21.68c-.24.8-.53 1.59-.86 2.35 0 0-13.6.81-16.36 0 0 0 .34 2.76-3.4 4.53-3.74 1.77-38.56 1.47-62.2 1.47-23.66 0-82.38-5.27-105.33-13.61-1.26-.46-2.47-1-3.64-1.65-21.78-11.77-42.48-57.27-9.81-102.86 0 0 35.48-42.28 92.84-51.05 22.71-3.46 39.17-.43 50.73 5.33 17.66 8.81 23.92 24.07 23.63 32.61-.16 4.68-1.67 12.65-4.24 21.88-5.11 18.47-14.44 41.94-25.44 53.94-4.69 5.1-9.28 9.61-13.48 13.46-10.58 9.72-18.56 15.21-18.56 15.21s20.1.38 38.8-.65c11.1-.6 21.7-1.72 27.3-3.72 15.07-5.32 32.58 0 32.08 9.98Z"/><path fill="url(#w)" fill-rule="nonzero" d="M958.2 739.25a23.04 23.04 0 0 1-1.06 3.05s-13.61.81-16.36 0c0 0 .33 2.76-3.4 4.53-3.74 1.77-38.56 1.47-62.2 1.47-23.66 0-82.38-5.27-105.33-13.61a26 26 0 0 1-3.65-1.65c-4.5-8.15-3.99-18.87 6.77-34.6 18.07-26.39 53.96-95.2 107.35-110.16 6.43-1.83 13-3.1 19.65-3.8 17.66 8.8 23.92 24.06 23.63 32.6-.16 4.69-1.67 12.66-4.24 21.88 0 0-7.76-3.93-23.26 20.74-15.5 24.68-27.88 48.55-15.67 46.67-10.58 9.7-18.55 15.2-18.55 15.2s20.1.4 38.8-.65c-.46.19-9.63 3.87-5.15 11.16 4.6 7.46 22.97 13.48 33.3 11.2 10.35-2.3 11.01-.68 10.82-7.67-.2-6.99.57-8.5 1.91-2.68 1.34 5.84 13.84 10.04 16.64 6.32Z"/><path fill="url(#x)" fill-rule="nonzero" d="M954 536.75v.03c-6.19 23.49-16.66 49.51-33.54 77.19 0 0-36.19 52.6-41.23 63.3-5.04 10.72-14.87 42.8-14.59 49.94 0 0 6.54 0 11.31 3.56 3.56 2.67 1.95 14.2.29 21.3a37.42 37.42 0 0 1-1.48 5.14c-1.5 3.56-20.52 3.56-25.87 3-5.34-.55-19.54.05-29.09-2.66-9.55-2.7-15.42-56.8 0-114.46 4.43-16.61 16.35-43.94 31.32-74 37.05-74.28 92.83-165.13 101-151.72 0 0 4.65 10.79 7.53 29.73 3.2 21.03 4.23 52.1-5.66 89.65Z"/><path fill="url(#y)" fill-rule="nonzero" d="M953.98 536.75v.03s-39.71 81-67.87 103.4c-28.15 22.39-58.4 76.92-53.34 100.45 4.35 20.17 33.53 13.73 43.47 11.44a37.43 37.43 0 0 1-1.48 5.15c-1.5 3.56-20.52 3.56-25.87 3-5.34-.56-19.54.05-29.09-2.66-9.55-2.7-15.42-56.8 0-114.47 4.43-16.6 16.35-43.94 31.32-74 26.27-46 59.88-99.68 74.53-107.64 12.2-6.63 23.95-12.96 34-14.35 3.2 21.03 4.22 52.1-5.67 89.65Z"/><path fill="url(#z)" fill-rule="nonzero" d="M929.14 565.6c-23.94 40.68-50.29 60.1-70.64 74.08-13.39 9.2-24.18 16.05-30.03 25-29.69 45.54-38.71 77.6-43.46 95.82-2.21 8.48-21.07 12.78-46.2 13.73-28.92 1.08-66.15-2.3-95.83-8.87-55.48-12.28-49.95-38.83-49.95-38.83 11.1-85.61 75.32-146.66 123.46-206.1 48.15-59.46 51.01-148.92 51.01-148.92 7.22-123.55 122.8-28.65 139.43-19.92 16.64 8.73 61.85 146.65 22.21 214Z"/><path fill="url(#A)" fill-rule="nonzero" d="M858.5 639.69c-13.4 9.2-24.18 16.04-30.04 25-29.68 45.53-38.7 77.58-43.45 95.81-2.21 8.48-21.07 12.78-46.2 13.73a33.12 33.12 0 0 1-3.17-4.55C723 748.12 711.9 589.2 711.9 589.2s43.3-25.37 98.38-16.73c41.61 6.46 51.21 40 48.2 67.22Z"/><path fill="url(#B)" fill-rule="nonzero" d="M947.18 434.21c1.6 6.74 2.72 17.83 3.33 30.47.63 13.19.71 28 .16 41.13-.54 13.13-1.67 24.6-3.5 31a171.44 171.44 0 0 1-13.3 33.17s5.37 10.12-6.53 5.35a13.64 13.64 0 0 1-3.14-1.82c-11.47-8.46-25.38-36.7-25.38-36.7s1.38 25.25-6.55 8.59c-2.78-5.85-3.62-16.91-3.5-28.82.1-11.9 1.1-24.64 2.02-33.82.77-7.81 1.48-13.05 1.48-13.05 2.52-26.41 19.91-82.69 30.16-91.9 1.65-1.49 3.12-1.72 4.32-.43 8.55 9.3 25.57 52.52 25.36 55.49-.21 2.96-4.93 1.34-4.93 1.34Z"/><path fill="url(#C)" fill-rule="nonzero" d="M768.85 17.71s-24 36.13-20.7 73.25a532.2 532.2 0 0 0 6.17 44.82c4.57 25.12 10.55 47.5 15.7 52.64 4.95 4.85 45.39-18.1 77.3-37.51a1592.7 1592.7 0 0 0 39.53-24.67s-24.63-72.2-111.6-121.98c0 0-4.83-3.23-6.57-2.9-1.28.29-.83 2.67 4.8 10.11 0 0-9.92-4.16-12.63-.43-2.7 3.74 8 6.67 8 6.67Z"/><path fill="url(#D)" fill-rule="nonzero" d="M845.08 142.62s-9.48-34.36-38.82-51.31c-29.34-16.95 15.52 37.84 15.52 37.84s-13.56-13.88-24.14-15.69c-10.59-1.8 21.8 29.1 21.8 29.1s-26.37-18.77-32.62-15.53c-6.24 3.24 1 10.6 35.83 33.03s23.95-11.46 22.43-17.44Z"/><path fill="url(#E)" fill-rule="nonzero" d="M807.59 122.93c-10.42 26.75-32.49 24.74-53.27 12.87 4.58 25.12 10.55 47.5 15.7 52.63 4.95 4.86 45.4-18.1 77.31-37.5 6.8-4.1 13.16-8.03 18.77-11.52a40.68 40.68 0 0 0-.57-3.7c-9.91-49.45-57.49-113.79-93.87-132.06 1.76 1.9 57.74 63.26 35.93 119.28Z"/><path fill="url(#F)" fill-rule="nonzero" d="M768.7 1.37c41.7 30.81 61.34 70.47 70.56 101.97 6.2 21.03 7.72 38.44 8.05 47.13a3 3 0 0 1 .03.43l.51-.32c21.51-13.04 39-24.35 39-24.35s-3.97-11.73-14.44-28.96v-.03c-15.55-25.55-45.22-63.26-97.16-92.98 0 0-4.82-3.25-6.56-2.9Z"/><path fill="url(#G)" fill-rule="nonzero" d="M1133.06 183.4c-1.6 4.45-7.46.17-7.46.17s-16.33 41.97-43.08 68.04c-26.75 26.08-66.5 59.29-75.08 60.43-5.12.68-3.78-41.3-1.85-75.4 1.29-23.2 2.87-42.72 2.87-42.72s58.62-39.67 124.1-24.4c0 0 3.99.47 4.36 1.8.28 1-1.53 2.53-8.68 4.72 0 0 6.43 2.88 4.82 7.36Z"/><path fill="url(#H)" fill-rule="nonzero" d="M1033.86 221.64s25.36-20.67 47.67-15.75c22.3 4.9-29.95 19.65-29.95 19.65s14.1-2.4 19.45 2.7c5.34 5.1-26.94 9.06-26.94 9.06s22.26 1.68 22.71 8c.45 6.33-7.05 7.57-34.99 3.52-27.93-4.05-2.3-23.5 2.05-27.18Z"/><path fill="url(#I)" fill-rule="nonzero" d="M1136.92 171.33s-76.9 27.22-104.94 71.18c-28.04 43.97-12.84-31.38 11.97-48.94 24.8-17.55 68.02-27.69 92.97-22.24Z"/><path fill="url(#J)" fill-rule="nonzero" d="M1008.44 193.93s-.32 3.9-.8 10.3c-.56 7.9-1.36 19.58-2.08 32.41a266.32 266.32 0 0 1 21.39-19.9 265.1 265.1 0 0 1 16.9-13.04c24.8-17.6 58.1-34.38 93.07-32.37-.39-1.35-4.35-1.8-4.35-1.8-25.88-6.01-50.67-3.5-71.2 1.8h-.02a.07.07 0 0 0-.04-.02c-.01 0-.02 0-.03.02-31.44 8.11-52.84 22.6-52.84 22.6Z"/><path fill="url(#K)" fill-rule="nonzero" d="M1008.45 193.93s-.32 3.9-.8 10.3a16.97 16.97 0 0 0 6.66 9.57c3.28 2.33 7.9 3.14 12.64 2.93 5.02-4.2 10.72-8.66 16.9-13.04-10.56-7.52 16.56-31.53 17.5-32.36h-.07c-31.43 8.11-52.83 22.6-52.83 22.6Z"/><path fill="url(#L)" fill-rule="nonzero" d="M723 233.8c-.99 1.56-1.55 4.05-1.71 8.4-.63 18.4 3.78 49.87 26.82 89.38 23.04 39.5 98.24 88.9 165.12 95.85 66.87 6.94 108.46-22.66 104.48-29.96-3.98-7.3 3.79-22.39 3.79-22.39 39.04-67.6 36.08-116.27 25.92-153.68-6.58-24.21-21.6-42.68-31.4-52.74h-.02a98.33 98.33 0 0 0-9.12-8.49s7.42 2.68 5.96-5.2a7.76 7.76 0 0 0-2.3-3.94c-4.9-5-15.87-8.15-17.7-8.64l-.06-.02c2.74.27 29.18 2.62 12.5-6.99-17.58-10.1-44.95-11.79-44.95-11.79-59.33-25.9-95.75-7.86-95.75-7.86-86.79 33.39-109.83 75.51-122 99.2-9.28 18.12-16.43 13.76-19.58 18.86Z"/><path fill="url(#M)" fill-rule="nonzero" d="M723 233.8c-.99 1.56-1.55 4.05-1.71 8.4-.63 18.4 3.78 49.87 26.82 89.38 23.04 39.5 98.24 88.9 165.12 95.85 66.87 6.94 108.46-22.66 104.48-29.96-7.13-2.4-9.7-4.44-10.36-5.03 1.55 1.68 12.55 14.21-21.24 1.1-36.11-14-21.63-39.08-21.63-39.08 7.92-24.52-3-30.24-3-30.24-24.07-3.83-29.78-13.73-29.78-13.73-25-9.87-32.48 6.89-32.48 6.89-87.66 12.5-152.94-55.72-165.06-65.01-12.12-9.29-.73-10.02-.73-10.02L723 233.8Z"/><path fill="#810000" fill-rule="nonzero" d="M938.26 339s-.81 9.43 2.28 14.26 6.84 5.35 6.84 5.35-1.76 10.79-12.57 10.89c-10.8.1-23.3-11.64-17.26-22.11 0 0 11.81.1 17.26-6.52 5.46-6.6 3.45-1.88 3.45-1.88Z"/><path fill="url(#N)" fill-rule="nonzero" d="M915.6 352.51s18.45 14.13 17.79 30.9c-.66 16.76 13.9-6.36 7.8-16.21-6.1-9.85-19.55-19.34-21.93-19.34 0 0-1.51-.14-2.39.85a25.3 25.3 0 0 0-1.27 3.8Z"/><path fill="url(#O)" fill-rule="nonzero" d="M921.67 349.12s16.4 20.2 12.83 30.89c-3.57 10.7-4.16 14.59-11.3 17.54-7.13 2.95-2.37 4.99 11.8-1.35 14.18-6.34 14.95-23.03 14.65-28.08-.3-5.05-6-10.02-6-10.02s-4.14-4.29-8.83-4.68c0 0-3.68-5.71-9.73-6-6.04-.3-3.42 1.7-3.42 1.7Z"/><path fill="#615f80" fill-rule="nonzero" d="M912.43 343.8c3.63 2.4 8.4 2.75 12.67 1.91 4.15-.82 7.93-3.86 10.86-7.67a48.5 48.5 0 0 0 2.95-4.36c1.13-3 2.6-5.85 4.36-8.52a43.1 43.1 0 0 1-3 9.12 47.4 47.4 0 0 0-1.03 5.15c-.64 4.66-.19 9.24 1.97 12.37 2.12 3.06 5.19 5.45 8.67 5.78 3.4.31 7.34-1.3 10.35-4.58-2.42 3.96-6.7 6.7-10.78 6.74a11.1 11.1 0 0 1-5.8-1.6 16.33 16.33 0 0 1-4.57-4.35c-2.52-3.68-2.93-9.01-1.96-13.86-2.8 4.14-7.02 7.72-11.82 8.8-2.45.5-4.97.56-7.45.2a15.45 15.45 0 0 1-6.92-3c-4.18-3.28-6.18-9.23-5.02-14.74.11 5.45 2.81 10.13 6.52 12.6Z"/><path fill="url(#P)" fill-rule="nonzero" d="M902.56 281.88a.83.83 0 0 0-.05.2c-7.92 6.55-20.16 11-33.16 12.16-17.99 1.6-37.4-3.19-48.67-17.55-19.42-24.78-10.4-50.31-1.5-66.84 1-1.8 2.27-3.43 3.73-4.86 13.88-14.03 51.46-22.74 70.02 5.58a71.16 71.16 0 0 1 6.55 12.57 79.5 79.5 0 0 1 3.26 10.15 98.27 98.27 0 0 1 2.73 25.74 103.97 103.97 0 0 1-2.91 22.85Z"/><path fill="#000014" fill-rule="nonzero" d="M902.56 281.88a.64.64 0 0 0-.05.2c-7.92 6.55-20.16 11-33.16 12.16-14.07-6.12-22.3-23.8-18.82-42.56a44.95 44.95 0 0 1 5.42-14.75c7.4-12.77 20.4-20.25 33.5-17.84a27.3 27.3 0 0 1 10.03 4.04c1.32 3.3 2.4 6.7 3.27 10.14a98.23 98.23 0 0 1 2.72 25.74 103.62 103.62 0 0 1-2.91 22.87Z"/><path fill="url(#Q)" fill-rule="nonzero" d="M905.46 259c-3.7.43-8.21-1.72-11.82-6.08-5.32-6.41-6.64-15.14-2.95-19.5 2.77-3.28 7.58-3.15 12.05-.15a98.35 98.35 0 0 1 2.72 25.73Z"/><path fill="url(#R)" fill-rule="nonzero" d="M1029.9 323.7c-.36 1.67-.87 3.3-1.52 4.87a112.8 112.8 0 0 1-2.9 6.33 92.72 92.72 0 0 1-5.98 10.54c-5.92 9-13.85 16.9-24.34 19.05l-1.87.3c-18.07 2.4-27.97-25.02-24.97-44.76a.83.83 0 0 0 .1-.13c1.4-2.25 18.6-28.8 39.62-33.97 15.88-3.93 22.66 12.75 22.83 27.68a45 45 0 0 1-.97 10.1Z"/><path fill="#000014" fill-rule="nonzero" d="M1029.9 323.7c-.36 1.67-.87 3.3-1.52 4.87-.85 2.04-1.83 4.17-2.9 6.33a91.94 91.94 0 0 1-5.98 10.53c-5.92 9.01-13.85 16.9-24.33 19.05a9.99 9.99 0 0 1-2.84-1.94c-7.15-7-5-24.68 4.83-39.47 9.82-14.8 23.62-21.14 30.77-14.16a12.4 12.4 0 0 1 2.95 4.68c.05 3.4-.28 6.8-.98 10.12Z"/><path fill="url(#S)" fill-rule="nonzero" d="M1015.1 323.96c4.6-3.72 6.48-9 4.22-11.78-2.25-2.79-7.8-2.03-12.4 1.7-4.6 3.72-6.48 9-4.22 11.78 2.25 2.78 7.8 2.02 12.4-1.7Z"/><path fill="url(#T)" fill-rule="nonzero" d="M970.8 319.45s29.6-39.28 50.05-22.2c20.44 17.07-60.07 34.86-50.05 22.2Z"/><path fill="url(#U)" fill-rule="nonzero" d="M930.82 312.7s-2.52 13.66 8.56 19.79c.6.32 5.08 1 7.3.24 2.2-.76 14.94-5.53 14.78-8.51-.15-2.99-15.01 2.16-30.64-11.51Z"/><path fill="url(#V)" fill-rule="nonzero" d="M960.65 325.37s-12.75 6.62-19.43 4.29c-4.3-1.51-10.63-12.19-10.4-16.93.24-4.75 5.48-2.81 8.9 1.94 3.44 4.75 11 6.1 14.28 5.44 3.27-.67 11.29 3.88 6.65 5.26Z"/><path fill="url(#W)" fill-rule="nonzero" d="M961.48 324.22s-1.23-3.17-5.95-3.6c-4.71-.42-3.71.7-9.62-.93-5.91-1.62 12.59 7.92 15.57 4.53Z"/><path fill="url(#X)" fill-rule="nonzero" d="M915.73 220.52c.73-.27 16.58-2.31 24.03 4.13 0 0 3.24 1.65-3.66 3.57-6.9 1.93-14.93 3.28-17.73 2.87-2.8-.4-6.6-9.1-2.64-10.57Z"/><path fill="url(#Y)" fill-rule="nonzero" d="M998.79 256.53s5.45 6.04 11.15 8.58c5.71 2.53-1.57 11.46-5.57 10.3-4-1.17-11.51-22.84-5.58-18.88Z"/><path fill="url(#Z)" fill-rule="nonzero" d="M1016.01 168.65a98.42 98.42 0 0 0-9.15-8.48c-6.56-2-12.93-4.6-19-7.78-9.52-5.05 15.7 13.2 28.15 16.26Z"/><path fill="url(#aa)" fill-rule="nonzero" d="M1010.54 151.04c-4.9-5-15.88-8.15-17.71-8.63l-.05-.03h-.15s-17.49-4.14-22.42-5.94c-4.94-1.8 23.68 11.24 40.33 14.6Z"/><path fill="url(#ab)" fill-rule="nonzero" d="M1016.27 171.55s22.55 20.17 32.3 61.35c9.76 41.19-61.67-45.23-66.46-61.15-4.78-15.93 15.6-15.4 34.16-.2Z"/><path fill="url(#ac)" fill-rule="nonzero" d="M883.96 760.5c-.14 2.77-.4 5.22-.71 7.38-1.06 7.35-2.85 11.13-2.85 11.13s-16.64 1-20 0c0 0 .38 3.38-4.18 5.58-4.06 1.93-38.33 1.83-66.21 1.8h-9.88c-28.94 0-100.73-6.43-128.82-16.65-28.1-10.22-58.64-68.97-16.45-127.82 0 0 43.41-51.72 113.56-62.42 66.07-10.08 88.9 24.67 90.84 43.15.12 1.07.16 2.15.13 3.22-.6 17.24-16.14 70.74-36.32 92.75-20.18 22-39.2 35.08-39.2 35.08s62.42 1.17 80.87-5.37c18.44-6.54 39.81-.02 39.22 12.17Z"/><path fill="url(#ad)" fill-rule="nonzero" d="M950.67 505.8a112 112 0 0 1-6.15 2.9c-12.87 5.63-26.45 8.73-39.04 7.48a78.8 78.8 0 0 0-16.73.38c-24.34 2.84-51.4 13.73-52.34 14.13 1.02-1.17 26.37-29.91 54.38-47.95 8.21-5.28 16.65-9.63 24.79-12.11 9.07-2.7 18.38-4.51 27.8-5.43 2.4-.24 4.78-.43 7.12-.55.64 13.2.74 28.01.17 41.14Z"/><path fill="url(#ae)" fill-rule="nonzero" d="M1172.88 397.54c.6 11.3-23.17 16.1-27.35 16.66 0 0-1.37-.4-2.57-4.95 0 0-1.56 3.17-8.9.8-7.35-2.36-24.58-11.7-34.69-26.17a24.32 24.32 0 0 1-15.64.21s-6.3 2.23-16.2 7.14v.03a250.6 250.6 0 0 0-28.8 16.73c-5.67 3.8-11.58 8.1-17.59 12.93-13.3 10.7-28.94 24.23-43.18 36.84 0 0-.03 0-.03.03 0 .04 0 0-.03 0a2595.9 2595.9 0 0 0-41.6 37.64s22.19-.8-9.1 5.95c0 0 13.88 14.67-19.82 3.15 0 0-40.43-1.16-70.95 26.17-30.52 27.34-61.1-45.15-60.66-70.9.43-25.77 5.64-59.86 19.4-53.92 0 0 51.14 29.72 118.13 0 50-22.18 93.84-42.4 125.2-54.66 0 0 .04 0 .06-.05.06 0 .12-.01.17-.03 10.55-4.16 19.68-7.36 27.16-9.48 0 0 46.36-4.17 66.58 6.55 20.21 10.7 39.81 38.06 40.41 49.33Z"/><path fill="url(#af)" fill-rule="nonzero" d="M934.8 353.43s5.23 9.86 4.95 25c0 0 2.2-10.47-2.47-24.45-.8-.29-1.63-.47-2.47-.55Z"/><path fill="url(#ag)" fill-rule="nonzero" d="M1172.89 397.54c.13 2.38-.82 4.48-2.45 6.3-6.08 6.83-21.6 9.9-24.9 10.35 0 0-1.37-.4-2.57-4.94 0 0-1.57 3.17-8.91.8-7.35-2.37-24.57-11.7-34.68-26.17a24.33 24.33 0 0 1-15.65.2s-6.29 2.24-16.2 7.15c2.81-4.58-5.82-1.89-6.43-1.7.62-.6 9.6-9.44 7.67-13.35-1.93-3.91-10.15-1.4-10.73-1.22.34-.32 4.14-3.82.84-5.03-3.3-1.2-9.37.86-9.97 1.05 3.18-2.27 6-6.6 4.52-8.18-1.38-1.5-5.57-.2-6.17-.03.58-.53 5.7-5.43 4.28-7-1.44-1.59-5.13-.2-5.58-.04.56-.4 5.78-4.22 3.83-5.51-1.87-1.26-9.55.58-11.01.93 10.55-4.15 19.68-7.36 27.15-9.47 0 0 46.37-4.17 66.59 6.54 20.21 10.72 39.77 38.05 40.37 49.32Z"/><path fill="url(#ah)" fill-rule="nonzero" d="M201.49 762.34c-25.94-5.18-45.38-12.27-54.72-18.38-20.6-13.48-32.5-48.35-4.77-65.8 27.74-17.44 39.64-3.16 65.8 19.03a90.5 90.5 0 0 0 10.61 7.62s21.88 38.46-16.92 57.53Z"/><path fill="url(#ai)" fill-rule="nonzero" d="M1170.44 403.86c-6.09 6.83-21.6 9.9-24.9 10.35 0 0-1.37-.4-2.58-4.94 0 0-1.56 3.17-8.9.8-7.35-2.37-24.57-11.7-34.68-26.17.66.73 23.27 25.28 39.67 22.46 0 0 5.75-4.03 6.89-6.51 1.14-2.48.38 9.95.95 11.3.57 1.33 18.18-2.5 22.97-6.9.16-.18.36-.3.58-.4Z"/><path fill="url(#aj)" fill-rule="nonzero" d="M1099.35 383.86a24.32 24.32 0 0 1-15.64.21s-6.3 2.23-16.2 7.14v.03a250.43 250.43 0 0 0-28.8 16.73c16.15-19.8 45.04-28.59 45.04-28.59.76 1.35 1.68 1.45 1.68 1.45 6.17.56 6.32-10.05 7.6-5.17 1.23 4.72 6 8 6.32 8.2Z"/><path fill="url(#ak)" fill-rule="nonzero" d="M933.9 569.96s-7.65-8.24-8.22-16.86c-.58-8.61 11.67 9.95 11.67 9.95l-3.45 6.9Z"/><path fill="url(#al)" fill-rule="nonzero" d="M778.5 580.85s-49.37-6.12-101.42 29.86c-52.05 35.98 165.73-25.64 101.42-29.86Z"/><path fill="url(#am)" fill-rule="nonzero" d="M883.24 767.9c-1.06 7.35-2.85 11.13-2.85 11.13s-16.64 1-20 0c0 0 .38 3.38-4.18 5.57-4.06 1.94-38.33 1.84-66.21 1.81a327.98 327.98 0 0 1 33.48-1.92c19.72-.19 31.2-4.02 33.3-8.61 2.1-4.6 2.24-20.28 2.24-20.28s1.6 8.03 1.85 12.3c.25 4.27 4.33 6.54 4.33 6.54 14.32 1.75 17.86-6.09 18.04-6.54Z"/><defs><linearGradient id="a" x1="0" x2="1" y1="0" y2="0" gradientTransform="rotate(90 265.56 284.24) scale(712.486)" gradientUnits="userSpaceOnUse"><stop offset="0" stop-color="#90b4f4" stop-opacity=".5"/><stop offset="1" stop-color="#855ae4" stop-opacity=".5"/></linearGradient><linearGradient id="b" x1="0" x2="1" y1="0" y2="0" gradientTransform="rotate(-44.45 753.51 -529.72) scale(118.107)" gradientUnits="userSpaceOnUse"><stop offset="0" stop-color="#227537"/><stop offset=".05" stop-color="#227537"/><stop offset=".98" stop-color="#848d18"/><stop offset="1" stop-color="#848d18"/></linearGradient><linearGradient id="c" x1="0" x2="1" y1="0" y2="0" gradientTransform="rotate(-44.45 846.71 -307.72) scale(186.5)" gradientUnits="userSpaceOnUse"><stop offset="0" stop-color="#ff453b"/><stop offset=".05" stop-color="#ff453b"/><stop offset=".98" stop-color="#ff7d00"/><stop offset="1" stop-color="#ff7d00"/></linearGradient><linearGradient id="d" x1="0" x2="1" y1="0" y2="0" gradientTransform="rotate(-44.45 65432.9 47105.26) scale(8038.44)" gradientUnits="userSpaceOnUse"><stop offset="0" stop-color="#d36d79" stop-opacity=".5"/><stop offset="1" stop-color="#fff" stop-opacity=".5"/></linearGradient><linearGradient id="e" x1="0" x2="1" y1="0" y2="0" gradientTransform="rotate(-108.38 316.67 187.21) scale(276.045)" gradientUnits="userSpaceOnUse"><stop offset="0" stop-color="#d3564e"/><stop offset=".05" stop-color="#d3564e"/><stop offset=".98" stop-color="#ff9348"/><stop offset="1" stop-color="#ff9348"/></linearGradient><linearGradient id="f" x1="0" x2="1" y1="0" y2="0" gradientTransform="rotate(-108.38 252.46 140.82) scale(42.9049)" gradientUnits="userSpaceOnUse"><stop offset="0" stop-color="#ff9348"/><stop offset=".02" stop-color="#ff9348"/><stop offset=".95" stop-color="#ff864e"/><stop offset="1" stop-color="#ff864e"/></linearGradient><linearGradient id="g" x1="0" x2="1" y1="0" y2="0" gradientTransform="rotate(-98.48 7825.34 3003.27) scale(750.914)" gradientUnits="userSpaceOnUse"><stop offset="0" stop-color="#ff9348"/><stop offset=".02" stop-color="#ff9348"/><stop offset=".95" stop-color="#ff864e"/><stop offset="1" stop-color="#ff864e"/></linearGradient><linearGradient id="h" x1="0" x2="1" y1="0" y2="0" gradientTransform="rotate(-90 372.46 48.5) scale(58.4504)" gradientUnits="userSpaceOnUse"><stop offset="0" stop-color="#848d18"/><stop offset=".02" stop-color="#848d18"/><stop offset=".95" stop-color="#5b3607"/><stop offset="1" stop-color="#5b3607"/></linearGradient><linearGradient id="i" x1="0" x2="1" y1="0" y2="0" gradientTransform="rotate(-101.77 315.04 118.74) scale(298.0346)" gradientUnits="userSpaceOnUse"><stop offset="0" stop-color="#f1f0ce"/><stop offset=".02" stop-color="#f1f0ce"/><stop offset=".27" stop-color="#227537"/><stop offset=".98" stop-color="#848d18"/><stop offset="1" stop-color="#848d18"/></linearGradient><linearGradient id="j" x1="0" x2="1" y1="0" y2="0" gradientTransform="rotate(-90 393.88 79.92) scale(101.777)" gradientUnits="userSpaceOnUse"><stop offset="0" stop-color="#c50037"/><stop offset=".05" stop-color="#c50037"/><stop offset=".98" stop-color="#e62718"/><stop offset="1" stop-color="#e62718"/></linearGradient><linearGradient id="k" x1="0" x2="1" y1="0" y2="0" gradientTransform="rotate(23.93 -644.09 1543) scale(89.5312)" gradientUnits="userSpaceOnUse"><stop offset="0" stop-color="#d1b796"/><stop offset="1" stop-color="#ab8963"/></linearGradient><linearGradient id="l" x1="0" x2="1" y1="0" y2="0" gradientTransform="matrix(925 -77875 77875 925 1367550 586712)" gradientUnits="userSpaceOnUse"><stop offset="0" stop-color="#d1b796"/><stop offset="1" stop-color="#ab8963"/></linearGradient><linearGradient id="p" x1="0" x2="1" y1="0" y2="0" gradientTransform="matrix(-162.5 30210 -30210 -162.5 1144180 158211)" gradientUnits="userSpaceOnUse"><stop offset="0" stop-color="#000027" stop-opacity=".6"/><stop offset="1" stop-color="#fff"/></linearGradient><linearGradient id="q" x1="0" x2="1" y1="0" y2="0" gradientTransform="matrix(118395 -2679.17 2679.17 118395 282256 542929)" gradientUnits="userSpaceOnUse"><stop offset="0" stop-color="#cd0b44"/><stop offset="1" stop-color="#f91155"/></linearGradient><linearGradient id="r" x1="0" x2="1" y1="0" y2="0" gradientTransform="rotate(22.59 -319076.76 451401.3) scale(5551.51)" gradientUnits="userSpaceOnUse"><stop offset="0" stop-color="#000027" stop-opacity=".59"/><stop offset="1" stop-color="#fff"/></linearGradient><linearGradient id="s" x1="0" x2="1" y1="0" y2="0" gradientTransform="rotate(-56.03 379463.18 -279717.21) scale(11902.86)" gradientUnits="userSpaceOnUse"><stop offset="0" stop-color="#d1b796"/><stop offset="1" stop-color="#ab8963"/></linearGradient><linearGradient id="t" x1="0" x2="1" y1="0" y2="0" gradientTransform="rotate(-90.32 771314.77 -594246.35) scale(8322.2062)" gradientUnits="userSpaceOnUse"><stop offset="0" stop-color="#d1b796"/><stop offset="1" stop-color="#ab8963"/></linearGradient><linearGradient id="u" x1="0" x2="1" y1="0" y2="0" gradientTransform="translate(1706430 175410) scale(582992)" gradientUnits="userSpaceOnUse"><stop offset="0" stop-color="#4c526c"/><stop offset="1" stop-color="#262937"/></linearGradient><linearGradient id="v" x1="0" x2="1" y1="0" y2="0" gradientTransform="rotate(180 610740 139116.5) scale(90508.3)" gradientUnits="userSpaceOnUse"><stop offset="0" stop-color="#4c526c"/><stop offset="1" stop-color="#262937"/></linearGradient><linearGradient id="w" x1="0" x2="1" y1="0" y2="0" gradientTransform="rotate(38.33 135404.77 1415595.37) scale(136772.5)" gradientUnits="userSpaceOnUse"><stop offset="0" stop-color="#000027"/><stop offset="1" stop-color="#fff"/></linearGradient><linearGradient id="x" x1="0" x2="1" y1="0" y2="0" gradientTransform="rotate(-169.66 427458.08 223445.22) scale(26480.27)" gradientUnits="userSpaceOnUse"><stop offset="0" stop-color="#4c526c"/><stop offset="1" stop-color="#262937"/></linearGradient><linearGradient id="y" x1="0" x2="1" y1="0" y2="0" gradientTransform="rotate(17.84 -883267.77 2535595.59) scale(92103)" gradientUnits="userSpaceOnUse"><stop offset="0" stop-color="#000027"/><stop offset="1" stop-color="#fff"/></linearGradient><linearGradient id="z" x1="0" x2="1" y1="0" y2="0" gradientTransform="matrix(215883 -451488 451488 215883 1682660 883725)" gradientUnits="userSpaceOnUse"><stop offset="0" stop-color="#4c526c"/><stop offset="1" stop-color="#262937"/></linearGradient><linearGradient id="A" x1="0" x2="1" y1="0" y2="0" gradientTransform="matrix(142450 -92095 92095 142450 637304 435313)" gradientUnits="userSpaceOnUse"><stop offset="0" stop-color="#000027"/><stop offset="1" stop-color="#fff"/></linearGradient><linearGradient id="B" x1="0" x2="1" y1="0" y2="0" gradientTransform="rotate(-48.47 467525.37 -233515.28) scale(48950.8)" gradientUnits="userSpaceOnUse"><stop offset="0" stop-color="#b4b9cc"/><stop offset="1" stop-color="#6b6f7f"/></linearGradient><linearGradient id="C" x1="0" x2="1" y1="0" y2="0" gradientTransform="rotate(-20.77 48203.48 -809076.87) scale(37079.6)" gradientUnits="userSpaceOnUse"><stop offset="0" stop-color="#615f80"/><stop offset="1" stop-color="#44445c"/></linearGradient><linearGradient id="D" x1="0" x2="1" y1="0" y2="0" gradientTransform="rotate(60.91 124350.28 72691.02) scale(13144.85)" gradientUnits="userSpaceOnUse"><stop offset="0" stop-color="#b4b9cc"/><stop offset="1" stop-color="#6b6f7f"/></linearGradient><linearGradient id="E" x1="0" x2="1" y1="0" y2="0" gradientTransform="rotate(90 403.28 406.93) scale(185.447)" gradientUnits="userSpaceOnUse"><stop offset="0" stop-color="#333" stop-opacity=".46"/><stop offset=".57" stop-color="#868686" stop-opacity=".2"/><stop offset="1" stop-color="#c4c4c4" stop-opacity="0"/></linearGradient><linearGradient id="F" x1="0" x2="1" y1="0" y2="0" gradientTransform="rotate(59.8 186263.58 204524.71) scale(40580.3)" gradientUnits="userSpaceOnUse"><stop offset="0" stop-color="#4c526c"/><stop offset="1" stop-color="#262937"/></linearGradient><linearGradient id="G" x1="0" x2="1" y1="0" y2="0" gradientTransform="rotate(-108.38 291478.17 -155288.94) scale(28774.63)" gradientUnits="userSpaceOnUse"><stop offset="0" stop-color="#615f80"/><stop offset="1" stop-color="#44445c"/></linearGradient><linearGradient id="H" x1="0" x2="1" y1="0" y2="0" gradientTransform="rotate(156.87 158554.97 39480.82) scale(11024.79)" gradientUnits="userSpaceOnUse"><stop offset="0" stop-color="#b4b9cc"/><stop offset="1" stop-color="#6b6f7f"/></linearGradient><linearGradient id="I" x1="0" x2="1" y1="0" y2="0" gradientTransform="rotate(71.95 146622.81 215115.62) scale(34418.5)" gradientUnits="userSpaceOnUse"><stop offset="0" stop-color="#000027"/><stop offset="1" stop-color="#fff"/></linearGradient><linearGradient id="J" x1="0" x2="1" y1="0" y2="0" gradientTransform="rotate(146.96 167378.5 85032.7) scale(26644.8)" gradientUnits="userSpaceOnUse"><stop offset="0" stop-color="#4c526c"/><stop offset="1" stop-color="#262937"/></linearGradient><linearGradient id="K" x1="0" x2="1" y1="0" y2="0" gradientTransform="rotate(-23.43 87218.3 -302968.8) scale(20865.62)" gradientUnits="userSpaceOnUse"><stop offset="0" stop-color="#000027"/><stop offset="1" stop-color="#fff"/></linearGradient><linearGradient id="L" x1="0" x2="1" y1="0" y2="0" gradientTransform="matrix(-176725 253305 -253305 -176725 892800 -48793.3)" gradientUnits="userSpaceOnUse"><stop offset="0" stop-color="#4c526c"/><stop offset="1" stop-color="#262937"/></linearGradient><linearGradient id="M" x1="0" x2="1" y1="0" y2="0" gradientTransform="rotate(121.28 304513.76 259218.47) scale(71087.6)" gradientUnits="userSpaceOnUse"><stop offset="0" stop-color="#9fade2"/><stop offset="1" stop-color="#7881a6"/></linearGradient><linearGradient id="N" x1="0" x2="1" y1="0" y2="0" gradientTransform="rotate(-35.19 1051.31 -1256.22) scale(29.58)" gradientUnits="userSpaceOnUse"><stop offset="0" stop-color="#ff4f75"/><stop offset="1" stop-color="#c73975"/></linearGradient><linearGradient id="O" x1="0" x2="1" y1="0" y2="0" gradientTransform="matrix(422.917 -5262.5 5262.5 422.917 158619 53005)" gradientUnits="userSpaceOnUse"><stop offset="0" stop-color="#ff4f75"/><stop offset="1" stop-color="#c73975"/></linearGradient><linearGradient id="P" x1="0" x2="1" y1="0" y2="0" gradientTransform="rotate(77.66 189528.5 342671.22) scale(23028.98)" gradientUnits="userSpaceOnUse"><stop offset="0" stop-color="#c8f4a9"/><stop offset="1" stop-color="#aad475"/></linearGradient><linearGradient id="Q" x1="0" x2="1" y1="0" y2="0" gradientTransform="rotate(52.68 30738.42 95165.03) scale(2642.08)" gradientUnits="userSpaceOnUse"><stop offset="0" stop-color="#fff"/><stop offset="1"/></linearGradient><linearGradient id="R" x1="0" x2="1" y1="0" y2="0" gradientTransform="rotate(73.63 124361.31 260374.23) scale(12342.49)" gradientUnits="userSpaceOnUse"><stop offset="0" stop-color="#c8f4a9"/><stop offset="1" stop-color="#aad475"/></linearGradient><linearGradient id="S" x1="0" x2="1" y1="0" y2="0" gradientTransform="rotate(108.18 24351.54 39019.64) scale(1012.281)" gradientUnits="userSpaceOnUse"><stop offset="0" stop-color="#fff"/><stop offset="1"/></linearGradient><linearGradient id="T" x1="0" x2="1" y1="0" y2="0" gradientTransform="rotate(102.92 63106.78 100982.44) scale(7281.48)" gradientUnits="userSpaceOnUse"><stop offset="0" stop-color="#fff" stop-opacity=".48"/><stop offset="1" stop-opacity=".48"/></linearGradient><linearGradient id="U" x1="0" x2="1" y1="0" y2="0" gradientTransform="rotate(106.7 67897.58 78929.86) scale(2566.57)" gradientUnits="userSpaceOnUse"><stop offset="0" stop-color="#000027"/><stop offset="1" stop-color="#fff"/></linearGradient><linearGradient id="V" x1="0" x2="1" y1="0" y2="0" gradientTransform="rotate(119.42 32295.75 29614.97) scale(832.927)" gradientUnits="userSpaceOnUse"><stop offset="0" stop-color="#dd95bf"/><stop offset="1" stop-color="#bd75a9"/></linearGradient><linearGradient id="W" x1="0" x2="1" y1="0" y2="0" gradientTransform="rotate(112.93 13741.68 18599.17) scale(136.993)" gradientUnits="userSpaceOnUse"><stop offset="0" stop-color="#fff"/><stop offset="1"/></linearGradient><linearGradient id="X" x1="0" x2="1" y1="0" y2="0" gradientTransform="matrix(910 949.458 -949.458 910 81720.4 -27335.7)" gradientUnits="userSpaceOnUse"><stop offset="0" stop-color="#b4b9cc"/><stop offset="1" stop-color="#6b6f7f"/></linearGradient><linearGradient id="Y" x1="0" x2="1" y1="0" y2="0" gradientTransform="rotate(-160.12 20474.33 -20487) scale(2410.377)" gradientUnits="userSpaceOnUse"><stop offset="0" stop-color="#b4b9cc"/><stop offset="1" stop-color="#6b6f7f"/></linearGradient><linearGradient id="Z" x1="0" x2="1" y1="0" y2="0" gradientTransform="rotate(119.6 33253.06 26193.16) scale(948.119)" gradientUnits="userSpaceOnUse"><stop offset="0" stop-color="#000027"/><stop offset="1" stop-color="#fff"/></linearGradient><linearGradient id="aa" x1="0" x2="1" y1="0" y2="0" gradientTransform="rotate(116.85 38696.94 39956.83) scale(991.783)" gradientUnits="userSpaceOnUse"><stop offset="0" stop-color="#000027"/><stop offset="1" stop-color="#fff"/></linearGradient><linearGradient id="ab" x1="0" x2="1" y1="0" y2="0" gradientTransform="rotate(148.32 121734.76 6630.98) scale(44096.4)" gradientUnits="userSpaceOnUse"><stop offset="0" stop-color="#fff"/><stop offset="1"/></linearGradient><linearGradient id="ac" x1="0" x2="1" y1="0" y2="0" gradientTransform="matrix(36950 163273 -163273 36950 1277800 281456)" gradientUnits="userSpaceOnUse"><stop offset="0" stop-color="#4c526c"/><stop offset="1" stop-color="#262937"/></linearGradient><linearGradient id="ad" x1="0" x2="1" y1="0" y2="0" gradientTransform="rotate(81.81 259024.95 368761.12) scale(29738.8)" gradientUnits="userSpaceOnUse"><stop offset="0" stop-color="#000027"/><stop offset="1" stop-color="#fff"/></linearGradient><linearGradient id="ae" x1="0" x2="1" y1="0" y2="0" gradientTransform="matrix(-439013 -193135 193135 -439013 2292160 233961)" gradientUnits="userSpaceOnUse"><stop offset="0" stop-color="#4c526c"/><stop offset="1" stop-color="#262937"/></linearGradient><linearGradient id="af" x1="0" x2="1" y1="0" y2="0" gradientTransform="rotate(-2.5 560516.13 -670219.42) scale(167.07619)" gradientUnits="userSpaceOnUse"><stop offset="0" stop-color="#000027"/><stop offset="1" stop-color="#fff"/></linearGradient><linearGradient id="ag" x1="0" x2="1" y1="0" y2="0" gradientTransform="rotate(158.63 385102.22 108272.87) scale(41753.2)" gradientUnits="userSpaceOnUse"><stop offset="0" stop-color="#b4b9cc"/><stop offset="1" stop-color="#6b6f7f"/></linearGradient><linearGradient id="ah" x1="0" x2="1" y1="0" y2="0" gradientTransform="rotate(167.06 170346.23 100347.65) scale(24824.55)" gradientUnits="userSpaceOnUse"><stop offset="0" stop-color="#b4b9cc"/><stop offset="1" stop-color="#7982a6"/></linearGradient><linearGradient id="ai" x1="0" x2="1" y1="0" y2="0" gradientTransform="rotate(-82.95 223833.29 -212584.67) scale(5345.137)" gradientUnits="userSpaceOnUse"><stop offset="0" stop-color="#000027"/><stop offset="1" stop-color="#fff"/></linearGradient><linearGradient id="aj" x1="0" x2="1" y1="0" y2="0" gradientTransform="rotate(-97.33 188667.44 -131559.72) scale(6203.641)" gradientUnits="userSpaceOnUse"><stop offset="0" stop-color="#000027"/><stop offset="1" stop-color="#fff"/></linearGradient><linearGradient id="ak" x1="0" x2="1" y1="0" y2="0" gradientTransform="rotate(-36.5 73859.46 -80208.7) scale(1127.349)" gradientUnits="userSpaceOnUse"><stop offset="0" stop-color="#000027"/><stop offset="1" stop-color="#fff"/></linearGradient><linearGradient id="al" x1="0" x2="1" y1="0" y2="0" gradientTransform="rotate(90 74.63 655.1) scale(41.475)" gradientUnits="userSpaceOnUse"><stop offset="0" stop-color="#fff" stop-opacity=".2"/><stop offset="1" stop-color="#fff" stop-opacity="0"/></linearGradient><linearGradient id="am" x1="0" x2="1" y1="0" y2="0" gradientTransform="matrix(-487.5 -8550 8550 -487.5 477142 66265)" gradientUnits="userSpaceOnUse"><stop offset="0" stop-color="#000027"/><stop offset="1" stop-color="#fff"/></linearGradient><radialGradient id="m" cx="0" cy="0" r="1" gradientTransform="matrix(30681.8 -905.61 911.009 30864.8 309491 256186)" gradientUnits="userSpaceOnUse"><stop offset="0" stop-opacity=".75"/><stop offset=".92" stop-opacity=".75"/><stop offset=".99" stop-opacity=".34"/><stop offset="1" stop-opacity="0"/></radialGradient><radialGradient id="n" cx="0" cy="0" r="1" gradientTransform="matrix(30681.8 -905.61 911.009 30864.8 310010 255727)" gradientUnits="userSpaceOnUse"><stop offset="0" stop-color="#005bff"/><stop offset=".94" stop-color="#0059ff"/><stop offset=".97" stop-color="#0051ff"/><stop offset=".98" stop-color="#04f"/><stop offset="1" stop-color="#002eff"/></radialGradient><radialGradient id="o" cx="0" cy="0" r="1" gradientTransform="matrix(38497.3 -1136.29 1143.07 38726.8 350196 283606)" gradientUnits="userSpaceOnUse"><stop offset="0" stop-color="#005bff"/><stop offset=".94" stop-color="#0059ff"/><stop offset=".97" stop-color="#0051ff"/><stop offset=".98" stop-color="#04f"/><stop offset="1" stop-color="#002eff"/></radialGradient></defs></svg>