<svg xmlns="http://www.w3.org/2000/svg" xml:space="preserve" fill-rule="evenodd" stroke-linejoin="round" stroke-miterlimit="2" clip-rule="evenodd" viewBox="0 0 913 792"><path fill="url(#a)" d="M847.05 366.88c0-190.79-154.9-345.69-345.69-345.69S155.67 176.1 155.67 366.88V372c0 190.8 154.9 345.69 345.69 345.69S847.05 562.79 847.05 372v-5.12Z"/><path fill="url(#b)" fill-rule="nonzero" d="M673.97 550.97c-.77 35.07-5.4 68.1-10 81.49-11.31 32.8-50.54 97.4-152.47 94.5-101.94-2.9-182.23-11.95-212.76-25.52s-20.67-37.14 35.46-30.53c0 0 119.58 46.61 198.72 14.95 66.85-26.75 81.18-90.74 75.17-139.28a150.43 150.43 0 0 0-5.18-24.93c-14.7-48.61-6.3-92.75 38.68-82.53 26.6 6.02 33.52 61.09 32.38 111.85Z"/><path fill="url(#c)" fill-rule="nonzero" d="M433 713.6c-1.81 13.12-4.9 18.34-9.41 19.8-2.39.6-4.9.6-7.28 0 0 0-9.57 6.67-20.28 5.6a21.11 21.11 0 0 1-8.68-2.78s-18.09 2.26-24.3-3.96c0 0-24.78.57-43.34-2.63-10.6-1.82-19.18-4.89-20-10-.43-2.73 2.3-9.1 7.1-17.85 20.27-36.9 77.56-115.07 91.27-127.86 1.97-1.82 12-18.34 38.84-8.38 2.03.75 4.15 1.65 6.37 2.73 31.65 15.26 20.9 78-45.22 134.56 1.13-.22 37.56-8.16 34.93 10.77Z"/><path fill="url(#d)" fill-rule="nonzero" d="M438.52 495.36c-7.27 17.14-18.18 35.86-25.38 58.82-11.17 35.6-19.8 120.01-49.37 150.99-5.46 5.74-11.7 9.66-18.78 11.08-34.9 6.98-99.1 1.61-126.59-1.2a650.86 650.86 0 0 1-13.06-1.44s-3.11 15.25-11.3 13.27c-.98-.24-2.08-.45-3.27-.65-1.82-.28-3.83-.52-5.9-.72-8.13-.8-17.03-.97-17.03-.97-93.46 9.8-85.94-14.32-85.94-14.32-69.38-220.11 101-303.02 135.67-327.64 34.7-24.6 42.26-88.4 42.26-88.4s6.36 4.63 16.75 12.33c44.55 33.08 163.18 122.95 168.68 147.4 3.06 13.77-.6 27.06-6.74 41.45Z"/><path fill="url(#e)" fill-rule="nonzero" d="M298.74 382.58s-14.98 13.51-18.65 28.23c-3.66 14.72 0 14.32 0 14.32s-8.27 43.28 2.9 58.2c11.16 14.9 11.94 11.4 11.94 11.4s1.96 44.46 9.1 49.18c7.12 4.72 14.9-22.77 14.9-22.77a12.74 12.74 0 0 0 7.01-8.77l2.82-12.1s18.89-21.63 37.38-24c18.5-2.36 15.74-7.5 15.74-7.5s14 2.5 22.15-10.53c8.15-13.04-68.04-84.76-105.29-75.65Z"/><path fill="#191b23" fill-rule="nonzero" d="M108.27 542.12a55.91 55.91 0 0 1 11.6-12.36 62.83 62.83 0 0 1 31.04-13.18c5.66-.72 11.38-.8 17.06-.22 9.02 1 17.86 3.22 26.28 6.6a81.3 81.3 0 0 1 6.26 2.73c2.05 1.06 4 2.3 5.84 3.7a30.4 30.4 0 0 1 8.63 10.77c1 2.08 1.78 4.27 2.35 6.5.55 2.24.93 4.5 1.14 6.8a64.1 64.1 0 0 1-.36 13.63 119.89 119.89 0 0 1-6.8 26.27 230.17 230.17 0 0 1-10.9 24.79l-3.08 6.01-3.25 5.93c-1.05 2-2.19 3.93-3.32 5.89-1.12 1.95-2.22 3.9-3.4 5.82a474.97 474.97 0 0 1-30.27 44.7v.05l-.56-1.2c5.5-.37 11.03-.33 16.52.12a68.4 68.4 0 0 1 16.2 3.17c2.64.87 5.16 2.04 7.52 3.5a21.11 21.11 0 0 1 6.08 5.6c1.6 2.26 2.63 4.9 3 7.64.34 2.74.18 5.5-.45 8.19.55-2.7.62-5.46.2-8.19a17.36 17.36 0 0 0-3.12-7.41 20.63 20.63 0 0 0-6.05-5.32 35.38 35.38 0 0 0-7.44-3.25 70.3 70.3 0 0 0-16.03-2.8c-5.43-.37-10.88-.34-16.3.11l-1.9.16 1.35-1.35-.07.07a473.06 473.06 0 0 0 15.46-22.04 500.15 500.15 0 0 0 14.32-22.73c1.17-1.9 2.24-3.88 3.36-5.82 1.13-1.93 2.24-3.88 3.29-5.86l3.19-5.91 3.02-6c4.04-7.98 7.6-16.2 10.67-24.6a119.26 119.26 0 0 0 6.8-25.78c.6-4.38.75-8.81.42-13.22-.2-2.19-.55-4.36-1.07-6.5a33.95 33.95 0 0 0-2.19-6.14 28.58 28.58 0 0 0-8.03-10.12 37.24 37.24 0 0 0-5.51-3.53c-1.96-.96-4.01-1.81-6.08-2.72a99.14 99.14 0 0 0-25.75-6.87 74.02 74.02 0 0 0-16.77 0 65.87 65.87 0 0 0-16.25 4.1 61.77 61.77 0 0 0-14.64 8.28 57.65 57.65 0 0 0-12 12Zm220.49-41.84c-3.93 17.3-7.74 34.63-11.43 51.99a7759.7 7759.7 0 0 0-10.92 52.09 3736.34 3736.34 0 0 0-10.26 52.21 2183.21 2183.21 0 0 0-9.24 52.39v.12c-1 3.72-1.79 7.5-2.34 11.3a50.6 50.6 0 0 0-.5 5.71c-.1 1.83.07 3.67.5 5.46.2.77.58 1.5 1.12 2.09a7.84 7.84 0 0 0 2.14 1.4 16 16 0 0 0 5.3 1.26c1.85.15 3.72.06 5.55-.27a13.2 13.2 0 0 0 2.59-.75 3.58 3.58 0 0 0 1.72-1.24l.47-1.12 1.08.7c1.4.9 2.91 1.64 4.5 2.19a18 18 0 0 0 4.85 1.02c1.62.1 3.25-.13 4.79-.66 1.52-.55 2.93-1.4 4.13-2.48l.6-.48.67.34a32.17 32.17 0 0 0 10.06 3.48c3.48.52 7.13.22 9.9-1.71 2.76-1.94 4.4-5.2 5.45-8.6 1-3.47 1.5-7.06 1.53-10.67.05-3.63-.3-7.25-1.05-10.79-.77-3.5-1.92-7.04-3.98-9.8a8 8 0 0 0-1.74-1.7 5.87 5.87 0 0 0-2.22-.91 74.81 74.81 0 0 0-5.36-1.15 93.87 93.87 0 0 0-10.9-1.25l-1.32-.07.4-1.24c5.68-17.44 11.82-34.7 18.19-51.9 6.36-17.17 13.18-34.2 20.4-51.04l2.74-6.37 2.79-6.28c1.89-4.17 3.7-8.38 5.64-12.54l5.9-12.4c.98-2.1 2.03-4.13 3.08-6.16l6.25-12.24 3.34-6 3.33-6.02 1.68-3 1.82-2.94 3.58-5.86 1.82-2.93c.6-.97 1.18-1.96 1.82-2.9l7.8-11.29-7.64 11.4c-.65.92-1.22 1.94-1.82 2.93l-1.75 2.95-3.5 5.9-1.74 2.96-1.63 3.03-3.24 6.04-3.24 6.06-3.04 6.15a814.81 814.81 0 0 0-22.66 50 1314.26 1314.26 0 0 0-20 51.16 1298.05 1298.05 0 0 0-18.03 51.82l-.91-1.3c3.74.2 7.46.62 11.15 1.26 1.82.32 3.7.7 5.52 1.16a7.98 7.98 0 0 1 5.09 3.33 27.4 27.4 0 0 1 4.4 10.61c.79 3.7 1.16 7.48 1.12 11.27-.01 3.8-.55 7.6-1.58 11.26a25.2 25.2 0 0 1-2.26 5.34 13.64 13.64 0 0 1-4.01 4.44 13.31 13.31 0 0 1-5.6 2.16 20.2 20.2 0 0 1-5.86-.08 34.07 34.07 0 0 1-10.82-3.77l1.27-.13-1.11.9a6.7 6.7 0 0 1-1.19.8l-1.24.72-1.34.52c-1.8.6-3.71.87-5.62.75a20.3 20.3 0 0 1-5.45-1.15 23.55 23.55 0 0 1-5-2.45l1.57-.42c-.31.6-.77 1.1-1.33 1.47-.46.32-.96.59-1.48.8-.97.4-1.99.69-3.02.87-2.01.36-4.06.46-6.1.29a17.8 17.8 0 0 1-6-1.47 9.85 9.85 0 0 1-2.73-1.81 6.93 6.93 0 0 1-1.64-3c-.5-2-.7-4.05-.58-6.1.07-1.99.25-3.97.55-5.93.57-3.9 1.38-7.77 2.42-11.57v.11a1785.3 1785.3 0 0 1 9.43-52.41c3.4-17.43 6.96-34.82 10.7-52.17a3569.6 3569.6 0 0 1 11.5-51.98 4587.1 4587.1 0 0 1 12.17-51.71Z"/><path fill="url(#f)" fill-rule="nonzero" d="M348.3 732.14c-4.13 7.2-11.73 6.9-17.43 5.36a34.8 34.8 0 0 1-7.4-2.97c-4.77 4.34-10.4 3.8-14.38 2.48a22.1 22.1 0 0 1-5.2-2.48c-1.52 3.2-13.76 4.54-18.85 0-5.1-4.55.9-25.72.9-25.72 13.79-85.78 42.87-208.53 42.87-208.53L415 489.37c-45.09 61.5-89.21 200.13-89.21 200.13 5.85.32 11.66 1.2 17.34 2.65 8.24 2.23 12.39 27.48 5.18 40Z"/><path fill="url(#g)" fill-rule="nonzero" d="M280.1 676.55s1.3 53.18-3.8 57.7c-5.09 4.53-21.07 3.48-22.58.28 0 0-11.12 7.73-19.6 0 0 0-17.63 10.12-24.83-2.39-7.2-12.5-3.06-37.75 5.23-40 8.3-2.24 17.4-9.83 17.4-9.83s.08-8.05.16-21.47c.29-43.43.62-142.98-1.68-206.9l58.79 40.7s-8 89.83-9.01 162c-.1 6.78-.12 13.48-.09 19.9Z"/><path fill="url(#h)" fill-rule="nonzero" d="M276.3 734.26c-5.09 4.54-21.07 3.47-22.58.27a22.3 22.3 0 0 1-6.96 2.97c-3.78.91-8.52.78-12.64-2.97a34.48 34.48 0 0 1-9.73 3.5c-5.31.96-11.5.36-15.1-5.89-7.2-12.5-3.06-37.75 5.23-40 8.3-2.24 17.4-9.83 17.4-9.83s.08-8.05.16-21.47c0 0 8 9.84 9.2-6.69 0 0 6.41 7.49 8.26-1.3 0 0 1.81 5.1 4.06 0 0 0 4.2 9.95 9.18 1.05 0 0 5.51 9.17 10.76.38 0 0 2.1 10.07 6.62 2.38-.1 6.83-.12 13.5-.08 19.92.01-.03 1.31 53.15-3.78 57.68Z"/><path fill="#191b23" fill-rule="nonzero" d="M289.19 494.63a3262.03 3262.03 0 0 0-5.92 93.73c-1.57 31.25-2.58 62.56-2.12 93.83.1 7.84.09 15.68-.11 23.51a295 295 0 0 1-.5 11.82c-.22 3.97-.65 7.91-1.32 11.82-.19 1-.43 2-.73 2.98-.16.52-.37 1.02-.61 1.52-.13.28-.3.54-.49.78a3 3 0 0 1-.66.67 14.11 14.11 0 0 1-5.8 2.46c-3.98.8-8.06.87-12.07.22a19.36 19.36 0 0 1-3.01-.74 5.45 5.45 0 0 1-.76-.3l-.64-.27a2.82 2.82 0 0 0-2.1-.01l-.25.1-.34.16-.7.32c-.93.43-1.9.78-2.88 1.07-1.99.61-4.07.87-6.15.77-2.13-.13-4.2-.75-6.05-1.82l-1.24-.76a1.91 1.91 0 0 0-1.82-.08c-.45.2-.9.42-1.38.6a35.2 35.2 0 0 1-5.75 1.9c-2 .46-4.06.67-6.11.62-2.13-.09-4.2-.64-6.1-1.62a13.2 13.2 0 0 1-2.61-1.82l-1.1-1.17a21.45 21.45 0 0 1-3.53-6.84 40.81 40.81 0 0 1-1.8-11.9c-.06-4 .36-8 1.26-11.9a35.23 35.23 0 0 1 1.82-5.75 17.4 17.4 0 0 1 3.32-5.26 7.6 7.6 0 0 1 2.8-1.88c.6-.23.96-.31 1.43-.47.47-.15.9-.29 1.33-.45 1.79-.69 3.52-1.5 5.19-2.42a67.81 67.81 0 0 0 9.57-6.44l-.36.77c.2-19.03.33-38.06.4-57.1l.2-57.09c0-19.03-.07-38.06-.21-57.09-.15-19.03-.4-38.06-.91-57.09.8 19.02 1.32 38.05 1.74 57.08.41 19.03.61 38.06.79 57.1.17 19.04.23 38.07.26 57.1.03 19.04-.1 38.07-.25 57.11v.47l-.37.3a71.1 71.1 0 0 1-9.86 6.67 43.06 43.06 0 0 1-5.46 2.55c-.47.19-.9.36-1.43.5-.53.15-1.05.31-1.36.44-.76.31-1.45.79-2.02 1.4a15.62 15.62 0 0 0-2.88 4.63c-.72 1.77-1.3 3.6-1.72 5.45a48.9 48.9 0 0 0-1.18 11.4c.01 3.8.59 7.6 1.7 11.24a19.36 19.36 0 0 0 3.17 6.1l.91.98c.66.6 1.39 1.1 2.17 1.51 1.6.83 3.35 1.3 5.15 1.37a21.6 21.6 0 0 0 5.53-.56 32.56 32.56 0 0 0 6.7-2.32 4.14 4.14 0 0 1 3.81.16l1.25.78c3.11 1.82 7 1.92 10.54.85.9-.26 1.77-.58 2.62-.97l.64-.29.32-.15.43-.19a5.01 5.01 0 0 1 3.64.04l.7.31c.2.07.39.17.6.24.88.3 1.78.51 2.69.65 3.74.62 7.56.56 11.28-.16 1.78-.3 3.46-1 4.93-2.04.15-.09.27-.21.36-.36a7.9 7.9 0 0 0 .76-1.66c.28-.9.5-1.8.68-2.73.66-3.8 1.1-7.66 1.31-11.53.26-3.88.43-7.78.54-11.69.22-7.8.24-15.63.16-23.44-.2-15.66.08-31.35.63-46.99.54-15.64 1.26-31.3 2.17-46.93a2747.7 2747.7 0 0 1 7.16-93.8Z"/><path fill="url(#i)" fill-rule="nonzero" d="M508.8 13.56s-43.7 14.28-70.72 46.74a753.17 753.17 0 0 0-31.22 40.58c-16.78 23.45-30.51 45.56-31.23 53.04-.64 7.12 43.27 14.06 78.94 18.5a1339.32 1339.32 0 0 0 44.7 4.97s40.91-74.7 24.2-170.75c0 0-.55-5.72-1.92-6.55-1.06-.6-2.63 1.65-4.86 11.32 0 0-3.09-9.72-7.76-8.38-4.68 1.33-.13 10.53-.13 10.53Z"/><path fill="url(#j)" fill-rule="nonzero" d="M469.43 171.54s20.91-34.15 15.39-66.66c-5.53-32.52-19.75 40.82-19.75 40.82s2.2-20-3.16-28.19c-5.36-8.18-8.86 37.66-8.86 37.66s-2.16-32.12-8.7-33.44c-6.53-1.32-7.68 9.3-2.97 49.8 4.71 40.51 24.33 5.85 28.05 0Z"/><path fill="url(#k)" fill-rule="nonzero" d="M451.07 124.26c-27.66 15.25-40.22-.44-44.2-23.39-16.8 23.46-30.52 45.56-31.24 53.05-.64 7.12 43.27 14.06 78.94 18.5 7.56.97 14.73 1.83 21.06 2.53a55.6 55.6 0 0 0 2.54-3.4c32.44-46.74 52.44-129.63 43.48-167.72-.38 2.69-12.66 88.5-70.58 120.43Z"/><path fill="url(#l)" fill-rule="nonzero" d="M521.53.1c2.54 51.73-16 96.67-34.8 128.3a277.98 277.98 0 0 1-32.15 44.02c.2 0 .37 0 .57.07 24.02 3.01 44.1 4.9 44.1 4.9s6.65-12.12 13.46-32.88c10.1-30.78 20.68-80.5 10.73-137.84.05-.03-.54-5.75-1.91-6.58Z"/><path fill="url(#m)" fill-rule="nonzero" d="M702.97 252.28c-2.15 4.33-9.46-1.2-9.46-1.2s-21.74 40.55-56.3 62.64c-34.56 22.1-85.68 49.2-96.61 48.75-6.5-.24-3.73-43.64-.41-78.66 2.22-23.85 4.72-43.84 4.72-43.84s75.25-30.28 157.8-2.22c0 0 5.01 1.22 5.45 2.68.33 1.09-2 2.34-11.11 3.29.01.04 8.08 4.2 5.92 8.56Z"/><path fill="url(#n)" fill-rule="nonzero" d="M557.26 262.17s32.65-16.75 60.76-7.5c28.11 9.26-38.42 14.85-38.42 14.85s17.92.13 24.54 6.42c6.62 6.3-34.35 4.4-34.35 4.4s28.19 5.9 28.56 12.54c.37 6.65-9.09 6.54-44.39-2.87s-2.29-24.82 3.3-27.84Z"/><path fill="url(#o)" fill-rule="nonzero" d="M544.92 240.01s-.51 4-1.27 10.54c-.91 8.1-2.23 20.08-3.47 33.28a270.37 270.37 0 0 1 27.6-16.69c6.45-3.43 13.78-7 21.74-10.4 31.82-13.63 74.44-24.88 118.66-16.27-.46-1.48-5.46-2.69-5.46-2.69-32.61-11.07-64.06-13.07-90.18-11.39a.1.1 0 0 0-.1 0c-40.05 2.56-67.52 13.62-67.52 13.62Z"/><path fill="url(#p)" fill-rule="nonzero" d="M258.34 209.18c-1.4 1.26-2.63 3.55-3.97 7.8-5.57 17.94-9.65 50.23 2.6 95.8 12.26 45.56 73.65 115.96 138.13 142.09 64.47 26.13 113.75 8.95 111.75.62-1.99-8.34 9.78-20.98 9.78-20.98 56.9-55.36 67.07-104.17 67.05-143.96 0-25.74-10-48.28-16.99-61.02-2.05-3.8-4.33-7.47-6.84-10.98 0 0 6.66 4.77 7.28-3.4a8.01 8.01 0 0 0-1.22-4.55c-3.53-6.37-13.64-12.61-15.26-13.64 2.65 1.06 28.24 11 14.28-3.27-14.71-15.04-41.45-24.55-41.45-24.55-51.92-42.66-92.92-35.39-92.92-35.39-95.12 7.87-129.31 42.74-147.74 62.57-14.07 15.1-20 8.74-24.48 12.86Z"/><path fill="url(#q)" fill-rule="nonzero" d="M258.34 209.18c-1.4 1.26-2.63 3.54-3.97 7.8-5.57 17.94-9.65 50.23 2.6 95.8 12.26 45.56 73.65 115.95 138.13 142.09 64.47 26.13 113.75 8.95 111.75.61-6.43-4.43-8.43-7.17-8.92-7.94 1.08 2.1 8.63 17.62-21.38-5.06-32.08-24.21-53.23-64.3-53.23-64.3 21.09-17.15 4.02-29.78 4.02-29.78-22.87-10.71-24.74-23.03-24.74-23.03-22.16-16.95-34.1-2.58-34.1-2.58-44.27-26.23-94.56-79.44-104.07-92.08-9.5-12.64 1.97-10.08 1.97-10.08l-8.06-11.45Z"/><path fill="url(#r)" fill-rule="nonzero" d="M427.34 348.4s-14.43 2.84-20.43-1.4c-3.86-2.72-7.28-15.07-5.77-19.69 1.5-4.62 6.19-1.18 8.31 4.5 2.13 5.67 9.28 9.18 12.73 9.47 3.46.29 10.13 7.1 5.16 7.12Z"/><path fill="url(#s)" fill-rule="nonzero" d="M402.96 296.55s-50.78 15.46-73.4-30.42c-22.6-45.88 19.05-76.02 19.05-76.02s41.65-16.66 66.58 16.6c24.93 33.25-.7 75.58-12.23 89.84Z"/><path fill="url(#t)" fill-rule="nonzero" d="M333.47 261.7c8.18 28.53 47.5 41.41 69.54 34.86a.57.57 0 0 1 .12-.17c1.82-2.4 23.4-31.82 16.7-65.2-6.25-31.28-42.13-37.66-59.18-30.65-1.78.7-3.45 1.65-4.96 2.83-13.64 11-30.5 29.76-22.22 58.33Z"/><path fill="#000014" fill-rule="nonzero" d="M396.96 270.42c13.69-14.74 14.7-36.05 2.26-47.6-12.44-11.55-33.62-8.96-47.3 5.79-13.69 14.74-14.7 36.05-2.26 47.6 12.44 11.54 33.62 8.95 47.3-5.79Z"/><path fill="url(#u)" fill-rule="nonzero" d="M395.14 263.07c5.22-.06 9.38-6.54 9.29-14.46-.1-7.93-4.4-14.31-9.6-14.25-5.22.05-9.38 6.53-9.3 14.46.1 7.93 4.4 14.3 9.61 14.25Z"/><path fill="url(#v)" fill-rule="nonzero" d="M402.15 292.64s29.3-50-3.96-80.42c-33.26-30.43-5.2 97.3 3.96 80.42Z"/><path fill="url(#w)" fill-rule="nonzero" d="M360.6 200.54c16.44-.77 32.13 2.28 41.82 13.42 27.45 31.5 2.37 79.24.66 82.43 1.82-2.4 23.4-31.82 16.7-65.2-6.24-31.28-42.12-37.66-59.18-30.65Z"/><path fill="url(#x)" fill-rule="nonzero" d="M458.66 348.24s-15.72 48 24.37 60.32c40.08 12.33 68.6-30 68.6-30s16.45-40-12.29-56.6-67.52 13.54-80.68 26.28Z"/><path fill="url(#y)" fill-rule="nonzero" d="M487.12 404.36c-25.16-2.45-35.16-35.33-28.48-56.12a.65.65 0 0 0 .15-.13c2.22-2.07 29.3-26.37 58.85-26.08 27.7.22 32.02 31.16 25.1 47.59a23.03 23.03 0 0 1-2.72 4.9c-10.31 14.03-27.7 32.3-52.9 29.84Z"/><path fill="#000014" fill-rule="nonzero" d="M511.96 377.17c13.69-14.74 16.8-34.1 6.97-43.23-9.84-9.13-28.9-4.58-42.6 10.16-13.68 14.75-16.8 34.1-6.96 43.23 9.84 9.13 28.9 4.59 42.6-10.16Z"/><path fill="url(#z)" fill-rule="nonzero" d="M524.47 374.57c-2.2 3.08-9 3.02-15.21-.11-6.2-3.14-9.44-8.19-7.23-11.26 2.21-3.07 9.01-3.03 15.2.11 6.2 3.14 9.44 8.17 7.24 11.26Z"/><path fill="url(#A)" fill-rule="nonzero" d="M507.99 341.34c-1.58 4.83-8.46 9.04-15.36 9.42-6.9.38-11.22-3.23-9.63-8.06 1.58-4.83 8.45-9.04 15.35-9.42 6.9-.38 11.22 3.23 9.64 8.06Z"/><path fill="url(#B)" fill-rule="nonzero" d="M462.12 348.3s45.78-34.73 71.65-10.25c25.87 24.49-87.06 21.3-71.66 10.25Z"/><path fill="url(#C)" fill-rule="nonzero" d="M542.76 369.62c1.32-14.81-.8-28.3-10.38-35.05-27.09-19.1-70.66 11.46-73.58 13.54 2.22-2.07 29.3-26.37 58.85-26.08 27.66.22 32.02 31.16 25.11 47.59Z"/><path fill="url(#D)" fill-rule="nonzero" d="M428.47 347.5s-.37-3.47-4.92-5.26c-4.54-1.79-3.87-.39-9.3-3.69-5.45-3.3 10.36 11.43 14.22 8.96Z"/><path fill="url(#E)" fill-rule="nonzero" d="M440.08 224.51c.76-.23 17.21-1.3 24.59 5.75 0 0 3.27 1.89-3.9 3.4-7.16 1.53-15.54 2.4-18.42 1.8-2.87-.59-6.45-9.65-2.27-10.95Z"/><path fill="url(#F)" fill-rule="nonzero" d="M521.23 279.87s2.1 10.66 6.86 17.52c4.76 6.87-9.5 11.85-13.26 7.74-3.75-4.12 2.37-33.88 6.4-25.26Z"/><path fill="url(#G)" fill-rule="nonzero" d="M566.67 229.51c-2.04-3.8-4.32-7.45-6.81-10.96a117.1 117.1 0 0 1-16.77-13.16c-8.06-7.73 12.08 17.53 23.58 24.12Z"/><path fill="url(#H)" fill-rule="nonzero" d="M565.99 210.64c-3.53-6.37-13.64-12.61-15.26-13.64l-.15-.06s-16.24-9.09-20.65-12.33c-4.42-3.23 20.44 17.84 36.06 26.03Z"/><path fill="url(#I)" fill-rule="nonzero" d="M428.02 350.79s9.1 7.63 2.63 18.33c-6.46 10.7-12.11-22.54-2.63-18.33Z"/><path fill="url(#J)" fill-rule="nonzero" d="M566.15 232.45s16.96 26.37 15.58 69.77c-1.38 43.4-49.1-62.37-49.53-79.44-.44-17.08 19.61-10.67 33.95 9.67Z"/><path fill="url(#K)" fill-rule="nonzero" d="m673.98 550.97-.7-.73c-28-30.72-63.02 0-63.02 0l-2.16-3.63a150.46 150.46 0 0 0-5.18-24.94c-14.7-48.6-6.3-92.73 38.69-82.52 26.6 5.99 33.5 61.06 32.37 111.82Z"/><path fill="url(#L)" fill-rule="nonzero" d="M309.1 737a21.94 21.94 0 0 1-5.21-2.47s3.76-6.18 5.2-20.48c0 0 4.6 9.2 0 22.96Z"/><path fill="url(#M)" fill-rule="nonzero" d="M330.87 737.48a34.8 34.8 0 0 1-7.4-2.97 16.73 16.73 0 0 0 6.6-14.32c-.4-9.69 4.09 7.03.8 17.3Z"/><path fill="url(#N)" fill-rule="nonzero" d="M396.04 739a21.12 21.12 0 0 1-8.67-2.78s6.5-2.12 8.67-16.54c0 0 5.71 8.41 0 19.33Z"/><path fill="url(#O)" fill-rule="nonzero" d="M423.58 733.43c-2.39.62-4.89.62-7.27 0a35.41 35.41 0 0 0 4.54-17.28s6.07 6.61 2.73 17.28Z"/><path fill="url(#P)" fill-rule="nonzero" d="M181.63 410.81s-63.28 39.54-87.35 95.85c-24.07 56.3 188.83-150.7 87.35-95.85Z"/><path fill="url(#Q)" fill-rule="nonzero" d="M114.72 540.68s19.92-24.13 48.25-22.03c28.33 2.1-22.53 29.37-38.28 35.14-37.25 13.64-9.97-13.11-9.97-13.11Z"/><path fill="#615f80" fill-rule="nonzero" d="M353.99 376.7c13.92-12.31 38.4-20.44 48.9-22.96 5.3 29.2-8.65 51.6-16.29 59.16 15.43-20.33 14.53-44.28 12.15-53.72-26.64 4.96-45.54 19.8-51.65 26.6l6.89-9.07Z"/><path fill="url(#R)" fill-rule="nonzero" d="M845 736.74c-6.05-35.05-28.03-66.45-28.03-66.45H540.7s-21.99 31.43-28.02 66.45c-.48 1.5-.73 3.08-.74 4.66 0 27.76 74.74 50.27 166.9 50.27 92.15 0 166.88-22.5 166.88-50.27 0-1.58-.25-3.15-.72-4.66Z"/><path fill="url(#S)" fill-rule="nonzero" d="M678.84 704.97c77.8 0 140.88-13.59 140.88-30.34 0-16.77-63.08-30.35-140.88-30.35-77.81 0-140.89 13.58-140.89 30.35 0 16.75 63.08 30.34 140.89 30.34Z"/><path fill="#ff5889" fill-rule="nonzero" d="m681 709.3 47.68-2.16-19.5 75.86-67.2 2.16L681 709.3Z"/><path fill="#d0003d" fill-rule="nonzero" d="M681 696.3c69.43 0 125.71-10.68 125.71-23.84 0-13.17-56.28-23.84-125.7-23.84-69.44 0-125.72 10.67-125.72 23.84 0 13.16 56.29 23.84 125.71 23.84Z"/><path fill="#b40035" fill-rule="nonzero" d="M681 709.3c69.43 0 125.71-10.67 125.71-23.84 0-13.16-56.28-23.84-125.7-23.84-69.44 0-125.72 10.68-125.72 23.84 0 13.17 56.28 23.84 125.71 23.84Z"/><defs><linearGradient id="a" x1="0" x2="1" y1="0" y2="0" gradientTransform="rotate(90 240.08 261.28) scale(696.494)" gradientUnits="userSpaceOnUse"><stop offset="0" stop-color="#90b4f4" stop-opacity=".5"/><stop offset="1" stop-color="#855ae4" stop-opacity=".5"/></linearGradient><linearGradient id="b" x1="0" x2="1" y1="0" y2="0" gradientTransform="rotate(176.38 272.8 300.5) scale(223.9219)" gradientUnits="userSpaceOnUse"><stop offset="0" stop-color="#4c526c"/><stop offset="1" stop-color="#262937"/></linearGradient><linearGradient id="c" x1="0" x2="1" y1="0" y2="0" gradientTransform="rotate(-156.1 141423.87 43933.64) scale(12274.2)" gradientUnits="userSpaceOnUse"><stop offset="0" stop-color="#4c526c"/><stop offset="1" stop-color="#262937"/></linearGradient><linearGradient id="d" x1="0" x2="1" y1="0" y2="0" gradientTransform="rotate(98.65 170352.46 333298.29) scale(143643.4)" gradientUnits="userSpaceOnUse"><stop offset="0" stop-color="#4c526c"/><stop offset="1" stop-color="#262937"/></linearGradient><linearGradient id="e" x1="0" x2="1" y1="0" y2="0" gradientTransform="rotate(-53.13 652.82 -26.27) scale(106.2282)" gradientUnits="userSpaceOnUse"><stop offset="0" stop-color="#b4b9cc"/><stop offset="1" stop-color="#6b6f7f"/></linearGradient><linearGradient id="f" x1="0" x2="1" y1="0" y2="0" gradientTransform="rotate(102.83 50320.22 139860.62) scale(92748.4)" gradientUnits="userSpaceOnUse"><stop offset="0" stop-color="#4c526c"/><stop offset="1" stop-color="#262937"/></linearGradient><linearGradient id="g" x1="0" x2="1" y1="0" y2="0" gradientTransform="rotate(112.33 12630.78 106896.6) scale(100507)" gradientUnits="userSpaceOnUse"><stop offset="0" stop-color="#4c526c"/><stop offset="1" stop-color="#262937"/></linearGradient><linearGradient id="h" x1="0" x2="1" y1="0" y2="0" gradientTransform="rotate(-49.32 130241.04 -71506.23) scale(6829.63)" gradientUnits="userSpaceOnUse"><stop offset="0" stop-color="#d0d8f5"/><stop offset="1" stop-color="#6b6f7f"/></linearGradient><linearGradient id="i" x1="0" x2="1" y1="0" y2="0" gradientTransform="rotate(13.53 -159.54 1636.76) scale(96.1105)" gradientUnits="userSpaceOnUse"><stop offset="0" stop-color="#615f80"/><stop offset="1" stop-color="#44445c"/></linearGradient><linearGradient id="j" x1="0" x2="1" y1="0" y2="0" gradientTransform="rotate(101.09 -181555.29 -295820.86) scale(5142.12)" gradientUnits="userSpaceOnUse"><stop offset="0" stop-color="#b4b9cc"/><stop offset="1" stop-color="#6b6f7f"/></linearGradient><linearGradient id="k" x1="0" x2="1" y1="0" y2="0" gradientTransform="rotate(-118.48 -514838.11 114509.89) scale(58943.8)" gradientUnits="userSpaceOnUse"><stop offset="0" stop-color="#000027"/><stop offset="1" stop-color="#fff"/></linearGradient><linearGradient id="l" x1="0" x2="1" y1="0" y2="0" gradientTransform="rotate(87.51 -363286.04 -393041.63) scale(15606.81)" gradientUnits="userSpaceOnUse"><stop offset="0" stop-color="#4c526c"/><stop offset="1" stop-color="#262937"/></linearGradient><linearGradient id="m" x1="0" x2="1" y1="0" y2="0" gradientTransform="rotate(-94.31 -396204 275933.68) scale(14553.7)" gradientUnits="userSpaceOnUse"><stop offset="0" stop-color="#615f80"/><stop offset="1" stop-color="#44445c"/></linearGradient><linearGradient id="n" x1="0" x2="1" y1="0" y2="0" gradientTransform="rotate(156.37 -149481.97 -43608.25) scale(7655.83)" gradientUnits="userSpaceOnUse"><stop offset="0" stop-color="#b4b9cc"/><stop offset="1" stop-color="#6b6f7f"/></linearGradient><linearGradient id="o" x1="0" x2="1" y1="0" y2="0" gradientTransform="rotate(142.79 -316398.64 -299980.07) scale(13335.76)" gradientUnits="userSpaceOnUse"><stop offset="0" stop-color="#4c526c"/><stop offset="1" stop-color="#262937"/></linearGradient><linearGradient id="p" x1="0" x2="1" y1="0" y2="0" gradientTransform="rotate(140.88 -821994.48 -564809.36) scale(155262.2)" gradientUnits="userSpaceOnUse"><stop offset="0" stop-color="#4c526c"/><stop offset="1" stop-color="#262937"/></linearGradient><linearGradient id="q" x1="0" x2="1" y1="0" y2="0" gradientTransform="rotate(139.02 -660041.71 -437375.3) scale(38717.7)" gradientUnits="userSpaceOnUse"><stop offset="0" stop-color="#cfd7f4"/><stop offset="1" stop-color="#6b6f7f"/></linearGradient><linearGradient id="r" x1="0" x2="1" y1="0" y2="0" gradientTransform="rotate(136.21 150.06 250.94) scale(17.942)" gradientUnits="userSpaceOnUse"><stop offset="0" stop-color="#dd95bf"/><stop offset="1" stop-color="#bd75a9"/></linearGradient><linearGradient id="s" x1="0" x2="1" y1="0" y2="0" gradientTransform="rotate(140.01 -266164.37 -172688.76) scale(23452.6)" gradientUnits="userSpaceOnUse"><stop offset="0" stop-color="#000027"/><stop offset="1" stop-color="#fff"/></linearGradient><linearGradient id="t" x1="0" x2="1" y1="0" y2="0" gradientTransform="rotate(157.82 194.97 155.88) scale(86.3452)" gradientUnits="userSpaceOnUse"><stop offset="0" stop-color="#c8f4a9"/><stop offset="1" stop-color="#aad475"/></linearGradient><linearGradient id="u" x1="0" x2="1" y1="0" y2="0" gradientTransform="rotate(-178.52 -60391.2 -1827.68) scale(864.1776)" gradientUnits="userSpaceOnUse"><stop offset="0" stop-color="#fff"/><stop offset="1"/></linearGradient><linearGradient id="v" x1="0" x2="1" y1="0" y2="0" gradientTransform="rotate(165.79 -25219.74 -243897.73) scale(2846.586)" gradientUnits="userSpaceOnUse"><stop offset="0" stop-color="#fff"/><stop offset="1" stop-color="#fff" stop-opacity=".37"/></linearGradient><linearGradient id="w" x1="0" x2="1" y1="0" y2="0" gradientTransform="rotate(159.23 -199608.18 -42155.96) scale(6735.84)" gradientUnits="userSpaceOnUse"><stop offset="0" stop-color="#000027"/><stop offset="1" stop-color="#fff"/></linearGradient><linearGradient id="x" x1="0" x2="1" y1="0" y2="0" gradientTransform="rotate(126.99 -204328.95 -152716.64) scale(19463.7)" gradientUnits="userSpaceOnUse"><stop offset="0" stop-color="#000027"/><stop offset="1" stop-color="#fff"/></linearGradient><linearGradient id="y" x1="0" x2="1" y1="0" y2="0" gradientTransform="rotate(109.73 -178346.67 -174733.74) scale(7719.53)" gradientUnits="userSpaceOnUse"><stop offset="0" stop-color="#c8f4a9"/><stop offset="1" stop-color="#aad475"/></linearGradient><linearGradient id="z" x1="0" x2="1" y1="0" y2="0" gradientTransform="rotate(133.97 -22620.13 -60806.25) scale(1531.96)" gradientUnits="userSpaceOnUse"><stop offset="0" stop-color="#fff"/><stop offset="1" stop-color="#fff" stop-opacity=".37"/></linearGradient><linearGradient id="A" x1="0" x2="1" y1="0" y2="0" gradientTransform="rotate(105.8 -38933.27 -53136.79) scale(676.813)" gradientUnits="userSpaceOnUse"><stop offset="0" stop-color="#fff"/><stop offset="1"/></linearGradient><linearGradient id="B" x1="0" x2="1" y1="0" y2="0" gradientTransform="rotate(117.14 -87624.38 -156011.47) scale(3252.02)" gradientUnits="userSpaceOnUse"><stop offset="0" stop-color="#fff"/><stop offset="1" stop-color="#fff" stop-opacity=".37"/></linearGradient><linearGradient id="C" x1="0" x2="1" y1="0" y2="0" gradientTransform="rotate(123.54 -129048.33 -155150.27) scale(3780.62)" gradientUnits="userSpaceOnUse"><stop offset="0" stop-color="#000027"/><stop offset="1" stop-color="#fff"/></linearGradient><linearGradient id="D" x1="0" x2="1" y1="0" y2="0" gradientTransform="rotate(98.51 26320.44 47155.91) scale(116.3097)" gradientUnits="userSpaceOnUse"><stop offset="0" stop-color="#fff"/><stop offset="1"/></linearGradient><linearGradient id="E" x1="0" x2="1" y1="0" y2="0" gradientTransform="rotate(49.22 -69729.44 -68560.53) scale(779.274)" gradientUnits="userSpaceOnUse"><stop offset="0" stop-color="#b4b9cc"/><stop offset="1" stop-color="#6b6f7f"/></linearGradient><linearGradient id="F" x1="0" x2="1" y1="0" y2="0" gradientTransform="rotate(-128.37 -82559.82 -40653.26) scale(2177.18)" gradientUnits="userSpaceOnUse"><stop offset="0" stop-color="#b4b9cc"/><stop offset="1" stop-color="#6b6f7f"/></linearGradient><linearGradient id="G" x1="0" x2="1" y1="0" y2="0" gradientTransform="rotate(137.01 -59831.3 -44280.05) scale(676.726)" gradientUnits="userSpaceOnUse"><stop offset="0" stop-color="#000027"/><stop offset="1" stop-color="#fff"/></linearGradient><linearGradient id="H" x1="0" x2="1" y1="0" y2="0" gradientTransform="rotate(131.98 -71687.91 -75561.7) scale(842.941)" gradientUnits="userSpaceOnUse"><stop offset="0" stop-color="#000027"/><stop offset="1" stop-color="#fff"/></linearGradient><linearGradient id="I" x1="0" x2="1" y1="0" y2="0" gradientTransform="rotate(26.18 -104122.64 137158.14) scale(240.468)" gradientUnits="userSpaceOnUse"><stop offset="0" stop-color="#fff"/><stop offset="1"/></linearGradient><linearGradient id="J" x1="0" x2="1" y1="0" y2="0" gradientTransform="rotate(90 172.03 384.98) scale(99.6401)" gradientUnits="userSpaceOnUse"><stop offset="0" stop-color="#fff" stop-opacity=".2"/><stop offset="1" stop-color="#c4c4c4" stop-opacity="0"/></linearGradient><linearGradient id="K" x1="0" x2="1" y1="0" y2="0" gradientTransform="rotate(145.52 60838.36 54401.03) scale(11990.97)" gradientUnits="userSpaceOnUse"><stop offset="0" stop-color="#b4b9cc"/><stop offset="1" stop-color="#6b6f7f"/></linearGradient><linearGradient id="L" x1="0" x2="1" y1="0" y2="0" gradientTransform="rotate(1.48 -769660.85 411556.26) scale(232.61097)" gradientUnits="userSpaceOnUse"><stop offset="0" stop-color="#000027"/><stop offset="1" stop-color="#fff"/></linearGradient><linearGradient id="M" x1="0" x2="1" y1="0" y2="0" gradientTransform="rotate(3.51 -283255.39 212232.96) scale(325.0514)" gradientUnits="userSpaceOnUse"><stop offset="0" stop-color="#000027"/><stop offset="1" stop-color="#fff"/></linearGradient><linearGradient id="N" x1="0" x2="1" y1="0" y2="0" gradientTransform="rotate(7.37 -123678.14 141540.72) scale(305.6045)" gradientUnits="userSpaceOnUse"><stop offset="0" stop-color="#000027"/><stop offset="1" stop-color="#fff"/></linearGradient><linearGradient id="O" x1="0" x2="1" y1="0" y2="0" gradientTransform="rotate(.79 -1125537.25 950132.85) scale(181.03939)" gradientUnits="userSpaceOnUse"><stop offset="0" stop-color="#000027"/><stop offset="1" stop-color="#fff"/></linearGradient><linearGradient id="P" x1="0" x2="1" y1="0" y2="0" gradientTransform="rotate(90 -125.34 276.13) scale(114.994)" gradientUnits="userSpaceOnUse"><stop offset="0" stop-color="#fff" stop-opacity=".2"/><stop offset="1" stop-color="#c4c4c4" stop-opacity="0"/></linearGradient><linearGradient id="Q" x1="0" x2="1" y1="0" y2="0" gradientTransform="rotate(90 -190.14 328.38) scale(39.1439)" gradientUnits="userSpaceOnUse"><stop offset="0" stop-color="#fff" stop-opacity=".2"/><stop offset="1" stop-color="#c4c4c4" stop-opacity="0"/></linearGradient><linearGradient id="R" x1="0" x2="1" y1="0" y2="0" gradientTransform="rotate(46.11 -466.63 1049.15) scale(190.318)" gradientUnits="userSpaceOnUse"><stop offset="0" stop-color="#f51157"/><stop offset="1" stop-color="#f91155"/></linearGradient><linearGradient id="S" x1="0" x2="1" y1="0" y2="0" gradientTransform="rotate(87.87 190857.13 309308) scale(6553.245)" gradientUnits="userSpaceOnUse"><stop offset="0" stop-color="#ff5889"/><stop offset="1" stop-color="#d0003d"/></linearGradient></defs></svg>