<svg xmlns="http://www.w3.org/2000/svg" fill="none" viewBox="0 0 145 129"><defs/><path fill="#333" d="M100.11 41.02H89.27l1.4-24.55h8.06l1.4 24.55zM11.36 101.72L.82 95.31A1.71 1.71 0 010 93.85V73.49a1.72 1.72 0 01.82-1.47l10.54-6.4v36.1zM133.64 65.61l10.54 6.41a1.71 1.71 0 01.82 1.47v20.34a1.71 1.71 0 01-.82 1.46l-10.54 6.43v-36.1z"/><path fill="#353535" d="M102.92 38.32H42.08A32.78 32.78 0 009.36 71.15v25.02A32.78 32.78 0 0042.08 129h60.84a32.78 32.78 0 0032.72-32.83V71.15a32.78 32.78 0 00-32.72-32.83z"/><path fill="#E8E8E8" d="M106.08 48.9H38.92a18.44 18.44 0 00-18.4 18.46v32.59c0 10.2 8.23 18.47 18.4 18.47h67.16c10.17 0 18.4-8.27 18.4-18.47V67.36c0-10.2-8.23-18.46-18.4-18.46z"/><mask id="a" width="105" height="71" x="20" y="48" maskUnits="userSpaceOnUse"><path fill="#DDD" d="M106.08 48.9H38.92a18.44 18.44 0 00-18.4 18.46v32.59c0 10.2 8.24 18.47 18.4 18.47h67.16c10.17 0 18.4-8.27 18.4-18.47V67.36c0-10.2-8.23-18.46-18.4-18.46z"/></mask><g mask="url(#a)"><ellipse cx="68.5" cy="57" fill="#F2F2F2" rx="58.5" ry="42"/></g><path fill="#353535" d="M58.2 69.29l-2.96-2.97-13.29 13.33 2.96 2.96L58.19 69.3z"/><path fill="#353535" d="M55.23 82.62l2.96-2.97-13.28-13.33-2.96 2.97 13.28 13.33zM103.05 69.29l-2.96-2.97-13.28 13.33 2.95 2.97 13.29-13.33z"/><path fill="#353535" d="M100.1 82.61l2.95-2.96-13.28-13.33-2.96 2.97 13.28 13.32zM91.75 96.31H54.92v2.7h36.83v-2.7z"/><path fill="#353535" d="M81.99 109.17a6.13 6.13 0 01-6.14-6.16v-6.68h12.28v6.7a6.17 6.17 0 01-6.14 6.14zM78.54 99v4.01a3.47 3.47 0 003.45 3.47 3.45 3.45 0 003.45-3.47v-4h-6.9zM94.69 20.24a10.1 10.1 0 0010.09-10.12A10.1 10.1 0 0094.68 0 10.1 10.1 0 0084.6 10.12a10.1 10.1 0 0010.09 10.12z"/></svg>