<svg viewBox="0 0 64 54" xmlns="http://www.w3.org/2000/svg" xml:space="preserve" style="fill-rule:evenodd;clip-rule:evenodd;stroke-linejoin:round;stroke-miterlimit:2"><path d="M63.6 17.54C63.6 35.43 45.67 54 32.41 54 19.15 54 0 34.07 0 17.54 0 8.2 8.31 0 17.79 0c5.25 0 10.14 2.46 14.01 7 3.88-4.53 8.75-7 14-7 9.48 0 17.8 8.2 17.8 17.54Z" style="fill:#a10000;fill-rule:nonzero"/><path d="M61.76 18.04c0 16.94-16.9 34.52-29.38 34.52-12.5 0-30.54-18.87-30.54-34.52 0-8.84 7.83-16.6 16.76-16.6 4.95 0 9.55 3.33 13.2 7.63 3.66-4.3 8.24-7.63 13.2-7.63 8.92 0 16.76 7.76 16.76 16.6Z" style="fill:url(#a);fill-rule:nonzero"/><path d="M52.58 18.05c0 11.99-10.24 24.12-24.6 24.02-11.83-.09-22.55-12.9-22.55-23.98 0-6.25 5.78-12.7 12.93-12.7 3.96 0 9.89 4.68 12.8 7.73 2.93-3.04 6.2-6.46 10.15-6.46 7.15 0 11.27 5.13 11.27 11.4Z" style="fill:url(#b);fill-rule:nonzero"/><path d="M19.57 8.42c-.49-.67-1.66-.8-2.6-.28-.54.3-.88.73-1 1.18a5.65 5.65 0 0 0-4.6.5C9.16 11 8.21 13.1 9.23 14.49c1 1.39 3.6 1.55 5.78.36 1.84-1 2.8-2.64 2.46-3.97.41.01.86-.09 1.26-.3.95-.52 1.32-1.49.83-2.16h.01Z" style="fill:#fff;fill-rule:nonzero"/><defs><radialGradient id="a" cx="0" cy="0" r="1" gradientUnits="userSpaceOnUse" gradientTransform="matrix(-21.2474 -19.0961 19.0054 -21.3488 31.91 28.05)"><stop offset="0" style="stop-color:#ff395a;stop-opacity:1"/><stop offset=".54" style="stop-color:#f02e4e;stop-opacity:1"/><stop offset="1" style="stop-color:#b80624;stop-opacity:1"/></radialGradient><linearGradient id="b" x1="0" y1="0" x2="1" y2="0" gradientUnits="userSpaceOnUse" gradientTransform="matrix(47.9531 0 0 36.1884 4.62 24.4)"><stop offset="0" style="stop-color:#fff;stop-opacity:.2"/><stop offset="1" style="stop-color:#fff;stop-opacity:.06"/></linearGradient></defs></svg>