<svg xmlns="http://www.w3.org/2000/svg" xml:space="preserve" fill-rule="evenodd" stroke-linejoin="round" stroke-miterlimit="2" clip-rule="evenodd" viewBox="0 0 32 32"><path fill="#fff" d="M15.28.07C14.91.18.98 8.63.68 8.93a2.7 2.7 0 0 0-.46.68l-.2.42L0 19.4c0 6.54 0 9.48.07 9.76a3.68 3.68 0 0 0 2.83 2.78c.27.05 1.66.07 3.81.06l3.4-.03.46-.25c.52-.29.75-.52 1.04-1.08l.2-.38.04-3.82c.04-3.72.04-3.83.19-4.03.08-.11.24-.27.36-.36.2-.15.28-.15 3.6-.15 3.32 0 3.4 0 3.6.15.12.09.28.25.36.36.15.2.16.31.2 4.03.03 3.77.03 3.82.2 4.15.26.54.56.85 1.07 1.13l.46.25 3.4.03a46.5 46.5 0 0 0 3.81-.06 3.66 3.66 0 0 0 2.84-2.85c.05-.26.07-3.7.06-9.74l-.02-9.32-.2-.41c-.1-.23-.3-.53-.44-.68C31.04 8.62 17.1.18 16.68.07a3.55 3.55 0 0 0-1.4 0Z"/></svg>