<svg xmlns="http://www.w3.org/2000/svg" xml:space="preserve" fill-rule="evenodd" stroke-linejoin="round" stroke-miterlimit="2" clip-rule="evenodd" viewBox="0 0 34 33"><path fill="#fff" d="M16.73.01a16.62 16.62 0 0 0-11.8 5.8c-.14.16-.27.28-.28.26-.02-.02-.2-.98-.4-2.15a19.3 19.3 0 0 0-.48-2.27.86.86 0 0 0-.7-.35 14 14 0 0 0-2.64.52 1 1 0 0 0-.3.36L0 2.4l.88 5c.48 2.76.93 5.14.98 5.3a.8.8 0 0 0 .72.54c.43 0 10.28-1.79 10.44-1.9.1-.05.22-.2.28-.34.1-.22.1-.28-.1-1.5-.23-1.32-.34-1.61-.62-1.76-.27-.13-.66-.1-2.63.26a27.7 27.7 0 0 1-1.97.3c-.12-.03 1.18-1.29 1.88-1.81a12.3 12.3 0 0 1 6.8-2.55A12.58 12.58 0 1 1 6.52 22.66a13.82 13.82 0 0 1-1.38-3.75c-.1-.52-.27-.8-.57-.92-.22-.1-.33-.09-1.54.11-1.18.2-1.32.23-1.52.41-.3.27-.33.52-.16 1.35a16.51 16.51 0 0 0 31.82 1.9c.59-1.76.82-3.23.83-5.23 0-1.58-.05-2.18-.36-3.6A16.51 16.51 0 0 0 16.74.02Z"/></svg>