<svg xmlns="http://www.w3.org/2000/svg" xml:space="preserve" fill-rule="evenodd" stroke-linejoin="round" stroke-miterlimit="2" clip-rule="evenodd" viewBox="0 0 80 77"><path fill="#0d1439" fill-opacity=".2" fill-rule="nonzero" d="M78.06 35.97a7.24 7.24 0 0 0-3.96-12.1l-16.9-3.25a3.58 3.58 0 0 1-2.49-1.8L46.37 3.75A7.26 7.26 0 0 0 36.3 1a7.26 7.26 0 0 0-2.67 2.74L25.3 18.82a3.57 3.57 0 0 1-2.48 1.8l-16.9 3.26a7.28 7.28 0 0 0-5.73 8.7c.28 1.27.9 2.44 1.8 3.39l11.79 12.56a3.58 3.58 0 0 1 .95 2.92L12.6 68.54a7.08 7.08 0 0 0 1.75 5.68A7.25 7.25 0 0 0 22.92 76l15.61-7.32a3.7 3.7 0 0 1 3.08 0L57.2 76a7.26 7.26 0 0 0 10.3-7.47l-2.1-17.09a3.6 3.6 0 0 1 .94-2.92l11.72-12.56Z"/><path fill="url(#a)" fill-rule="nonzero" d="M63.13 46.28a5.17 5.17 0 0 0-1.35 4.21l2.03 16.22a5.17 5.17 0 0 1-7.34 5.33L41.6 65.08a5.17 5.17 0 0 0-4.4 0l-14.88 6.9a5.2 5.2 0 0 1-7.4-5.32l2.12-16.21a5.17 5.17 0 0 0-1.35-4.22L4.44 34.31a5.15 5.15 0 0 1 2.8-8.6l16.14-3.1a5.14 5.14 0 0 0 3.56-2.58L34.87 5.7a5.18 5.18 0 0 1 9.09 0l7.95 14.34a5.13 5.13 0 0 0 3.56 2.58l16.13 3.1a5.19 5.19 0 0 1 4.09 6.2c-.2.9-.65 1.73-1.28 2.4L63.13 46.28Z"/><path fill="url(#b)" fill-rule="nonzero" d="m42.97 7.29 7.25 13.11a4.78 4.78 0 0 0 3.26 2.36l14.79 2.83A4.76 4.76 0 0 1 72 31.26a4.74 4.74 0 0 1-1.16 2.2L60.58 44.39a4.7 4.7 0 0 0-1.27 3.82l1.86 14.85a4.71 4.71 0 0 1-6.71 4.86l-13.6-6.32a4.73 4.73 0 0 0-4.02 0l-13.6 6.32a4.74 4.74 0 0 1-6.7-4.86l1.85-14.86a4.67 4.67 0 0 0-1.24-3.81L6.85 33.46a4.72 4.72 0 0 1 2.57-7.85l14.74-2.83a4.78 4.78 0 0 0 3.26-2.36l7.25-13.1a4.73 4.73 0 0 1 8.3-.03Z"/><path fill="#fff" fill-opacity=".81" fill-rule="nonzero" d="M56.84 49.24c.37-1.7 1.18-3.27 2.33-4.57a33.4 33.4 0 0 1 5.13-5.15 78.69 78.69 0 0 0-4.06 4.32 5.6 5.6 0 0 0-1.57 3.43c-.05 1.22.04 2.46.26 3.66.34 2.34.61 4.7.82 7.05.17 1.83.68 4.44-.19 6.17-1.61 3.24-6.12 2.11-8.36.3a1.39 1.39 0 0 1-.58-.89c0-.85 1.92-.48 2.54-.76a4.22 4.22 0 0 0 1.93-1.87 12.37 12.37 0 0 0 1.4-5.45c.14-1.98.07-3.99.3-5.96l.05-.28Z"/><path fill="#fff" fill-rule="nonzero" d="M48.84 62.1c-.43-.71-4.35-3.16-4.15-1.26.1.9 2.45 1.49 3.11 1.83.2.12.43.19.67.2a.49.49 0 0 0 .48-.4.65.65 0 0 0-.11-.36Z"/><path fill="#2e2e2e" fill-opacity=".14" fill-rule="nonzero" d="M36.76 61.44c-1.59.8-3.13 1.68-4.62 2.65-2.83 1.55-5.97 2.94-9.28 2.72-5.14-.32-4.04-9.77-3.92-13.05a19.15 19.15 0 0 0-9.07-17.52 40.93 40.93 0 0 1 5.16 6.68c2.97 5.16 1.55 11.08.84 16.74l-.89 7.02a5.17 5.17 0 0 0 7.4 5.32l14.87-6.95c.88-.41 2.43-.16 3.05-.77.36-.36.25-1.25.27-1.72 0-1.05-.62-1.48-1.6-1.53-.75-.04-1.51.1-2.21.41Z"/><path fill="url(#c)" fill-rule="nonzero" d="M63.23 24.96c-3.17-.84-6.44-1.57-9.75-2.2a4.77 4.77 0 0 1-3.26-2.36L42.97 7.3a4.72 4.72 0 0 0-6.56-1.8 4.73 4.73 0 0 0-1.74 1.8l-7.25 13.1a4.76 4.76 0 0 1-3.26 2.36L9.42 25.61a4.75 4.75 0 0 0-3.73 5.67c.19.82.59 1.58 1.16 2.2 2.21 2.35 4.32 4.92 6.68 7.1a17.1 17.1 0 0 1 5.1 11.06c.4 3.89-1.26 8.53-.18 12.15.72 2.43 3 3.46 5.42 3.28a14.8 14.8 0 0 0 9.74-4.7c.25-.27.52-.65.36-.98a.9.9 0 0 0-.73-.4 9.98 9.98 0 0 0-4.14.76c-1.7.61-3.49.91-5.29.87a3.89 3.89 0 0 1-2-.64c-1.14-.86-1.31-2.5-1.38-3.93-.29-3.14-.06-6.31.68-9.38 1.48-5.07 6.13-7.79 10.45-10.29a96.75 96.75 0 0 1 16.97-7.95c5.5-1.9 11.57-4.5 17.42-2.32a3.7 3.7 0 0 1 2.21 1.71c.69 1.4-.2 3.03-1.05 4.34l-5.09 7.63a63.82 63.82 0 0 0 7.47-8.7c1.12-1.57 2.18-3.72 1.06-5.28a4.68 4.68 0 0 0-2.65-1.5 85.63 85.63 0 0 0-4.67-1.34Z"/><path fill="#fff" fill-rule="nonzero" d="m54.68 28-24.1 6.03c-5 1.27-8.67 1.73-13.61.26-1.82-.54-4.3-1.2-5.61-2.6a3.6 3.6 0 0 1-1.26-2.4c.12-.67.42-1.28.88-1.8a6.73 6.73 0 0 1 2.05-1.8 2.76 2.76 0 0 0-1.52 0c-.26.1-1.75.47-2.3.66a5.5 5.5 0 0 0-2.26 1.37 5.19 5.19 0 0 0-1.3 2.23 5.17 5.17 0 0 0 1.3 4.18 21.18 21.18 0 0 0 3.45 3.09c3.14 2.5 7.18 5.6 8.1 9.63.62 2.87 0 5.65-.31 8.5-.3 3.17-.71 6.34-1.21 9.48 1.54-5.47 2.85-11.38 5.32-16.56.94-2.21 2.2-4.29 3.76-6.16 3.89-4.21 8.8-5.35 13.75-7.66 5.71-2.71 11.6-5.1 17.6-7.13l-2.73.69Zm5.83-.85h4.53a2.4 2.4 0 0 1 1.49.3c.4.3.53 1.06.1 1.3a1.18 1.18 0 0 1-.92 0l-6.15-1.38.95-.22Zm-32.19-9.44L35.1 5.7s2.11-3.04 4.55-2.66a7 7 0 0 1 3.71 1.72 7.2 7.2 0 0 0-6.34 1.15c-2.75 2.29-8.7 11.81-8.7 11.81Z"/><defs><radialGradient id="a" cx="0" cy="0" r="1" gradientTransform="matrix(36.3907 0 0 34.7549 39.42 37.77)" gradientUnits="userSpaceOnUse"><stop offset="0" stop-color="#ffe878"/><stop offset=".19" stop-color="#ffdd63"/><stop offset=".4" stop-color="#ffd24e"/><stop offset="1" stop-color="#ffcd45"/></radialGradient><radialGradient id="b" cx="0" cy="0" r="1" gradientTransform="matrix(40.3752 0 0 40.2721 74.7 60.47)" gradientUnits="userSpaceOnUse"><stop offset="0" stop-color="#fff"/><stop offset="1" stop-color="#fff" stop-opacity="0"/></radialGradient><radialGradient id="c" cx="0" cy="0" r="1" gradientTransform="matrix(5570.9 0 0 5299.22 10147.4 9227.42)" gradientUnits="userSpaceOnUse"><stop offset="0" stop-color="#fff"/><stop offset="1" stop-color="#fff" stop-opacity="0"/></radialGradient></defs></svg>