<svg xmlns="http://www.w3.org/2000/svg" fill="none" viewBox="0 0 120 120">
<rect width="120" height="120" fill="url(#soft-i-1)" rx="20"/>
<path fill="#fff" fill-rule="evenodd" d="M59.84 24.07c0 .04-.18.1-.42.11a4.26 4.26 0 0 0-3.3 2.4l-.23.5a.78.78 0 0 0-.07.3c0 .1-.03.2-.07.23a3 3 0 0 0-.07.87 3 3 0 0 0 .07.88c.04.01.07.12.07.21 0 .11.04.24.07.31l.24.5c.09.2.21.42.29.5.07.08.12.19.12.2 0 .32 1.15 1.14 2.25 1.61l.27.13v7.4l.25.27c.13.15.3.27.36.27s.11.04.11.08c0 .23.56.01.92-.37l.23-.23v-7.42l.27-.13a4.9 4.9 0 0 0 2.42-1.86c.15-.32.31-.63.48-.95a.7.7 0 0 0 .07-.3c0-.1.04-.19.08-.22a3 3 0 0 0 .07-.88 3 3 0 0 0-.07-.87c-.04-.02-.08-.13-.08-.22a.7.7 0 0 0-.07-.31l-.23-.5c-.1-.2-.22-.41-.29-.5l-.13-.19c0-.09-.54-.63-.86-.87a3.9 3.9 0 0 0-1.87-.8 1.1 1.1 0 0 1-.45-.11c-.25-.13-.4-.15-.43-.04ZM61 26.24c.36.16 1 .73 1 .88 0 .05.04.09.08.09.03 0 .07.07.07.14s.03.15.07.15c.04 0 .07.09.07.22 0 .12.04.21.07.21.04 0 .08.24.08.55 0 .3-.04.55-.08.58-.03.02-.07.11-.07.19 0 .14-.16.5-.23.5-.04 0-.06.04-.06.1 0 .76-2.16 1.37-3.1.87-.35-.18-.93-.73-.93-.87 0-.06-.03-.1-.07-.1-.04 0-.07-.07-.07-.14s-.04-.14-.07-.14c-.04 0-.08-.08-.08-.19 0-.09-.03-.18-.07-.22-.03-.01-.07-.27-.07-.54 0-.28.04-.53.07-.55.04-.02.07-.14.07-.25 0-.13.04-.22.08-.22.03 0 .07-.08.07-.15 0-.07.03-.14.07-.14.04 0 .07-.04.07-.08 0-.76 2.02-1.35 3.03-.89ZM39.66 33.4c-.02.04-.11.07-.18.07-.33 0-.78.42-3.24 2.92-2.47 2.5-2.88 2.95-2.88 3.28 0 .07-.04.16-.08.18-.18.11-.05.84.22 1.4.76.97 1.63 1.85 2.6 2.61 0 .04.1.06.24.06.13 0 .27.03.3.07.01.04.14.07.24.07.11 0 .24-.03.26-.07.01-.04.14-.07.27-.07.12 0 .32-.08.41-.15.42-.34.83-.7 1.2-1.1.5-.52.96-.94 1.03-.94.06 0 1.23 1.13 2.6 2.51.85.9 1.74 1.76 2.66 2.6 0 .23.66.06.99-.25.3-.32.47-1 .23-1a52.42 52.42 0 0 0-2.55-2.7c-.87-.83-1.7-1.7-2.49-2.62 0-.07.42-.54.94-1.06.38-.37.74-.78 1.08-1.2a.84.84 0 0 0 .14-.42c0-.12.04-.25.07-.27.04-.02.08-.15.08-.26 0-.1-.04-.23-.08-.25-.03-.02-.07-.16-.07-.3 0-.14-.02-.25-.05-.25a9.96 9.96 0 0 0-3.08-2.84c-.02-.04-.22-.07-.43-.07-.22 0-.42.03-.43.07v-.02Zm39.74.04c-.5.18-.75.36-1.7 1.33-1.27 1.24-1.4 1.47-1.4 2.33 0 .78.15 1 1.28 2.15.62.6.92.95.9 1.04 0 .07-1.11 1.26-2.46 2.62-3 3.07-2.95 3-2.32 3.65.3.34.99.5.99.27.91-.83 1.8-1.7 2.66-2.59.83-.87 1.7-1.7 2.6-2.51.05 0 .5.4.97.87.99 1.02 1.36 1.32 1.67 1.32.13 0 .25.03.27.07.02.04.14.07.25.07.1 0 .24-.03.25-.07.02-.04.17-.07.3-.07.14 0 .24-.02.24-.06a15.8 15.8 0 0 0 2.6-2.57c.27-.58.37-1.31.21-1.42-.03-.02-.07-.13-.07-.22 0-.3-.45-.84-2.97-3.35-2.38-2.42-2.83-2.83-3.15-2.83-.07 0-.16-.03-.18-.07-.06-.09-.65-.07-.94.02v.02Zm-38.36 2.7c.52.5.74.76.74.9 0 .24-4.68 4.96-4.91 4.96-.27 0-1.8-1.64-1.71-1.8.33-.39.67-.76 1.04-1.11 1.14-1.1 2.26-2.23 3.35-3.37.6-.59.43-.64 1.5.42Zm39.84-.02 1.33 1.36 1.59 1.59c.54.55 1 1.04 1.04 1.11.1.18-1.44 1.82-1.71 1.82-.25 0-4.92-4.73-4.92-4.97 0-.28 1.63-1.82 1.8-1.73.06.03.45.4.87.82Zm-22.75 7.47c-.17.06-.35.1-.53.09-.21 0-.43.04-.45.07-.01.04-.2.08-.4.08s-.35.03-.35.07c0 .03-.13.07-.3.07-.15 0-.28.04-.28.07 0 .04-.1.08-.25.08-.13 0-.27.03-.29.07-.02.04-.12.07-.21.07a.34.34 0 0 0-.22.08c-.02.03-.1.07-.18.07-.1 0-.2.03-.27.07l-.3.13a20.94 20.94 0 0 0-1.37.6c0 .04-.08.07-.15.07a12.5 12.5 0 0 0-2.6 1.6 24.79 24.79 0 0 0-3.51 3.66 12.7 12.7 0 0 0-1.47 2.4c0 .07-.03.14-.07.14-.04 0-.07.06-.07.11 0 .06-.07.24-.16.42-.08.18-.18.37-.2.46l-.29.7a.68.68 0 0 0-.07.28c0 .07-.04.16-.07.18-.04.02-.08.13-.08.22 0 .1-.03.18-.07.22-.03.02-.07.16-.07.3 0 .14-.04.25-.07.25-.04 0-.07.12-.07.29 0 .16-.04.29-.08.29a23.96 23.96 0 0 0 0 7.29c.04 0 .08.13.08.29 0 .16.03.3.07.3.03 0 .07.1.07.25 0 .12.04.27.07.29.04.02.07.13.07.22s.04.18.08.22c.03.01.07.1.07.18 0 .09.03.2.07.27.05.13.18.38.27.7l.22.47c.09.18.16.36.16.42 0 .05.03.1.07.1.04 0 .07.08.07.15 0 .07.04.15.07.15.04 0 .08.05.08.14 0 .08.01.15.05.17.04 0 .13.18.23.34a13.82 13.82 0 0 0 1.16 1.82c.03 0 .07.04.07.08 0 .05.09.18.2.27l.45.53c.14.18.68.73 1.2 1.24 1.3 1.24 1.3 1.24 1.37 1.24.04 0 .13.07.22.14.72.57 1.49 1.07 2.3 1.48.02.04.1.06.18.06.07 0 .13.03.13.07 0 .03.05.07.1.07.06 0 .24.07.42.17.52.26 1.06.48 1.62.63.22.1.63.22.8.22.08 0 .15.04.15.07 0 .04.13.08.3.08.14 0 .3.03.32.07.01.04.18.07.36.07s.34.04.36.08c.01.03.23.07.46.07a9.99 9.99 0 0 0 2.38.15c1.09.06 2.18-.04 3.24-.3.2 0 .36-.03.36-.07 0-.04.13-.07.29-.07.16 0 .29-.04.29-.08 0-.03.1-.07.25-.07.12 0 .27-.03.29-.07.01-.04.12-.07.21-.07.1 0 .18-.04.22-.08.02-.03.1-.07.18-.07.09 0 .2-.04.27-.07.45-.23.9-.42 1.38-.59 0-.03.08-.07.15-.07.07 0 .14-.04.14-.07 0-.04.07-.07.15-.07.07 0 .14-.04.14-.08 0-.03.07-.07.14-.07.08 0 .15-.04.15-.07 0-.04.03-.08.07-.08l.72-.38.8-.5.37-.3c.13-.11.25-.2.29-.2.03 0 .12-.06.18-.13l.52-.45a20.3 20.3 0 0 0 2.66-2.9 14.3 14.3 0 0 0 1.46-2.33c.04-.02.06-.1.06-.19 0-.07.03-.12.07-.12.03 0 .07-.06.07-.11 0-.06.07-.24.16-.42.07-.18.18-.37.2-.46l.29-.7.07-.25a.6.6 0 0 1 .07-.23c.1-.22.22-.64.22-.8 0-.1.03-.17.07-.17.04 0 .07-.13.07-.29 0-.15.04-.3.07-.33.04-.02.08-.18.08-.36s.03-.35.07-.37c.03-.01.07-.23.07-.47a9.98 9.98 0 0 0 .14-2.41c.07-1.1-.03-2.2-.28-3.28 0-.2-.04-.36-.08-.36-.03 0-.07-.13-.07-.3 0-.16-.03-.28-.07-.28-.04 0-.07-.11-.07-.26 0-.13-.04-.27-.07-.29-.04-.02-.08-.13-.08-.22s-.03-.18-.07-.22c-.03-.02-.07-.1-.07-.18 0-.1-.04-.2-.07-.27l-.13-.31a16.5 16.5 0 0 0-1.89-3.61c0-.31-.75-.91-1.13-.91-.22 0-.38.03-.38.07 0 .04-.04.07-.07.07-.11 0-.24.15-.36.35-.1.18-.11.9 0 .9.03 0 .07.05.07.1 0 .06.02.11.05.13a12 12 0 0 1 1.82 3.26c.04 0 .07.06.07.15 0 .07.04.16.08.18.03.02.07.13.07.22s.03.18.07.22c.04.02.07.12.07.22 0 .09.04.18.07.21.04.02.08.15.08.26 0 .1.03.24.07.25.03.02.07.15.07.28 0 .14.04.27.07.3.04.04.07.23.11.4l.13.85a22.55 22.55 0 0 1-.1 4.66c-.03.02-.07.18-.07.37 0 .18-.03.34-.07.36-.03.02-.07.16-.07.3 0 .12-.04.27-.07.28-.04.02-.07.15-.07.26 0 .1-.04.24-.08.25-.03.02-.07.13-.07.22 0 .1-.03.19-.07.22-.04.02-.07.13-.07.22 0 .1-.04.18-.07.22-.04.02-.08.1-.08.18 0 .1-.03.15-.07.15-.03 0-.07.05-.07.1a.6.6 0 0 1-.07.24c-.28.54-.55 1.1-.81 1.64a33.7 33.7 0 0 1-1.35 1.95 19.1 19.1 0 0 1-3.1 2.86c-.68.48-.65.57-.65-1.73.03-.77-.02-1.53-.14-2.3 0-.12-.04-.21-.07-.21-.04 0-.07-.07-.07-.15 0-.07-.04-.14-.08-.14-.03 0-.07-.06-.07-.11 0-.3-.95-1.06-1.98-1.57a4.52 4.52 0 0 1-.66-.38c-.02-.04-.1-.06-.18-.06-.08 0-.13-.03-.13-.07 0-.04-.07-.07-.14-.07-.08 0-.15-.04-.15-.08 0-.03-.07-.07-.14-.07s-.15-.04-.15-.07c0-.04-.07-.07-.14-.07s-.14-.04-.14-.08c0-.02-.08-.07-.15-.09-.36-.09-.16-1.8.2-1.8.05 0 .09-.02.09-.06 0-.03.09-.1.2-.18l.36-.25c.7-.58 1.28-1.3 1.67-2.14l.36-.73a.83.83 0 0 0 .07-.32c0-.1.04-.19.08-.22.03-.02.07-.18.07-.33 0-.16.03-.31.07-.33.05-.03.07-1.47.07-4.12 0-4.52 0-4.37-.48-4.64-.2-.11-9.24-.13-9.24-.02 0 .03-.09.07-.21.07-.11 0-.24.04-.26.07-.01.04-.12.08-.21.08-.11 0-.18.03-.18.07 0 .04-.07.07-.15.07-.07 0-.14.04-.14.08 0 .03-.04.07-.09.07-.23 0-1.31 1.07-1.51 1.5-.04.1-.11.18-.15.18-.01 0-.05.07-.05.14s-.04.15-.07.15c-.04 0-.07.07-.07.18 0 .09-.04.18-.08.22-.03.02-.07.14-.07.25 0 .11-.03.24-.07.26-.05.03-.07 1.02-.07 2.73 0 1.75.02 2.7.07 2.7.04 0 .07.13.07.29 0 .15.04.3.07.33.04.02.08.13.08.22 0 .1.03.23.07.3l.25.53c.18.45.42.87.72 1.24a6.9 6.9 0 0 0 1.85 1.68l.2.1v.81l-.03.8-1.16.59a9 9 0 0 0-2.4 1.42c-.44.43-.62.73-.85 1.53-.06.18-.1.93-.1 2.13 0 1.02-.03 1.88-.05 1.91-.07.04-.93-.49-1.02-.62l-.3-.21c-.35-.26-.59-.48-1.4-1.28a12.75 12.75 0 0 1-2.73-3.83l-.4-.82-.07-.23c0-.06-.04-.11-.07-.11-.04 0-.08-.08-.08-.15l-.07-.29-.14-.3a.77.77 0 0 1-.07-.28c0-.08-.04-.17-.08-.19-.03-.01-.07-.14-.07-.25 0-.11-.03-.24-.07-.26-.04-.01-.07-.16-.07-.29 0-.13-.04-.27-.07-.29a19.83 19.83 0 0 1 0-6.65c.03 0 .07-.15.07-.27 0-.13.03-.28.07-.3.04-.01.07-.14.07-.25 0-.11.04-.24.07-.26.04-.01.08-.12.08-.21 0-.1.03-.19.07-.22.03-.02.07-.13.07-.22 0-.1.04-.18.07-.22.04-.02.07-.11.07-.18 0-.1.04-.15.08-.15.03 0 .07-.07.07-.18 0-.1.03-.18.07-.18.04 0 .07-.06.07-.11 0-.11.3-.73.38-.75.04-.02.05-.09.05-.14 0-.08.08-.22.15-.35.07-.13.18-.27.18-.33.41-.65.85-1.29 1.33-1.9a24.7 24.7 0 0 1 2.4-2.36 22 22 0 0 1 1.81-1.2.99.99 0 0 1 .35-.15c.05 0 .12-.02.14-.06.04-.07.63-.38.74-.38.05 0 .1-.04.1-.07 0-.04.1-.08.19-.08.1 0 .18-.03.18-.07 0-.03.05-.07.14-.07.07 0 .16-.04.18-.07.02-.04.13-.08.22-.08s.18-.03.21-.07c.02-.04.13-.07.22-.07s.18-.04.21-.08c.02-.03.15-.07.26-.07.1 0 .23-.03.25-.07.02-.04.16-.07.29-.07.12 0 .27-.04.28-.08a20.65 20.65 0 0 1 6.17-.1c.17.03.35.07.37.1a.6.6 0 0 0 .32.08c.13 0 .25.03.27.07.02.04.15.07.25.07.11 0 .24.04.26.07.01.04.12.08.21.08.1 0 .18.03.22.07.02.04.12.07.21.07.1 0 .18.04.22.08.02.03.1.07.18.07.09 0 .14.04.14.07 0 .04.06.07.11.07.06 0 .18.04.24.08l.63.3c.79.4 1.55.85 2.26 1.37.33.37 1.44.22 1.44-.21 0-.04.04-.08.08-.08.03 0 .07-.18.07-.36 0-.37-.52-1.1-.8-1.1-.03 0-.1-.03-.16-.09-.1-.1-.68-.49-.72-.49l-.52-.29a2.7 2.7 0 0 0-.59-.31.07.07 0 0 1-.02-.05c0-.04-.07-.08-.14-.08-.08 0-.15-.03-.15-.07 0-.04-.05-.07-.1-.07-.06 0-.24-.08-.42-.17-.18-.07-.36-.18-.45-.2l-.7-.29a.66.66 0 0 0-.27-.07c-.07 0-.16-.04-.18-.07-.02-.04-.13-.08-.22-.08a.34.34 0 0 1-.21-.07c-.02-.04-.17-.07-.3-.07-.14 0-.24-.04-.24-.08 0-.03-.13-.07-.3-.07-.15 0-.28-.04-.28-.07a24.33 24.33 0 0 0-5.49-.3l.04-.01Zm6.53 10.11a8.7 8.7 0 0 1-.07 1.46c-.63.4-4.45.36-6.34-.04l-.9-.22-.47-.14a1.51 1.51 0 0 1-.4-.17c-.03-.03-.14-.05-.23-.05-.07 0-.18-.04-.2-.07-.01-.04-.1-.08-.17-.08-.1 0-.15-.03-.15-.07 0-.04-.07-.07-.14-.07-.11 0-.15-.06-.15-.26 0-.14.04-.25.08-.25.03 0 .07-.06.07-.11 0-.18.63-.91.77-.91.06 0 .1-.02.1-.06 0-.07.35-.23.51-.23.06 0 .15-.04.17-.08.03-.05 1.36-.07 3.78-.07h3.76v1.42h-.02Zm-37.1 2.44c-.02.04-.13.08-.22.08a.7.7 0 0 0-.3.07l-.49.24c-.2.09-.41.22-.5.29l-.18.13a4.27 4.27 0 0 0-1.68 2.91c-.03.22-.09.42-.12.42-.1.04-.1.3 0 .33.03 0 .09.18.1.42a4.37 4.37 0 0 0 2.38 3.33l.49.24c.07.04.2.07.3.07.1 0 .18.04.22.07.02.04.4.08.86.08.47 0 .85-.04.87-.08.02-.03.12-.07.21-.07a.7.7 0 0 0 .31-.07l.49-.24c.2-.09.41-.22.5-.29.06-.06.12-.1.2-.13.3 0 1.11-1.16 1.58-2.27l.13-.28H40l.26-.23c.38-.37.6-.93.36-.93-.04 0-.07-.06-.07-.11 0-.08-.13-.24-.27-.37l-.27-.25H32.7l-.13-.28a4.8 4.8 0 0 0-1.78-2.42 24.6 24.6 0 0 1-.99-.51.76.76 0 0 0-.3-.07.34.34 0 0 1-.22-.08 2.9 2.9 0 0 0-.87-.07c-.46 0-.84.04-.86.07Zm63.15 0c-.02.04-.13.08-.22.08a.7.7 0 0 0-.3.07l-.49.24c-.2.09-.41.22-.5.29l-.18.13c-.35 0-1.3 1.38-1.59 2.27l-.1.28h-7.35l-.27.25c-.14.13-.27.3-.27.35 0 .05-.04.14-.1.18-.12.15.06.58.37.88l.27.23h7.3l.13.28c.45 1.09 1.28 2.27 1.59 2.27.03 0 .12.06.2.13.09.07.3.2.5.3l.49.23c.07.04.2.07.3.07.1 0 .18.04.22.07.02.04.4.08.86.08.47 0 .85-.04.87-.08.01-.03.12-.07.21-.07.11 0 .24-.03.3-.07l.89-.44.29-.22a4.3 4.3 0 0 0 1.69-2.93c.02-.24.07-.42.1-.42.04 0 .08-.07.08-.15 0-.07-.04-.14-.07-.14-.04 0-.1-.18-.11-.42a4.39 4.39 0 0 0-3.38-3.74 2.9 2.9 0 0 0-.87-.07c-.47 0-.84.04-.86.07Zm-34.82.28a17.75 17.75 0 0 0 8.53.73l.22-.02.02.87c0 .53 0 .9-.05.93a.8.8 0 0 0-.08.37c0 .14-.03.29-.07.3-.03.02-.07.1-.07.17 0 .44-.9 1.7-1.51 2.13l-.29.22a4.4 4.4 0 0 1-.83.44l-.34.14a.97.97 0 0 1-.36.08c-.14 0-.29.03-.3.07-.02.04-.37.07-.76.07-.4 0-.72-.03-.76-.07-.02-.04-.16-.07-.29-.07-.13 0-.27-.03-.4-.08l-.28-.14a.66.66 0 0 0-.25-.07c-.06 0-.11-.02-.11-.06 0-.04-.1-.1-.25-.16s-.25-.13-.25-.15l-.22-.18a4.37 4.37 0 0 1-1.51-1.97l-.15-.35a1 1 0 0 1-.07-.36 6.52 6.52 0 0 1-.14-1.66c0-1.47-.04-1.42.57-1.18ZM29 58.04c.02.04.1.07.18.07.14 0 .5.17.5.24 0 .04.04.05.1.05.32 0 .97 1 1.06 1.64.12.99-.5 2.45-1.07 2.45-.05 0-.09.03-.09.07 0 .03-.07.07-.14.07s-.14.04-.14.07c0 .04-.08.08-.18.08a.34.34 0 0 0-.22.07c-.02.04-.29.07-.58.07-.3 0-.54-.03-.54-.07 0-.04-.09-.07-.21-.07-.13 0-.22-.04-.22-.08 0-.03-.07-.07-.14-.07s-.15-.04-.15-.07c0-.04-.03-.07-.09-.07-.45 0-1.02-1.15-1.02-2.05 0-.9.57-2.04 1.02-2.04.06 0 .1-.03.1-.07 0-.04.07-.07.14-.07s.14-.04.14-.08c0-.03.1-.07.22-.07s.21-.03.21-.07c0-.04.24-.07.54-.07.3 0 .54.03.58.07Zm63.11 0c0 .04.1.07.22.07s.21.04.21.07c0 .04.08.08.15.08.07 0 .14.03.14.07 0 .04.04.07.1.07.4 0 1.05 1.24 1.05 2.04 0 .82-.64 2.05-1.08 2.05-.03 0-.07.03-.07.07 0 .03-.07.07-.14.07s-.15.04-.15.07c0 .04-.09.08-.21.08-.13 0-.22.03-.22.07 0 .04-.23.07-.54.07a1.5 1.5 0 0 1-.57-.07c-.02-.04-.13-.07-.22-.07-.1 0-.18-.04-.18-.08 0-.03-.07-.07-.14-.07-.08 0-.15-.04-.15-.07 0-.04-.03-.07-.09-.07-.48 0-1.08-1.24-1.04-2.16.03-.85.61-1.93 1.04-1.93.06 0 .1-.01.1-.05 0-.07.35-.24.51-.24.06 0 .15-.03.17-.07.01-.04.28-.07.57-.07.3 0 .54.03.54.07ZM61.3 65.29a2.3 2.3 0 0 0 .99 1.93c.17 0 .33.28.22.39-.26.22-.54.41-.85.56-.03 0-.07.04-.07.07 0 .04-.05.08-.14.08-.07 0-.16.03-.18.07-.02.04-.16.07-.29.07-.14 0-.25.04-.25.08 0 .03-.29.07-.72.07s-.72-.04-.72-.07c0-.04-.1-.08-.22-.08-.1 0-.23-.03-.25-.07-.02-.04-.13-.07-.22-.07-.1 0-.18-.04-.18-.08 0-.03-.03-.07-.07-.07-.1 0-.72-.44-.84-.58-.08-.11.05-.37.21-.37.04 0 .18-.14.36-.3a2.2 2.2 0 0 0 .65-1.6l.02-.54 1.13.04c.78 0 1.14 0 1.17-.08.13-.18.22 0 .25.55Zm-5.18 3.55c.63.62 1.55 1.23 1.84 1.23.05 0 .1.03.1.07 0 .04.08.07.18.07.1 0 .18.04.22.07.02.04.16.08.29.08.12 0 .27.03.29.07.01.04.43.07.97.07s.95-.03.97-.07c.02-.04.16-.07.29-.07.12 0 .27-.04.29-.08.01-.03.1-.07.18-.07.09 0 .21-.03.28-.07a5.83 5.83 0 0 0 1.88-1.28 2 2 0 0 1 .57-.47c.33 0 1.06.55 1.28.93.18.3.13 4.97-.05 4.97-.08 0-.15.04-.15.08 0 .03-.05.07-.14.07-.07 0-.16.04-.18.07-.02.04-.13.08-.22.08a.34.34 0 0 0-.21.07c-.02.03-.13.07-.22.07a.34.34 0 0 0-.22.07c-.01.04-.14.08-.25.08-.1 0-.23.03-.25.07-.02.04-.16.07-.29.07-.12 0-.27.04-.29.08-.01.03-.18.07-.36.07a8.5 8.5 0 0 1-2.93.24c-.98.09-1.96 0-2.92-.24-.16 0-.32-.04-.34-.07-.02-.04-.16-.08-.29-.08-.12 0-.27-.03-.28-.07-.02-.04-.15-.07-.26-.07-.1 0-.23-.04-.25-.08-.02-.03-.12-.07-.21-.07a.34.34 0 0 1-.22-.07c-.02-.04-.13-.07-.22-.07a.34.34 0 0 1-.21-.08c-.02-.03-.11-.07-.18-.07-.1 0-.15-.04-.15-.07 0-.04-.07-.08-.14-.08-.14 0-.14-.05-.14-2.37 0-2.77 0-2.77.75-3.26.58-.36.65-.36 1.19.18ZM45.27 74.1c-.07.06-1.26 1.2-2.6 2.57a37.47 37.47 0 0 1-2.6 2.5c-.09.02-.43-.3-1.04-.91-1.3-1.35-2.06-1.64-3.06-1.11-.92.72-1.75 1.56-2.47 2.5-.27.54-.38 1.29-.22 1.4.04.01.08.1.08.18a1 1 0 0 0 .12.36 75.9 75.9 0 0 0 5.64 5.7c.55.24.66.28 1 .28.18 0 .36-.04.4-.07a9.84 9.84 0 0 0 3.08-2.85c.03 0 .05-.1.05-.25 0-.13.04-.27.07-.3.04-.01.08-.14.08-.25 0-.1-.04-.23-.08-.25-.03-.02-.07-.13-.07-.22 0-.33-.29-.73-1.22-1.68a7.25 7.25 0 0 1-.94-1.05c0-.06 1.12-1.24 2.49-2.63.88-.87 1.73-1.77 2.55-2.7.04 0 .07-.14.07-.34 0-.66-.8-1.19-1.33-.88Zm28.44.24c-.66.67-.64.71 2.34 3.72.85.83 1.67 1.69 2.45 2.59 0 .05-.41.52-.9 1.02-1.37 1.36-1.62 2.1-1.11 3.1.25.5 2.08 2.36 2.52 2.54l.45.19c.36.18 1.26-.02 1.76-.42.27-.24 5.28-5.29 5.28-5.34l.14-.44c.22-.6.18-.98-.14-1.68a14.34 14.34 0 0 0-2.5-2.48c-.99-.51-1.7-.26-3.06 1.13-.48.49-.95.9-1 .9-.06 0-1.21-1.1-2.56-2.47-3-3.03-3-3.04-3.68-2.37Zm-34.3 6.96a16.5 16.5 0 0 1 2.37 2.57c0 .27-1.62 1.82-1.78 1.75-.15-.1-.87-.78-1.95-1.91l-1.78-1.83c-.39-.37-.76-.76-1.11-1.16-.11-.18 1.44-1.82 1.7-1.82.13 0 .74.58 2.54 2.4Zm44.7-1.57.82.84-.13.18c-.1.19-1.18 1.3-1.98 2.06l-1.44 1.46c-.42.45-.85.87-1.31 1.28l-.18.14-.85-.82c-.6-.6-.83-.87-.83-1 0-.25 4.65-4.96 4.9-4.97.15 0 .36.18 1 .83Zm-24.3.33c-.01.04-.08.07-.15.07-.06 0-.22.13-.36.28l-.24.27v7.4l-.23.1-.52.23c-.62.27-1.77 1.18-1.77 1.4 0 .04-.05.13-.12.2-.08.1-.2.31-.3.51l-.23.5a.78.78 0 0 0-.07.3c0 .1-.03.19-.07.22a3 3 0 0 0-.07.88 3 3 0 0 0 .07.87c.04.02.07.13.07.22 0 .11.04.24.07.31l.44.9.21.28a4.3 4.3 0 0 0 2.83 1.72c.18 0 .4.07.48.13.11.07.18.07.3 0 .15-.08.31-.12.48-.13a4.3 4.3 0 0 0 3.24-2.4l.23-.5a.7.7 0 0 0 .07-.31c0-.1.04-.18.08-.22a3 3 0 0 0 .07-.87 3 3 0 0 0-.07-.88c-.04-.02-.08-.13-.08-.22a.7.7 0 0 0-.07-.3l-.23-.5c-.1-.2-.2-.4-.25-.45a.3.3 0 0 1-.1-.19c0-.3-1.24-1.22-2.32-1.67l-.27-.13v-7.4l-.23-.25c-.32-.37-.77-.55-.88-.37Zm1.2 10.1c.41.18 1 .73 1 .89 0 .05.02.1.06.1.07 0 .23.36.23.52 0 .05.04.15.07.16.04.02.08.3.08.59 0 .3-.04.54-.08.54-.03 0-.07.1-.07.22 0 .13-.03.22-.07.22-.04 0-.07.07-.07.15 0 .07-.04.14-.07.14-.04 0-.08.04-.08.1 0 .41-1.2 1.07-2.01 1.07-.8 0-2.02-.66-2.02-1.1 0-.03-.03-.07-.07-.07-.04 0-.07-.07-.07-.14 0-.08-.04-.15-.07-.15-.04 0-.08-.09-.08-.22s-.03-.22-.07-.22c-.03 0-.07-.23-.07-.54 0-.3.04-.55.07-.59.04-.01.07-.12.07-.21 0-.11.04-.19.08-.19.03 0 .07-.07.07-.14 0-.08.03-.15.07-.15.04 0 .07-.04.07-.09 0-.1.52-.62.8-.8a2.87 2.87 0 0 1 2.23-.1Z" clip-rule="evenodd"/>
<defs>
<linearGradient id="soft-i-1" x1="67.2" x2="35.4" y1="0" y2="115.2" gradientUnits="userSpaceOnUse"><stop stop-color="#2C8DFF"/><stop offset="1" stop-color="#006AE5"/></linearGradient></defs></svg>
