<svg xmlns="http://www.w3.org/2000/svg" fill="none" viewBox="0 0 120 120">
<rect width="120" height="120" fill="url(#soft-i-2)" rx="20"/>
<path fill="#fff" fill-rule="evenodd" d="M36.76 24.05c-.04.04-.45.1-.9.13-.62.06-1.24.15-1.85.29-.13 0-.26.05-.27.09-.83.22-1.62.57-2.34 1.02-.1 0-.15.04-.15.07 0 .04-.03.08-.09.08-.05 0-.2.09-.34.22a16.09 16.09 0 0 0-2.88 2.91 9.72 9.72 0 0 0-1.51 3.46c-.04.02-.07.19-.07.33a.9.9 0 0 1-.06.33c-.03 0-.09.33-.1.71-.02.4-.08.67-.13.67-.1.04-.1.99 0 1.1.05.03.1.36.14.7.08.61.2 1.23.36 1.83.04.02.07.11.07.18 0 .08.11.4.26.73.14.35.25.66.25.71 0 .06.03.1.07.1.04 0 .07.07.07.14s.04.15.07.15c.04 0 .08.07.08.14s.03.15.07.15c.03 0 .07.05.07.1 0 .06.04.12.07.12.04 0 .07.05.07.1 0 .06.04.11.08.11.03 0 .07.04.07.1 0 .05.05.16.12.23l.36.48a14.3 14.3 0 0 0 2.47 2.35l.47.27c.72.4 1.47.75 2.25 1.02.23.11.63.22.83.22.1 0 .21.04.23.07.02.04.2.08.38.08s.38.03.43.07c.07.09 2.29.05 3.06-.04.6-.07.49.37-.3 1.13-.08.06-.19.22-.3.37l-.2.29-.23.29-.21.3c-.37.48-.7 1-1 1.54-.05.02-.24.36-.71 1.2-.33.51-.6 1.06-.81 1.63-.04 0-.07.07-.07.14s-.04.15-.08.15c-.03 0-.07.07-.07.14 0 .08-.03.15-.07.15-.04 0-.07.07-.07.18 0 .1-.04.18-.07.22-.04.02-.08.1-.08.18 0 .1-.03.15-.07.15-.03 0-.07.05-.07.14 0 .08-.04.17-.07.19-.04.01-.07.12-.07.21 0 .11-.04.19-.08.19-.03 0-.07.07-.07.18 0 .09-.03.18-.07.18-.04 0-.07.1-.07.22 0 .13-.04.22-.07.22-.04 0-.08.09-.08.22 0 .12-.03.22-.07.22a23 23 0 0 0-.65 2.51c-.97 4.78-.75 9.73.65 14.4.07.28.17.55.3.82.03.07.06.18.06.27 0 .07.04.16.07.18.11.08-.12.33-.3.33-.07 0-.13.04-.13.07 0 .04-.05.08-.1.08-.06 0-.28.09-.51.22a2.2 2.2 0 0 1-.5.21c-.06 0-.11.04-.11.08 0 .03-.06.07-.11.07-.34 0-1.26.75-1.46 1.2l-.18.35c-.29.58.3 2.46.8 2.46.03 0 .17.09.3.22.14.13.29.22.34.22.04 0 .1.01.11.05.18.18.38.33.6.46a10.77 10.77 0 0 1 1.11.8c.05 0 .29.14.54.33.17.12.35.23.54.32l.18.15c.07.07.18.15.22.15.05 0 .14.07.21.14l.18.15c.06 0 .15.07.24.14.09.08.18.15.25.15.05 0 .09.02.09.05 0 .04.12.15.29.24.16.1.28.2.28.24 0 .03.04.05.1.05.05 0 .16.06.23.13.21.18.76.46.94.46.09 0 .17.03.21.07.05.09.52.09.58 0 .02-.04.16-.07.29-.07.14 0 .25-.04.25-.08 0-.03.05-.07.14-.07.07 0 .15-.02.16-.05 0-.04.15-.15.3-.26.3-.27.52-.61.64-1a10 10 0 0 0 .27-1.82l.52-4.56c.16-.26.07-2.08-.09-2.42-.2-.39-.8-1.04-.97-1.04-.05 0-.1-.04-.1-.08 0-.03-.06-.07-.15-.07-.07 0-.16-.04-.18-.07-.06-.1-1.08-.1-1.26 0-.48.24-.98.46-1.48.65-.05 0-.1.04-.1.08 0 .03-.08.07-.15.07-.07 0-.15.04-.15.07 0 .04-.03.08-.09.08l-.34.1c-.25.15-.41.11-.47-.09l-.1-.25a.68.68 0 0 1-.08-.27c0-.08-.03-.17-.07-.19-.03-.01-.07-.12-.07-.22a.34.34 0 0 0-.07-.21c-.04-.02-.07-.15-.07-.26 0-.1-.04-.24-.08-.25-.06-.26-.13-.5-.21-.75l-.15-.62c-.91-4.24-.8-8.64.36-12.81l.15-.46c.03-.07.07-.2.07-.3 0-.1.04-.19.07-.19.04 0 .07-.07.07-.15 0-.07.04-.21.1-.3.17-.37.2-.42.2-.55 0-.1.03-.17.06-.17.04 0 .08-.07.08-.18 0-.09.03-.18.07-.18.03 0 .07-.06.07-.11l.07-.26.15-.29a.68.68 0 0 0 .07-.25c0-.06.03-.11.07-.11.04 0 .07-.07.07-.15 0-.07.04-.14.07-.14.04 0 .08-.04.08-.1a11.54 11.54 0 0 1 1.31-2.45c.04 0 .05-.04.05-.1 0-.05.06-.16.13-.23l.24-.35c.05-.1.12-.2.16-.2.03 0 .05-.04.05-.09 0-.05.06-.16.13-.24l.3-.4.22-.29.22-.3c.15-.24.33-.48.54-.7.63-.77.93-.99 1.08-.75.05.1.72.1.79 0 .02-.04.18-.07.32-.07.16 0 .3-.04.33-.07.01-.04.1-.08.18-.08.09 0 .14-.03.14-.07 0-.04.07-.07.14-.07.08 0 .15-.04.15-.08 0-.03.03-.07.09-.07.09 0 .32-.18.68-.53a3.98 3.98 0 0 0 .88-1.51c0-.13.04-.22.08-.22.03 0 .07-.24.07-.58 0-.42.02-.59.09-.59.05 0 .18-.07.29-.18l.36-.22c.07-.01.12-.07.12-.1 0-.04.04-.08.07-.08.04 0 .27-.13.53-.29a22.42 22.42 0 0 1 3.07-1.6c0-.04.1-.08.18-.08.11 0 .18-.03.18-.07 0-.04.06-.07.15-.07.07 0 .16-.04.18-.08.02-.03.12-.07.21-.07.11 0 .18-.03.18-.07 0-.04.08-.07.18-.07.08 0 .18-.02.22-.06.12-.07.26-.13.4-.16.18-.04.37-.11.45-.15a.66.66 0 0 1 .27-.07c.07 0 .16-.04.18-.07.01-.04.14-.08.25-.08.1 0 .23-.03.25-.07.02-.04.14-.07.25-.07.11 0 .24-.04.25-.08l1.3-.29a26.08 26.08 0 0 1 12.17.58c.02.04.13.08.22.08s.18.03.21.07c.02.04.13.07.22.07s.18.04.21.08c.02.03.11.07.18.07.1 0 .22.04.3.07l.28.15.29.07c.07 0 .14.04.14.07 0 .04.06.08.11.08l.25.07.3.15c.06.03.17.07.24.07.06 0 .11.04.11.07 0 .04.07.07.14.07.08 0 .15.04.15.08 0 .03.05.07.1.07 1 .42 1.95.93 2.85 1.53.15.12.32.22.5.3.04 0 .08.01.08.05 0 .03.18.18.4.3.21.15.39.28.39.32 0 .03.04.05.07.05.07 0 .24.11.6.46.1.1.23.2.27.2.28.25.58.5.88.73a32.29 32.29 0 0 1 3.53 3.86 25.98 25.98 0 0 1 2.05 3.3c.07.14.14.27.18.27.03 0 .05.08.05.15 0 .07.04.14.07.14.04 0 .08.08.08.15 0 .07.03.15.07.15.03 0 .07.07.07.14s.04.15.07.15c.04 0 .07.05.07.1 0 .06.08.24.17.43.07.18.18.36.2.45l.43 1.08c.4 1.1.72 2.22.93 3.37.04.02.07.18.07.33 0 .16.04.3.08.32.03.02.07.22.07.44s.03.42.07.44c.04.02.07.27.07.55.33 2.72.26 5.49-.21 8.2-.04.01-.08.18-.08.36 0 .16-.03.33-.07.36a18.2 18.2 0 0 1-1.58 4.93l-.15.4c0 .05-.03.1-.07.1-.03 0-.07.08-.07.15 0 .07-.04.15-.07.15-.04 0-.07.07-.07.14 0 .08-.04.15-.08.15-.03 0-.07.07-.07.14 0 .08-.02.15-.05.15-.04 0-.1.11-.16.26-.06.14-.13.25-.17.25-.03 0-.05.06-.05.15 0 .07-.02.14-.05.16-.08.02-.31.42-.36.58 0 .08-.08.13-.1.13a13.96 13.96 0 0 1-2.08 2.97l-.36.42c-2.33 2.78-5.23 5-8.5 6.52 0 .04-.05.08-.14.08-.08 0-.17.03-.18.07-.02.04-.11.07-.18.07-.1 0-.15.04-.15.08 0 .03-.05.07-.1.07a.58.58 0 0 0-.24.07 20.24 20.24 0 0 1-5.31 1.53c-.04.04-.23.08-.45.08-.2 0-.4.03-.41.07-.02.04-.33.07-.65.07a2 2 0 0 0-.65.07c-.04.06-5.92.08-17.43.08-11.52 0-17.39.02-17.42.07-.02.04-.11.07-.18.07-.15 0-.58.46-.58.62a.6.6 0 0 1-.07.26c-.13.22.25 1.02.49 1.02.05 0 .09.03.09.07 0 .06 10.11.07 30.19.07 24.98 0 30.2.02 30.31.11.1.08.13.24.13 1.57 0 1.5.03 1.82.29 2.15.4.51 1.06.99 1.44.99a.8.8 0 0 1 .36.09c.14.07.21.07.36 0a.9.9 0 0 1 .32-.1c.2 0 .6-.18 1.4-.69l.72-.4c.04 0 .08-.03.08-.07 0-.02.05-.07.12-.1.13-.03.54-.27.6-.34l.23-.14c.1-.06.2-.13.2-.17 0-.03.05-.05.1-.05.08 0 .19-.08.28-.15.09-.07.18-.14.25-.14.05 0 .09-.04.09-.08 0-.03.03-.07.07-.07.14-.05.28-.12.4-.22.18-.13.32-.22.36-.22l.48-.29.81-.47c.14-.07.27-.17.38-.28a.2.2 0 0 1 .13-.05c.28 0 .9-.91 1-1.48.02-.14.08-.27.11-.27.1 0 .1-.35 0-.36-.05-.04-.1-.19-.12-.37-.02-.15-.08-.3-.11-.3-.02 0-.06-.05-.06-.12 0-.24-.64-.86-1.27-1.22-.63-.37-1.25-.74-1.86-1.13a1.48 1.48 0 0 0-.4-.22c-.03 0-.07-.03-.07-.07 0-.04-.03-.07-.09-.07-.05 0-.18-.08-.25-.15-.09-.07-.2-.15-.27-.15-.05 0-.1-.03-.1-.07 0-.03-.04-.07-.1-.07-.05 0-.18-.07-.25-.15-.09-.07-.2-.14-.27-.14-.05 0-.1-.04-.1-.08 0-.03-.04-.07-.08-.07-.03 0-.41-.22-.84-.5-1.08-.66-1.23-.74-1.4-.74-.06 0-.15-.03-.17-.07-.05-.1-1.03-.1-1.08 0-.02.04-.13.07-.22.07-.1 0-.18.02-.18.06 0 .03-.09.09-.2.14-.26.13-.8.66-.8.79 0 .05-.04.1-.08.1-.03 0-.07.08-.07.15 0 .07-.03.15-.07.15-.04 0-.07.62-.1 1.62v1.62l-8.22.02c-7.77.02-8.82 0-8.19-.18.1 0 .16-.08.16-.1 0-.03.08-.07.15-.07.07 0 .14-.03.14-.07 0-.04.07-.07.15-.07.07 0 .14-.04.14-.08 0-.03.07-.07.14-.07.08 0 .15-.04.15-.07 0-.04.07-.07.14-.07s.15-.04.15-.08c0-.03.07-.07.14-.07s.14-.02.14-.05c0-.04.08-.1.17-.13.32-.15.63-.33.91-.55.57-.3 1.11-.65 1.62-1.04.3-.18.54-.34.58-.34.07-.05.14-.1.2-.17l.41-.34.67-.55a26.72 26.72 0 0 0 6.53-7.91c0-.07.02-.15.06-.15.03 0 .1-.12.18-.27l.3-.58c.1-.18.18-.37.18-.42 0-.06.04-.11.07-.11.04 0 .08-.04.08-.1 0-.05.09-.28.21-.54a23.22 23.22 0 0 0 1.51-4.35c.04-.02.08-.17.08-.3 0-.12.03-.27.07-.29.03-.02.07-.16.07-.29 0-.13.04-.27.07-.3.04 0 .08-.17.08-.36 0-.18.03-.34.07-.36.03-.02.07-.2.07-.4 0-.18.04-.37.07-.4.04-.02.07-.27.07-.55 0-.27.04-.53.08-.54.03-.02.07-.37.07-.79 0-.42.03-.78.07-.84.24-4.59-.63-9.17-2.52-13.35-.04 0-.07-.04-.07-.1-.13-.37-.3-.73-.5-1.07l-.22-.4-.22-.4a2.14 2.14 0 0 1-.22-.39c-.1-.18-.2-.34-.23-.34-.45-.85-.97-1.64-1.57-2.39 0-.04-.09-.18-.2-.27-.1-.13-.28-.33-.37-.48l-.4-.49-.72-.78c-.7-.8-1.45-1.55-2.27-2.23-.7-.6-1.44-1.18-2.17-1.74-.06 0-.2-.1-.35-.22a.97.97 0 0 0-.34-.22c-.05 0-.09-.04-.09-.08 0-.03-.03-.07-.09-.07-.05 0-.18-.07-.25-.14l-.18-.15c-.5-.32-1.01-.62-1.55-.87a3.71 3.71 0 0 0-.77-.37c-.06 0-.11-.04-.11-.07 0-.04-.07-.07-.14-.07-.08 0-.15-.04-.15-.08 0-.03-.05-.07-.1-.07-.06 0-.22-.07-.37-.15-.14-.07-.3-.14-.36-.14-.05 0-.1-.04-.1-.07 0-.04-.06-.08-.11-.08a.58.58 0 0 1-.24-.07c-.3-.15-.62-.27-.95-.37-.07 0-.15-.03-.15-.07 0-.03-.07-.07-.18-.07a.34.34 0 0 1-.21-.07 23.36 23.36 0 0 0-3.53-.95c-.54-.13-1.33-.26-2.38-.37-.84-.1-5.27-.1-6.12 0a30.69 30.69 0 0 0-5.9 1.32c-.02.03-.13.07-.22.07-.1 0-.18.04-.18.07 0 .04-.07.07-.14.07a.77.77 0 0 0-.27.08c-.22.11-.45.2-.69.29l-.23.07c-.05 0-.1.04-.1.08 0 .03-.06.07-.12.07a.95.95 0 0 0-.36.14c-.53.27-1.07.54-1.62.8l-.43.26c-.64.34-1.27.72-1.87 1.13 0 .16-.36.07-.6-.15-1.61-1.56-4.76-.74-5.45 1.43l-.14.42a1.3 1.3 0 0 0-.08.43c0 .31 0 .33-.26.4a8.67 8.67 0 0 1-6.38-1.73 11.56 11.56 0 0 1-2.36-2.91c-.2-.42-.37-.85-.5-1.3a7.64 7.64 0 0 1-.29-1.05 17.04 17.04 0 0 1 0-3.03 8.64 8.64 0 0 1 .72-2.2c.04 0 .07-.06.07-.15 0-.07.02-.15.06-.16.03 0 .12-.19.23-.37.1-.18.18-.34.24-.34a10.29 10.29 0 0 1 2.43-2.48c0-.04.05-.08.1-.08.06 0 .11-.01.13-.05 0-.06 1.08-.6 1.46-.75.23-.1.66-.22 1.56-.44.45-.09 2.3-.09 2.81 0a10.19 10.19 0 0 1 2.87 1.13 3 3 0 0 1 .75.53c.02.04.06.06.11.06.1 0 .72.67.67.73a.27.27 0 0 1-.18.07c-.08 0-.17.04-.18.07-.02.04-.11.08-.18.08-.1 0-.15.01-.15.05s-.09.1-.21.15c-.27.12-.87.72-.87.85 0 .06-.03.11-.07.11-.04 0-.07.07-.07.18 0 .1-.04.19-.07.22a3.3 3.3 0 0 0 0 1.33l.14.35c.16.3.61.8.97 1.04.18.1.33.22.33.25 0 .04.03.06.09.06.05 0 .18.09.3.18.11.1.22.18.25.18.04 0 .15.1.26.18.12.1.25.19.3.19.06 0 .1.03.1.05 0 .04.08.11.19.18.63.28 1.2.67 1.67 1.17.06-.02.18.04.27.1.44.28 1.32.43 1.66.26l.47-.23c.32-.17.84-.66.84-.8 0-.04.04-.08.08-.08.03 0 .07-.05.07-.14 0-.08.03-.17.07-.19.04-.01.07-.18.07-.32 0-.17.04-.31.07-.33.13-1.19.3-2.37.53-3.54.28-1.64-.1-2.7-1.2-3.28a2.67 2.67 0 0 0-1.9 0c-.3.16-.62.3-.94.42-.43.22-.43.22-.95-.29a6.78 6.78 0 0 0-1.3-1.15 10.49 10.49 0 0 0-5.22-1.97c-.4-.03-.72-.09-.74-.14-.03-.1-.25-.1-.36 0l.04-.02Zm10.51 5.49a.8.8 0 0 1-.05.4c-.06.16-.1.33-.1.5l-.24 1.83-.13.91c-.01.2-.07.38-.16.55l-.13.18-.45-.31a7.2 7.2 0 0 1-.72-.51.9.9 0 0 1-.25-.18c-.12-.1-.25-.19-.3-.19-.06 0-.1-.01-.1-.05s-.12-.15-.28-.24c-.16-.09-.29-.2-.29-.23 0-.04-.04-.06-.09-.06-.05 0-.18-.07-.25-.14-.1-.08-.18-.15-.24-.15-.03 0-.07-.02-.07-.05 0-.04-.09-.11-.21-.19-.5-.3-.54-.43-.17-.6l2.72-1.2.9-.38c.54-.26.61-.24.63.09l-.02.02Zm-4.84 12.92c.18.16.34.36.34.42 0 .07.04.14.08.16.03.02.07.2.07.4s-.04.36-.07.36c-.04 0-.08.08-.08.15 0 .07-.03.15-.07.15-.03 0-.07.05-.07.1 0 .06-.09.17-.22.24-.12.08-.21.15-.21.18 0 .15-1.08.06-1.32-.1-.3-.22-.48-.42-.48-.59 0-.05-.04-.14-.07-.16-.18-.11-.06-.73.23-1.15.41-.62 1.35-.7 1.89-.18l-.02.02Zm-3.22 32.23c-.1 1.85-.26 3.69-.45 5.53-.07.76-.1.9-.27.9a5.88 5.88 0 0 1-1.33-.87c-.04 0-.65-.36-1.34-.84-.45-.32-.92-.63-1.4-.9 0-.03-.09-.1-.2-.15a1.5 1.5 0 0 1-.3-.24.46.46 0 0 0-.22-.13.73.73 0 0 1-.23-.14c-.1-.08-.18-.15-.26-.15-.05 0-.09-.04-.09-.05 0-.04-.09-.11-.2-.19-.53-.25-.5-.34.26-.7a305.8 305.8 0 0 0 1.4-.64c.02-.06.16-.13 1.14-.59l2.54-1.18c.16-.1.32-.15.37-.15.06 0 .11-.03.11-.07 0-.04.07-.07.15-.07.07 0 .14-.04.14-.08 0-.03.05-.07.13-.07.09 0 .1.1.07.78h-.02Zm50.95 12.65c.21.13.41.26.41.3.02.03.09.05.18.05.07 0 .13.03.13.07 0 .02.05.07.12.1.21.08.41.2.6.34.18.14.38.25.59.34.07 0 .13.06.13.1 0 .01.1.09.25.14.14.06.25.13.25.16 0 .04.05.06.1.06.06 0 .12.04.12.07 0 .04.05.08.1.08.06 0 .11.03.11.07 0 .03.07.07.15.07.07 0 .14.04.14.07 0 .04.04.08.07.08.7.35 1.4.74 2.05 1.16.06.1-.01.37-.12.37l-.36.2c-.42.32-.88.6-1.35.82 0 .02-.1.09-.22.14-.12.06-.21.13-.21.15 0 .04-.06.07-.11.07-.07 0-.18.08-.27.15-.1.07-.18.14-.25.14-.06 0-.1.04-.1.08 0 .03-.05.07-.1.07-.06 0-.11.04-.11.07 0 .04-.05.08-.1.08-.06 0-.12.01-.12.05s-.1.11-.23.16c-.13.07-.25.15-.36.24-.09.07-.18.13-.25.13-.06 0-.1.04-.1.07 0 .02-.05.08-.12.1-.12.03-.54.27-.6.34-.14.15-.95.58-1 .55-.05-.04-.07-1.35-.07-3.76 0-4.23-.06-3.88.65-3.48Z" clip-rule="evenodd"/>
<defs><linearGradient id="soft-i-2" x1="67.2" x2="35.4" y1="0" y2="115.2" gradientUnits="userSpaceOnUse"><stop stop-color="#2CCCFF"/><stop offset="1" stop-color="#02C780"/></linearGradient></defs></svg>
