<svg xmlns="http://www.w3.org/2000/svg" fill="none" viewBox="0 0 120 120">
<rect width="120" height="120" fill="url(#soft-i-3)" rx="20"/><path fill="#fff" fill-rule="evenodd" d="M55.08 26.07a6.44 6.44 0 0 0-2.88 1.31 6.23 6.23 0 0 0-1.4 1.74c0 .05-.1.1-.2.12l-.45.11c-.15.04-.42.08-.6.08s-.36.03-.38.07c-.94.2-1.83.6-2.6 1.16-.11 0-.78.7-1.05 1.1l-.27.36-.14.28c-.06.12-.13.23-.17.23-.03 0-.05.08-.05.15 0 .07-.04.14-.07.14-.04 0-.07.06-.07.15 0 .07-.04.16-.08.18-.03.02-.07.13-.07.22 0 .11-.03.18-.07.18-.04 0-.07.11-.07.26 0 .13-.04.27-.07.29-.04.02-.08.18-.08.36 0 .19-.03.35-.07.37-.03.02-.07.5-.07 1.15v1.09l-.2.18a9.79 9.79 0 0 0-2.9 3.34c-.07.14-.14.32-.14.4 0 .07-.04.14-.07.14-.04 0-.07.1-.07.22 0 .13-.04.22-.08.22-.03 0-.07.11-.07.26 0 .12-.03.27-.07.29-.04.02-.07.2-.07.38s-.04.38-.07.44c-.11 1.6-.04 3.22.21 4.8 0 .14.04.24.07.24.04 0 .08.1.08.22 0 .13.03.22.07.22.03 0 .07.06.07.13a4.44 4.44 0 0 0 .58 1.22c0 .05.03.11.07.11a10.07 10.07 0 0 0 2.38 2.4l.21.17v1.11c0 .67.04 1.15.07 1.17.04.01.07.18.07.36s.04.35.08.37c.03.01.07.14.07.25 0 .11.03.24.07.26.04.01.07.12.07.21 0 .1.04.19.07.22.04.02.08.11.08.19 0 .09.01.14.05.14s.14.18.23.4a6.1 6.1 0 0 0 2.25 2.28c.04.1.63.38.78.38.09 0 .14.04.14.08 0 .03.07.07.18.07.1 0 .18.03.22.07.02.04.16.07.29.07.12 0 .27.04.28.08.02.03.22.07.44.07.21 0 .41.04.43.07.02.04.18.08.36.08.27 0 .34.03.4.16a5.86 5.86 0 0 0 2.66 2.5l.52.25a.6.6 0 0 0 .27.07c.07 0 .16.04.18.08.02.03.16.07.29.07a5.18 5.18 0 0 0 1.55.15c.72 0 1.24-.04 1.26-.08.01-.03.14-.07.25-.07.1 0 .23-.04.25-.07.02-.04.13-.08.22-.08.1 0 .18-.03.18-.07 0-.04.07-.07.14-.07s.14-.04.14-.08c0-.03.04-.07.1-.07.08 0 .43-.27.82-.64.3-.29.47-.29.78 0 .36.37.72.64.8.64.06 0 .1.04.1.07 0 .04.07.08.14.08s.14.03.14.07c0 .04.08.07.18.07.1 0 .18.04.22.08.02.03.14.07.25.07.11 0 .24.04.25.07.02.04.54.08 1.26.08a5.18 5.18 0 0 0 1.84-.22c.02-.04.1-.08.18-.08.1 0 .2-.03.27-.07l.52-.25a5.37 5.37 0 0 0 2.47-2.17c.29-.48.32-.5.61-.5.16 0 .32-.03.34-.07.02-.03.22-.07.43-.07.22 0 .42-.04.44-.07.01-.04.16-.08.28-.08.13 0 .27-.03.3-.07.01-.04.12-.07.2-.07.12 0 .19-.04.19-.07 0-.04.05-.08.14-.08.47 0 2.67-1.66 2.67-2.02a6.69 6.69 0 0 0 1-2.31c.04-.02.08-.19.08-.37s.03-.35.07-.36c.03-.02.07-.5.07-1.15v-1.1l.2-.18c.1-.09.23-.16.27-.16l.18-.13a8.46 8.46 0 0 0 1-.91l.33-.36c.21-.24.4-.5.54-.79 0-.03.04-.07.07-.07.04 0 .07-.05.07-.11 0-.05.02-.1.06-.13.23-.33.4-.7.52-1.09 0-.07.04-.13.07-.13.04 0 .07-.09.07-.22 0-.12.04-.22.08-.22.03 0 .07-.12.07-.29 0-.16.03-.29.07-.29.04 0 .07-.16.07-.36.13-.75.18-1.5.15-2.26.04-1.08-.08-2.17-.36-3.2-.04 0-.08-.1-.08-.23s-.03-.22-.07-.22c-.03 0-.07-.05-.07-.12-.16-.51-.4-1-.72-1.43a7.13 7.13 0 0 0-1.87-2.04l-.18-.12c-.04 0-.16-.08-.27-.19l-.2-.16v-1.1c0-.65-.04-1.12-.07-1.14-.04-.02-.07-.18-.07-.37 0-.18-.04-.34-.08-.36-.03-.02-.07-.16-.07-.3 0-.14-.03-.25-.07-.25-.04 0-.07-.07-.07-.14 0-.1-.03-.2-.07-.28l-.3-.6-.14-.25-.14-.26-.25-.36a4.9 4.9 0 0 0-1.26-1.22 6.85 6.85 0 0 0-3.39-1.19l-.45-.1c-.1-.02-.2-.08-.2-.13 0-.5-1.42-1.86-2.51-2.43l-.67-.33a.66.66 0 0 0-.27-.07c-.07 0-.16-.03-.18-.07-.02-.04-.18-.07-.32-.07-.17 0-.3-.04-.33-.08a5.4 5.4 0 0 0-1.22-.07c-.72 0-1.2.04-1.23.07-.01.04-.12.08-.21.08-.1 0-.25.03-.33.07l-.28.14a.66.66 0 0 1-.26.08c-.05 0-.1.02-.1.05 0 .04-.1.1-.2.15-.23.14-.45.3-.65.49l-.45.42-.45-.42a3.93 3.93 0 0 0-.65-.5c-.1-.05-.2-.1-.2-.14 0-.03-.05-.05-.1-.05-.11 0-.18-.04-.53-.2a.74.74 0 0 0-.34-.1.34.34 0 0 1-.21-.07A5.4 5.4 0 0 0 56.3 26c-.72 0-1.2.04-1.22.07Zm2.16 2.63c.54.2 1.11.89 1.11 1.3 0 .08.04.15.08.15.03 0 .07.13.07.3 0 .14.03.3.07.32.1.06.1 28.16 0 28.21-.04.02-.07.17-.07.3 0 .12-.04.27-.07.28-.04.02-.08.11-.08.19 0 .36-.72 1.24-1 1.24a.32.32 0 0 0-.18.07c-.1.09-1.55.05-1.98-.04-.96-.22-2.24-1.33-2.24-1.97 0-.18.54-.83.72-.83.04 0 .08-.04.08-.08 0-.03.07-.07.14-.07s.14-.04.14-.07c0-.04.08-.08.18-.08.1 0 .18-.03.22-.07.05-.09 1.03-.09 1.08 0 .23.38 1.62-.33 1.62-.84 0-.09.04-.18.09-.23.09-.1.02-.37-.18-.82-.1-.22-.41-.51-.54-.51-.05 0-.09-.04-.09-.08 0-.03-.1-.07-.25-.07-.13 0-.27-.04-.29-.07a5.5 5.5 0 0 0-1.73 0c-.02.03-.16.07-.29.07-.12 0-.27.04-.28.07-.02.04-.13.08-.22.08-.1 0-.18.03-.18.07 0 .04-.05.07-.1.07-.42 0-2.28 1.59-2.28 1.95 0 .18-.27.31-.54.26a3.46 3.46 0 0 0-.64-.13c-1.34-.18-2.7-1.62-2.7-2.83 0-.14-.04-.29-.08-.3a3.26 3.26 0 0 1-.07-.92c0-.49.04-.89.07-.9.1-.06.1-.8 0-.97l-.16-.37c-.05-.12-.1-.23-.14-.23-.04 0-.06-.04-.06-.1 0-.09-.46-.45-.8-.61-.11-.08-.2-.15-.2-.19a4.98 4.98 0 0 1-1.8-1.87.09.09 0 0 0-.08-.08c-.03 0-.07-.07-.07-.14 0-.08-.03-.15-.07-.15-.04 0-.07-.09-.07-.18 0-.11-.04-.18-.07-.18-.04 0-.08-.1-.08-.22 0-.11-.03-.24-.07-.26-.03-.01-.07-.18-.07-.36s-.04-.35-.07-.37a8.75 8.75 0 0 1-.07-1.56c-.05-.94.07-1.88.36-2.77.03 0 .07-.08.07-.15 0-.49 1.56-2.38 1.98-2.4l.18-.15c.1-.07.21-.14.27-.14.05 0 .09-.04.09-.08 0-.03.03-.07.09-.07.18 0 .48-.36.72-.8.18-.44.21-.51.18-.91a8.3 8.3 0 0 1 .02-2.5c0-.66.9-2.2 1.3-2.2.03 0 .06-.04.06-.06 0-.04.17-.14.35-.24l.46-.21a.71.71 0 0 1 .27-.08 3.66 3.66 0 0 1 2.07-.13c.67.37.9.92.85 1.86-.05.9.1 1.28.67 1.6.18.12 1.1.13 1.1.03 0-.04.05-.08.1-.08.18 0 .61-.58.61-.8 0-.13.04-.24.08-.25.03-.02.07-.39.07-.84.02-.28 0-.57-.07-.84-.04-.02-.08-.16-.08-.3 0-.14-.03-.25-.07-.25-.03 0-.07-.03-.07-.09 0-.24-.49-1.06-.88-1.46-.17-.16-.3-.34-.42-.54 0-.31 1.48-1.32 1.97-1.33.63-.2 1.3-.2 1.94 0h.02Zm7.49-.02c1.22.29 2.62 1.64 2.28 2.19-.18.27-.56.67-.66.67-.04 0-.08.02-.08.05 0 .08-.36.24-.52.24-.05 0-.14.04-.16.07-.05.1-1.08.1-1.15 0-.24-.36-1.55.35-1.55.84 0 .1-.04.18-.09.24-.1.1.13.84.36 1.1.65.7 3.9.52 4.55-.28l.3-.22c.32-.22.82-.78 1.13-1.26l.23-.34h.5c.27 0 .53.03.54.07.02.04.13.07.22.07.1 0 .23.04.3.08l.47.21c.18.1.35.19.35.24 0 .02.05.06.1.06.17 0 .72.72.98 1.2.4.84.54 2.24.36 3.24-.1.46-.01.94.23 1.33.07.1.13.22.13.24 0 .09.37.4.48.4.06 0 .1.04.1.07 0 .04.03.08.08.08.06 0 .18.07.25.14.1.07.18.15.22.15l.77.62c.47.38 1.2 1.47 1.2 1.78 0 .07.03.15.06.15.04 0 .08.09.08.22 0 .1.03.23.07.25.03.02.07.18.07.37 0 .18.04.34.07.36.04.04.07.64.07 1.57.05.94-.07 1.87-.36 2.77-.03 0-.07.07-.07.18 0 .1-.03.18-.07.18-.04 0-.07.06-.07.11 0 .37-1.51 2.08-1.82 2.08-.04 0-.13.07-.22.14-.09.08-.18.15-.25.15-.05 0-.09.02-.09.05 0 .04-.12.13-.29.24-.16.1-.28.2-.28.24 0 .03-.06.16-.13.25-.23.38-.31.84-.23 1.28.1.5.09 1.71-.06 2.33-.41 1.91-1.58 2.79-3.92 2.95l-.54.04-.42-.4c-.23-.24-.4-.46-.4-.55 0-.09-.03-.18-.06-.2-.04-.02-.08-.25-.08-.5 0-.26.04-.5.08-.52.03-.02.07-.14.07-.25 0-.11-.04-.24-.07-.26-.04-.02-.08-.09-.08-.16 0-.19-.34-.59-.57-.71-.7-.37-1.87.18-1.87.85 0 .11-.04.22-.08.24-.06.27-.09.56-.07.84 0 .45.04.82.07.84.04.01.08.16.08.29 0 .14.03.25.07.25.03 0 .07.04.07.1 0 .12.3.78.36.78.05 0 .07.03.07.1 0 .06.18.32.43.55.17.18.32.37.44.59 0 .29-1.4 1.24-1.84 1.24a.34.34 0 0 0-.22.07c-.01.03-.4.07-.9.07-.48 0-.88-.04-.9-.07-.01-.04-.1-.07-.18-.07-.3 0-1-.88-1-1.24 0-.08-.04-.17-.08-.19-.03-.01-.07-.16-.07-.29 0-.12-.03-.27-.07-.29-.05-.04-.07-4.8-.07-14.1s.02-14.07.07-14.1c.04-.02.07-.19.07-.33 0-.17.04-.3.07-.3.04 0 .08-.07.08-.14 0-1.04 1.54-1.71 3.06-1.33ZM27.65 34.3c-.02.04-.18.07-.33.07-.16 0-.3.04-.32.07-.02.04-.13.08-.22.08-.1 0-.18.03-.18.07 0 .04-.05.07-.1.07-.13 0-.37.13-.55.28a4.32 4.32 0 0 0-1.38 1.4c-.04 0-.06.05-.06.1a.6.6 0 0 1-.07.25l-.14.3c-.06.13-.1 3.09-.16 10.25l-.11 12.53c-.05.84-.03 1.68.05 2.52.04.02.11.38.15.8.07.76.14 1.27.27 1.86.28 1 .65 1.97 1.1 2.91.08.22.2.4.23.4.3.57.65 1.11 1.06 1.6.89 1.1 1.92 2.08 3.06 2.9.24.22.5.42.76.6.37.34.75.65 1.15.95.25.18.49.38.72.59.37.27.73.57 1.08.87l.56.5c.18.18.36.3.4.3.03 0 .12.06.17.13l.6.5c.59.43 1.15.9 1.69 1.4.1.1.2.17.32.23.04 0 .07.04.07.08 0 .03.04.07.08.07.05 0 .18.09.27.2.1.1.3.29.45.38l.28.22.36.3.42.36c.07.09.09 1.45.09 5.95v5.85l.16.24c.07.15.25.33.4.4l.23.17h5.36c5.85 0 5.51.01 5.9-.4.35-.37.33.05.33-9.88 0-6.2-.02-9.4-.07-9.44-.04-.02-.07-.24-.07-.47 0-.24-.04-.46-.07-.48-.04-.02-.08-.18-.08-.36s-.03-.35-.07-.37c-.03-.01-.07-.16-.07-.29 0-.13-.04-.27-.07-.29-.04-.02-.07-.15-.07-.25 0-.11-.04-.24-.08-.26-.03-.02-.07-.13-.07-.2 0-.1-.02-.2-.05-.24a15.3 15.3 0 0 0-1.68-3.46c-.03 0-.07-.05-.07-.1 0-.06-.02-.12-.05-.12-.04 0-.1-.09-.18-.22l-.22-.3-.27-.33c-.38-.57-1.65-1.84-10.33-10.48l-.65-.66-.03-5.83c-.04-4.55-.06-5.83-.13-5.85-.05 0-.09-.13-.09-.23 0-.13-.04-.22-.07-.22-.04 0-.07-.04-.07-.1 0-.14-.18-.49-.24-.49-.03 0-.05-.03-.05-.09 0-.18-.72-.98-1.08-1.2-.11-.05-.22-.15-.22-.18 0-.04-.05-.06-.1-.06-.06 0-.11-.03-.11-.07 0-.04-.08-.07-.15-.07-.07 0-.14-.04-.14-.08 0-.03-.07-.07-.18-.07a.34.34 0 0 1-.22-.07c-.02-.04-.12-.07-.23-.07-.11 0-.24-.04-.27-.08a4.35 4.35 0 0 0-.94-.09l-.86-.02-.04-1.02c0-.45-.06-.9-.16-1.35-.1-.36-.27-.7-.49-1.02a3.8 3.8 0 0 0-1-1.09l-.3-.22a2.5 2.5 0 0 0-.78-.36c-.1 0-.15-.04-.15-.08 0-.03-.12-.07-.29-.07-.14 0-.3-.03-.32-.07-.02-.04-.3-.07-.61-.07-.3 0-.6.03-.61.07Zm63.5 0c-.02.04-.16.07-.29.07-.12 0-.27.04-.29.07-.01.04-.12.08-.21.08-.1 0-.18.03-.18.07 0 .04-.07.07-.15.07-.07 0-.14.04-.14.08 0 .03-.07.07-.14.07-.08 0-.15.02-.15.05 0 .04-.09.11-.21.19-1.07.63-1.66 1.85-1.73 3.55l-.04.98-.86.02c-.47 0-.9.06-.94.1-.03.03-.16.07-.27.07-.1 0-.21.03-.23.07-.02.03-.13.07-.22.07-.1 0-.18.02-.18.06 0 .03-.1.1-.25.16-.14.05-.25.13-.25.15l-.22.18c-.36.2-1.08 1-1.08 1.18 0 .06-.02.1-.05.1-.07 0-.24.36-.24.49 0 .05-.03.09-.07.09-.03 0-.07.09-.07.22 0 .1-.04.21-.09.23-.07.02-.09 1.28-.13 5.87l-.03 5.83-1.77 1.73c-3.03 3.05-6.06 6.1-9.07 9.19 0 .03-.07.12-.38.49l-.25.36c-.07.11-.14.2-.18.2-.03 0-.05.06-.05.11 0 .06-.04.11-.07.11-.04 0-.08.04-.08.1 0 .05-.07.17-.14.25-.07.09-.14.2-.14.27a11 11 0 0 0-1 2.08c-.03 0-.1.18-.17.36-.03.14-.08.28-.15.4a.42.42 0 0 0-.05.22c0 .1-.04.18-.07.22-.04.02-.08.15-.08.26 0 .1-.03.23-.07.25-.03.02-.07.16-.07.3 0 .12-.04.27-.07.28-.04.02-.07.19-.07.37s-.04.34-.08.36c-.03.02-.07.24-.07.48 0 .23-.03.45-.07.47-.1.07-.09 18.8.02 19 .12.22.27.37.54.55l.21.17h10.75l.23-.17a.96.96 0 0 0 .4-.4l.16-.24v-11.7l.27-.26c.39-.37.8-.7 1.24-1 .06-.07.22-.18.36-.3a774.2 774.2 0 0 1 6.4-5.27c.3-.16.55-.36.77-.6l.14-.1c.08-.04.14-.1.2-.16l.41-.35.47-.38c.92-.75 1.76-1.6 2.5-2.53.32-.42.6-.86.83-1.32.04 0 .11-.1.16-.25.06-.15.13-.26.17-.26.03 0 .05-.07.05-.14s.04-.15.07-.15a12.84 12.84 0 0 0 1.15-4.34c.19-1.02.25-2.07.18-3.11l-.09-12.5c-.03-5.9-.1-10.4-.14-10.46l-.16-.38a3.94 3.94 0 0 0-2.05-2c-.06 0-.11-.04-.11-.08s-.07-.07-.18-.07a.34.34 0 0 1-.22-.08c-.02-.03-.18-.07-.32-.07-.16 0-.3-.03-.33-.07-.01-.04-.3-.07-.6-.07-.31 0-.6.03-.62.07Zm-62.64 2.62c.02.04.13.08.22.08.1 0 .2.03.28.09.36.27.54.47.54.54 0 .06.04.1.08.1.03 0 .07.07.07.18 0 .09.03.18.07.22.1.05.1 18.16 0 18.22a6.68 6.68 0 0 0 0 1.9c.04.01.07.12.07.21 0 .11.04.24.07.31l.15.35c.29.65.75 1.2 2.64 3.17.84.87 1.66 1.76 2.47 2.66a439.1 439.1 0 0 1 4.72 4.95c1.2 1.28 1.31 1.35 1.89 1.35.43 0 1.02-.27 1.02-.49 0-.05.04-.1.07-.1.04 0 .08-.05.08-.14 0-.07.03-.16.07-.18.03-.02.07-.18.07-.33 0-.16-.04-.3-.07-.32-.04-.02-.07-.1-.07-.15 0-.13-.11-.27-.58-.77-2.51-2.7-5.04-5.38-7.6-8.05L33.14 59c-1.16-1.2-1.21-2.48-.15-3.2 1.12-.8 1.71-.55 3.66 1.4l3.24 3.22c2.32 2.27 4.6 4.6 6.82 6.98.07.07.12.16.12.2 0 .05.04.1.08.1.03 0 .07.03.07.06 0 .04.05.15.12.22.08.1.18.24.24.37l.14.22c.07.07.29.47.47.87l.32.77c.26.52.44 1.07.56 1.64.36 1.34.34 1.05.34 10.09v8.53h-7.2l-.01-5.43c-.02-6.18.01-5.78-.63-6.32a17.29 17.29 0 0 1-1.12-.92l-.5-.41a1.66 1.66 0 0 1-.36-.3l-.36-.3-.42-.33-.74-.6c-.34-.26-.68-.53-1-.8l-.3-.24a9.26 9.26 0 0 0-.57-.5l-.75-.62a2.33 2.33 0 0 0-.4-.32 1.66 1.66 0 0 1-.36-.3c-.05-.07-.22-.18-.36-.29l-.32-.25-.36-.3c-.77-.59-1.52-1.2-2.25-1.85-.32-.28-.65-.54-1-.79a6.7 6.7 0 0 1-.82-.83l-.72-.91c0-.04-.06-.13-.13-.2l-.23-.35c-.06-.11-.13-.2-.16-.2-.02 0-.06-.06-.06-.15 0-.07-.02-.14-.05-.16a8.02 8.02 0 0 1-1.03-2.57c-.14-.18-.18-1.44-.18-13.67l-.05-12.9.25-.27c.14-.15.3-.26.36-.26.05 0 .1-.03.1-.07 0-.04.1-.07.22-.07.11 0 .24-.04.26-.08.01-.03.16-.07.28-.07.13 0 .27.04.3.07l.01.02Zm63.56-.02c.02.04.14.08.25.08.13 0 .22.03.22.07 0 .04.05.07.1.07.06 0 .22.11.36.26l.26.27-.02 12.87c-.04 12.24-.06 13.52-.2 13.66a.37.37 0 0 0-.07.24c0 .13-.1.5-.24.84l-.12.33a8 8 0 0 1-.65 1.33c0 .05-.07.18-.14.25-.08.1-.15.18-.15.26 0 .05-.03.09-.07.09-.04 0-.09.07-.1.14a.73.73 0 0 1-.13.24l-.44.53c-.37.5-.82.93-1.3 1.31l-.51.42c-.11.1-.24.2-.27.2-.04 0-.17.1-.26.2l-.45.4a29.06 29.06 0 0 1-2.59 2.1l-.36.3-.41.33-.72.6c-.31.23-.61.48-.9.73l-.15.1a29.67 29.67 0 0 1-2 1.65c-.14.1-.3.22-.35.3-.06.07-.22.18-.36.29-.15.09-.3.22-.36.29l-.44.36c-.9.7-1.11.91-1.27 1.26l-.18.31v5.45l-.02 5.43h-7.2l-.02-8.27c-.02-7.22 0-8.39.1-9a12.7 12.7 0 0 1 2.19-5.5c.03 0 .07-.05.07-.1 0-.04.05-.13.12-.18 2.12-2.28 4.28-4.5 6.5-6.67l3.5-3.48c1.67-1.7 1.9-1.84 2.62-1.84 1.26 0 2.1 1.15 1.8 2.37-.05.18-.12.34-.16.34-.04 0-.05.06-.05.11 0 .06-.27.37-.6.73-1.2 1.24-2.4 2.5-3.58 3.75-1.53 1.57-1.67 1.88-1.3 2.63.5.95 1.48.95 2.38 0l3.42-3.6a9.99 9.99 0 0 0 2.27-2.98c.03-.07.07-.2.07-.3 0-.1.04-.2.07-.23.04-.02.07-.42.07-.95 0-.52-.03-.9-.07-.94-.1-.06-.1-18.17 0-18.22.04-.02.07-.13.07-.22 0-.11.04-.19.08-.19.03 0 .07-.03.07-.09 0-.07.18-.27.54-.54a.53.53 0 0 1 .29-.1c.09 0 .18-.03.21-.07.02-.03.16-.07.3-.07.12 0 .26.04.28.07v-.02Zm-41.11 5.3c-1.28.37-2.18 1.26-2.78 2.78-.2.49-.18 2.04 0 2.26.04.03.08.12.08.18.08.3.2.58.37.84l.31.42c.58.78 1.53.94 2.09.38.29-.3.54-1 .41-1.15a.37.37 0 0 1-.09-.22c0-.1-.36-.65-.5-.78-.54-.46-.02-2.12.66-2.12.06 0 .15-.03.17-.07.01-.03.21-.07.43-.07.21 0 .4-.04.4-.07 0-.04.05-.08.1-.08.34 0 .72-.76.67-1.27-.11-.93-1.08-1.35-2.32-1.02Zm16.52-.03c-.9.37-1.03 1.91-.2 2.28.11.05.2.1.2.14 0 .04.18.06.4.06.21 0 .41.04.43.07.02.04.1.07.18.07.57 0 1.1 1.3.77 1.92-.1.2-.5.73-.57.76-.04.02-.06.11-.06.2 0 .1-.03.19-.07.22-.09.06-.09.3 0 .46l.16.34c1.05 2.35 4.05-1.25 3.08-3.71-.8-2.06-2.86-3.4-4.32-2.8Zm-33.66.15c.02.03.1.07.18.07.09 0 .14.04.14.07 0 .04.04.08.08.08.1 0 .36.23.36.34 0 .06.03.1.07.1.03 0 .07.05.07.1 0 .06.04.11.07.11.06 0 .07 1.64.06 4.83-.02 4.8-.02 4.83-.17 4.81a2.85 2.85 0 0 0-1.13-.02.74.74 0 0 1-.34.08.74.74 0 0 0-.34.07c-.04.05-.18.07-.3.05l-.19-.02-.02-5.17c-.02-5.65-.03-5.43.36-5.43.07 0 .15-.04.16-.07.02-.04.24-.08.47-.08.24 0 .45.04.47.08Zm53.28 0c.02.03.1.07.14.07.42 0 .4-.2.38 5.43L87.6 53l-.2.02c-.12.02-.25 0-.28-.05a.74.74 0 0 0-.34-.07.74.74 0 0 1-.35-.08 2.91 2.91 0 0 0-1.13 0c-.14.04-.14 0-.16-4.7-.02-4.68 0-5.14.21-5.14.04 0 .06-.05.06-.1 0-.06.09-.17.21-.24.13-.08.22-.15.22-.19 0-.03.05-.05.14-.05.08 0 .17-.04.18-.07.02-.04.24-.08.47-.08.24 0 .45.04.47.08ZM78.4 68.2c-.02.04-.1.07-.15.07-.36 0-.75.66-.75 1.2 0 1.36 1.9 1.77 2.41.54.29-.7-.14-1.74-.72-1.74-.05 0-.1-.03-.1-.07 0-.04-.15-.07-.33-.07-.18 0-.34.03-.36.07Z" clip-rule="evenodd"/>
<defs><linearGradient id="soft-i-3" x1="67.2" x2="35.4" y1="0" y2="115.2" gradientUnits="userSpaceOnUse"><stop stop-color="#ADDF1F"/><stop offset="1" stop-color="#42BA24"/></linearGradient></defs></svg>
