<svg xmlns="http://www.w3.org/2000/svg" fill="none" viewBox="0 0 120 120">
<rect width="120" height="120" fill="url(#soft-i-4)" rx="20"/>
<path fill="#fff" fill-rule="evenodd" d="M41.84 26.07c0 .05-.27.1-.58.13-.3.01-.57.07-.6.1a.53.53 0 0 1-.2.06.84.84 0 0 0-.31.07l-.56.26a5.43 5.43 0 0 0-2.77 2.77l-.3.64a.89.89 0 0 0-.06.3c-.38 1.25-.3 2.6.21 3.8.36.9 1.68 2.58 2.05 2.58.06 0 .11.02.13.06.05.16 1.05.62 1.7.78.07.02.08.88.08 3.9 0 2.5.02 3.86.07 3.9.04.02.08.13.08.22 0 .4.36.78.88.95.7.22 1.57-.31 1.57-.95 0-.1.03-.18.07-.22.05-.04.07-1.4.07-3.9 0-3.04.02-3.88.09-3.9a5.84 5.84 0 0 0 4.3-5.25 5.8 5.8 0 0 0-3.56-5.8l-.34-.14a.76.76 0 0 0-.31-.07.53.53 0 0 1-.22-.05c0-.04-.28-.1-.6-.11-.3-.02-.55-.08-.57-.13-.03-.1-.28-.1-.32 0Zm36 0c0 .05-.27.1-.57.13-.31.01-.58.07-.6.1a.53.53 0 0 1-.21.06.89.89 0 0 0-.31.07l-.56.26a5.43 5.43 0 0 0-2.77 2.77l-.3.64c-.02.07-.06.2-.06.3-.37 1.25-.3 2.6.22 3.8.36.9 1.69 2.58 2.05 2.58.05 0 .1.02.12.06.06.16 1.05.62 1.7.78.07.02.09.88.09 3.9 0 2.5.01 3.86.07 3.9.03.02.07.13.07.22 0 .4.36.78.88.95.7.22 1.57-.31 1.57-.95 0-.1.03-.18.07-.22.05-.04.07-1.4.07-3.9 0-3.04.02-3.88.1-3.9a5.84 5.84 0 0 0 4.3-5.25 5.8 5.8 0 0 0-3.57-5.8l-.34-.14a.76.76 0 0 0-.3-.07.53.53 0 0 1-.22-.05c0-.04-.3-.1-.6-.11-.3-.02-.56-.08-.57-.13-.04-.1-.3-.1-.33 0Zm-34.92 2.77a3.8 3.8 0 0 1 1.73 1.31c.32.57.38.67.38.8 0 .07.03.17.07.18a3 3 0 0 1 .07.88 3 3 0 0 1-.07.87c-.04.02-.07.13-.07.22 0 .11-.04.18-.08.18-.03 0-.07.08-.07.15 0 .07-.03.15-.07.15-.04 0-.1.07-.1.14a3.56 3.56 0 0 1-1.27 1.17c-.07 0-.14.03-.14.07 0 .04-.07.07-.18.07a.34.34 0 0 0-.22.08c-.07.1-1.53.09-1.83-.02-.73-.26-1.64-.97-1.77-1.37-.02-.07-.07-.14-.1-.14-.04 0-.08-.06-.08-.13s-.02-.17-.05-.18c-.22-.24-.33-1.79-.17-2.23.47-1.16 1-1.7 2.17-2.18.25-.11 1.6-.11 1.85 0v-.02Zm36 .02c.78.3 1.48.83 1.73 1.27.32.59.38.7.38.82 0 .07.03.17.07.18a3 3 0 0 1 .07.88 3 3 0 0 1-.07.87c-.04.02-.07.13-.07.22 0 .11-.04.18-.07.18-.04 0-.08.08-.08.15 0 .07-.03.15-.07.15a3.35 3.35 0 0 1-1.22 1.24c0 .03-.07.07-.15.07-.07 0-.14.03-.14.07 0 .04-.07.07-.18.07a.34.34 0 0 0-.22.08c-.07.1-1.53.09-1.83-.02-.72-.26-1.64-.97-1.77-1.37-.01-.07-.07-.14-.1-.14-.04 0-.08-.06-.08-.13s-.01-.17-.05-.18c-.22-.24-.32-1.79-.14-2.23.45-1.16.97-1.7 2.14-2.18.23-.11 1.6-.11 1.85 0Zm-20.36 6.36c-.05.05-.21.09-.36.09-.1 0-.27.03-.36.07l-.61.22a8.56 8.56 0 0 0-5.63 6.49c-.29 1.93-.27 3.9.03 5.83.33 1.23.9 2.39 1.66 3.4.38.4.54.75.34.75-.05 0-.1.04-.1.07 0 .04-.19.08-.4.08-.22 0-.42.03-.44.07-.01.04-.18.07-.32.07-.16 0-.3.04-.32.08-.02.03-.15.07-.26.07-.1 0-.23.04-.25.07-.02.04-.14.08-.25.08-.1 0-.23.03-.25.07-.02.03-.13.07-.22.07-.1 0-.18.04-.18.07 0 .04-.07.08-.18.08a.34.34 0 0 0-.21.07c-.02.04-.11.07-.18.07-.1 0-.15.04-.15.08 0 .03-.05.07-.1.07a12.94 12.94 0 0 0-2.42 1.3c0 .03-.09.1-.2.17l-.36.26-.37.3a21.4 21.4 0 0 0-2.74 3.13c-.18.18-.23 1.18-.07 1.23.03.02.07.06.07.11 0 .08.18.28.49.48.45.33 1.35.13 1.62-.37l.21-.29c.06-.05.18-.2.27-.34.29-.42.36-.52.97-1.13A9.73 9.73 0 0 1 50 56a10.08 10.08 0 0 1 3-1.1c.1-.18.86-.09.96.13l.15.24c.03.04.05.05.7 1.2.18.37.38.73.6 1.08 0 .07.03.12.07.12.01 0 .07.06.09.13.08.22.2.42.34.6l.1.19c.19.36.3.5.33.54l.14.26.15.25.12.2.18.33.13.2.13.22c.44.8.9 1.6 1.38 2.39l.18.33.13.2.14.23c.07.13.18.23.3.3.12.05.2.1.2.14 0 .04.24.05.51.05.29 0 .5-.03.5-.07 0-.03.06-.07.11-.07.15 0 .4-.26.54-.53.06-.1.13-.2.16-.2.02 0 .06-.07.06-.15 0-.07.03-.14.07-.14.15-.31.33-.61.52-.9.26-.39.49-.8.7-1.22.23-.32.42-.66.58-1.02.14-.18.25-.38.34-.6 0-.07.06-.12.1-.12.01 0 .08-.11.14-.26.05-.15.12-.26.16-.26.03 0 .05-.03.05-.09 0-.05.07-.18.15-.25.07-.1.14-.2.14-.26 0-.07.02-.12.05-.14.08-.02.31-.42.36-.59 0-.07.08-.12.1-.12.37-.79.79-1.55 1.25-2.28.06-.15.85-.18.94-.06.02.04.16.08.29.08.12 0 .27.03.29.07 1.34.3 2.6.9 3.69 1.75 1.01.8 1.91 1.74 2.68 2.79.07.09.14.18.14.25 0 .06.04.1.06.1.03 0 .14.16.23.34.1.18.2.36.24.36.03.02.05.1.05.19 0 .07.04.12.07.12.04 0 .07.08.07.15 0 .07.04.15.08.15.03 0 .07.03.07.09 0 .05.07.23.14.4l.15.42c0 .05.03.12.07.14.03.02.07.13.07.22 0 .1.04.18.07.22.04 0 .07.15.1.27.05.42.14.82.26 1.22.21 1 .45 2 .72 3 .04 0 .07.07.07.14s.04.2.08.27c.22.46.41.92.57 1.4.04 0 .07.08.07.15 0 .07.04.15.08.15.03 0 .07.07.07.14 0 .08.03.15.07.15.04 0 .07.07.07.14 0 .08.04.15.07.15.04 0 .08.05.08.15 0 .07.01.14.05.16.07.02.3.42.36.58 0 .08.07.13.09.13a16.07 16.07 0 0 0 4.57 5.1c.04 0 .13.08.18.15.06.07.13.14.16.14l.65.4.85.55c.54.3.61.33.9.64.18.18.32.36.32.42 0 .05.04.1.07.1.04 0 .08.06.08.15 0 .08.03.17.07.19.09.05.09 1.09 0 1.25l-.16.35c-.25.43-.62.78-1.07.98-.59.26-2.3-.09-2.3-.45 0-.04-.07-.06-.14-.06-.08 0-.15-.03-.15-.07 0-.04-.03-.07-.09-.07-.05 0-.18-.08-.25-.15l-.2-.14-.6-.37c-.5-.36-.7-.5-.9-.7l-.33-.25-.47-.36-.45-.38a22.65 22.65 0 0 1-3.76-4.3.39.39 0 0 0-.13-.24 3.02 3.02 0 0 1-.4-.64 13.5 13.5 0 0 1-1.08-2c-.03 0-.07-.08-.07-.15 0-.07-.03-.14-.07-.14-.04 0-.07-.08-.07-.15 0-.07-.04-.15-.07-.15-.04 0-.08-.05-.08-.14 0-.07-.03-.17-.07-.18-.03-.02-.07-.13-.07-.22 0-.11-.04-.18-.07-.18-.04 0-.07-.06-.07-.15 0-.07-.04-.16-.08-.18-.03-.02-.07-.13-.07-.22 0-.11-.03-.18-.07-.18-.04 0-.07-.08-.07-.19 0-.09-.04-.18-.08-.21-.03-.02-.07-.13-.07-.22 0-.1-.03-.19-.07-.22-.03-.02-.07-.15-.07-.26 0-.1-.04-.23-.07-.25-.04-.02-.08-.15-.08-.26 0-.1-.03-.23-.07-.25-.03-.02-.07-.17-.07-.3 0-.12-.03-.27-.07-.29-.04 0-.07-.16-.1-.3a9.62 9.62 0 0 0-.22-1.15c-.28-1.37-.62-1.7-1.68-1.64-.25 0-.88.54-.88.74 0 .08-.04.15-.07.17-.06.03-.08 2.59-.08 7.47 0 7.74 0 7.58-.3 7.58-.07 0-.13.04-.13.07 0 .04-.07.08-.14.08s-.15.03-.15.07c0 .03-.05.07-.1.07-.06 0-.24.07-.4.15l-.58.29-.4.14c-.05 0-.1.04-.1.08 0 .03-.04.07-.09.07-.05 0-.29.1-.54.22a34.83 34.83 0 0 1-3.33 1.53c0 .04-.05.07-.14.07-.08 0-.17.04-.18.08-.02.03-.11.07-.18.07-.1 0-.15.03-.15.07 0 .04-.07.07-.14.07s-.15.04-.15.08c0 .03-.07.07-.14.07s-.14.04-.14.07c0 .04-.06.08-.11.08-.06 0-.24.07-.4.14l-.57.3a.97.97 0 0 1-1 0l-1.29-.59c-.05 0-.09-.04-.09-.07 0-.04-.07-.08-.14-.08-.08 0-.15-.03-.15-.07 0-.04-.05-.07-.14-.07-.07 0-.16-.04-.18-.07-.02-.04-.11-.08-.18-.08-.1 0-.15-.03-.15-.07 0-.04-.05-.07-.1-.07a1 1 0 0 1-.35-.13l-.8-.37a62.12 62.12 0 0 1-3.23-1.49c-.75-.36-.86-.42-.95-.42-.06 0-.11-.04-.11-.07 0-.04-.07-.07-.14-.07-.08 0-.15-.04-.15-.08 0-.03-.05-.07-.1-.07-.35 0-.33.24-.33-7.5 0-5.53-.02-7.39-.09-7.59a1.31 1.31 0 0 0-.96-.86 1.28 1.28 0 0 0-1.22.39c-.14.14-.3.64-.43 1.24a30.64 30.64 0 0 1-.9 3.5c-.04.01-.07.12-.07.21 0 .11-.04.19-.07.19-.04 0-.08.07-.08.18 0 .09-.03.18-.07.22-.03.02-.07.1-.07.18 0 .1-.04.15-.07.15-.04 0-.07.07-.07.18 0 .09-.04.18-.08.22-.03.01-.07.1-.07.18 0 .09-.03.14-.07.14-.04 0-.07.08-.07.15 0 .07-.04.15-.07.15-.04 0-.08.05-.08.1a16.7 16.7 0 0 1-2.59 4.34l-.41.51-.4.5a22.31 22.31 0 0 1-5.3 4.46c-.33.33-1.27.7-1.85.67-.84 0-1.9-.7-1.9-1.27 0-.06-.04-.15-.08-.17-.09-.4-.09-.83 0-1.24.04-.01.08-.1.08-.18 0-.09.03-.14.07-.14.03 0 .07-.06.07-.11 0-.19.49-.62 1.28-1.1.67-.42 1.33-.87 1.98-1.34.07 0 .14-.08 1.44-1.32.7-.67 1.34-1.4 1.92-2.17a4 4 0 0 0 .73-1.2c.18-.54-.27-1.35-.87-1.51-.63-.18-1.12.05-1.58.73l-.22.29-.22.3c-1 1.23-2.14 2.33-3.42 3.27-.07 0-.1.04-.1.06 0 .03-.1.1-.2.18-.1.04-.25.14-.34.22-.08.07-.18.12-.24.12-.05 0-.09.04-.09.08 0 .03-.03.07-.07.07a6.14 6.14 0 0 0-2.16 1.84c0 .07-.02.13-.05.15a3 3 0 0 0-.45.89c-.24.6-.24 2.84 0 2.99.03.02.07.13.07.22 0 .1.03.18.07.18.04 0 .07.07.07.15 0 .07.04.14.07.14.04 0 .08.04.08.1 0 .05.07.17.14.25.07.09.14.18.14.22 0 .27 1.62 1.54 1.98 1.54.06 0 .11.04.11.08a4.7 4.7 0 0 0 2.34.3c.04-.05.18-.08.34-.08.15 0 .3-.04.31-.08.02-.03.13-.07.22-.07s.18-.04.21-.07c.02-.04.11-.08.18-.08.1 0 .15-.03.15-.07 0-.05.07-.07.16-.05.14 0 .18.07.21.56a3.99 3.99 0 0 0 .27 1.46c0 .1.04.22.08.3l.14.28c.04.08.07.19.07.26 0 .05.02.1.06.1.03 0 .1.12.16.24.56 1.32 2.16 2.65 3.82 3.2.2.05.41.13.6.23.04.04.15.05.24.05.07 0 .18.04.2.08.02.03.13.07.22.07s.18.04.21.07c.02.04.13.08.22.08s.18.03.21.07c.02.04.13.07.22.07s.18.04.22.07c.01.04.1.08.18.08.09 0 .2.03.27.07l.25.11c.18.04.16.1-.11.91a4.26 4.26 0 0 0-.32 1.86c-.01.5.08.98.27 1.44a5.01 5.01 0 0 0 4.01 3.43c.23.01.5.09.6.14.12.07.17.07.3 0 .2-.1.4-.14.61-.14.25-.02.47-.08.49-.11a.53.53 0 0 1 .21-.06c1.05-.4 2.12-.74 3.2-1.02l.3-.14a.85.85 0 0 1 .32-.08c.09 0 .18-.03.18-.07 0-.04.07-.07.18-.07.09 0 .18-.04.22-.08.01-.03.12-.07.21-.07.1 0 .18-.04.22-.07.02-.04.12-.08.21-.08.1 0 .18-.03.22-.07a8.87 8.87 0 0 1 1.26-.44 8.87 8.87 0 0 0 1.26-.43c.05-.1.45-.1.5 0 .02.03.13.07.22.07s.18.04.22.07c.01.04.12.08.21.08.1 0 .18.03.22.07.02.04.12.07.2.07.09 0 .2.02.23.06.04.03.32.14.61.23.3.1.58.19.61.24.04.04.15.05.24.05.07 0 .18.04.2.08.01.03.12.07.21.07.1 0 .18.04.22.07.02.04.12.08.21.08.1 0 .18.03.22.07.02.04.13.07.22.07s.18.04.21.08a16.13 16.13 0 0 0 1.62.55l2.13.67c0 .03.23.09.48.1.25.02.54.08.61.13.13.1.18.1.31 0 .1-.03.36-.1.6-.14a4.87 4.87 0 0 0 3.29-1.95c.6-.9.96-1.94 1-3.03 0-.6-.23-1.7-.46-2.18-.16-.31-.1-.5.14-.5.1 0 .18-.03.22-.07.02-.04.13-.07.22-.07.1 0 .18-.04.18-.08 0-.03.07-.07.18-.07.09 0 .18-.03.21-.07.02-.04.13-.07.22-.07s.18-.04.21-.08c.02-.03.13-.07.22-.07s.18-.04.22-.07c.01-.04.12-.08.21-.08.1 0 .18-.03.22-.07.02-.03.12-.07.21-.07a8.08 8.08 0 0 0 2.38-1.17 6.65 6.65 0 0 0 2.61-4.8c.05-.5.07-.55.22-.57.09-.02.16 0 .16.05 0 .04.05.07.14.07.07 0 .16.04.18.08.02.03.13.07.22.07s.18.04.21.07c.02.04.18.08.31.08.16 0 .3.03.36.07.7.09 1.43.01 2.1-.22.44 0 2.31-1.37 2.31-1.7a.8.8 0 0 1 .14-.21c.08-.1.15-.19.15-.26 0-.05.03-.09.07-.09.04 0 .07-.05.07-.1l.07-.26.15-.3a.88.88 0 0 0 .07-.32c0-.1.04-.19.07-.22.04-.02.07-.44.07-.99 0-.54-.03-.96-.07-.98-.03-.02-.07-.13-.07-.22 0-.1-.04-.24-.07-.3a25.13 25.13 0 0 1-.5-1.03c0-.3-1.48-1.55-2.47-2.04-.11-.07-.2-.15-.2-.18-.31-.15-.6-.34-.86-.57l-.3-.22a18.56 18.56 0 0 1-3.02-3.13c-.18-.13-.97-1.48-1.33-2.22l-.47-1-.07-.24c0-.06-.03-.11-.07-.11-.04 0-.07-.1-.07-.22 0-.13-.04-.22-.07-.22-.04 0-.08-.07-.08-.18 0-.1-.03-.18-.07-.22-.03-.02-.07-.15-.07-.25 0-.13-.04-.22-.07-.22-.04 0-.07-.11-.07-.26 0-.13-.04-.27-.08-.29-.03-.02-.07-.16-.07-.3 0-.12-.03-.27-.07-.28-.04-.02-.07-.19-.07-.33 0-.17-.04-.31-.07-.33-.04-.02-.08-.18-.08-.33 0-.16-.03-.3-.07-.33-.03-.01-.07-.18-.07-.32 0-.17-.04-.31-.07-.33-.04-.02-.07-.15-.07-.26 0-.1-.04-.23-.08-.25-.03-.02-.07-.15-.07-.26 0-.1-.03-.23-.07-.25-.04-.02-.07-.11-.07-.18a1.47 1.47 0 0 0-.15-.42c-.06-.12-.1-.24-.14-.37l-.14-.38c-.32-.8-.73-1.55-1.23-2.24a17.86 17.86 0 0 0-2.88-3.08l-.45-.37c-.1-.05-.2-.12-.2-.16a14.76 14.76 0 0 0-3.24-1.66c0-.03-.07-.07-.14-.07a.71.71 0 0 1-.27-.07c-.22-.1-.63-.22-.8-.22-.08 0-.17-.04-.2-.08 0-.03-.15-.07-.28-.07-.13 0-.27-.03-.29-.07-.02-.04-.2-.07-.38-.07-.84 0-.9-.28-.18-.99.1-.09.17-.2.17-.23 0-.04.05-.13.12-.2.16-.19.36-.55.43-.72 0-.07.08-.12.1-.12.03 0 .07-.04.07-.1 0-.05.05-.23.14-.38 1-2.15 1.08-6.76.1-8.98a4.32 4.32 0 0 0-.48-.95c-.03-.02-.05-.09-.05-.18 0-.07-.02-.13-.06-.13-.03 0-.14-.13-.23-.29a10.98 10.98 0 0 0-2.54-2.48 8.63 8.63 0 0 0-2.46-1.1 13.3 13.3 0 0 0-3.57-.14v-.03Zm2.67 2.62c.18.04.36.07.4.1.03.05.12.08.17.08.1 0 .2.04.27.08l.49.21a6.63 6.63 0 0 1 2.55 2.28c0 .06.08.18.15.28.07.1.14.23.14.3 0 .08.04.13.07.13.04 0 .08.06.08.15 0 .07.03.16.07.18.03.02.07.13.07.22s.04.18.07.22c.18.1.3 4.92.15 5.1-.04.04-.08.16-.08.27a.8.8 0 0 1-.07.33l-.12.31a5.46 5.46 0 0 1-.9 1.62l-.42.48a5.59 5.59 0 0 1-2.3 1.47c-.07 0-.15.04-.15.08 0 .03-.12.07-.28.07-.17 0-.3.04-.3.07 0 .04-.2.07-.5.07-.22 0-.44.03-.64.1-.11.07-.18.07-.3 0-.06-.06-.35-.1-.64-.1-.29 0-.5-.03-.5-.07 0-.03-.13-.07-.3-.07-.15 0-.28-.04-.28-.07 0-.04-.07-.08-.14-.08a.71.71 0 0 1-.27-.07l-.35-.15c-.72-.32-2.34-1.76-2.34-2.07-.27-.4-.5-.83-.66-1.28l-.13-.3a.88.88 0 0 1-.07-.34c0-.1-.04-.23-.07-.29a25.3 25.3 0 0 1 .21-5.3c0-.1.04-.18.08-.22.03-.02.07-.1.07-.18 0-.1.03-.15.07-.15.04 0 .07-.05.07-.13 0-.07.07-.2.15-.3.07-.1.14-.22.14-.28a6.62 6.62 0 0 1 3.82-2.72 9.62 9.62 0 0 1 2.52-.03ZM28.9 48.48c-.7.1-1.39.36-1.98.77a.46.46 0 0 0-.21.13l-.4.3c-.84.59-1.96 2.34-1.96 3.03 0 .1-.04.18-.05.22-.04 0-.1.25-.11.55-.02.27-.1.56-.15.65-.07.13-.07.18 0 .31.06.07.13.37.15.6 0 .24.05.51.09.59l.14.47a7.2 7.2 0 0 0 1.08 1.99 6.72 6.72 0 0 0 2.65 1.73c.4 0 .38-.13.38 4.02 0 2.48.01 3.85.07 3.89.03.01.07.12.07.23 0 .46.67.97 1.26.97.54 0 1.19-.53 1.19-.99 0-.09.03-.18.07-.21.05-.04.07-1.4.07-3.89 0-4.19-.02-4 .42-4 .09 0 .18-.06.2-.1.01-.03.12-.07.21-.07s.18-.02.18-.05c.1-.1.23-.17.36-.22a6.14 6.14 0 0 0 2.16-2.03c0-.05.02-.1.05-.12.3-.11.83-2.04.83-2.97 0-1-.54-2.92-.95-3.28l-.22-.3a4.98 4.98 0 0 0-1-1.02l-.4-.3a.39.39 0 0 0-.24-.13c-.05 0-.09-.02-.09-.06 0-.03-.1-.1-.25-.16-.14-.06-.25-.13-.25-.17 0-.03-.07-.05-.18-.05a.34.34 0 0 1-.22-.07 5.57 5.57 0 0 0-2.99-.26h.02Zm60.22-.02c-.24.04-.49.1-.56.13l-.23.07a24.44 24.44 0 0 1-1.23.59.46.46 0 0 0-.21.13l-.4.3c-.37.27-.68.6-.94.97-.21.07-.84 1.39-1.08 2.2A6.18 6.18 0 0 0 85.64 58c.21.31.18.3.91.86.55.41 1.16.74 1.8.97.4 0 .38-.13.38 4.02 0 2.48.02 3.85.07 3.89.04.01.08.12.08.21 0 .46.64.99 1.18.99.6 0 1.26-.51 1.26-.97 0-.1.04-.22.08-.23.05-.04.07-1.4.07-3.89 0-4.15 0-4 .38-4 .26-.12.52-.23.79-.33.23-.13.68-.42 1-.66.73-.56.73-.55.92-.86l.22-.29c.4-.65.71-1.35.94-2.07.03-.08.09-.37.1-.66.02-.27.08-.53.11-.55.1-.02.1-.23 0-.34a2.2 2.2 0 0 1-.12-.6c0-.2-.05-.38-.11-.55a.55.55 0 0 1-.06-.22c0-.7-1.13-2.44-1.94-3.03l-.4-.3a.46.46 0 0 0-.21-.13 24.52 24.52 0 0 1-.99-.51l-.24-.08a5.9 5.9 0 0 0-2.73-.2Zm-58.61 2.61c.01.04.14.07.25.07.1 0 .23.04.25.08.02.03.1.07.18.07.1 0 .14.03.14.07 0 .04.06.07.13.07s.18.08.23.15c.06.07.15.15.18.15.1 0 .26.18.63.65.22.26.42.66.42.8 0 .08.03.17.07.19.1.05.1 1.58 0 1.82-.16.38-.4.87-.47.95l-.25.29c-1.66 1.86-4.5 1.22-5.45-1.22a5.88 5.88 0 0 1-.04-1.86l.52-1c.33-.42.54-.62.61-.62.04 0 .13-.08.18-.15.06-.07.17-.15.24-.15.07 0 .12-.03.12-.07 0-.04.06-.07.15-.07.07 0 .16-.04.18-.07.02-.04.14-.08.25-.08.1 0 .23-.03.25-.07.02-.04.3-.07.61-.07s.6.03.62.07Zm60.2 0c.01.04.14.07.24.07.11 0 .24.04.26.08.01.03.1.07.18.07.09 0 .14.03.14.07 0 .04.05.07.13.07.07 0 .18.08.23.15.05.07.14.15.18.15.18 0 .83.85.97 1.27.07.18.15.37.18.37a7 7 0 0 1-.05 1.82 3.4 3.4 0 0 1-1.75 2c-.95.48-2.63.3-3.24-.33l-.25-.18-.38-.45a4 4 0 0 1-.54-1.02 5.28 5.28 0 0 1-.02-1.84c.04-.02.08-.11.08-.19.08-.3.23-.59.43-.83.34-.42.54-.62.61-.62.04 0 .13-.08.18-.15.05-.07.16-.15.23-.15.08 0 .13-.03.13-.07 0-.04.05-.07.14-.07.08 0 .17-.04.18-.07.02-.04.15-.08.26-.08.1 0 .23-.03.25-.07.02-.04.3-.07.61-.07.3 0 .6.03.61.07ZM63.16 54.9c0 .1-.04.18-.07.18-.02 0-.07.05-.1.13-.03.12-.26.54-.33.6l-.15.25a2.8 2.8 0 0 1-.3.53c-.09.11-.15.24-.2.37 0 .05-.04.09-.07.09-.02 0-.08.05-.1.12a1.7 1.7 0 0 1-.35.59c-.04.02-.06.07-.06.14-.42.7-.81 1.4-1.19 2.12-.1.23-.36.22-.48-.04-.3-.58-.6-1.15-.92-1.71 0-.02-.04-.06-.07-.06-.04 0-.07-.05-.07-.1 0-.08-.08-.19-.15-.28-.07-.1-.14-.18-.14-.25 0-.06-.02-.1-.06-.1-.03 0-.1-.1-.16-.25-.05-.15-.12-.26-.16-.26-.04 0-.05-.05-.05-.1 0-.06-.02-.11-.06-.11-.03 0-.1-.11-.16-.26a.7.7 0 0 0-.14-.26c-.04 0-.08-.05-.1-.12-.08-.22-.2-.42-.34-.6a3.05 3.05 0 0 1-.36-.73c0-.06.9-.08 3.17-.08h3.17v.19Zm-20.7 8.93c-.02.03-.13.07-.22.07-.1 0-.18.03-.18.07 0 .04-.03.07-.09.07-.05 0-.14.08-.2.15l-.2.26a.37.37 0 0 0-.08.21c0 .06-.04.11-.07.11-.04 0-.08.15-.08.33 0 .18.04.35.08.37.03.01.07.09.07.16 0 .36.63.75 1.19.75.3 0 .54-.04.54-.08 0-.01.07-.07.14-.09.58-.16.74-1.44.23-1.98-.27-.3-1.02-.57-1.13-.4Zm5.9 9.73c0 .07.04 1.09.04 2.26 0 2.51 0 2.51-.58 2.22l-.57-.3c-.18-.07-.36-.14-.43-.14-.08 0-.17-.03-.18-.07-.02-.04-.15-.07-.26-.07-.1 0-.23-.04-.25-.08-.02-.03-.12-.07-.21-.07-.22 0-.26-.25-.06-.44.07-.05.22-.22.3-.36l.31-.4a.55.55 0 0 0 .13-.2c0-.04.05-.11.1-.19.13-.12 1.27-2.04 1.27-2.13 0-.05.1-.1.3-.14l.1.1Zm23.59-.04c.15.33.33.65.54.95a124.2 124.2 0 0 1 1.06 1.7c.05.05.18.2.27.34.09.14.23.3.3.36.18.19.18.44-.05.44a.34.34 0 0 0-.22.07c-.01.04-.14.08-.25.08-.1 0-.23.03-.25.07-.02.04-.1.07-.18.07-.07 0-.27.07-.43.15-1.2.6-1.08.82-1.08-1.99 0-2.1 0-2.33.1-2.28l.19.04Zm-26.32 6.41a47.65 47.65 0 0 1 2.99 1.31c0 .04.07.08.14.08s.14.04.14.07c0 .04.06.08.11.08.06 0 .24.07.4.14l.57.3.4.14c.05 0 .1.03.1.07 0 .04.08.07.15.07.07 0 .15.04.15.08 0 .03.05.07.12.07a17.68 17.68 0 0 1 2.25 1 77.97 77.97 0 0 1 2.23 1.04c0 .04.08.07.15.07.07 0 .14.04.14.08 0 .03.06.07.11.07s.22.05.36.15l.41.18c.27.07-.07.47-.43.47-.05 0-.09.04-.09.07 0 .04-.05.08-.14.08-.07 0-.16.03-.18.07-.02.04-.11.07-.18.07-.1 0-.15.04-.15.08 0 .03-.07.07-.14.07s-.14.03-.14.07c0 .04-.08.07-.15.07-.07 0-.14.04-.14.08 0 .03-.06.07-.11.07a.95.95 0 0 0-.36.15c-.68.33-1.36.64-2.05.94 0 .04-.04.08-.1.08-.05 0-.35.12-.68.29a6.58 6.58 0 0 1-1.17.5c-.09 0-.14.04-.14.08s-.07.07-.14.07c-.08 0-.15.04-.15.08 0 .03-.05.07-.1.07a.58.58 0 0 0-.24.07c-1 .53-1.73.7-1.8.44-.02-.04-.13-.07-.23-.07-.13 0-.22-.04-.22-.08 0-.03-.09-.07-.22-.07-.12 0-.21-.04-.21-.07 0-.04-.07-.07-.18-.07a.34.34 0 0 1-.22-.08c-.02-.03-.12-.07-.21-.07a.34.34 0 0 1-.22-.07c-.02-.04-.13-.08-.22-.08a.34.34 0 0 1-.21-.07c-.02-.04-.11-.07-.18-.07a7.02 7.02 0 0 1-2.34-.8c-.38 0-1.42-.99-1.8-1.68-1.59-2.99 1.11-6.52 4.32-5.69Zm30.67.02c2.83.79 3.78 4.38 1.75 6.56-.38.38-.83.67-1.32.86l-.93.33a15.1 15.1 0 0 0-1.4.47c0 .04-.1.07-.22.07-.13 0-.22.04-.22.08 0 .03-.09.07-.21.07-.13 0-.22.04-.22.07 0 .04-.1.08-.22.08s-.21.03-.21.07c0 .03-.1.07-.22.07-.13 0-.22.04-.22.07 0 .04-.07.08-.17.08a.34.34 0 0 0-.22.07c-.02.04-.13.07-.22.07a.34.34 0 0 0-.21.08c-.02.03-.13.07-.22.07a.34.34 0 0 0-.21.07c-.02.04-.13.07-.22.07-.1 0-.18.04-.18.08 0 .03-.1.07-.22.07-.1 0-.23.04-.25.07-.02.04-.13.08-.22.08-.1 0-.18.03-.18.07 0 .04-.09.07-.21.07-.13 0-.22.04-.22.07 0 .04-.07.08-.18.08a.34.34 0 0 0-.21.07c-.02.04-.13.07-.22.07a.34.34 0 0 0-.22.08c-.01.03-.12.07-.21.07a.34.34 0 0 0-.22.07c-.02.04-.1.07-.18.07a.6.6 0 0 0-.27.08l-.41.14-.43.15-1.01.33a12.98 12.98 0 0 0-1.66.54.34.34 0 0 0-.21.08c-.02.03-.13.07-.22.07a.34.34 0 0 0-.22.07c-.01.04-.12.08-.21.08-.1 0-.18.03-.18.07 0 .03-.1.07-.22.07s-.21.04-.21.07c0 .04-.08.08-.18.08a.34.34 0 0 0-.22.07c-.02.04-.13.07-.22.07a.34.34 0 0 0-.21.08c-.02.03-.13.07-.22.07a.34.34 0 0 0-.21.07c-.02.04-.13.07-.22.07a.34.34 0 0 0-.22.08 34.79 34.79 0 0 1-2.45.84 59.67 59.67 0 0 0-2.51.83c-.02.04-.13.08-.22.08a.34.34 0 0 0-.22.07c-.01.04-.12.07-.21.07a.34.34 0 0 0-.22.08c-.02.03-.12.07-.21.07a.34.34 0 0 0-.22.07c-.02.04-.13.07-.22.07-.1 0-.18.04-.18.08 0 .03-.09.07-.21.07-.13 0-.22.04-.22.07 0 .04-.07.08-.18.08a.34.34 0 0 0-.21.07c-.02.03-.13.07-.22.07a.34.34 0 0 0-.22.07c-.01.04-.12.08-.21.08a.34.34 0 0 0-.22.07c-.02.04-.12.07-.21.07a.34.34 0 0 0-.22.08c-.02.03-.13.07-.22.07a.34.34 0 0 0-.21.07c-.02.04-.13.07-.22.07a.34.34 0 0 0-.21.08c-.02.03-.13.07-.22.07a.34.34 0 0 0-.22.07 2.3 2.3 0 0 1-.75.08c-.4 0-.72-.04-.76-.08-.02-.03-.1-.07-.18-.07-.09 0-.14-.04-.14-.07 0-.04-.06-.08-.11-.08-.54 0-1.48-1.8-1.26-2.38.04-.1.07-.26.07-.37 0-.09.04-.22.07-.29l.17-.34c.1-.26.68-.84.8-.84.06 0 .11-.04.11-.08 0-.03.08-.07.15-.07.07 0 .14-.04.14-.07 0-.04.07-.07.15-.07.07 0 .14-.04.14-.08 0-.03.07-.07.14-.07.08 0 .15-.04.15-.07 0-.04.05-.08.14-.08.07 0 .16-.03.18-.07.02-.04.11-.07.18-.07.1 0 .15-.04.15-.08 0-.03.03-.07.09-.07.05 0 .3-.1.55-.22a2246.5 2246.5 0 0 1 1.23-.58c0-.04.03-.07.09-.07.05 0 .32-.11.6-.26a32.9 32.9 0 0 1 2.89-1.27c.05 0 .09-.04.09-.08 0-.03.07-.07.14-.07.08 0 .15-.04.15-.07 0-.04.05-.07.1-.07.06 0 .22-.08.37-.15.14-.07.3-.15.36-.15.05 0 .1-.03.1-.07 0-.04.04-.07.1-.07.05 0 .3-.11.55-.22a2246.5 2246.5 0 0 1 1.23-.58c0-.04.05-.08.1-.08.06 0 .22-.07.36-.14.84-.42 1.7-.8 2.56-1.17 0-.04.05-.07.1-.07.06 0 .22-.07.37-.15.14-.07.3-.14.36-.14.05 0 .1-.04.1-.08 0-.03.06-.07.15-.07.07 0 .16-.04.18-.07.02-.04.1-.07.18-.07.09 0 .14-.04.14-.08 0-.03.08-.07.15-.07.07 0 .14-.04.14-.07 0-.04.04-.08.1-.08.05 0 .28-.09.53-.22a60.47 60.47 0 0 1 4.16-1.89c.05 0 .1-.04.1-.07 0-.04.08-.08.15-.08.07 0 .15-.03.15-.07 0-.04.05-.07.1-.07.08 0 .31-.11.85-.37l.23-.07c.06 0 .11-.04.11-.07 0-.04.07-.08.15-.08.07 0 .14-.03.14-.07 0-.03.07-.07.14-.07.08 0 .15-.04.15-.07 0-.04.05-.08.1-.08.06 0 .22-.05.37-.14a17.2 17.2 0 0 1 2.45-1.06c.4-.13 1.58-.13 2.01 0v-.02Zm-4.77 12.3c.05.13.1.22.14.22.04 0 .06.06.06.15 0 .07.04.16.07.18.13.07.18.91.1 1.35-.1.6-.9 1.67-1.22 1.67-.05 0-.1.04-.1.08 0 .03-.06.07-.15.07-.07 0-.16.04-.18.07a2.3 2.3 0 0 1-.75.08c-.4 0-.72-.04-.76-.08-.02-.03-.13-.07-.22-.07a.34.34 0 0 1-.21-.07c-.02-.04-.13-.08-.22-.08a.34.34 0 0 1-.21-.07c-.02-.03-.13-.07-.22-.07a.34.34 0 0 1-.22-.07c-.01-.04-.12-.08-.21-.08a.34.34 0 0 1-.22-.07c-.02-.04-.12-.07-.21-.07a.34.34 0 0 1-.22-.08c-.02-.03-.13-.07-.22-.07-.1 0-.18-.04-.18-.07 0-.04-.09-.07-.21-.07-.13 0-.22-.04-.22-.08 0-.03-.09-.07-.21-.07-.13 0-.22-.04-.22-.07 0-.04-.07-.08-.18-.08a.34.34 0 0 1-.22-.07c-.01-.04-.12-.07-.21-.07-.18 0-.43-.24-.36-.31.03-.04.14-.06.23-.06.1 0 .16-.03.16-.07 0-.04.1-.07.22-.07.13 0 .22-.04.22-.08 0-.03.09-.07.21-.07.13 0 .22-.03.22-.07 0-.04.07-.07.18-.07.09 0 .18-.04.21-.08.02-.03.13-.07.22-.07.1 0 .18-.04.22-.07.01-.04.12-.08.21-.08.1 0 .18-.03.22-.07.02-.03.12-.07.21-.07.1 0 .18-.04.22-.07.02-.04.13-.08.22-.08s.18-.03.21-.07c.02-.04.13-.07.22-.07.1 0 .18-.04.18-.08 0-.03.07-.07.18-.07.09 0 .18-.03.21-.07.02-.04.13-.07.22-.07.1 0 .18-.04.22-.08.01-.03.12-.07.21-.07.1 0 .18-.04.22-.07.02-.04.1-.08.18-.08a.6.6 0 0 0 .27-.07c.07-.03.27-.1.45-.14l.4-.15a.67.67 0 0 1 .25-.1c.41-.06.48-.05.6.17Z" clip-rule="evenodd"/>
<defs>
<linearGradient id="soft-i-4" x1="67.2" x2="35.4" y1="0" y2="115.2" gradientUnits="userSpaceOnUse">
<stop stop-color="#FF782C"/>
<stop offset="1" stop-color="#C70261"/>
</linearGradient>
</defs>
</svg>
