<svg xmlns="http://www.w3.org/2000/svg" fill="none" viewBox="0 0 120 120">
<rect width="120" height="120" fill="url(#soft-i-5)" rx="20"/>
<path fill="#fff" fill-rule="evenodd" d="m55.38 21.07-.5.26c-.43.2-.56.29-.93.64-.2.18-.37.4-.5.64a.8.8 0 0 1-.15.26.85.85 0 0 0-.16.37c0 .1-.04.17-.07.17-.12 0-.18.78-.2 3.38l-.04 2.53-.32.1c-.54.12-1.06.3-1.54.55-.14 0-.2.02-.58.21a.7.7 0 0 1-.3.1c-.05 0-.1.04-.1.08s-.08.07-.16.07-.16.04-.16.08-.05.08-.11.08c-.12 0-.77.33-.8.41-.01.04-.07.06-.13.06-.13 0-.5.2-.5.25 0 .18-.3-.1-1.88-1.7-1.62-1.61-2.3-2.22-2.5-2.22-.05 0-.09-.04-.09-.08s-.05-.07-.15-.07c-.08 0-.17-.04-.2-.08-.01-.04-.15-.08-.26-.08-.12 0-.25-.04-.27-.08a2.9 2.9 0 0 0-1.31 0c-.02.04-.16.08-.27.08-.12 0-.25.04-.27.08-.02.04-.12.08-.2.08-.09 0-.15.02-.15.05 0 .04-.11.12-.25.18a106.91 106.91 0 0 0-6.4 6.47c-.03 0-.05.08-.05.16s-.04.16-.08.16-.08.07-.08.2c0 .09-.03.19-.07.23-.1.62-.1 1.25 0 1.87.04.02.07.11.07.2 0 .44.58 1.12 2.87 3.43.72.7 1.3 1.32 1.3 1.36 0 .04-.2.47-.43.92-.17.31-.3.64-.42.97 0 .06-.04.1-.08.1s-.08.08-.08.16c0 .07-.04.15-.07.15-.04 0-.08.08-.08.2 0 .11-.04.2-.08.2s-.08.07-.08.19c0 .11-.03.2-.07.2-.04 0-.08.07-.08.19 0 .11-.04.2-.08.2s-.07.07-.07.19c0 .1-.04.2-.08.23-.04.02-.08.14-.08.23 0 .1-.04.2-.07.24-.04.02-.08.12-.08.21 0 .45.04.45-2.97.45-1.5 0-2.8.04-2.87.08l-.52.25c-.75.35-1.73 1.45-1.73 1.93 0 .08-.04.16-.08.16-.13 0-.2 1.05-.2 4.76 0 3.7.05 4.37.2 4.72l.17.4c.06.14.12.26.16.26.04 0 .06.06.06.12 0 .39 1.44 1.42 2.13 1.56l.49.08.23.05v-1.1l-.04-1.12-.31-.1c-.21-.08-.4-.22-.56-.39l-.25-.29v-8.44l.25-.28c.44-.48.3-.46 3.97-.46h3.37l.1-.2c.05-.14.1-.33.1-.45 0-.11.03-.23.07-.25.04-.02.08-.16.08-.27 0-.12.04-.26.07-.28.04-.02.08-.15.08-.27 0-.14.04-.23.08-.23s.08-.1.08-.24c0-.13.03-.23.07-.23.04 0 .08-.1.08-.24 0-.13.04-.23.08-.23s.07-.08.07-.16c0-.07.04-.21.08-.29l.14-.33.23-.53c.1-.2.17-.39.17-.45 0-.05.04-.11.08-.11s.07-.04.07-.1c.25-.61.54-1.2.87-1.77.44-.78.52-.96.48-1L38.3 38.8c-2.68-2.71-2.56-2.55-2.56-3.18 0-.27.02-.49.05-.49 1.83-2.05 3.76-4 5.78-5.85.1 0 .18-.04.18-.07 0-.04.15-.08.34-.08.2 0 .37.04.39.08.02.03.12.07.2.07.09 0 1.03.9 2.54 2.42l2.38 2.4.4-.23c.24-.14.47-.28.55-.3.08-.02.13-.07.13-.1s.08-.07.16-.07c.07 0 .15-.02.15-.06 0-.04.2-.16.43-.25.23-.1.42-.22.42-.26 0-.04.08-.06.15-.06.08 0 .16-.03.16-.07 0-.04.07-.08.15-.08.08 0 .16-.04.16-.08s.05-.08.15-.08c.08 0 .17-.04.2-.08.01-.03.1-.07.18-.07.1 0 .16-.04.16-.08s.08-.08.2-.08c.1 0 .18-.02.18-.06 0-.04.2-.12.39-.2a1 1 0 0 0 .42-.15c.04-.04.14-.06.23-.06.1 0 .2-.04.24-.08.02-.03.11-.07.19-.07a.7.7 0 0 0 .29-.08c.15-.07.31-.12.48-.16l.52-.15.33-.08a.95.95 0 0 0 .34-.1l.2-.08v-6.96l.25-.27c.46-.49.25-.47 4.6-.47s4.14-.02 4.6.47l.26.25.01 3.51.02 3.53.31.06c.18.04.39.1.45.14.07.04.2.07.32.07.1 0 .2.04.23.08.02.04.16.08.27.08.12 0 .25.04.27.08.02.04.14.08.23.08.1 0 .2.04.24.07.02.04.11.08.19.08.15 0 .23.02.58.22.1.05.22.08.34.1.08 0 .16.03.16.07 0 .04.06.08.11.08.06 0 .2.04.3.1.36.2.44.21.55.21.06 0 .12.04.12.08s.07.08.15.08c.08 0 .15.04.15.08s.08.07.16.07.15.02.15.06c0 .04.2.16.43.26.23.1.42.21.42.25 0 .04.08.06.15.06.08 0 .16.04.16.08 0 .02.06.07.13.1.08.01.31.15.54.29l.39.23 2.4-2.42c.8-.86 1.65-1.67 2.55-2.42.08 0 .17-.04.2-.07.05-.1.72-.1.72 0 0 .03.08.07.18.07a75.56 75.56 0 0 1 5.78 5.85c.13 0 .05.96-.12 1.2-.08.13-1.17 1.28-2.43 2.55l-2.27 2.32.21.39.27.45c.43.74.82 1.51 1.16 2.3.04 0 .07.06.07.12 0 .05.04.2.08.25.16.33.29.68.39 1.03 0 .08.04.16.07.16.04 0 .08.08.08.2 0 .1.04.19.08.23.04.02.08.14.08.23 0 .1.03.2.07.24.04.02.08.15.08.27 0 .14.04.23.08.23s.07.12.07.28c0 .13.04.29.08.3.04.03.08.16.08.28 0 .12.04.26.08.27.03.02.07.12.07.2 0 .16.08.16 3.37.16 3.76 0 3.68 0 4.09.52l.21.28.02 3.97c.04 4.74.02 4.78-.89 5.07l-.29.12-.02 1.11-.01 1.11.19-.03.5-.1c.71-.14 2.16-1.17 2.16-1.56 0-.06.02-.12.05-.12.04 0 .1-.12.16-.25l.2-.41c.24-.63.22-9.48-.05-9.48-.02 0-.06-.08-.06-.18 0-.46-.96-1.56-1.73-1.9l-.52-.26c-.08-.04-1.35-.08-2.85-.08-2.93 0-2.99 0-2.99-.4 0-.12-.04-.24-.07-.26-.04-.02-.08-.14-.08-.24 0-.1-.04-.19-.08-.23-.04-.02-.08-.14-.08-.23 0-.12-.03-.2-.07-.2-.04 0-.08-.08-.08-.2 0-.11-.04-.19-.08-.19-.03 0-.07-.08-.07-.2 0-.11-.04-.19-.08-.19s-.08-.08-.08-.2c0-.11-.04-.19-.07-.19-.04 0-.08-.06-.08-.12 0-.05-.08-.23-.16-.39l-.15-.35-.3-.62c-.49-.9-.59-.7.94-2.22 2.3-2.3 2.83-2.93 2.83-3.4 0-.08.04-.17.08-.2.03-.01.07-.42.07-.93 0-.5-.04-.91-.07-.93-.04-.02-.08-.14-.08-.24 0-.12-.04-.2-.08-.2s-.08-.07-.08-.15c0-.08-.02-.16-.05-.16-2.04-2.24-4.18-4.4-6.4-6.47-.13-.06-.25-.14-.25-.18 0-.03-.06-.05-.15-.05-.08 0-.18-.04-.2-.08-.02-.04-.15-.08-.27-.08-.11 0-.25-.04-.27-.08-.43-.1-.88-.1-1.3 0-.03.04-.16.08-.28.08-.11 0-.25.04-.27.08-.02.04-.11.08-.19.08-.1 0-.15.02-.15.05-.99.66-1.87 1.46-2.62 2.38-1.6 1.6-1.8 1.78-1.87 1.64-.58-.37-1.2-.7-1.83-.95 0-.04-.06-.08-.12-.08a.62.62 0 0 1-.25-.08 16.25 16.25 0 0 0-2.16-.78l-.32-.08-.02-2.55c-.04-2.6-.1-3.38-.21-3.38-.04 0-.08-.07-.08-.17s-.08-.28-.16-.37a.8.8 0 0 1-.15-.26c0-.07-.2-.33-.5-.64-.26-.28-.57-.5-.92-.64l-.52-.26c-.18-.1-9.06-.1-9.23 0Zm2.54 15.84c0 .04-.2.08-.46.08-.25 0-.48.04-.5.07-.02.04-.2.08-.35.08-.17 0-.33.04-.35.08-.02.04-.17.08-.3.08-.14 0-.3.04-.31.08-.02.04-.18.07-.31.07-.16 0-.27.04-.27.08s-.08.08-.2.08c-.09 0-.19.04-.22.08-.02.04-.12.08-.2.08a.7.7 0 0 0-.29.07l-.32.14c-1.3.54-2.52 1.23-3.66 2.05-.06 0-.12.04-.12.08s-.04.08-.1.08a21.73 21.73 0 0 0-3.74 3.92.9.9 0 0 1-.17.27c-.07.1-.15.2-.15.23a19.83 19.83 0 0 0-2.24 5.46c0 .2-.03.35-.07.37-.04.02-.08.24-.08.47 0 .24-.04.43-.06.47-.04 0-.1.47-.11.97 0 .38-.03.75-.1 1.12-.06.11.04.13 1.12.13h1.15v-.93c0-.53.04-.96.08-.98.04-.02.08-.23.08-.47 0-.23.04-.45.07-.46.04-.02.08-.14.08-.26 0-.23.04-.35.43-1.56a12.54 12.54 0 0 1 1.94-3.88l.27-.33a14.77 14.77 0 0 1 9.8-5.64c.05-.04.7-.08 1.74-.08.75-.04 1.5.01 2.24.16.25 0 .48.04.5.08.02.04.19.08.34.08.18 0 .33.04.35.08.02.03.17.07.3.07.14 0 .3.04.32.08.02.04.15.08.27.08.13 0 .23.04.23.08s.07.08.15.08a.8.8 0 0 1 .29.07l.67.28c.88.37 1.72.83 2.5 1.36 0 .06.05.08.1.08.06 0 .22.1.35.23a16.11 16.11 0 0 1 3.33 3.5c0 .05.02.1.06.1.04 0 .12.09.2.2.03.12.15.28.23.38.07.07.13.2.13.25 0 .06.04.1.08.1s.08.06.08.15a11.61 11.61 0 0 1 1.52 4.1c.1.39.19 1.17.23 2.05l.02.95h1.15c1.08 0 1.16 0 1.12-.13a6.44 6.44 0 0 1-.1-1.1 3.72 3.72 0 0 0-.11-1 1.57 1.57 0 0 1-.06-.46c0-.23-.04-.45-.08-.47-.03-.02-.07-.2-.07-.35 0-.17-.04-.33-.08-.35-.04-.02-.08-.17-.08-.31 0-.16-.04-.27-.07-.27-.04 0-.08-.1-.08-.24 0-.12-.04-.25-.08-.27-.04-.02-.08-.14-.08-.22a10.58 10.58 0 0 0-.77-1.97 2.6 2.6 0 0 1-.23-.58c0-.04-.04-.08-.07-.08-.04 0-.08-.08-.08-.15 0-.08-.04-.16-.08-.16s-.08-.04-.08-.08c-.05-.15-.12-.3-.23-.43l-.23-.39-.15-.2c-.08-.1-.16-.23-.16-.29 0-.05-.01-.1-.05-.1s-.12-.09-.2-.23c-.07-.13-.23-.3-.3-.4l-.39-.5c-.85-.98-1.8-1.88-2.81-2.68a18.5 18.5 0 0 0-5.38-2.74c-.13 0-.29-.03-.3-.07-.02-.04-.18-.08-.31-.08-.14 0-.3-.04-.31-.08-.02-.04-.2-.08-.35-.08-.17 0-.33-.04-.35-.08-.01-.03-.25-.07-.5-.07s-.46-.04-.46-.08c0-.06-.75-.08-2.08-.08a9.9 9.9 0 0 0-2.08.08Zm.64 12.19c-.22.06-.43.11-.45.15-.04.04-.13.06-.23.06s-.2.04-.23.08c-.02.04-.13.08-.23.08-.12 0-.2.04-.2.08s-.07.07-.15.07c-.07 0-.15.04-.15.08s-.08.08-.16.08c-.07 0-.15.04-.15.08 0 .02-.06.08-.13.1-.2.05-.58.3-.72.44l-.44.4c-.25.19-.85.87-1.31 1.52-.3.55-.56 1.11-.79 1.7a7.93 7.93 0 0 0 0 4.23c.04.01.08.11.08.19 0 .1.04.21.07.3l.27.58c.39.82 1.78 2.55 2.06 2.55.04 0 .14.06.2.14.15.15.54.39.73.47.08 0 .13.07.13.1s.06.07.12.07.2.04.25.08c1.26.53 2.64.71 3.99.53a9.25 9.25 0 0 0 2.25-.78c.14-.06.58-.3.64-.4l.3-.2a7.76 7.76 0 0 0 2.01-2.5l.33-.65.05-.3c0-.07.04-.17.08-.19a7.93 7.93 0 0 0-.13-4.54c-.12-.3-.58-1.29-.66-1.38-.54-.78-1.2-1.48-1.92-2.07l-.3-.16a4.31 4.31 0 0 0-1.23-.62c-.1 0-.15-.04-.15-.08s-.1-.08-.23-.08c-.14 0-.23-.04-.23-.08 0-.17-2.7-.27-3.37-.13Zm2.64 2.2c.23.06.5.16.75.27l.25.08c.05 0 .11.04.11.08s.04.08.1.08c.06 0 .2.08.27.15.1.08.2.16.25.16.23 0 1.25 1.25 1.54 1.91l.15.37c.04.08.08.22.08.33 0 .1.04.2.08.24.04.02.08.52.08 1.2 0 .69-.04 1.18-.08 1.22-.04.02-.08.11-.08.21 0 .59-1.54 2.71-1.96 2.71-.06 0-.12.04-.12.06 0 .04-.17.16-.37.25l-.5.24a.8.8 0 0 1-.3.08c-.1 0-.24.03-.27.1a3.7 3.7 0 0 1-1.18.07c-.73 0-1.12-.02-1.16-.08-.05-.06-.19-.1-.28-.1a.8.8 0 0 1-.31-.07l-.5-.24c-.2-.1-.37-.2-.37-.25a5.73 5.73 0 0 1-1.77-1.95l-.08-.22-.15-.3a.83.83 0 0 1-.08-.32c0-.08-.04-.17-.08-.2a5.08 5.08 0 0 1-.07-1.2c0-.69.03-1.17.07-1.21.04-.02.08-.16.08-.28 0-.11.04-.25.08-.27.04-.02.07-.12.07-.2 0-.1.04-.15.08-.15s.08-.06.08-.12c.33-.74.87-1.38 1.54-1.83.34-.29.73-.5 1.16-.62.1 0 .15-.04.15-.08s.1-.08.21-.08a9.17 9.17 0 0 1 2.53-.04ZM38.15 54c-.01.03-.15.07-.28.07-.16 0-.3.02-.33.06l-.43.2a7.58 7.58 0 0 0-3.39 2.59.5.5 0 0 1-.13.23c-.08.1-.23.33-.33.55a1.5 1.5 0 0 1-.25.4c-.04.03-.06.1-.06.2 0 .08-.04.22-.1.31-.19.4-.2.45-.2.65-.18 1.2-.18 2.41 0 3.6 0 .14.03.26.07.26.04 0 .08.08.08.16 0 .07.04.21.08.29l.27.56a7.58 7.58 0 0 0 4 3.67c.1 0 .2.04.23.08.02.04.16.08.27.08.12 0 .25.03.27.07.02.04.22.08.4.08.2 0 .41.04.47.08 1.1.11 2.2-.04 3.24-.45a.7.7 0 0 1 .32-.1c.08 0 .16-.02.16-.05a8.1 8.1 0 0 0 2.77-2.34c.14-.14.23-.32.23-.38 0-.05.04-.11.08-.11.02 0 .08-.06.1-.14l.15-.33c1.1-1.87.9-5.75-.35-7.14a.58.58 0 0 1-.13-.21c0-.04-.06-.14-.14-.2l-.44-.5a7.6 7.6 0 0 0-3.85-2.25 6.36 6.36 0 0 0-1.39-.08c-.8 0-1.35.04-1.39.08Zm40.92 0c-.02.03-.11.07-.2.07-.2 0-.72.18-.82.25-.02.04-.13.06-.23.06s-.17.04-.17.08-.08.08-.16.08c-.07 0-.15.04-.15.08s-.08.07-.16.07c-.07 0-.15.04-.15.08s-.04.08-.08.08c-.29 0-2.3 1.81-2.3 2.07l-.22.39c-.44.65-.74 1.4-.87 2.18a7.5 7.5 0 0 0 .22 3.9c.17.53.4 1.02.7 1.48 0 .08.1.24.24.38.13.13.23.27.23.3 0 .36 1.9 1.76 3 2.2l.33.13c.08.04.22.08.33.08.1 0 .2.03.23.07.02.04.21.08.43.08.19 0 .38.04.42.08.02.04.38.08.77.08s.75-.04.77-.08c.02-.04.21-.08.42-.08.2 0 .39-.04.43-.08.02-.04.17-.07.3-.07.16 0 .28-.04.28-.08s.07-.08.19-.08c.1 0 .2-.04.23-.08.02-.04.12-.08.2-.08.09 0 .15-.04.15-.07 0-.04.05-.08.15-.08.08 0 .16-.02.17-.06 0-.04.2-.14.37-.25a6.87 6.87 0 0 0 2.74-3.04l.27-.57c.03-.08.07-.2.07-.3 0-.07.04-.15.08-.15s.08-.12.08-.25a6.98 6.98 0 0 0-.3-4.54c-.01-.1-.03-.2-.07-.2-.04 0-.15-.2-.25-.43-.06-.16-.14-.3-.25-.43-.02 0-.08-.08-.1-.16a.78.78 0 0 0-.13-.25c-.3-.33-.6-.67-.87-1.01l-.3-.26a7.1 7.1 0 0 0-1.47-.97l-.67-.32a.7.7 0 0 0-.3-.07c-.07 0-.17-.04-.19-.08-.02-.04-.17-.08-.3-.08-.14 0-.3-.04-.31-.08a6.36 6.36 0 0 0-1.39-.08c-.8 0-1.35.04-1.39.08Zm-38.45 2.18a4.6 4.6 0 0 1 3.2 2.38c0 .07.04.11.08.11.03 0 .07.04.07.1a6.53 6.53 0 0 1 .39 3.45 5.04 5.04 0 0 1-.7 1.56 6.82 6.82 0 0 1-1.7 1.6 1 1 0 0 1-.53.24c-.08 0-.15.03-.15.07 0 .04-.1.08-.24.08-.13 0-.23.04-.23.08 0 .06-.71.16-1.27.16s-1.27-.1-1.27-.16c0-.04-.1-.08-.2-.08a.81.81 0 0 1-.32-.08l-.37-.15c-.63-.3-1.96-1.48-1.96-1.76 0-.06-.02-.11-.06-.13a2.6 2.6 0 0 1-.4-.8c0-.06-.04-.12-.08-.12-.15 0-.33-2.67-.15-2.83.03-.06.07-.2.07-.31 0-.12.04-.23.08-.25.04-.02.08-.12.08-.2 0-.1.03-.16.07-.16.04 0 .08-.07.08-.15 0-.08.04-.16.08-.16s.07-.04.07-.08c0-.64 2.16-2.34 2.97-2.34.1 0 .2-.03.23-.07.36-.08.72-.1 1.08-.08a4 4 0 0 1 1.08.08Zm40.92 0c.02.04.13.07.23.07.8 0 2.97 1.7 2.97 2.34 0 .04.04.08.07.08.04 0 .08.08.08.16s.04.15.08.15.08.06.08.16c0 .08.03.18.07.2.04.02.08.13.08.25s.04.25.08.31c.17.16 0 2.83-.16 2.83-.04 0-.07.06-.07.12 0 .11-.33.78-.4.8-.05.02-.07.07-.07.13 0 .3-1.29 1.45-1.96 1.76l-.37.15a.81.81 0 0 1-.33.08c-.1 0-.19.04-.19.08s-.2.08-.4.08c-.23 0-.45.04-.5.08-.06.05-.2.07-.43.03l-.71-.1c-.16 0-.32-.03-.46-.09-.04-.04-.18-.08-.3-.08-.1 0-.2-.04-.2-.08s-.08-.07-.2-.07c-.11 0-.19-.04-.19-.08s-.08-.08-.15-.08a6.08 6.08 0 0 1-1.85-1.68c0-.06-.02-.11-.06-.13-.06 0-.35-.59-.48-.96a5.82 5.82 0 0 1 .3-4.02c.04 0 .08-.04.08-.08 0-.62 2.18-2.34 2.97-2.34.1 0 .2-.03.23-.07.36-.08.72-.1 1.08-.08a4 4 0 0 1 1.08.08ZM53.95 64.9a9.96 9.96 0 0 0-3.35.94c0 .04-.08.08-.15.08-.08 0-.16.04-.16.08 0 .02-.06.07-.13.1-.2.05-.58.3-.62.38-.02.04-.08.06-.13.06a.5.5 0 0 0-.24.14l-.42.33c-.88.76-1.68 1.61-2.39 2.54 0 .19-.29.38-.44.27-.21-.1-12.77-.12-12.85 0-.02.04-.2.08-.39.08s-.36.03-.38.07c-.02.04-.18.08-.31.08-.14 0-.29.04-.3.08-.03.04-.12.08-.2.08a.7.7 0 0 0-.29.08 6.2 6.2 0 0 1-.73.3l-.25.09c-.06 0-.12.04-.12.07 0 .04-.08.08-.15.08a11.7 11.7 0 0 0-2.16 1.44 10.9 10.9 0 0 0-3.62 6.4c-.25 2.86-.22 5.74.08 8.6 0 .5.75 2.2 1.34 3.06.57.7 1.2 1.34 1.91 1.9.6.45 1.27.82 1.99 1.07 0 .04.07.08.19.08.1 0 .2.04.23.07.02.04.17.08.3.08.14 0 .3.04.32.08.01.04.23.08.46.08s.44.04.46.08c.04.05 2.25.07 6.43.07h6.4v-2.18h-5.4c-4.81 0-5.39 0-5.43-.12 0-.07-.03-3.1-.03-6.7v-6.6h-2.24l-.02 6.61c0 5.84-.04 6.62-.13 6.6a3.72 3.72 0 0 1-1.54-.57 5.76 5.76 0 0 1-2.88-3.2l-.13-.33a.98.98 0 0 1-.08-.37c0-.12-.04-.25-.07-.27-.1-2.58-.1-5.15 0-7.73.03-.02.07-.2.07-.35 0-.17.04-.33.08-.35.04-.02.08-.13.08-.23 0-.12.04-.26.07-.33l.27-.65c.32-.72.73-1.4 1.2-2.03a8.42 8.42 0 0 1 3.43-2.5c.06 0 .11-.03.11-.07 0-.04.08-.08.2-.08.1 0 .19-.04.23-.08.02-.03.15-.07.27-.07.11 0 .25-.04.27-.08.02-.04.19-.08.38-.08.2 0 .35-.04.35-.08 0-.13 11.63-.1 11.7.04 0 .08-.05.4-.12.72-.47 1.7-.49 2.23-.49 9.07 0 6.6 0 6.79.45 8.15.11.35.42.98.5.98.04 0 .06.04.06.1 0 .05.07.2.17.29l.37.47a7.06 7.06 0 0 0 2.7 1.71c1.02.27 2.08.36 3.13.28l2.1.03V74.6h-2.23v8.36c0 4.6-.02 8.45-.06 8.54-.06.26-1.77.2-2.52-.1-.66-.23-1.81-1.12-1.81-1.4 0-.06-.02-.11-.06-.13a3.67 3.67 0 0 1-.48-.98 301.8 301.8 0 0 1 0-14.74c.09-.6.27-1.2.54-1.74 0-.08.11-.35.25-.58l.32-.65c.04-.1.1-.17.14-.17.04 0 .06-.04.06-.1 0-.06.1-.2.23-.35.6-.74 1.28-1.42 2.02-2l.33-.2c.13-.06.29-.2.38-.26a.5.5 0 0 1 .23-.13c.16-.04.3-.1.45-.18.6-.28 1.22-.5 1.87-.62.57-.12 12.33-.12 12.9 0l.68.15c.13 0 .25.06.25.1 0 .04.08.08.15.08.1 0 .2.03.3.08l.67.3c.24.1.47.24.67.4.06 0 .6.35.94.62.63.56 1.2 1.18 1.72 1.84.06.05.1.13.1.19a289.01 289.01 0 0 0 .54.94c.28.58.34.7.46 1.13l.15.47c.04.07.1.29.12.46.1.51.13 14.8.03 14.9a.35.35 0 0 0-.07.2c0 .15-.31.8-.4.84-.05.02-.06.07-.06.13s-.22.32-.49.57c-.84.78-1.48 1.01-3.04 1.1l-.79.03-.02-8.54-.02-8.52-1.13-.02-1.14-.02v19.26l2.1-.02a9.9 9.9 0 0 0 3.43-.37l.58-.27a6.9 6.9 0 0 0 2.23-1.83c.08-.08.13-.2.13-.26 0-.07.04-.13.08-.13.08 0 .43-.72.58-1.25.3-1.05.35-1.66.35-7.96 0-6.74-.06-7.64-.5-9.16a1.56 1.56 0 0 1-.08-.55c.04-.14 11.67-.2 11.67-.04 0 .04.16.08.35.08.2 0 .37.04.39.08.01.04.15.08.27.08.11 0 .25.04.26.07.02.04.14.08.24.08.11 0 .19.04.19.08s.06.08.11.08a6.1 6.1 0 0 1 2.2 1.25 8.6 8.6 0 0 1 3 5.18c.2.2.04 8.23-.15 8.35-.26.86-.7 1.66-1.3 2.32 0 .22-1.78 1.37-2.51 1.62-.56.2-.73.23-.81.2-.06-.04-.08-2.3-.08-6.64v-6.59H86.6v6.6c0 3.6-.02 6.63-.04 6.7-.06.1-.6.12-5.44.12h-5.39v2.18l6.42-.02c6.16-.03 7.18-.05 7.32-.21a.7.7 0 0 1 .34-.08c.14 0 .27-.04.3-.08.01-.03.13-.07.22-.07.12 0 .2-.04.2-.08s.05-.08.11-.08a7.21 7.21 0 0 0 2.04-1.1 12.8 12.8 0 0 0 1.74-1.79 8.9 8.9 0 0 0 1.4-3.31c.27-2.91.25-5.85-.05-8.76 0-.17-.04-.35-.08-.37-.04-.02-.08-.13-.08-.23a.94.94 0 0 0-.07-.35l-.16-.32a.73.73 0 0 1-.08-.27l-.5-1.13a6.04 6.04 0 0 0-.96-1.56 10.7 10.7 0 0 0-5.51-3.9c-.04-.06-.35-.14-.96-.2-.2-.03-.39-.07-.43-.11-.11-.12-12.63-.1-12.85 0-.15.1-.44-.08-.44-.3a18.42 18.42 0 0 0-2.7-2.75c-.1-.1-.23-.18-.36-.23-.04 0-.1-.02-.12-.06a1.94 1.94 0 0 0-.61-.39c-.08 0-.14-.07-.14-.1s-.08-.07-.15-.07c-.08 0-.16-.04-.16-.08s-.06-.08-.11-.08a.62.62 0 0 1-.25-.08 6.2 6.2 0 0 0-1.49-.48l-.85-.22c-.38-.12-11.82-.2-12.75-.08Zm1.27 27.85v1.1h9.56v-2.19h-9.56v1.1Z" clip-rule="evenodd"/>
<defs><linearGradient id="soft-i-5" x1="67.2" x2="35.4" y1="0" y2="115.2" gradientUnits="userSpaceOnUse"><stop stop-color="#EE2CFF"/><stop offset="1" stop-color="#C70261"/></linearGradient></defs></svg>
