<svg xmlns="http://www.w3.org/2000/svg" fill-rule="evenodd" stroke-linejoin="round" stroke-miterlimit="2" clip-rule="evenodd" viewBox="0 0 63 48">
  <defs/>
  <path fill="url(#_Linear1)" fill-rule="nonzero" d="M25.5 1.3C20.1 4.1.3 19.1 0 22.1v.7c.3 3 20.1 18 25.5 20.8 5.4 2.8 6.1.3 6.1.3s1.7-3.4 2.6-6.8c.9-3.4-5.5-4-5.6-5.4-.2-1.4 2.8-1.6 2.8-1.6s25.2-4 30.3-5.6c1.2-.4 1.2-3.6 0-4-5-1.6-30.3-5.6-30.3-5.6s-3-.3-2.8-1.7c.1-1.4 6.5-2 5.6-5.3-1-3.4-2.6-6.9-2.6-6.9s-.7-2.5-6 .3z"/>
  <path fill="url(#_Linear2)" fill-rule="nonzero" d="M25.5 3.4C20.1 6.2.3 21.1 0 24.2v.7c.3 3 20.1 18 25.5 20.8 5.4 2.8 6.1.3 6.1.3s1.7-3.4 2.6-6.8c.9-3.4-5.5-4-5.6-5.4-.2-1.4 2.8-1.7 2.8-1.7s25.2-4 30.3-5.6c1.2-.4 1.2-3.5 0-4-5-1.5-30.3-5.5-30.3-5.5s-3-.3-2.8-1.7c.1-1.4 6.5-2 5.6-5.4-1-3.4-2.6-6.8-2.6-6.8s-.7-2.5-6 .3z"/>
  <path fill="url(#_Linear3)" fill-rule="nonzero" d="M12.7 12.5c-2.1 5.7 2.4 7.4 4.2 15.4 1.1 4.9-1.2 8-3.1 9.7 4.7 3.7 9.5 7 11.7 8 5.4 2.9 6.1.4 6.1.4s1.7-3.4 2.6-6.8c.9-3.4-5.5-4-5.6-5.4-.2-1.4 2.8-1.6 2.8-1.6s25.2-4 30.3-5.7c1.2-.4 1.2-3.5 0-4-5-1.5-30.3-5.5-30.3-5.5s-3-.3-2.8-1.7c.1-1.4 6.5-2 5.6-5.4-1-3.3-2.6-6.8-2.6-6.8s-.7-2.5-6 .3c-2.5 1.3-7.7 4.9-12.8 8.8l-.1.3z"/>
  <path fill="url(#_Linear4)" fill-rule="nonzero" d="M12 33.4c-1.7 2-8-4.3-10.2-7.2-2.1-2.8 4.8-8.5 6-7.4C9 19.8 6.6 22 5 23.7c-1.2 1.3 1.5 3 3 4.5 1.5 1.3 5.5 3.7 4 5.2z"/>
  <defs>
    <linearGradient id="_Linear1" x1="0" x2="1" y1="0" y2="0" gradientTransform="rotate(180 30.8 11.2) scale(61.6767)" gradientUnits="userSpaceOnUse">
      <stop offset="0" stop-color="#73d10f"/>
      <stop offset=".1" stop-color="#73d10f"/>
      <stop offset=".8" stop-color="#51a704"/>
      <stop offset="1" stop-color="#459800"/>
    </linearGradient>
    <linearGradient id="_Linear2" x1="0" x2="1" y1="0" y2="0" gradientTransform="rotate(180 30.8 12.3) scale(61.6767)" gradientUnits="userSpaceOnUse">
      <stop offset="0" stop-color="#64ce0e"/>
      <stop offset=".8" stop-color="#7de424"/>
      <stop offset="1" stop-color="#82e928"/>
    </linearGradient>
    <linearGradient id="_Linear3" x1="0" x2="1" y1="0" y2="0" gradientTransform="rotate(-116.6 39.3 15.4) scale(66.5434)" gradientUnits="userSpaceOnUse">
      <stop offset="0" stop-color="#26bf0d"/>
      <stop offset="1" stop-color="#a7dd0f"/>
    </linearGradient>
    <linearGradient id="_Linear4" x1="0" x2="1" y1="0" y2="0" gradientTransform="rotate(180 6.2 13.1) scale(10.9808)" gradientUnits="userSpaceOnUse">
      <stop offset="0" stop-color="#99fe3a"/>
      <stop offset="1" stop-color="#9cff61"/>
    </linearGradient>
  </defs>
</svg>
