<svg xmlns="http://www.w3.org/2000/svg" fill="none" viewBox="0 0 135 134">
<path fill="#EB2316" d="M67.3 125.4a58.5 58.5 0 1 0 0-117 58.5 58.5 0 0 0 0 117Z"/>
<path fill="#fff" d="M67 134A67.6 67.6 0 0 1 0 66.2 67.1 67.1 0 0 1 134.3 68 67.2 67.2 0 0 1 67 134ZM55 55c.8-.7 1.7-1.2 2.6-1.8a24.4 24.4 0 0 1 36.6 12.7 29.4 29.4 0 0 1-1 21.3A31.8 31.8 0 0 1 49 104c-7-3.8-11-9.9-13.4-17.5L48.8 83l1.6 2.6c3 4.4 6.8 7.2 12.2 7.4 8.4.1 15.9-7.3 16.5-16.3a13.1 13.1 0 0 0-10.7-14.3c-7-1.5-12.1 1.4-16.3 6.7l-2 3-12-5.2.2-1.5c2.4-9.6 4.7-19.4 7.4-29a28.5 28.5 0 0 1 21.9-21.6c3.3-.8 6.6-1.3 10-1.6 3.5-.4 7-.5 10.8-.7a58.5 58.5 0 0 0-49.7 105.6 58.8 58.8 0 0 0 78.8-21 58 58 0 0 0-11.3-73.4l-.8 1.3a26 26 0 0 1-16.2 13.4 90.5 90.5 0 0 1-16.1 2.8c-4.8.4-9.7 0-14.7 0L55 55Zm45.8-36c-9 .4-17.5.6-26.1 1.2a27 27 0 0 0-14.5 5.2c-3 2.4-5.4 5.6-6.8 9.2h7.3c8 .2 16 .2 23.8-1.6a22 22 0 0 0 16.3-14Z"/>
<path fill="#008F32" d="M100.8 19a22 22 0 0 1-16.3 14 90.3 90.3 0 0 1-23.8 1.6h-7.3c1.4-3.6 3.8-6.8 6.9-9.2a26 26 0 0 1 14.4-5.2c8.5-.6 17.1-.8 26-1.1Z"/>
</svg>
