<svg xmlns="http://www.w3.org/2000/svg" fill="none" viewBox="0 0 114 90">
<path fill="#000" d="m87 11 .7-9.6-5.5-.4.1-.9-8.3.7-.2 1.1-.7-1-6.7.5-.2 1.2-.7-1.1-5.8.4L59 0 48.5.6l-.3 1.7A6.1 6.1 0 0 0 44 .5L36.7.2 36 2.3a4.9 4.9 0 0 0-4-1.4l-8 1-.8 7 1.4 2 1 7.8 4.1 3.7 7.1-.9a4 4 0 0 0 1.8-.5l9.3.4v.4l7-.4.4-1.8h1l.4 1.7 5.3-.4.5 1.5 7-.6.1-.7.3.7 6.5-.5v.3l9.2.6 4.1-3.7 2.2-7.3L87 11Z"/><path fill="#000" d="M89.2 18.3H22.6v10h66.6v-10Z"/><path fill="#000" d="m107.5 30.2 4.8-13.8-12.4-3.2-.4 1.1H99l-1.4-.1a13 13 0 0 0-9 2.5 9.8 9.8 0 0 0-3.3 4c-1.8-1.2-4-1.8-6.1-1.9L66 18.2l-1.2 4.5-1.3-5H48.7v-.2l-3 .2h-.8l-10.5.4-.2 1-7.4.5 1.6-6-14-2.3-.2 1.4h-2c-3.3.2-6.5 1.6-9 4A11.8 11.8 0 0 0 0 26.1c.1 1.3.4 2.7 1 4l2.6 4.6-2.4 13 5 6.2 1.2.6c3 1.6 6.5 2.4 10 2.4h1.4c3.4-.2 6.6-1.5 9.1-3.8 1-1 1.9-2.2 2.5-3.4l.3 6H53l1-4.3h3l.7 4.3h29.1c1.8.6 3.6 1 5.5 1l1 .1c3 0 5.8-.8 8.2-2.5 1-.8 2-1.7 2.7-2.8l3.9-5.4.5-.6.2-.3a13 13 0 0 0 1.9-6.3 10.8 10.8 0 0 0-3.2-8.8Z"/><path fill="#FF0F19" d="M23.6 45.5a13.3 13.3 0 0 1-8.5 3.4c-3.9.3-7.8-.5-11.3-2.3L5.6 37l4.3 1.6c1.4.5 2.9.7 4.4.7 1.4-.1 2-.7 2-1.7-.1-.8-1.3-1.5-3.6-2-2.2-.6-4.4-1.4-6.4-2.5a8.7 8.7 0 0 1-4-7A9.5 9.5 0 0 1 5 18.2c2-2 4.7-3 7.5-3.2H16l.3-1.1 9.2 1.4-2.7 9.8a21 21 0 0 0-7.6-1.5c-1.4.2-2.2.6-2 1.7 0 .6 1.1 1.2 3.4 1.8 2.9.8 5 1.7 6.3 2.6a9 9 0 0 1 3.8 7 10.4 10.4 0 0 1-3 8.7Z"/><path fill="#FF0F19" d="m43.4 28.6-6.2.3.9 17.5-7.5.3-1-17.6-6 .4L25 22l11.1-.6.2-1 9.3-.4-2.3 8.6ZM88 30.9a9.2 9.2 0 0 0-2.3-6.9 8.7 8.7 0 0 0-6.4-2.9L68 20.6l-2 7.6h1.6l-.8 18.4 7.9.3.3-7.6 3 7.8 9.5.4-4-8.5a9.3 9.3 0 0 0 4.5-8Z"/><path fill="#000" d="m76.9 28.2-2.3-.1-.2 5 2.3.2a2.6 2.6 0 0 0 .2-5.1Z"/><path fill="#FF0F19" d="M104.3 46.7a12.7 12.7 0 0 1-8.4 2.2c-3.7-.3-7.3-1.6-10.4-3.7l2.9-8.8 3.8 2c1.3.6 2.7 1 4 1.2 1.4 0 2.1-.4 2.2-1.4 0-.7-1-1.5-3.1-2.3-2-.8-4-1.8-5.8-3.2a8.4 8.4 0 0 1-2.8-7.2 9 9 0 0 1 3.4-7c2.1-1.5 4.8-2.2 7.4-2l1.4.1.8.1 1.3.2.3-1 7.9 2-3.3 9.8a20.2 20.2 0 0 0-6.8-2.7c-1.4 0-2.1.3-2.2 1.3 0 .6 1 1.4 3 2.2a21 21 0 0 1 5.6 3.2 8.5 8.5 0 0 1 2.8 7.1 9.8 9.8 0 0 1-4 7.9Zm-44.4 0-.7-3.7H52l-1 3.7h-8.8l5.2-19.3H45l1.7-7.4h15.1l6.9 26.7h-8.8Z"/><path fill="#fff" d="M34.6 8.8a3.5 3.5 0 0 0 1.3-3.4 3.3 3.3 0 0 0-1.3-2.3 3.3 3.3 0 0 0-2.5-.6l-6.8.8-.4 4.1h.9l1.1 9.8 6.7-.8a3.8 3.8 0 0 0 3.3-2.6c.1-.5.2-1 .1-1.5 0-.8-.3-1.6-.7-2.2-.5-.5-1-1-1.7-1.3ZM48.2 16l-2-4.5a5.5 5.5 0 0 0 1-8A4.6 4.6 0 0 0 44 2.1l-6-.3-1 4 .8.1-.4 9.9 4.2.2.2-4.2 1.6 4.2 4.8.2h.2l-.1-.1Zm37-3.6.7-9.6-4.8-.3-.5 4 .9.1-.8 9.8 7.6.5 1.3-4.3-4.4-.2Zm-10-10.2L74 8l-2-5.4-4.1.3-1 5.7L65 3l-5.3.4 4.5 13.7 5.5-.4 1-5.6 2 5.3 5.4-.4 2.3-14-5.3.4ZM57.7 16l-.5-2-3.8.3-.5 2-4.6.4L50.5 6l-1.3.1.7-4 8-.4 4.6 14-4.7.2Zm-3-9.7-.7 4.3 2-.2-1.2-4Z"/><path fill="#000" d="M43 6h-1l-.1 2.5 1.2.1A1.3 1.3 0 0 0 43 6Zm-12.5.3-.9.1.2 2 .9-.1a1 1 0 1 0-.2-2Zm.8 4.8-1.1.1.2 2.5 1.1-.1a1.2 1.2 0 1 0-.2-2.5Zm25 17.1L54 36h4l-1.8-7.8ZM43.7 73.6c4.2 1.8 8.8 2.5 13.4 2 11.4-1.2 10-12 10-12L64 64c5.8-4.7 2.6-12 2.6-12l-23 9.1v12.5Z"/><path fill="#000" d="M67.4 73.6a27.6 27.6 0 0 1-13.4 2c-11.4-1.2-10-12-10-12l3.1.4c-5.9-4.7-2.6-12-2.6-12l23 9.1v12.5Z"/><path fill="#000" d="M79.4 63c1-1.8 1.6-4 1.5-6 0-1.7-.4-3.3-1-4.9a1.5 1.5 0 0 0-2-.7l-22.3 9v1.5l22.9-9.1s3.3 7.3-2.6 12l3.1-.3s1.4 10.6-10 12c-4.5.4-9.1-.3-13.4-2.1V76a30 30 0 0 0 13.6 1.9c4-.5 6.9-2 8.8-4.5a13 13 0 0 0 2.5-9.1 1.5 1.5 0 0 0-1.1-1.3Z"/><path fill="#fff" d="M55.6 74.4a27 27 0 0 0 13.5 2c11.3-1.3 10-12 10-12l-3.2.4c5.9-4.7 2.6-12 2.6-12l-22.9 9.1v12.5Z"/><path fill="#000" d="M31.7 63a11 11 0 0 1-1.5-6c0-1.7.4-3.3 1-4.9a1.5 1.5 0 0 1 2-.7l22.3 9v1.5l-23-9.1s-3.2 7.3 2.7 12l-3.2-.3s-1.3 10.6 10 12c4.6.4 9.2-.3 13.5-2.1V76a29.8 29.8 0 0 1-13.7 1.9c-3.8-.5-6.8-2-8.7-4.5a13 13 0 0 1-2.5-9.1 1.5 1.5 0 0 1 1.1-1.3Z"/><path fill="#fff" d="M55.5 74.4a27.6 27.6 0 0 1-13.5 2c-11.3-1.3-10-12-10-12l3.2.4c-5.9-4.7-2.6-12-2.6-12l22.9 9.1v12.5Z"/><path fill="#000" d="m69.3 71 2.8-9.5-9.7-2.3-6.9-7.2-6.9 7.2-9.7 2.3 2.9 9.5-2.8 9.5 9.7 2.4 6.9 7.1 6.9-7.2 9.6-2.3-2.8-9.5Z"/><path fill="#000" d="M74.3 74.4 71.6 65l2.7-9.4.5-1.6-1.7-.4-9.6-2.3-6.8-7.1-1.2-1.2-1.2 1.2-6.8 7-9.6 2.4-1.7.4.5 1.7 2.8 9.4-2.7 9.4-.5 1.6 1.7.4 9.5 2.4 6.9 7 1.2 1.3 1.2-1.3 6.8-7 9.6-2.4 1.6-.4-.5-1.7Z"/><path fill="#EAB533" d="m69.9 65 2.8-9.8-10-2.4-7.2-7.5-7.1 7.5-10 2.4 2.8 9.9-2.8 9.8 10 2.5 7.2 7.4 7.1-7.5 10-2.4-2.9-9.9Z"/><path fill="#F6E25F" d="m72.7 55.2-10-2.4-7.2-7.5v19.8l17.2-10Z"/><path fill="#EAB533" d="m55.5 65 17.3 10-3-9.9 3-9.8L55.4 65Z"/><path fill="#fff" d="M55.5 65V45.4l-7.1 7.5-10 2.4 17.1 9.9Z"/><path fill="#B15C3D" d="m55.6 84.8 7.1-7.5 10-2.4L55.6 65v19.7Z"/><path fill="#F6E25F" d="m38.4 75 17.1-10-17.2-9.8 3 9.9-3 9.8Z"/><path fill="#EAB533" d="M55.5 65 38.4 75l10 2.4 7.2 7.4V65Z"/><path fill="#000" d="M55.5 77a12.1 12.1 0 1 0-8.5-3.5c2.3 2.3 5.3 3.5 8.5 3.6Z"/><path fill="#000" d="M55.5 74.7a9.7 9.7 0 1 0 0-19.5 9.7 9.7 0 0 0 0 19.5Z"/><path fill="#F6E25F" d="M43.4 65c.2 3.1 1.6 6 3.8 8.2a12 12 0 0 0 19.3-3.7c.7-1.4 1-3 1.1-4.5a11.6 11.6 0 0 1-3.3 8.8l-.4.4-.5.4-.4.4-.5.4a12.3 12.3 0 0 1-17.3-3.5c-1.3-2-2-4.5-1.8-7Z"/><path fill="#EDBC31" d="M55.5 54.9a10 10 0 0 0-10 9.6 7.8 7.8 0 0 0 4.9 7.2v1.1a1.1 1.1 0 0 0 1 1.1h8.2a1.1 1.1 0 0 0 1.1-1v-1.2c3-1.4 5-3.9 5-7.2 0-5-4.6-9.6-10.2-9.6Zm.8 8.6 1.3-1.3a.7.7 0 0 1 1 1l-1.3 1.3a.7.7 0 0 1-1.2-.5c0-.2 0-.4.2-.5Zm-3.7-1.3a.7.7 0 0 1 1 0l1.3 1.3a.7.7 0 0 1 0 1 .7.7 0 0 1-1 0l-1.3-1.3a.7.7 0 0 1 0-1Zm-1.5 7.4a3 3 0 1 1 3-3 3 3 0 0 1-3 3Zm3 .5 1.5-2.5 1.5 2.5h-3Zm6.1-.5a3 3 0 1 1 3-3 3 3 0 0 1-3 3Z"/><path fill="#fff" d="M54.3 57.5c-.7-1.1-2.6-1.2-4.3-.1-1.7 1-2.5 2.8-1.8 3.9.7 1 2.7 1 4.3 0 1.7-1 2.5-2.7 1.8-3.8Z"/>
</svg>
