<svg xmlns="http://www.w3.org/2000/svg" fill="none" viewBox="0 0 131 131"><path fill="#E20615" stroke="#fff" stroke-width="3" d="M65.5 129a63.5 63.5 0 1 0 0-127 63.5 63.5 0 0 0 0 127Z"/><mask id="a" width="121" height="121" x="5" y="5" maskUnits="userSpaceOnUse" style="mask-type:alpha"><path fill="#F49A2A" d="M65.5 125.77a60.27 60.27 0 1 0 0-120.54 60.27 60.27 0 0 0 0 120.54Z"/></mask><g fill="#fff" mask="url(#a)"><path d="M87.55 48.34s-2.02.8-4.36 3.4c-2.34 2.58-3.7 5.49-2.7 6.27.4.29 1.29.35 2.91-1.12a12.9 12.9 0 0 0 3.44-4.78c1.04-2.56.71-3.73.71-3.76ZM100.38 53c-2.61-1.34-4.51-2.98-6.5-4-1.88-.96-3.1-1.37-4.63-1.17a4.7 4.7 0 0 0-.63.16s.79 2.7-2.34 7.22c-3.17 4.58-6.05 4.55-6.87 3.29-.85-1.33.25-4.04 2.1-6.45 1.94-2.52 5.33-4.61 5.33-4.61s-1.08-.67-3.74.84c-2.6 1.47-7.06 4.97-11.2 10.88-4.15 5.9-4.97 9.15-5.57 11.71-.6 2.56-.05 5.3 2.78 5.3 2.83 0 6.13-4.33 7.06-5.83 1.72-2.8 2.85-7.1.5-6.5-1.16.28-2.1 1.57-2.69 2.8-.37.8-.66 1.63-.85 2.5-.82.33-1.6.78-2.3 1.33-.78.58-1.5 1.22-2.17 1.93 0 0 0-2.05 1.63-5.36 1.63-3.3 4.62-4.82 6.3-4.96 1.53-.12 3.51 1.17 1.83 5.95-1.68 4.78-6.64 10.6-11.85 10.66-4.8.07-7.95-6.08-1.26-16.8 7.4-11.85 16.1-15.49 18.92-15.9 2.82-.4 3.73.85 3.73.85 1.7-.7 3.53-1 5.36-.89 3.45.23 6.11 2.68 9.63 4.4-.89.85-1.75 1.74-2.57 2.65Zm15.47-4c-2.39 1.54-5.7 2.93-8.87 2.64-.8.83-1.66 1.79-2.52 2.84 5.5 1.09 10.32-2.33 12.89-5.23.93-1.05 1.73-2.2 2.39-3.45a21.46 21.46 0 0 1-3.9 3.2Zm-7.33 15.54a.94.94 0 0 0 .1-.23.56.56 0 0 0-.5-.48c-.53-.03-1.24.07-3.12 2.15a28.3 28.3 0 0 0-3.98 5.67c-1.08 1.96-1.51 3.43-.9 3.8.2.11.44.13.66.07.41-.1.89-.5 1.6-1.33.34-.39.72-.94 1.17-1.56a149.3 149.3 0 0 0 4.97-8.09ZM89.04 66.8c.31-.82.71-2.43-.11-3.06-.9-.67-3.16.9-3.17 2.52-.02 1.65 1.6 2.4 1.98 2.5.22.06.3.06.4-.12.34-.59.64-1.2.9-1.84Zm-1.71 3a6.87 6.87 0 0 1-1.56-.99 5 5 0 0 1-1.17-1.42c-.03-.05-.06-.01-.1.04-.03.04-.17.17-1.38 1.94-1.21 1.78-3.07 5.46-1.39 6.09 1.08.4 2.87-1.5 3.85-2.75.66-.87 1.27-1.79 1.8-2.75.05-.1 0-.13-.05-.15Zm19.07 4.26c-.46.73-.98 2.13.52 1.26 1.84-1.06 4.45-5.04 4.45-5.04h1.19a39.87 39.87 0 0 1-3.6 4.73c-1.86 2.07-4.13 3.94-5.73 3.76-1.87-.22-1.28-2.68-1.28-2.68s-2.67 2.85-4.52 2.65c-2.5-.28-1.73-3.37-1.73-3.37s-2.83 3.47-4.75 3.36c-3.02-.17-2.26-3.85-1.42-6.44.45-1.38.86-2.47.86-2.47s-.3.08-.94.17c-.33.05-.95.09-.95.09s-1.25 2.22-2.26 3.55c-1 1.33-5.27 5.93-7.79 5.01-2.32-.85-1.55-4.41-.2-7.25 1.98-4.12 7.53-10.06 10.73-9.27 3.32.8.08 6.87.08 6.87s0 .02.03.04c.07.03.24.04.64-.03.42-.09.82-.21 1.22-.37 0 0 3.33-7 7.02-11.58 3.69-4.58 11.04-12.47 13.93-10.56.7.46.38 2.08-.57 4.04-.42.14-.86.26-1.3.35a10.72 10.72 0 0 0 1.18-2.81c.44-2.37-5.08 2.62-9.02 7.99a74.53 74.53 0 0 0-6.31 10.23c.71-.44 1.4-.92 2.04-1.46a58.27 58.27 0 0 0 5-4.68 54.65 54.65 0 0 0 4.26-4.92c.42-.03.84-.07 1.25-.13a53.94 53.94 0 0 1-4.7 5.56 76.72 76.72 0 0 1-4.75 4.55 39.6 39.6 0 0 1-4.17 3.1s-3.45 6.97-1.57 7.42c1.1.26 3.28-3.1 3.28-3.1s2.84-4.34 4.55-6.3c2.34-2.66 4.35-4.2 6.36-4.23 1.17-.02 1.86 1.23 1.86 1.23l.55-.86h3.39s-6.33 10.77-6.84 11.58ZM115.85 49c-2.39 1.53-5.7 2.92-8.87 2.63-.8.83-1.66 1.79-2.52 2.84 5.5 1.09 10.32-2.33 12.89-5.23.93-1.05 1.73-2.2 2.39-3.45a21.46 21.46 0 0 1-3.9 3.2Zm-47.61 5.28H65l-1.82 2.95h3.23l1.82-2.95ZM52.97 64.5c1.38-1.88 5.16-8.48 5.16-8.48a.55.55 0 0 0-.5-.48c-.53-.03-1.4.15-3.13 2.32a41.11 41.11 0 0 0-4.07 5.71c-1.08 1.97-1.55 3.36-.93 3.73.2.1.43.13.65.07.4-.1.93-.5 1.65-1.34.34-.39.72-.91 1.17-1.53Zm-17.3-8.92c-.89-.68-3.15.9-3.16 2.51-.02 1.65 2.03 2.16 2.3 2.17a.4.4 0 0 0 .23-.04.27.27 0 0 0 .1-.12c.24-.48.46-.97.65-1.46.32-.82.71-2.43-.11-3.06Zm-1.34 5.69c-.61-.2-1.2-.46-1.75-.8a3.64 3.64 0 0 1-1.24-1.39c-.03-.05-.07-.01-.1.03-.03.05-.22.28-1.43 2.06s-3 5.43-1.32 6.05c1.07.41 2.88-1.49 3.86-2.74.74-.98 1.42-2 2.04-3.05.04-.11 0-.13-.06-.16Zm26.33 1.1h1.19s-5.92 8.58-9.27 8.18c-1.86-.22-1.31-2.53-1.31-2.53s-2.62 3.07-5.03 2.45c-2.18-.56-.77-4.2-.77-4.2-.25.1-4.98 5.44-8.3 4.16-3.47-1.35-1.67-5.82-1.01-7.16a53.76 53.76 0 0 1 1.18-2.24l-.87.23-.84.18S34 64.1 33 65.45c-1 1.34-5.28 5.93-7.8 5.01-2.51-.91-1.89-4.44-.47-7.24 2.29-4.54 7.73-10.13 11-9.28 3.31.85.57 6.22.57 6.22s.66.09 2.24-.99c2.27-1.55 5.27-5.73 8.52-5.24 1.53.23 2.95 1.8 1 4.78-.62.95-1.66 1.8-2.46.96-.5-.53-.06-1.48.46-2.14a2.04 2.04 0 0 1 1.75-.8s.53-1.23-.83-1.2c-1.1.01-3.9 2.6-5.48 5.2-1.45 2.39-3.64 6.46-1.44 7.35 2.02.82 5.86-3.75 7.64-6.14 1.78-2.4 5.83-7.82 9.23-8.04 1.17-.08 1.87 1 1.87 1l.4-.63h3.4l-6.9 11.52c-.4.63-.92 2.06.52 1.26s4.45-4.68 4.45-4.68Zm-1.85 17.16a14.06 14.06 0 0 0-8.54-2.5 5.23 5.23 0 0 0-4.17 2.26c-1.3-2.27-3.86-3.66-7.83-3.63-6.4.08-12.75 3.04-17.78 3.03-4.83 0-8.34-3.03-8.23-8.43.21-9.47 8.2-17.99 14.15-21.83 3.44-2.2 6.31-2.85 8.2-2.64 1.36.15 3 1.73 1.97 4.07-1.53 3.42-3.64 3.14-3.56 1.5a2.71 2.71 0 0 1 1.28-2.1c.34-.23.93-.3 1.25-.3.3-.26.52-2.13-1.93-1.51-2.44.61-5.41 3.03-8.23 6.15-2.83 3.12-7.21 9.02-8.3 15.22-.5 2.87-.17 8.1 6.62 8.05 5.77-.05 14.27-3.85 22.08-3.77 3.03.03 5.67.85 7.73 2.12 2.02 1.24 4.44 3.07 5.3 4.3M43.77 93c-.63 0-1.25-.14-1.8-.43-.53-.28-.97-.7-1.28-1.2a3.37 3.37 0 0 1-.46-1.75 3.23 3.23 0 0 1 1.73-2.94c.54-.3 1.15-.44 1.82-.44.57 0 1.08.1 1.53.3.46.2.84.48 1.15.86l-.96.9a2.09 2.09 0 0 0-1.65-.77c-.37 0-.75.09-1.08.27-.31.17-.57.43-.74.74-.18.33-.27.7-.27 1.08 0 .4.09.76.27 1.08.17.31.43.57.74.75.32.17.68.26 1.08.26.66 0 1.2-.26 1.65-.78l.96.9a3 3 0 0 1-1.15.87c-.49.2-1.01.3-1.54.3Zm5.07-6.65h1.51v5.3h3.27v1.23h-4.78v-6.53Zm11.34 5.13h-3.04l-.58 1.4h-1.54l2.9-6.53h1.5l2.92 6.53h-1.59l-.57-1.4Zm-.48-1.14-1.03-2.5-1.04 2.5h2.07ZM66.52 93c-.51 0-1.02-.07-1.5-.21-.42-.11-.81-.3-1.16-.55l.5-1.14a3.73 3.73 0 0 0 2.16.68c.44 0 .75-.06.96-.18.2-.13.3-.3.3-.52a.47.47 0 0 0-.18-.38c-.14-.11-.3-.2-.47-.25a8.9 8.9 0 0 0-.76-.2c-.42-.1-.83-.22-1.23-.36-.31-.12-.6-.31-.82-.57-.22-.26-.33-.6-.33-1.04 0-.38.1-.73.3-1.03.24-.33.56-.59.93-.74a3.8 3.8 0 0 1 1.52-.27c.42 0 .82.05 1.22.15.4.1.75.24 1.05.43l-.47 1.15a3.64 3.64 0 0 0-1.8-.51c-.43 0-.75.06-.95.2a.63.63 0 0 0-.3.54c0 .22.12.4.34.5.24.11.6.22 1.08.32.5.12.9.24 1.22.36.31.11.6.3.81.56.23.25.35.6.35 1.03 0 .37-.11.73-.32 1.03-.23.32-.56.58-.93.72-.49.2-1 .29-1.52.28Zm7.3 0c-.52 0-1.02-.07-1.5-.21-.42-.11-.81-.3-1.16-.55l.51-1.14a3.74 3.74 0 0 0 2.15.68c.44 0 .75-.06.96-.18.2-.13.3-.3.3-.52a.47.47 0 0 0-.18-.38c-.14-.11-.3-.2-.47-.25-.25-.08-.5-.15-.76-.2-.42-.1-.82-.22-1.22-.36-.32-.12-.6-.31-.82-.57a1.5 1.5 0 0 1-.34-1.04c0-.37.1-.73.3-1.03.24-.33.56-.59.93-.74a3.8 3.8 0 0 1 1.52-.27c.42 0 .83.05 1.22.15.4.1.75.24 1.05.43l-.47 1.15a3.64 3.64 0 0 0-1.8-.51c-.43 0-.75.06-.95.2a.63.63 0 0 0-.3.54c0 .22.12.4.34.5a6 6 0 0 0 1.08.32c.5.12.9.24 1.22.36.31.11.6.3.81.56.23.25.35.6.35 1.03 0 .37-.11.73-.32 1.03-.23.32-.56.58-.93.72-.49.2-1 .29-1.52.28Zm5.15-6.65h1.51v6.53h-1.5v-6.53ZM86.51 93c-.63 0-1.25-.14-1.8-.43-.53-.29-.97-.7-1.28-1.2a3.37 3.37 0 0 1-.45-1.75 3.23 3.23 0 0 1 1.72-2.94c.54-.3 1.15-.44 1.82-.44.57 0 1.08.1 1.53.3.46.2.85.48 1.16.86l-.97.9a2.09 2.09 0 0 0-1.64-.77c-.38 0-.76.09-1.09.27-.31.17-.57.43-.74.74a2.1 2.1 0 0 0-.26 1.08c0 .4.08.76.26 1.08.18.32.43.57.74.75.32.17.68.26 1.08.26.66 0 1.2-.26 1.65-.78l.97.9c-.31.38-.7.67-1.16.87-.49.2-1.01.3-1.54.3Zm26.18-17.02h1.3c.1 0 .2.02.3.04l.16.03c.03 0 .05.02.08.03.1.05.19.11.25.2l.07.08.1.2a1.7 1.7 0 0 1 .03.28c0 .09-.02.16-.05.24a.92.92 0 0 1-.28.36.76.76 0 0 1-.2.12 1.4 1.4 0 0 1-.2.05l-.11.02.02.02c.1.04.2.11.28.2l.16.2.1.14.12.19.17.26.1.16.09.14v.02h-.55l-.03-.01-.08-.14-.08-.14-.15-.26-.12-.21-.13-.19a1 1 0 0 0-.17-.19.5.5 0 0 0-.14-.08l-.08-.02c-.08-.02-.15-.02-.23-.02h-.24c-.01 0-.02 0-.02.02v1.22c0 .02 0 .02-.02.02h-.43l-.02-.01v-2.98Zm.48.4v.9s0 .02.01.01h.77l.1-.02.07-.01.1-.04a.3.3 0 0 0 .13-.08.4.4 0 0 0 .13-.3v-.1a.42.42 0 0 0-.23-.28.64.64 0 0 0-.22-.07h-.16l-.66-.01h-.04Z"/><path d="M113.9 75.1a2.32 2.32 0 0 1 2.16 3.22 2.32 2.32 0 0 1-1.25 1.27 2.33 2.33 0 0 1-3.1-2.96 2.31 2.31 0 0 1 2.2-1.53h-.01Zm0-.44a2.78 2.78 0 1 0 0 5.56 2.78 2.78 0 0 0 0-5.56Z"/></g></svg>