<svg xmlns="http://www.w3.org/2000/svg" fill="none" viewBox="0 0 75 78">
<path fill="#E30613" fill-rule="evenodd" d="M0 23.98a22.27 22.27 0 0 1 14.13-21.1 23.12 23.12 0 0 1 8.66-1.72H75V12.7H22.79a11.24 11.24 0 0 0-11.54 11v19.07a11.27 11.27 0 0 1-9.23 9.82L0 53.16V23.98Zm0 52.58V65h52.21a10.95 10.95 0 0 0 11.54-10.98v-18.2c0-5.2 3.75-10.1 9.23-10.69l2.02-.57v29.46a22.56 22.56 0 0 1-14.09 20.9 22.47 22.47 0 0 1-8.7 1.64H0Zm44.42-23.12V39l-6.92 7.51-6.92-8.09v14.45h-9.23V24.84H30l7.5 9.25 7.5-9.25h8.65v28.9h-9.23v-.3Z" clip-rule="evenodd"/>
</svg>
