<svg xmlns="http://www.w3.org/2000/svg" fill="none" viewBox="0 0 203 30"><path fill="#000" d="M9.37 20.83h5.58l3.66 4.13c1.38-.07 2.07-.92 2.07-2.53V7.05c0-1.83-.93-2.75-2.78-2.76H6.95c-1.88.01-2.81.94-2.81 2.8V22.2c0 1.85.93 2.77 2.8 2.77h3.6l3.66 4.14h-8c-4.13 0-6.2-2.07-6.2-6.2V6.38C0 2.24 2.07.18 6.2.18h12.4c4.16 0 6.23 2.04 6.23 6.14V22.9c-.01 4.15-2.09 6.22-6.22 6.22h-1.56l-7.68-8.3ZM53.1.22h4.6L43.68 29.07h-3.13L26.38.24h4.73l10.94 22.4L53.1.21Zm-2.85 28.86L64.4.25h3.13l14.04 28.84h-4.61L74 22.91H61.08l1.9-3.94h9.12L65.92 6.7 54.97 29.08h-4.72Zm36.2-4.12h18.6v4.14H82.37V.17h4.08v24.8Zm49.17-13.52v4.07h-15.89v-4.07h15.9Zm-18.17 17.64-4.1.02V.17h22.69l.02 4.1-18.61.02v24.8ZM143.88.17h-4.1V29.1h4.1V.17Zm7.42 24.79h18.6v4.14h-22.68V.17h4.07v24.8Zm34.53 4.16-8.7-18.96V29.1h-4.14l.02-28.94h4.12l10.94 24.06L198.9 0h4.1v29.06h-4.1v-18.9l-8.56 18.96h-4.51Z"/></svg>