<svg xmlns="http://www.w3.org/2000/svg" fill="none" viewBox="0 0 209 63"><path fill="#000" d="M23.9 9.21C19.2 7.05 16.3 6.3 13.4 6.3c-2.8 0-4.78.94-4.78 2.63 0 5.17 16.68 3.67 16.68 15.24 0 6.58-5.24 10.15-12.65 10.15-5.71 0-8.62-1.41-11.9-3.1v-7.24c4.69 3.1 7.6 4.32 11.25 4.32 3.09 0 4.68-1.22 4.68-3.2C16.78 19.57 0 21.73 0 9.7 0 3.76 5.06 0 12.65 0c3.66 0 6.94.75 11.25 2.63v6.58Zm23.71 23.7a23.84 23.84 0 0 1-7.68 1.41c-7.88 0-12.94-4.6-12.94-11.56 0-6.77 5.25-11.85 12.75-11.85 2.15 0 5.25.47 7.4 1.4v5.37a14.04 14.04 0 0 0-5.8-1.5c-4.32 0-6.94 2.72-6.94 6.58 0 4.04 2.62 6.58 6.74 6.58 1.7 0 3.1-.57 6.19-1.5v5.07h.28Zm65.23-22c-6.93 0-11.71 4.8-11.71 11.85 0 6.95 5.06 11.56 12.93 11.56 1.69 0 6 0 10.03-2.82v-4.7c-3.38 2.44-5.44 3.2-8.16 3.2-4.21 0-7.12-2.45-7.4-6.3h15.84c.19-8-5.06-12.8-11.53-12.8Zm-4.31 9.12c.28-3.1 2.16-4.8 4.78-4.8s4.6 1.88 4.78 4.8h-9.56Zm18.46 13.82h7.13V11.28h-7.13v22.57ZM153.52.47v11.85a12.53 12.53 0 0 0-5.72-1.41c-6.56 0-10.78 4.8-10.78 11.56 0 6.77 4.31 11.66 10.31 11.66 2.34 0 4.31-.75 6.19-2.25v1.97h6.93V.47h-6.93Zm0 27.27a6 6 0 0 1-4.03 1.79c-3.38 0-5.25-2.73-5.25-6.77 0-4.7 2.15-7.06 5.43-7.06 1.22 0 2.82.47 3.85 1.23v10.9-.1Zm21.74-16.93c-6.94 0-11.72 4.9-11.72 11.95 0 6.95 5.07 11.56 12.94 11.56 1.69 0 6 0 10.03-2.82v-4.7c-3.38 2.44-5.53 3.2-8.44 3.2-4.22 0-7.12-2.45-7.3-6.3h15.92c.28-8-4.96-12.8-11.43-12.8v-.09Zm-4.31 9.22c.28-3.1 2.15-4.8 4.78-4.8 2.62 0 4.6 1.88 4.78 4.8h-9.56Zm26.34-2.16c2.15-4.61 4.5-6.96 7.21-6.96 1.4 0 2.63.47 4.5 2.16l-1.87 6.3c-1.88-1.22-3.2-1.7-4.13-1.7-2.62 0-4.3 2.36-5.72 6.59v9.6h-6.93V11.27h6.94v6.59Zm-62.9-15.99c.76 1.79-.46 4.14-2.62 5.64-2.15 1.22-4.3.94-5.06-.94-.65-1.78.47-4.14 2.63-5.64 2.15-1.22 4.3-.94 5.06.94ZM72.74 19.65c0-6.02-4.13-8.65-8.16-8.65-2.8 0-5.06 1.22-6.93 3.76V.66H50.6v33.2h6.65v-14.3c1.7-2.35 3.2-3.39 4.78-3.39 2.16 0 3.66 1.5 3.66 4.9v7.99a20.63 20.63 0 0 1 6.93-2.26v-7.24l.1.1ZM90.16 11c-2.81 0-5.06.94-7.22 3.57v-3.1h-6.93V26.7c2.44.2 5.62 1.41 6.93 3.1V19.47c1.88-2.91 3.19-3.66 4.78-3.66 1.88 0 3.66 1.22 3.66 4.6v13.83h6.93V19.56c0-6.77-4.59-8.65-8.15-8.65v.1Zm11.9 29.43H94v5.83h7.88v2.45H94v5.83h8.34v2.82H91.38V37.7h10.68v2.72Zm6.75 16.93h2.63V37.7h-2.63v19.65Zm11.44-6.02h8.9c0-4.8-2.16-6.96-5.53-6.96-3.56 0-6 2.63-6 6.49 0 3.67 2.16 6.77 6.28 6.77a8.2 8.2 0 0 0 4.97-1.41V53.6a7.6 7.6 0 0 1-4.31 1.4c-2.63 0-4.03-1.4-4.31-3.75v.09Zm3.37-4.8c1.69 0 2.81 1.23 2.81 3.1h-6.37c.47-2.15 1.69-3.1 3.56-3.1Zm21.74 1.42a5.8 5.8 0 0 0-3.56-1.23c-2.34 0-3.75 1.7-3.75 4.42 0 2.64 1.6 4.05 4.22 4.05 1.19 0 2.35-.33 3.37-.94v2.44a9.4 9.4 0 0 1-3.84.66c-3.75 0-6.47-2.63-6.47-6.2 0-4.15 2.44-7.06 6.19-7.06 1.5 0 2.44.28 3.66.94v2.92h.18Zm11.25-3.39h4.12v2.16h-4.21v6.58c0 1.42.93 1.89 1.87 1.89.94 0 1.97-.2 2.9-.94v2.44c-.93.47-2.15.94-3.09.94-2.62 0-4.03-1.7-4.03-4.14v-6.77h-2.15v-.19l4.68-4.7v2.82h-.18l.09-.09Zm13.68 0v2.92c1.13-2.17 2.35-3.1 3.56-3.1.94 0 1.88.46 3.1 1.4l-1.4 2.17c-.76-.76-1.7-1.23-2.45-1.23-1.68 0-3.09 1.7-3.09 3.86v6.77h-2.25V44.48h2.63l-.1.09Zm32.15 3.39a5.8 5.8 0 0 0-3.56-1.23c-2.44 0-3.84 1.7-3.84 4.42 0 2.64 1.68 4.05 4.3 4.05 1.2 0 2.36-.33 3.38-.94v2.44a9.4 9.4 0 0 1-3.84.66c-3.84 0-6.56-2.63-6.56-6.2 0-4.15 2.43-7.06 6.28-7.06 1.5 0 2.43.28 3.65.94v2.92h.19Zm-18.75 9.4h2.35V44.48h-2.34v12.88Zm2.35-17.4c.28.75-.28 1.5-.94 1.88-.75.57-1.4.29-1.69-.18-.28-.66.28-1.42.94-1.89.75-.47 1.5-.47 1.69.2Zm-109.75 6.2.75-2.62h6.65c.94-4.14.28-7.71-2.15-10.16-4.78-4.89-15-3.2-22.68 4.14a41.88 41.88 0 0 0-3.19 3.57h4.12l-.93 2.63H53.8c-.47.94-.94 1.7-1.22 2.73h6l-.94 2.63h-5.72c-.94 4.33-.28 8.18 2.16 10.63 4.68 4.89 15 3.2 22.68-4.14a17.2 17.2 0 0 0 3.37-4.04h-5.25l.66-2.73h6.28c.47-.94.94-1.7 1.12-2.63H76.3ZM74.6 40.9c-.47 0-.75 0-.75.2 0 0 0 .27-.18.27l-2.16 8.47c-.47 2.82-4.03 6.01-8.9 6.01h-6.66l1.22-4.32h4.31c.47 0 .66-.28.94-.47l.19-.57 1.68-7.52a8.89 8.89 0 0 1 8.63-6.2h6.74l-.93 4.13H74.6Z"/></svg>