<svg xmlns="http://www.w3.org/2000/svg" fill="none" viewBox="0 0 124 124"><path fill="#2787F5" fill-rule="evenodd" d="M43.01 0H81c34.73 0 43 8.27 43 43.01V81c0 34.74-8.27 43.01-43.01 43.01H43C8.27 124 0 115.73 0 80.99V43C0 8.27 8.27 0 43.01 0Z" clip-rule="evenodd"/><path fill="#fff" fill-rule="evenodd" d="M101.53 42.69c.64-1.94 0-3.3-2.72-3.3h-9.04a3.87 3.87 0 0 0-3.87 2.59s-4.65 11.17-11.18 18.47c-2.13 2.07-3.03 2.78-4.2 2.78-.64 0-1.42-.65-1.42-2.59V42.62c0-2.26-.64-3.29-2.58-3.29h-14.2c-1.43 0-2.33 1.1-2.33 2.07 0 2.2 3.23 2.71 3.61 8.85v13.3c0 2.9-.51 3.42-1.68 3.42-3.03 0-10.52-11.23-14.91-24.15-.9-2.46-1.75-3.49-4.07-3.49H23.9c-2.59 0-3.1 1.23-3.1 2.58 0 2.4 3.03 14.21 14.27 29.97 7.49 10.79 18.02 16.6 27.58 16.6 5.74 0 6.45-1.3 6.45-3.49v-8.14c0-2.58.52-3.1 2.4-3.1 1.29 0 3.61.65 8.97 5.82 6.14 6.13 7.1 8.9 10.6 8.9h9.03c2.59 0 3.88-1.28 3.1-3.87a37.33 37.33 0 0 0-7.62-10.59c-2.06-2.45-5.23-5.16-6.2-6.46-1.29-1.74-.97-2.51 0-4.06 0 0 10.98-15.5 12.15-20.8Z" clip-rule="evenodd"/></svg>