<svg xmlns="http://www.w3.org/2000/svg" fill="none" viewBox="0 0 149 72"><path fill="#000" fill-rule="evenodd" d="M101.34 22.07C90.81 9.3 72.97 15 67.22 26.3c-.15.27-.47-.8-.47-.8A21.5 21.5 0 0 0 45.4 14.95c-1.95.26-3.87.77-5.7 1.51-1.39.61-1.57.54-1.05-.38.1-.17.18-.35.23-.53 0-.07-1.22-.12-2.72-.12H33.4l-2.03 4.71-8.92 20.67c-1.52 3.54-2.84 6.4-2.92 6.37-.1-.02-.94-1.8-1.9-3.97a2992 2992 0 0 0-7.75-17.45l-2.96-6.69-1.62-3.64H2.67c-2.16 0-2.67.04-2.67.23 0 .11.82 2.06 1.81 4.3l3.34 7.52A4699.78 4699.78 0 0 0 15.5 50.9c1.4 3.15 1.4 2.6 0 5.77a924.28 924.28 0 0 0-5.43 12.5L8.85 72h5.5l.9-2.1 4.44-10.2c.7-1.57 1.68-3.87 2.2-5.09a389.6 389.6 0 0 1 5.4-12.2c.07-.07.25.29.4.79 1.88 6.48 7.59 12.28 13.9 14.12 10.1 2.95 19.88-.86 25.23-9.8 0 0 .29-.85.38-.62 3.25 8.63 20.81 17.84 33.53 5.21.55-.57 1.14-1.11 1.76-1.6.07 0 .13 1.51.13 3.36v3.37h5.07v-3.53c0-3.58.08-4.05.59-3.23 5.95 9.56 23.3 10.57 31.93 1.85 1.5-1.53 4.41-5.64 4.41-6.26a29 29 0 0 0-4.2-2.2c-.1 0-.7.8-1.36 1.77-7.33 11.02-22.7 10.6-28.4-.79-1.01-2.03-1.76-5.22-1.64-7.04l.05-.83 18.53-.04 18.51-.04-.09-.79-.2-2.05a20.98 20.98 0 0 0-6.47-13.5c-8.6-8.27-23.62-7.36-30.71 1.86-.36.48-.73.82-.81.78-.08-.06-.14-5.11-.14-11.65V0h-2.43c-1.34 0-2.47.05-2.53.1-.06.07-.11 5.31-.11 11.65 0 6.4-.07 11.54-.14 11.54-.08 0-.59-.55-1.15-1.22h.02Zm-21.8 38.11a3.07 3.07 0 0 0-2.07 3.76c.14.51.4.98.78 1.36 1.06 1.05 2.27 1.2 3.72.47.52-.27.98-.49 1.02-.49.15-.01-.18 1.43-.41 1.77-.72 1.1-3.09 1.15-4.06.1-.25-.28-.53-.4-.76-.37-.37.04-.36.07.22.72 1.37 1.53 4.32 1.38 5.28-.27.52-.89.6-7.04.1-7.04-.26 0-.35.1-.35.4 0 .52-.03.52-.8 0a3.68 3.68 0 0 0-2.67-.4Zm52.16.1c-.34.16-.65.36-.93.6-.2.2-.39.29-.4.2l-.03-.48c-.01-.21-.14-.33-.35-.33-.32 0-.33.1-.33 4.1 0 3.99 0 4.1.33 4.1.3 0 .33-.12.38-1.6.03-1.6.13-1.83.53-1.34 1.12 1.36 3.85.81 4.74-.95 1.28-2.5-1.38-5.41-3.93-4.29h-.01Zm-15.81 2.07c.04 1.62.13 2.32.34 2.7.86 1.64 3.76 1.66 4.63.02.43-.78.54-4.66.15-4.82-.42-.16-.46-.02-.43 1.53.04 2.96-.4 3.82-2 3.82-.65 0-.96-.1-1.33-.39l-.5-.4-.08-2.27c-.08-2.24-.09-2.27-.47-2.33l-.38-.05.07 2.19Zm-22.5-2.17c-.2.07-.44.26-.56.4-.3.36-.5.33-.5-.06 0-.22-.11-.33-.33-.33-.32 0-.33.1-.33 3.03 0 2.93 0 3.03.33 3.03.3 0 .33-.1.33-1.77 0-2.68.44-3.8 1.52-3.8.5 0 .89-.4.5-.56-.33-.12-.55-.1-.98.06h.01Zm10.32.07c-3.23 1.2-2.4 6 1.02 6 1.9 0 3.11-1.18 3.11-3.03a3.04 3.04 0 0 0-4.13-2.97Zm2.18.74c1.67.88 1.8 3.32.23 4.29-1.06.66-2.55.4-3.31-.6-1.57-1.99.84-4.9 3.08-3.7Zm28.02.02a2.2 2.2 0 0 1 1.35 1.95c.25 3.08-4.43 3.72-4.94.68a2.49 2.49 0 0 1 .97-2.45 2.45 2.45 0 0 1 2.62-.18Zm-51.92.14c2.03 1.45.84 4.6-1.68 4.4-2.04-.14-2.97-2.33-1.68-3.97.73-.94 2.35-1.15 3.36-.43Zm-16.47-8.61c-2.32 1.23-2.37 4.76-.09 6.09 3.56 2.06 7.03-2.9 3.94-5.63a3.33 3.33 0 0 0-3.86-.46h.01Zm78.86-1.14a3.54 3.54 0 0 0-1.66 5.18c2.16 3.3 7.25.83 6.12-2.97a3.45 3.45 0 0 0-4.46-2.2ZM88.9 20.08c17.28 2.63 19.27 27.3 2.65 32.72-11.49 3.74-22.91-6.15-21.28-18.42 1.21-9.2 9.64-15.66 18.62-14.3h.01Zm-37.45.2c11.2 2.3 16.57 16.05 10.12 25.91-6.35 9.73-21.08 9.43-27.04-.55-7.48-12.5 3.02-28.24 16.92-25.37Zm75.61-.2c5.44.9 9.41 3.58 11.6 7.83.81 1.57 1.55 3.56 1.55 4.18v.38h-15.35c-9.5 0-15.37-.06-15.37-.15 0-.68 1.65-4.36 2.67-5.96 2.9-4.55 9.2-7.21 14.9-6.28Z" clip-rule="evenodd"/></svg>