<svg xmlns="http://www.w3.org/2000/svg" xml:space="preserve" fill-rule="evenodd" stroke-linejoin="round" stroke-miterlimit="2" clip-rule="evenodd" viewBox="0 0 50 49"><path fill="#181717" d="M25 .12a25 25 0 0 0-7.9 48.72c1.25.23 1.7-.54 1.7-1.2l-.03-4.26c-6.95 1.51-8.42-3.35-8.42-3.35-1.14-2.89-2.78-3.65-2.78-3.65-2.27-1.56.17-1.52.17-1.52 2.51.17 3.83 2.57 3.83 2.57 2.23 3.82 5.86 2.72 7.28 2.08a5.35 5.35 0 0 1 1.59-3.34c-5.55-.63-11.4-2.78-11.4-12.36 0-2.73.98-4.96 2.58-6.7-.25-.64-1.11-3.18.25-6.62 0 0 2.1-.68 6.87 2.56a23.94 23.94 0 0 1 12.52 0c4.77-3.24 6.87-2.56 6.87-2.56 1.36 3.44.5 5.98.25 6.61a9.64 9.64 0 0 1 2.57 6.71c0 9.6-5.85 11.72-11.42 12.34.9.77 1.7 2.3 1.7 4.63 0 3.34-.03 6.04-.03 6.86 0 .66.45 1.44 1.72 1.2A25 25 0 0 0 25 .12Z"/></svg>