<svg xmlns="http://www.w3.org/2000/svg" fill="none" viewBox="0 0 50 50"><path fill="#100F0D" d="M25 0c-6.8 0-7.6 0-10.3.2a15.3 15.3 0 0 0-10.6 4 12.3 12.3 0 0 0-2.9 4.4c-.6 1.6-1 3.4-1.1 6L0 25c0 6.8 0 7.6.2 10.3a15.3 15.3 0 0 0 4 10.5C5.6 47.2 7 48 8.6 48.7c1.6.6 3.4 1 6 1.1 2.8.2 3.6.2 10.4.2 6.8 0 7.6 0 10.3-.2a15.3 15.3 0 0 0 10.5-4c1.4-1.4 2.2-2.8 2.9-4.4.6-1.6 1-3.4 1.1-6 .2-2.8.2-3.6.2-10.4 0-6.8 0-7.6-.2-10.3a15.3 15.3 0 0 0-4-10.5 12.3 12.3 0 0 0-4.4-2.9c-1.6-.6-3.4-1-6-1.1C32.5 0 31.7 0 25 0Zm0 4.5c6.7 0 7.5 0 10.1.2 2.4 0 3.8.5 4.6.8 1.2.5 2 1 3 1.9.8.9 1.3 1.7 1.8 2.9.3.8.7 2.2.8 4.6.2 2.6.2 3.4.2 10.1 0 6.7 0 7.5-.2 10.1 0 2.4-.5 3.8-.8 4.6-.5 1.2-1 2-1.9 3-.9.8-1.7 1.3-2.9 1.8-.8.3-2.2.7-4.6.8-2.6.2-3.4.2-10.1.2-6.7 0-7.5 0-10.1-.2-2.4 0-3.8-.5-4.6-.8-1.2-.5-2-1-3-1.9a7.7 7.7 0 0 1-1.8-2.9c-.3-.8-.7-2.2-.8-4.6-.2-2.6-.2-3.4-.2-10.1 0-6.7 0-7.5.2-10.1 0-2.4.5-3.8.8-4.6.5-1.2 1-2 1.9-3C8.3 6.6 9 6 10.3 5.6c.8-.3 2.2-.7 4.6-.8 2.6-.2 3.4-.2 10.1-.2"/><path fill="#100F0D" d="M25 33.3a8.3 8.3 0 1 1 0-16.6 8.3 8.3 0 0 1 0 16.6Zm0-21.1a12.8 12.8 0 1 0 0 25.6 12.8 12.8 0 0 0 0-25.6Zm16.3-.5a3 3 0 1 1-6 0 3 3 0 0 1 6 0Z"/></svg>