<svg xmlns="http://www.w3.org/2000/svg" fill="none" viewBox="0 0 50 50"><g clip-path="url(#a)"><path fill="#000" d="M42.6 42.6h-7.4V31c0-2.8 0-6.3-3.9-6.3-3.8 0-4.4 3-4.4 6.1v11.8h-7.4V18.7h7V22h.2a7.8 7.8 0 0 1 7-3.8c7.5 0 8.9 4.9 8.9 11.3v13.1ZM11.1 15.5a4.3 4.3 0 1 1 0-8.6 4.3 4.3 0 0 1 0 8.6Zm3.7 27.1H7.4V18.7h7.4v23.9ZM46.3 0H3.7A3.6 3.6 0 0 0 0 3.6v42.8A3.7 3.7 0 0 0 3.7 50h42.6a3.7 3.7 0 0 0 3.7-3.6V3.6A3.7 3.7 0 0 0 46.3 0"/></g><defs><clipPath id="a"><path fill="#fff" d="M0 0h50v50H0z"/></clipPath></defs></svg>