<svg xmlns="http://www.w3.org/2000/svg" xml:space="preserve" fill-rule="evenodd" stroke-linejoin="round" stroke-miterlimit="2" clip-rule="evenodd" width="3760" height="1624" viewBox="0 0 1880 812"><path fill="url(#a)" fill-rule="nonzero" d="M1880 0H0v812h1880V0Z"/><path fill="#fff" fill-opacity=".4" fill-rule="nonzero" d="M742.6 360.1c-1.6.3-3.3.5-4.9.4l-.2 2.5h20.1a39 39 0 0 1-4.7-7.6 23 23 0 0 1-10.3 4.7Z" opacity=".4"/><path fill="#fff" fill-opacity=".6" fill-rule="nonzero" d="M760.3 332.1c8.8.5 17.1 3.8 23.8 9.4a39.1 39.1 0 0 1 13.2 21.5h16.4a22 22 0 0 1 3-15.3c3-4.6 7.4-8 12.7-9.7a38.6 38.6 0 0 0-15-29.6 40.5 40.5 0 0 0-49.4-.8c-5 3.7-8.9 8.4-11.6 13.8 3.3 2.8 5.7 6.6 6.9 10.7Z" opacity=".6"/><path fill="#fff" fill-opacity=".6" fill-rule="nonzero" d="M752.9 355.4a39 39 0 0 0 4.7 7.6h39.7a40.6 40.6 0 0 0-37-30.9l.4 1.8a21.9 21.9 0 0 1-7.8 21.5Z" opacity=".6"/><path fill="#fff" fill-opacity=".4" fill-rule="nonzero" d="M749.6 333c.6-4 2-8 3.8-11.6a23 23 0 0 0-38 15.8c5.5 0 10.8 2.1 14.9 5.8 5.3-5 12-8.5 19.3-10Z" opacity=".4"/><path fill="#fff" fill-opacity=".4" fill-rule="nonzero" d="M737.3 355.3c.4 1.7.5 3.5.4 5.2a23.5 23.5 0 0 0 15.2-5.1c-3.3-7-4.5-14.8-3.3-22.4-7.3 1.5-14 5-19.3 10 3.6 3.2 6 7.5 7 12.3Z" opacity=".4"/><path fill="#fff" fill-opacity=".4" fill-rule="nonzero" d="M750.4 332.8c3.3-.6 6.6-.8 9.9-.7a22.2 22.2 0 0 0-7-10.7 38.5 38.5 0 0 0-3.7 11.6l.8-.2Z" opacity=".4"/><path fill="#fff" fill-opacity=".4" fill-rule="nonzero" d="M749.9 346.4a38 38 0 0 0 3 9 22.4 22.4 0 0 0 7.4-23.2c-3.3-.2-6.6 0-9.9.6l-.8.2c-.7 4.4-.6 9 .3 13.4ZM821 363h38a22 22 0 0 0-7.7-20.6 23.1 23.1 0 0 0-21.9-4.4c.2 9-2.7 17.9-8.4 25Z" opacity=".4"/><path fill="#fff" fill-opacity=".4" fill-rule="nonzero" d="M813.8 363h7.2c5.7-7.1 8.6-16 8.4-25-5.2 1.6-9.7 5-12.6 9.7a22 22 0 0 0-3 15.3Z" opacity=".4"/><path fill="#fff" fill-opacity=".2" fill-rule="nonzero" d="M722 354a22.2 22.2 0 0 1-6.7-16.9 23.3 23.3 0 0 0-17.7 7.7 22.2 22.2 0 0 0-5.4 18.2h26.6a39 39 0 0 1 3.2-9Z" opacity=".2"/><path fill="#fff" fill-opacity=".2" fill-rule="nonzero" d="M737.7 360.5A23.2 23.2 0 0 1 722 354a39 39 0 0 0-3.2 9h18.7l.2-2.5Zm-22-18.1c1 4.4 3.1 8.4 6.3 11.6 2.1-4.1 4.9-7.8 8.3-11a23 23 0 0 0-15-5.9c0 1.8.1 3.6.4 5.3Z" opacity=".2"/><path fill="#fff" fill-opacity=".2" fill-rule="nonzero" d="M737.3 355.3c-1-4.8-3.4-9-7-12.3a39.6 39.6 0 0 0-8.3 11c4.2 4 9.8 6.4 15.7 6.5 0-1.7 0-3.5-.4-5.2Z" opacity=".2"/><path fill="#fff" fill-opacity=".4" fill-rule="nonzero" d="M1590.3 192.3c-1.2.2-2.3.3-3.5.3l-.2 1.8h14.7a29 29 0 0 1-3.5-5.6 17 17 0 0 1-7.5 3.5Z" opacity=".4"/><path fill="#fff" fill-opacity=".6" fill-rule="nonzero" d="M1603.3 171.8a29.2 29.2 0 0 1 27 22.6h12a16 16 0 0 1 2.3-11.3c2.1-3.3 5.4-5.9 9.3-7a28.2 28.2 0 0 0-11-21.7 29.6 29.6 0 0 0-24-5.9 29.6 29.6 0 0 0-20.7 15.4c2.4 2 4.2 4.8 5 7.9Z" opacity=".6"/><path fill="#fff" fill-opacity=".6" fill-rule="nonzero" d="M1597.8 188.8c1 2 2.1 3.8 3.5 5.6h29a28.6 28.6 0 0 0-9.6-15.8c-4.9-4-11-6.5-17.4-6.8l.3 1.3a16.1 16.1 0 0 1-5.8 15.7Z" opacity=".6"/><path fill="#fff" fill-opacity=".4" fill-rule="nonzero" d="M1595.5 172.4a28 28 0 0 1 2.7-8.5 16.9 16.9 0 0 0-27.8 11.5c4 .1 8 1.6 11 4.3 3.8-3.7 8.7-6.2 14-7.3Z" opacity=".4"/><path fill="#fff" fill-opacity=".4" fill-rule="nonzero" d="m1586.5 188.7.3 3.9a17.2 17.2 0 0 0 11-3.8 28.3 28.3 0 0 1-2.3-16.4 29.5 29.5 0 0 0-14.2 7.3c2.7 2.4 4.5 5.5 5.2 9Zm9.5-16.5a30 30 0 0 1 7.3-.4c-.9-3-2.6-5.8-5-8a28 28 0 0 0-2.8 8.6l.6-.2Z" opacity=".4"/><path fill="#fff" fill-opacity=".4" fill-rule="nonzero" d="M1595.7 182.2c.4 2.3 1.1 4.5 2.1 6.6a16.4 16.4 0 0 0 5.5-17c-2.4-.1-4.9 0-7.2.5h-.6c-.5 3.3-.5 6.6.2 9.9Zm52 12.2h27.8a16.2 16.2 0 0 0-5.6-15.1 17 17 0 0 0-16-3.2c.1 6.6-2 13-6.2 18.3Z" opacity=".4"/><path fill="#fff" fill-opacity=".4" fill-rule="nonzero" d="M1642.4 194.4h5.3a28.2 28.2 0 0 0 6.2-18.3 16.7 16.7 0 0 0-9.3 7 16 16 0 0 0-2.2 11.3Z" opacity=".4"/><path fill="#fff" fill-opacity=".2" fill-rule="nonzero" d="M1575.3 187.8a16.2 16.2 0 0 1-4.9-12.4 17 17 0 0 0-13 5.6 16.2 16.2 0 0 0-4 13.4h19.5c.5-2.3 1.3-4.5 2.4-6.6Z" opacity=".2"/><path fill="#fff" fill-opacity=".2" fill-rule="nonzero" d="M1586.8 192.6a17 17 0 0 1-11.5-4.8c-1 2-1.9 4.3-2.4 6.6h13.7l.2-1.8Z" opacity=".2"/><path fill="#fff" fill-opacity=".2" fill-rule="nonzero" d="M1570.7 179.3c.6 3.2 2.2 6.2 4.6 8.5a29 29 0 0 1 6-8.1 17 17 0 0 0-11-4.3c0 1.3.1 2.6.4 3.9Z" opacity=".2"/><path fill="#fff" fill-opacity=".2" fill-rule="nonzero" d="M1586.5 188.7c-.7-3.5-2.5-6.6-5.2-9-2.5 2.3-4.5 5-6 8 3 3 7.1 4.8 11.4 4.8.1-1.2 0-2.5-.2-3.8Z" opacity=".2"/><path fill="#fff" fill-opacity=".4" fill-rule="nonzero" d="M145 363.8h17.5a24.4 24.4 0 0 1 23.1-17.4 40.7 40.7 0 0 0-11.2-25.2 42.4 42.4 0 0 0-52.6-7 41.4 41.4 0 0 0-17.8 21.3h1a42.3 42.3 0 0 1 39.9 28.3Z" opacity=".4"/><path fill="#fff" fill-opacity=".6" fill-rule="nonzero" d="M76.7 363.8h27.6a40.4 40.4 0 0 1-.3-28.3c-7 .1-13.9 2-20 5.4a23 23 0 0 1-7.3 23Z" opacity=".6"/><path fill="#fff" fill-opacity=".6" fill-rule="nonzero" d="M104.3 363.8h40.6a41.2 41.2 0 0 0-15.3-20.5 42.7 42.7 0 0 0-24.7-7.8h-.9a40.4 40.4 0 0 0 .3 28.3Z" opacity=".6"/><path fill="#fff" fill-opacity=".4" fill-rule="nonzero" d="M84 340.9a23.3 23.3 0 0 0-14-16.1 24.5 24.5 0 0 0-29.6 9 23.1 23.1 0 0 0 4.2 30h20.3a42 42 0 0 1 19-22.9Z" opacity=".4"/><path fill="#fff" fill-opacity=".4" fill-rule="nonzero" d="M65 363.8h11.8A23.4 23.4 0 0 0 84 341c-9 5-15.8 13.3-19 23Z" opacity=".4"/><path fill="#fff" fill-opacity=".2" fill-rule="nonzero" d="M183 363.8h26a24.4 24.4 0 0 0-23.2-17.4h-.2a40.3 40.3 0 0 1-2.6 17.4Z" opacity=".2"/><path fill="#fff" fill-opacity=".2" fill-rule="nonzero" d="M162.5 363.8H183a40.2 40.2 0 0 0 2.6-17.4c-5.3 0-10.4 1.8-14.5 5a23.4 23.4 0 0 0-8.6 12.4Z" opacity=".2"/><path fill="#fff" fill-opacity=".4" fill-rule="nonzero" d="M547.6 161.7h11.9a16 16 0 0 1 5.7-8.5c2.8-2 6.2-3.2 9.8-3.3a27.4 27.4 0 0 0-7.6-17 28.5 28.5 0 0 0-35.3-4.7 27.8 27.8 0 0 0-12 14.4h.6a28 28 0 0 1 16.6 5.3c4.9 3.4 8.5 8.2 10.3 13.8Z" opacity=".4"/><path fill="#fff" fill-opacity=".6" fill-rule="nonzero" d="M501.7 161.7h18.6a27.2 27.2 0 0 1-.2-19.1c-4.7 0-9.4 1.3-13.5 3.6a15.4 15.4 0 0 1-4.9 15.5Z" opacity=".6"/><path fill="#fff" fill-opacity=".6" fill-rule="nonzero" d="M520.3 161.7h27.3a27.7 27.7 0 0 0-10.3-13.8 28.7 28.7 0 0 0-16.6-5.3h-.6c-2.3 6.2-2.2 13 .2 19Z" opacity=".6"/><path fill="#fff" fill-opacity=".4" fill-rule="nonzero" d="M506.6 146.2a15.7 15.7 0 0 0-9.4-10.8 16.5 16.5 0 0 0-19.9 6 15.6 15.6 0 0 0 2.8 20.3h13.7c2.2-6.5 6.7-12 12.8-15.5Z" opacity=".4"/><path fill="#fff" fill-opacity=".4" fill-rule="nonzero" d="M493.8 161.7h8a15.7 15.7 0 0 0 4.8-15.5c-6 3.5-10.6 9-12.8 15.5Z" opacity=".4"/><path fill="#fff" fill-opacity=".2" fill-rule="nonzero" d="M559.5 161.7h13.7a27 27 0 0 0 1.8-11.8 16 16 0 0 0-15.5 11.8Z" opacity=".2"/><path fill="#fff" fill-opacity=".4" fill-rule="nonzero" d="M1677 360.1a19 19 0 0 1-4.8.4l-.2 2.5h20.1a33.2 33.2 0 0 1-4.7-7.6 23 23 0 0 1-10.3 4.7Z" opacity=".4"/><path fill="#fff" fill-opacity=".6" fill-rule="nonzero" d="M1694.8 332.1c8.7.5 17.1 3.8 23.8 9.4a39.1 39.1 0 0 1 13.2 21.5h16.4a22 22 0 0 1 3-15.3c3-4.6 7.4-8 12.7-9.7a38.4 38.4 0 0 0-15-29.6 40.5 40.5 0 0 0-32.7-8 40.4 40.4 0 0 0-28.3 21c3.3 2.8 5.7 6.6 6.9 10.7Z" opacity=".6"/><path fill="#fff" fill-opacity=".6" fill-rule="nonzero" d="M1687.3 355.4c1.3 2.7 3 5.3 4.8 7.6h39.7a40.6 40.6 0 0 0-37-30.9l.4 1.8a21.9 21.9 0 0 1-7.9 21.5Z" opacity=".6"/><path fill="#fff" fill-opacity=".4" fill-rule="nonzero" d="M1684.1 333c.6-4 2-8 3.8-11.6a23 23 0 0 0-38 15.8c5.5 0 10.8 2.1 14.9 5.8 5.3-5 12-8.5 19.3-10Z" opacity=".4"/><path fill="#fff" fill-opacity=".4" fill-rule="nonzero" d="M1671.8 355.3c.4 1.7.5 3.5.4 5.2a23.5 23.5 0 0 0 15.2-5.1c-3.3-7-4.5-14.8-3.3-22.4-7.3 1.5-14 5-19.3 10 3.6 3.2 6 7.5 7 12.3Z" opacity=".4"/><path fill="#fff" fill-opacity=".4" fill-rule="nonzero" d="M1685 332.8c3.2-.6 6.5-.8 9.8-.7a22.3 22.3 0 0 0-7-10.7 38.6 38.6 0 0 0-3.7 11.6l.8-.2Z" opacity=".4"/><path fill="#fff" fill-opacity=".4" fill-rule="nonzero" d="M1684.4 346.4a38 38 0 0 0 3 9 22.3 22.3 0 0 0 7.4-23.2c-3.3-.2-6.6 0-9.9.6l-.8.2c-.7 4.4-.6 9 .3 13.4Zm71.1 16.6h38a22 22 0 0 0-7.7-20.6 23 23 0 0 0-21.9-4.4c.2 9-2.8 17.9-8.4 25Z" opacity=".4"/><path fill="#fff" fill-opacity=".4" fill-rule="nonzero" d="M1748.3 363h7.2a38 38 0 0 0 8.4-25c-5.2 1.6-9.7 5-12.6 9.7a22 22 0 0 0-3 15.3Z" opacity=".4"/><path fill="#fff" fill-opacity=".2" fill-rule="nonzero" d="M1656.5 354a22.2 22.2 0 0 1-6.7-16.9 23.4 23.4 0 0 0-17.7 7.7 22.4 22.4 0 0 0-5.4 18.2h26.6a39 39 0 0 1 3.2-9Z" opacity=".2"/><path fill="#fff" fill-opacity=".2" fill-rule="nonzero" d="M1672.2 360.5a23.1 23.1 0 0 1-15.7-6.5 44 44 0 0 0-3.2 9h18.7l.2-2.5Zm-22-18.1c1 4.4 3.1 8.4 6.3 11.6 2.1-4.1 4.9-7.8 8.3-11a23 23 0 0 0-15-5.9c0 1.8 0 3.6.4 5.3Z" opacity=".2"/><path fill="#fff" fill-opacity=".2" fill-rule="nonzero" d="M1671.8 355.3c-1-4.8-3.4-9-7-12.3a39.7 39.7 0 0 0-8.3 11c4.2 4 9.8 6.4 15.7 6.5 0-1.7 0-3.5-.4-5.2Z" opacity=".2"/><path fill="#fff" fill-opacity=".4" fill-rule="nonzero" d="M1079.4 363.8h17.6a24.4 24.4 0 0 1 23.1-17.4 40.7 40.7 0 0 0-11.2-25.2 42.4 42.4 0 0 0-52.6-7 41.4 41.4 0 0 0-17.8 21.3h1c8.8 0 17.4 2.7 24.6 7.8a41 41 0 0 1 15.3 20.5Z" opacity=".4"/><path fill="#fff" fill-opacity=".6" fill-rule="nonzero" d="M1011.2 363.8h27.6a40.4 40.4 0 0 1-.3-28.3c-7 .1-14 2-20 5.4a23 23 0 0 1-7.3 23Z" opacity=".6"/><path fill="#fff" fill-opacity=".6" fill-rule="nonzero" d="M1038.8 363.8h40.6a41.3 41.3 0 0 0-15.3-20.5 42.7 42.7 0 0 0-24.7-7.8h-.9a40.5 40.5 0 0 0 .3 28.3Z" opacity=".6"/><path fill="#fff" fill-opacity=".4" fill-rule="nonzero" d="M1018.5 340.9a23.3 23.3 0 0 0-14-16.1 24.5 24.5 0 0 0-29.6 9 23.1 23.1 0 0 0 4.2 30h20.3a42 42 0 0 1 19-22.9Z" opacity=".4"/><path fill="#fff" fill-opacity=".4" fill-rule="nonzero" d="M999.4 363.8h11.9a23.4 23.4 0 0 0 7.2-22.9c-9 5-15.8 13.3-19 23Z" opacity=".4"/><path fill="#fff" fill-opacity=".2" fill-rule="nonzero" d="M1117.5 363.8h26a24.4 24.4 0 0 0-23.2-17.4h-.2a38.1 38.1 0 0 1-2.6 17.4Z" opacity=".2"/><path fill="#fff" fill-opacity=".2" fill-rule="nonzero" d="M1097 363.8h20.5a40.4 40.4 0 0 0 2.6-17.4c-5.3 0-10.4 1.8-14.5 5a23.4 23.4 0 0 0-8.6 12.4Z" opacity=".2"/><g fill-rule="nonzero"><path fill="url(#b)" d="M1880 812V439.2h-3.5v-12.9h-4.8V418h-9.5v-17.3h-10.4v-9.2h-5.8v6.6h-1v-10.7h-4.3v13.3h-5.2V418H1824v14h-4.5v2h-4.5v202.5h-4.6V483.8H1800v-5.4h-8.5v-5.9h-3.4V447h-3.6v25.5h-3.3v-24h-3.3v24h-2.4v-32.8h-1.1v32.8h-.5v-32.8h-1v32.8h-1.7v-5.8h-5.2v-6.5h-8v1.6h-1.3v-1.6h-1.3v-3h4.6v-4h-20.1v-16.8h-4.4v-4.8h-4.5v-17h-1.7v-14.5h-1.6v-14.5h-.5V332h-3.3v53.6h-.5v14.5h-1.1v14.5h-1.8v17h-3.6v4.8h-3.8v16.8h-20v4h4.5v3h-1v1.6h-1.2v-1.6h-8v28.4h8v-1.4h1.3v76.3h-6.3v-3.8h.7v-2.1h-12.4v-59h-5.3v-37.7h-4.4v-7h-1.7V448h-1.8v-4.5h-1.7V440h-2.7v-.3l-.2-.5v-62.4h-3.7v50.3h-5v13h-3v3.5h-1.8v4.5h-1.6v5.8h-2v7h-4.3v37.6h-3.7v26.6h-4.3V514h-4.6v11h-27.1v-12.9h-1v16.2h-.6v-16.2h-1v16.2h-8v4.6h-2.7V574h-4.9V451h-10.2v-48.3l-1.6.5v-.5l-24 6.2h-28.9v-8.7h1v-10.5h-1v-7.3h-5v-17.3h-1.4v17.3h-.1v-17.3h-1.5v24.7h-1.5v10.5h1.6v8.7h-6.3l-3.4-5v2.3l-1.6-2.3v4.1l-20.5-5.2v.4l-1.5-.4v159.4h-.8v8.5h-1.8v-26.5h-2.3v10-10h-2.2v10h-6.8v-28.9h-2.2v7.6h-.1v-7.6h-2.3v7.6h-16.1v-7.6h-.6v-12.5h-9.4v-4.8h-7.6v-5.3h-3v-23h-1.7v23h-4.5v-21.6h-1.4v21.6h-3.8v-29.4h-.8v29.4h-3v-5.2h-14.4v5.2h-2.4v3l-.1 2.3h-7.6v4.8h-9.6v2.4l-.1.2c-.2 6 0 12 0 18v94.9h-6.6v-47.2h-5.2V427.6h-2.5v-1.8h-32.5V418h-36.4v8h-12.2v18h-.2v-18.6h-1v18.5h-.8v-18.5h-1v18.5h-.3v-11H1254v-2.2h-1v-4h1v-4h-1v-4.3h1v-4h-2.7v-23.2h-3.8v-15h-56v13.4h-3.4v24.9h-.5v40.8h-7.6v-1.9h3.6V448h-24.5v-14.5h-23V448h-24.6v5.4h3.5v1.8h-18.1v96.6h-32.7v18h-7.8v6.6h-2.7v-13h-2.8v2.8h-21.7v-2.8h-3.5v51.2h-3.8v-3.9h-4.7v-11.8h-7.2v-7.6h-.4v7.6h-2v-13.5h-1.2v5.9h-.2v7.6h-2v-13.5h-1.2v13.5h-1.9v4.5h-6v7.3h-2v-54.4h-6.7V552h-5.5v-4.5h-2.2v-19.7h-1.3v19.7h-2.1v-19.7h-1.2v1.1h-1v18.6h-2.3V529h-.4v-6.6h-.5v6.6h-.1v18.6h-2.2V543h-.5v-20.8h-.6V543h-12.7v4.5h-1.7v4.5h-5.5v4.2h-6.4v-117h-3.5v-12.9H932V418h-9.4v-17.3H912v-9.2h-5.9v6.6h-.9v-10.7h-4.4v13.3h-5.1V418h-11.5v14h-4.5v2h-4.5v202.5h-4.6V483.8h-10.4v-5.4h-8.5v-5.9h-3.3V447h-3.7v25.5h-3.2v-24h-3.3v24h-2.5v-32.8h-1v32.8h-.5v-32.8h-1.1v32.8h-1.7v-5.8h-5.1v-6.5h-8v1.6H817v-1.6h-1.3v-3h4.5v-4h-20v-16.8h-4.5v-4.8h-4.4v-17h-1.7v-14.5H788v-14.5h-.6V332h-3.3v53.6h-.5v14.5h-1.1v14.5h-1.8v17h-3.6v4.8h-3.8v16.8h-20v4h4.6v3h-1v1.6h-1.3v-1.6h-8v28.4h8v-1.4h1.3v76.3h-6.2v-3.8h.6v-2.1H739v-59h-5.4v-37.7h-4.3v-7h-1.7V448h-1.9v-4.5h-1.6V440h-2.8v-.3l-.1-.5v-62.4h-3.7v50.3h-5v13h-3v3.5h-1.8v4.5H706v5.8h-2v7h-4.3v37.6H696v26.6h-4V514h-4.6v11h-27.1v-12.9h-1v16.2h-.6v-16.2h-1v16.2h-8v4.6H647V574h-5V451h-10v-48.3l-1.6.5v-.5l-24 6.2h-28.9v-8.7h1v-10.5h-1v-7.3h-5v-17.3h-1.3v17.3h-.2v-17.3h-1.4v24.7H568v10.5h1.5v8.7h-6.2l-3.4-5v2.3l-1.6-2.3v4.1l-20.5-5.2v.4l-1.5-.4v159.4h-.8v8.5h-1.8v-26.5h-2.3v10-10H529v10h-6.8v-28.9H520v7.6h-.1v-7.6h-2.3v7.6h-16.1v-7.6h-.6v-12.5h-9.3v-4.8H484v-5.3h-3v-23h-1.7v23h-4.5v-21.6h-1.4v21.6h-3.7v-29.4h-.9v29.4h-3v-5.2h-14.4v5.2h-2.3v3l-.2 2.3h-7.5v4.8h-9.7v2.6c-.3 6-.2 12 0 18v94.9h-6.6v-47.2H420V427.6h-2.5v-1.8H385V418h-36.4v8h-12.2v18h-.1v-18.6h-1v18.5h-.9v-18.5h-1v18.5h-.2v-11h-18.5v-2.2h-1v-4h1v-4h-1v-4.3h1v-4H312v-23.2h-3.8v-15h-56v13.4H249v24.9h-.5v40.8h-7.6v-1.9h3.6V448H220v-14.5h-23V448h-24.5v5.4h3.4v1.8h-18v96.6H125v18h-7.8v6.6h-2.7v-13h-2.8v2.8H90v-2.8h-3.5v51.2h-3.8v-3.9H78v-11.8h-7.2v-7.6h-.4v7.6h-2v-13.5h-1.2v5.9H67v7.6h-2v-13.5h-1.2v13.5H62v4.5h-6v7.3h-2v-54.4h-6.8V552h-5.5v-4.5h-2.2v-19.7h-1.2v19.7h-2.1v-19.7H35v1.1h-.9v18.6h-2.4V529h-.3v-6.7h-.6v25.3h-2.2V543H28v-20.8h-.6V543H14.8v4.5H13v4.5H7.5v4.2H0V812h1880ZM190.8 455.1h-11.2v-1.8h11.2v1.8Zm6.1 0h-1.7v-1.8h1.7v1.8Zm24.5 0H220v-1.8h1.5v1.8Zm15 0h-11.2v-1.8h11.3v1.8Zm410.5 131H642v-2.4h5v2.3Zm40.4-53.3h-25.9v-1h1.2v.8h3.1v-.9h14v.9h4v-.9h3.6v1.1Zm67.2 42.7h-3.8V573h3.8v2.5Zm1.6 0h-.6V573h.6v2.5ZM757 463v23h-1.3v-23h1.3Zm2.5-2.9h-.7v-2.9h.7v3Zm12.5 0h-11.6v-2.9H772v3Zm1.4 0h-.6v-2.9h.6v3Zm27.5 0h-.7v-2.9h.7v3Zm12.4 0h-11.6v-2.9h11.6v3Zm1.6 0h-.7v-2.9h.7v3Zm3.4 6.6h-1.2V463h1.2v3.7Zm311.7-11.6h-11.2v-1.8h11.2v1.8Zm6.1 0h-1.7v-1.8h1.7v1.8Zm24.6 0h-1.6v-1.8h1.6v1.8Zm15 0h-11.3v-1.8h11.3v1.8Zm410.8 131h-5v-2.4h5v2.3Zm40.4-53.3H1601v-1.1h1.2v.8h3v-.8h14.1v.8h4v-.8h3.6v1.1Zm67.3 42.6h-3.8V573h3.8v2.4Zm1.5 0h-.6V573h.6v2.4Zm1-112.4v23h-1.3v-23h1.2Zm2.5-2.9h-.8v-3h.8v3Zm12.5 0H1700v-3h11.6v3Zm1.4 0h-.6v-3h.6v3Zm27.5 0h-.7v-3h.7v3Zm12.4 0h-11.6v-3h11.6v3Zm1.6 0h-.7v-3h.7v3Zm3.4 6.6h-1.2V463h1.2v3.7Z"/><path fill="url(#c)" d="M1852.5 722.2v1.3h-5.1v-2.8h.9v-1.9h-10V640H1808v-28.8h-9.3v-2.9h-3.5v-4.5h-.6v4.5h-1.1v3h-18.2V596h-.8v15h-5.2v29h-19.7v-51.2h-3.4v-4h-2.7v-22h-1.2v22h-.5v4h-1.4v13.6h-.7v-30.7h-38V583h-1.5v-6.4h-2.5v6.4h-1.8v19.4h-3v23.5h-36.2v25h-4V623h-3v-15h-12v-18.3h-3.2v-6.5h-57.9v29.3h-6.1v106.3h-12.8v-51.3h-3.4v-4h-2.7v-21.9h-1.3v22l-.4-.1v4h-1.4v13.7h-.7v-30.7h-38v11.2h-1.6v-6.3h-2.4v6.3h-1.8v19.5h-3v23.4h-36.3v14.6h-4V702h-3v-15h-12v-18.4h-3.2v-6.4h-57.8v23h-5v6.3h-1.1v13.4h-11.7v-66h-5v-34.6h-3.6v-13.6h-3.7v-7.4h-8.9v-20.1H1335v-17h-23.8v20.4h-12.8v16.7h-3v129.6h-29.5v10.7h-6.3V711h1.1v-2.3h-12v-96.3h-37.2v-35.1h-11.3v-3.6h-4.2v-5.5h-.8v5.5h-1.4v3.6h-22.2v-18.4h-1v18.4h-6.3v35.1h-24v-62.6h-4.2V545h-3.2v-26.6h-1.5V545h-.6v5h-1.7v16.6h-.9V529h-46.3v13.8h-2V535h-3v7.8h-2.1v23.7h-3.7V595h-44.2v30.5h-5v-33.8h-3.6v-18.4h-14.6V551h-27.4v18.6h-12.4v22.1h-10.2v8.1h-4.2v15H945V653h-5.3v69H913v1.4h-5v-2.8h.8v-1.9H899v-78.9h-30.4V611h-9.3v-2.9h-3.4v-4.5h-.7v4.5H854v3h-18.2V596h-.8v15h-5v29h-19.7v-51.2h-3.4v-4h-2.6v-22H803v22h-.5v4H801v13.6h-.7v-30.7h-37.9V583h-1.6v-6.4h-2.5v6.4h-1.8v19.4h-3v23.5h-36.2v25h-4V623h-3v-15h-12v-18.3h-3.2v-6.5h-57.8v29.3H631v106.3h-12.8v-51.3h-3.4v-4h-2.7v-21.9H611v21.9h-.5v4H609v13.7h-.7v-30.7h-38v11.2H569v-6.3h-2.5v6.3h-1.8v19.5h-3v23.4h-36.2v14.6h-4.1V702h-2.9v-15h-12v-18.4h-3.2v-6.4h-57.9v23h-5v6.3h-1.1v13.4h-11.6v-66h-5v-34.6H419v-13.6h-3.7v-7.4h-8.8v-20.1h-10.8v-17h-24v20.4H359v16.7h-3.1v129.6h-29.5v10.7h-6.2V711h1v-2.3h-12v-96.3H272v-35.1h-11.4v-3.6h-4.2v-5.5h-.8v5.5h-1.4v3.6H232v-18.4h-1v18.4h-6v35.1h-24v-62.6h-4.2V545h-3.3v-26.6H192V545h-.6v5h-1.7v16.6h-.9V529h-46.2v13.8h-2V535h-3v7.8h-2.2v23.7h-3.7V595H87.4v30.5h-5v-33.8H79v-18.4H64.3V551H36.8v18.6H24.4v22.1H14.2v8.1H10v15H5.8V653H0v159l939.8-.3 940.2.3v-89.8h-27.5Z"/></g><defs><linearGradient id="a" x1="0" x2="1" y1="0" y2="0" gradientTransform="matrix(0 904.072 -925.077 0 940 -92)" gradientUnits="userSpaceOnUse"><stop offset="0" stop-color="#5cd1fd"/><stop offset=".3" stop-color="#71f2ff"/><stop offset="1" stop-color="#f4ffff"/></linearGradient><linearGradient id="b" x1="0" x2="1" y1="0" y2="0" gradientTransform="scale(233.218 232.424) rotate(90 .9 3.2)" gradientUnits="userSpaceOnUse"><stop offset="0" stop-color="#71edfe" stop-opacity=".6"/><stop offset="1" stop-color="#d7f8ff" stop-opacity=".6"/></linearGradient><linearGradient id="c" x1="0" x2="1" y1="0" y2="0" gradientTransform="matrix(0 169.619 -170.168 0 936 695.4)" gradientUnits="userSpaceOnUse"><stop offset="0" stop-color="#7be6fd"/><stop offset="1" stop-color="#99fbff"/></linearGradient></defs></svg>
