<svg xmlns="http://www.w3.org/2000/svg" xml:space="preserve" fill-rule="evenodd" stroke-linejoin="round" stroke-miterlimit="2" clip-rule="evenodd" viewBox="0 0 176 60">
<g>
<path fill="#35bc61" d="M24 60h128a23 23 0 0 0 16.7-7.2 25 25 0 0 0 7-17.3V0H.2v35.5a25 25 0 0 0 7 17.3A23.2 23.2 0 0 0 23.8 60Z"/>
<path fill="#5ce288" d="M7.2 52.8A23.4 23.4 0 0 0 24 60h128a22.8 22.8 0 0 0 16.8-7.2H7.2Z"/>
<path fill="#44c86f" d="M39.9 0H0v35.5C0 42 2.5 48.2 7 52.8A23.5 23.5 0 0 0 23.8 60h16V0Z"/>
<path fill="#84f3a8" d="M31.9.1h5.6v52.6h-5.6zm6.1 0h11.9v52.6H38z"/>
<path fill="#24ac50" d="M106 0v60h46.2a23 23 0 0 0 16.8-7.1 24.5 24.5 0 0 0 7-17.4V0h-70Z"/>
<path fill="#31b35b" d="M39.9 52.8h-33A23.6 23.6 0 0 0 24 60h16v-7.2Z"/>
<path fill="#258c47" d="M106 52.8V60h46.2a23 23 0 0 0 17-7.2H106Z"/>
</g>
</svg>
