<svg xmlns="http://www.w3.org/2000/svg" xml:space="preserve" fill-rule="evenodd" stroke-linejoin="round" stroke-miterlimit="2" clip-rule="evenodd" width="2048" height="344" viewBox="0 0 2048 344" xmlns:xlink="http://www.w3.org/1999/xlink">
<g fill="#fff" fill-rule="nonzero">
<path d="M426.43 17.52C474.48 19.97 512.78 34.6 512 50.2c-.79 15.6-40.4 26.25-88.46 23.81l-.78-.03c45.22 2.15 80.33-8.25 81.07-22.95.75-14.7-34-25.05-79.6-27.37-45.61-2.32-81 4.6-81.78 19.37-.48 8.32 9.24 16.25 27.32 22.1-19.8-6.2-32.18-14.83-31.82-23.85.81-15.53 40.42-26.2 88.47-23.76Z"/>
<path d="m403.36 44.05-25.32-9.43 13.16-3.5-28.6 1.45s18.54-8.43 36.73-10.2c0 0-40 .44-51.28 9.47-11.29 9.02-7.65 12.33-7.65 12.33a25.2 25.2 0 0 1 12.74-10.82l-3.44 2.78 22.39-.35-4.32 2.05 35.59 6.22Zm-5.68 57.15c33.17 1.7 59.62 11.79 59.16 22.54-.47 10.76-27.9 18.13-61.08 16.45l-.52-.02c31.22 1.48 55.44-5.7 55.94-15.89.5-10.2-23.48-17.3-54.96-18.89-31.47-1.59-55.93 3.17-56.45 13.38-.3 5.73 6.37 11.21 18.85 15.25-13.66-4.28-22.27-10.23-21.96-16.43.48-10.71 27.78-18.07 61.02-16.4Z"/>
<path d="m411.48 130.35 14.74-1.17s-11.43 3.83-13.48 4.04c0 0 16.2-2.15 23-3.52l-9.27 4.22s13.66-.74 20.05-4.62c0 0-6.78 8-32.36 10.1l10.16-3.4-12.83.9 7.35-2.43-13.85 1.31 4.05-3.02-12.42-4.68.6-1.27 14.26 3.54ZM88.45.35C40.4-2.1.8 8.56.01 24.15-.77 39.76 37.52 54.4 85.6 56.83c.25-.04.51.03.77.04C41.16 54.43 7.3 40.52 7.97 25.83c.67-14.7 36.38-21.46 81.97-19.15 45.58 2.3 80.12 12.78 79.37 27.57-.49 8.31-10.83 15.24-29.4 19.22 20.3-4.15 33.6-11.49 34.04-20.45.9-15.54-37.47-30.23-85.5-32.67Z"/>
<path d="m71.61 25.5-11.03-9.3s-11.45.26-17.45 3.5c0 0 8.11-5.4 26.6-7.2 0 0-22.98-2.65-36.6 3.35 0 0 20.93-10.59 36.17-11.28 0 0-36.45 0-53.42 10.4 0 0 6.66-4.03 23.13-4.13-6.28 2.1-12 5.57-16.76 10.18 0 0 7.47-2.3 20.3-5.6a39.4 39.4 0 0 0-5.84 8.45s14.77-4.25 22.91-4.66l12 6.3Zm36.96 61.01C75.4 84.83 48.05 92.2 47.5 102.96c-.55 10.77 25.9 20.86 59.15 22.55l.54.02c-31.22-1.68-54.6-11.3-54.08-21.45.51-10.15 25.14-14.82 56.6-13.22 31.45 1.6 55.33 8.83 54.8 19.03-.27 5.74-7.47 10.53-20.3 13.27 14.03-2.86 23.21-7.92 23.54-14.05.45-10.8-26-20.92-59.2-22.6Z"/>
<path d="M85.1 91s-15.97 12.1 12.56 22.13c0 0-27.17-6.06-31.3-20.17 0 0 16.6-3.99 19.85-3.54 3.25.44-1.1 1.57-1.1 1.57Z"/>
<path d="M87.26 95.53s-16.77 2.17-21.37 6.83a8.14 8.14 0 0 1 6.2-5.62s-10.21-.97-14.1 5.21c-3.87 6.19 8.87 9.63 8.87 9.63s-12.28-.95-12.13-9.16c.15-8.22 17.17-11.93 17.17-11.93l5.93 2.08 5.63-4.2 19.19 1.38-18.44 2.3 8.95.04-15.53 2.54 9.63.9Zm851.15-78.01c48.05 2.45 86.36 17.08 85.58 32.68-.78 15.6-40.4 26.24-88.46 23.81l-.77-.04c45.22 2.16 80.32-8.24 81.07-22.94.74-14.7-34-25.05-79.61-27.37-45.6-2.32-81 4.6-81.77 19.37-.48 8.32 9.24 16.25 27.32 22.1-19.8-6.2-32.19-14.83-31.83-23.85.82-15.53 40.42-26.2 88.47-23.76Z"/>
<path d="m988.64 58.93-49.6-9.6 48.4 14.1c2.61 2.55 0 7.39 0 7.39 1.22-.74 4.55-.55 6.1-1.29.07-1.1-2.02-7.36-2.56-8.33a5.8 5.8 0 0 0-2.34-2.27Zm-100.21 68.68-12.28-.58s9.6 2.88 11.3 3c0 0-13.51-1.35-19.2-2.31l7.81 3.25s-12.64.49-18.05-2.56c0 0 7.12 5.72 28.43 6.8l-8.53-2.57 10.68.42-6.16-1.83 11.53.73-3.44-2.41 10.2-4.21-.54-1.04-11.75 3.31Zm48.74-75.5-19.35-18.84 13.45 2.1-26.76-10.21s22.47-7.67 39.83-1.95c0 0-38-6.4-51.96-2.7-13.97 3.7-12.85 6.3-12.85 6.3a25.2 25.2 0 0 1 16.02-4.75l-4.27 1.15 20.62 8.72-4.78.13 30.05 20.05Z"/>
<path d="M909.67 101.2c33.16 1.7 59.62 11.78 59.15 22.54-.46 10.75-27.9 18.13-61.08 16.45l-.52-.03c31.22 1.48 55.44-5.7 55.95-15.88.5-10.2-23.49-17.3-54.96-18.89-31.48-1.6-55.93 3.16-56.45 13.38-.3 5.72 6.37 11.2 18.85 15.24-13.67-4.27-22.27-10.22-21.96-16.42.47-10.72 27.77-18.07 61.02-16.4ZM600.45.35C552.4-2.1 512.79 8.56 512 24.15c-.78 15.6 37.51 30.24 85.58 32.67.24-.05.51.03.77.04-45.2-2.43-79.06-16.34-78.39-31.03.67-14.7 36.38-21.46 81.96-19.15 45.58 2.3 80.12 12.78 79.37 27.56-.49 8.32-10.83 15.25-29.4 19.23 20.31-4.16 33.6-11.49 34.05-20.45.89-15.53-37.47-30.23-85.5-32.67Z"/>
<path d="m608.69 36.88-5.64-13.28s-10.32-4.96-17.14-4.8c0 0 9.68-1.12 26.98 5.64 0 0-19.3-12.77-34.15-13.59 0 0 23.45.03 37.35 6.31 0 0-32.5-16.48-52.34-14.9 0 0 7.77-.57 22.5 6.79a44.24 44.24 0 0 0-19.55 1.5s7.7 1.32 20.62 4.19a39.42 39.42 0 0 0-9.03 4.89s15.1 2.9 22.55 6.21l7.85 11.04Zm11.88 49.62c-33.17-1.67-60.53 5.69-61.07 16.46-.54 10.76 25.92 20.85 59.16 22.54l.54.02c-31.22-1.67-54.6-11.29-54.08-21.44.51-10.15 25.14-14.82 56.6-13.23 31.45 1.6 55.32 8.84 54.8 19.03-.27 5.74-7.47 10.53-20.3 13.27 14.03-2.85 23.2-7.92 23.53-14.04.45-10.81-26-20.92-59.19-22.6Z"/>
<path d="M631.31 90.24s-33.7 10.32-9.26 28.12c0 0-27.64-13.27-9.26-31.62 0 0 17.04.95 20.03 2.3 2.98 1.36-1.5 1.2-1.5 1.2Z"/>
<path d="M620.22 94.49s-16.87-1.06-22.28 2.65a8.14 8.14 0 0 1 7.16-4.34s-9.85-2.9-14.83 2.44 6.88 11.13 6.88 11.13-11.87-3.25-10.17-11.3c1.7-8.03 19.12-8.44 19.12-8.44l5.42 3.16 6.33-3.05 18.58 5-18.54-1.24 8.78 1.74-15.74-.46 9.29 2.7Zm806.45 20.3 13.7.37s-10.62-3.56-12.53-3.66c0 0 15.06 1.36 21.39 2.46l-8.63-4.12s14.16-1.09 20.1 2.84c0 0-7.76-7.47-31.55-8.19l9.45 3.16-11.93-.2 6.83 2.26-12.87-.58 3.76 3.12-11.53 6.03.56 1.38 13.25-4.87Zm23.74-97.27c48.05 2.45 86.36 17.08 85.58 32.68-.78 15.6-40.4 26.24-88.46 23.81l-.77-.04c45.22 2.16 80.32-8.24 81.07-22.95.74-14.7-34-25.04-79.61-27.36-45.6-2.32-81 4.6-81.77 19.37-.48 8.32 9.24 16.25 27.32 22.1-19.8-6.2-32.19-14.83-31.83-23.85.82-15.53 40.42-26.2 88.47-23.76Z"/>
<path d="m1451.05 49.33 24.09 14.3c.98.52-2.21 5.9-2.21 5.9s8.07 2.17 8.8 3.33l8.18-.73c-4.9.7-8.14.9-8.14.9a.3.3 0 0 0-.05-.17c-8.58.76-16.46 1.45-17.08 1.83 0 0 5.92-4.63 3.31-7.19l-16.9-18.17Zm8.16-7.59 20.68-5.6-10.14-3.73 22.5 3.24s-12.26-10.2-26.5-12.93c0 0 29.33-1.31 37.59 6.64 3.87 0 14.37 4.42 14.37 4.42-1.92-4.12-16.93-.2-21-2.21l5.46 7.83-17.66-1.9 3.26 1.93-28.56 2.31Zm-37.55 59.46c33.17 1.7 59.62 11.78 59.16 22.54-.47 10.75-27.9 18.13-61.08 16.45l-.52-.03c31.22 1.48 55.44-5.7 55.94-15.88.5-10.2-23.48-17.3-54.96-18.89-31.47-1.6-55.93 3.17-56.45 13.38-.3 5.72 6.37 11.2 18.85 15.25-13.66-4.28-22.26-10.23-21.95-16.43.47-10.72 27.77-18.07 61.01-16.4ZM1112.45.35c-48.05-2.44-87.66 8.21-88.44 23.8-.78 15.6 37.51 30.24 85.58 32.67.25-.05.51.03.77.04-45.2-2.43-79.06-16.34-78.39-31.03.67-14.7 36.38-21.46 81.96-19.15 45.59 2.3 80.12 12.78 79.37 27.56-.48 8.32-10.83 15.25-29.4 19.23 20.32-4.16 33.6-11.49 34.05-20.45.89-15.54-37.47-30.23-85.5-32.67Z"/>
<path d="m1104.76 32.67 50.1-6.86s-10.33-4.96-17.14-4.79c0 0 9.67-1.13 26.97 5.63 0 0-19.3-12.77-34.15-13.58 0 0 23.46.03 37.36 6.3 0 0-32.5-16.48-52.34-14.9 0 0 7.76-.57 22.5 6.8a44.24 44.24 0 0 0-19.55 1.48s7.7 1.33 20.62 4.2a39.42 39.42 0 0 0-9.03 4.9s15.1 2.89 22.54 6.2l-47.88 4.62Zm27.81 53.83c-33.16-1.67-60.52 5.69-61.06 16.46-.54 10.76 25.91 20.85 59.16 22.54l.53.02c-31.21-1.67-54.59-11.29-54.08-21.44.52-10.15 25.14-14.82 56.6-13.23 31.45 1.6 55.33 8.84 54.8 19.03-.27 5.74-7.47 10.53-20.3 13.27 14.03-2.85 23.21-7.92 23.54-14.04.45-10.81-26-20.92-59.19-22.6Z"/>
<path d="M1144.69 89.12s23.11 17.36-.7 24.27c0 0 25.01-2.53 15.96-21.8 0 0-13.4-4.02-16.09-3.8-2.68.21.83 1.33.83 1.33Z"/>
<path d="M1152.06 95.5s13.3 3.88 16.44 8.24a6.66 6.66 0 0 0-4.31-5.34s8.4.51 10.75 6.01c2.35 5.5-8.4 6.67-8.4 6.67s10.06.8 10.98-5.87c.93-6.68-12.39-11.84-12.39-11.84l-5.06.92-4.02-4.11-15.72-1.33 14.64 4.22-7.25-1.11 12.26 4.03-7.92-.5Zm488.58-61.74-62.09 2.8s12.74 5.64 21.01 5.17c0 0-11.71 1.74-32.98-5.8 0 0 23.92 14.77 42 15.2 0 0-28.5.85-45.62-6.25 0 0 49.66 16.46 73.7 13.77 0 0-29.3-1.1-32.07-6.08 8 .93 14.93 1.1 22.67 0 0 0-13.45-2.85-29.26-5.84a47.9 47.9 0 0 0 10.78-6.28l-6.28-2.57 38.14-4.13Zm321.77-16.24c48.05 2.45 86.36 17.08 85.58 32.68-.78 15.6-40.4 26.24-88.46 23.81l-.77-.04c45.22 2.16 80.32-8.24 81.07-22.95.74-14.7-34-25.04-79.61-27.36-45.6-2.32-81 4.6-81.77 19.37-.48 8.32 9.24 16.25 27.32 22.1-19.8-6.2-32.19-14.83-31.83-23.85.82-15.53 40.42-26.2 88.47-23.76Z"/>
<path d="m1970 55.34-9.12 6.8c.77.8-3.94 4.91-3.94 4.91s6.99 4.58 7.31 5.9l8 1.87c-4.86-.86-8-1.68-8-1.68a.29.29 0 0 0 0-.18c-8.39-1.97-16.09-3.77-16.8-3.6 0 0 7.08-2.55 5.4-5.8l17.15-8.22Zm11.06-10.14 35.2-5.67-8.37-6.83 20.2 10.4s-10.68-9.92-23.26-17.14c0 0 30.59 4.59 35.8 14.8 3.66 1.26 6.77 12.84 6.77 12.84-.48-4.52-10.56-9.68-13.76-12.91l2.61 9.18-16.07-7.56 2.46 2.9h-41.58Zm-47.4 56c33.17 1.7 59.62 11.78 59.16 22.54-.47 10.75-27.9 18.13-61.08 16.45l-.52-.03c31.22 1.48 55.44-5.7 55.94-15.88.5-10.2-23.48-17.3-54.96-18.89-31.47-1.6-55.93 3.17-56.45 13.38-.3 5.72 6.37 11.2 18.85 15.25-13.66-4.28-22.26-10.23-21.95-16.43.47-10.72 27.77-18.07 61.01-16.4ZM1624.45.35c-48.05-2.44-87.66 8.21-88.44 23.8-.78 15.6 37.51 30.24 85.58 32.67.25-.05.51.03.77.04-45.2-2.43-79.06-16.34-78.39-31.03.67-14.7 36.38-21.46 81.96-19.15 45.59 2.3 80.12 12.78 79.37 27.56-.48 8.32-10.83 15.25-29.4 19.23 20.32-4.16 33.6-11.49 34.05-20.45.89-15.54-37.47-30.23-85.5-32.67Zm20.12 86.15c-33.16-1.67-60.52 5.69-61.06 16.46-.54 10.76 25.91 20.85 59.16 22.54l.53.02c-31.21-1.67-54.59-11.29-54.08-21.44.52-10.15 25.14-14.82 56.6-13.23 31.45 1.6 55.33 8.84 54.8 19.03-.27 5.74-7.47 10.53-20.3 13.27 14.03-2.85 23.21-7.92 23.54-14.04.45-10.81-26-20.92-59.19-22.6Z"/>
<path d="M1700.23 112.83s-34.83 12.71-53.34-6.35c0 0 22.68 26.91 40.07 14.64 0 0 15.05-5.14 14.38-7.74-.68-2.6-1.11-.55-1.11-.55Z"/>
<path d="M1687.71 113.55s-13.58 2.75-18.33.8a6.2 6.2 0 0 0 2.73 1.86c1.1.39 2.31.5 3.51.33 0 0-7.7 3.21-12.27.05-4.58-3.16 4.46-8.65 4.46-8.65s-9.3 3.7-7.12 9.16c2.2 5.45 16.36 3.66 16.36 3.66l4.08-2.87 5.44 1.4 14.56-5.74-14.9 3.08 6.94-2.27-12.72 2.2 7.26-3.01Zm275.11 7.02 11.06 6.08s-4.43-7.19-6.09-9.36c0 0 11.55 4.28 16.59 8.25l-1.53-3.64s2.97-2.87 5.95 5.86c0 0 7.1-4.06-13.48-16.01l6.81 7.28-10.4-5.86 4.94 5.24-18.27-7.24 3.87 6.12-25.99 3.28v2.21l26.54-2.21Z"/></g>


<g id="dronbox" fill-rule="nonzero">
<path fill="#cb0e46" d="m381.21 166.43-260.16-13.17-8.96 176.9 260.16 13.17 8.96-176.9Z"/>
<path fill="#f91155" d="M377.98 168.04 122.6 155.11l-8.67 171.33 255.37 12.93 8.68-171.33Z"/>
<path fill="#fff" d="M142.49 272.28A27.81 27.81 0 0 0 116 306.3a27.87 27.87 0 0 0 27.7 21.55 27.8 27.8 0 0 0 26.48-34.03 27.87 27.87 0 0 0-27.7-21.55Zm4.34 42.14a14.83 14.83 0 1 1-7.49-28.7 14.83 14.83 0 0 1 7.5 28.7h-.01Zm35.23-45.96a6.5 6.5 0 0 0-5.34 8.55c.99 2.96 4.09 4.67 7.18 4.29l17.97-2.25-23.36 40.36a1.83 1.83 0 0 0 .06 1.95 1.86 1.86 0 0 0 1.77.81l43.85-5.46c3.1-.38 5.68-2.8 5.9-5.92a6.5 6.5 0 0 0-7.26-6.98l-21.89 2.73 23.34-40.34a1.86 1.86 0 0 0-.83-2.63c-.32-.14-.67-.2-1.02-.16l-40.37 5.05Zm175.24-21.68a6.59 6.59 0 0 0-4.23 7.08l2.66 21.44-38.27-23.3a1.87 1.87 0 0 0-2.82 1.82l5.51 44.25a6.59 6.59 0 0 0 5.84 5.83 6.5 6.5 0 0 0 7.05-7.27l-2.7-21.61 38.28 23.3a1.86 1.86 0 0 0 2.66-.8 2 2 0 0 0 .17-1.02l-5.53-44.41a6.5 6.5 0 0 0-8.62-5.31Zm-89.26 22.79c14.73-1.84 26.71 4.56 27.58 11.5.86 6.94-9.18 16.07-23.91 17.9-14.73 1.84-26.72-4.55-27.58-11.5-.86-6.93 9.17-16.07 23.9-17.9Zm-1.6-12.87c-21.33 2.65-37.08 17.15-35.18 32.38 1.9 15.24 20.72 25.42 42.05 22.77 21.32-2.66 37.07-17.15 35.17-32.39-1.9-15.24-20.72-25.42-42.05-22.76Z"/>
<path fill="url(#a)" d="M302.38 269.14a47.42 47.42 0 1 0 4.8-94.7 47.42 47.42 0 0 0-4.8 94.7Z"/>
<path fill="url(#b)" d="M303.24 268.5a47.42 47.42 0 1 0 4.8-94.7 47.42 47.42 0 0 0-4.8 94.7Z"/>
<path fill="url(#c)" d="M307.35 270.72a53.11 53.11 0 1 0 5.38-106.1 53.11 53.11 0 0 0-5.38 106.1Z"/>
<path fill="#fff" d="M272.27 249.37c.19 1.54-.94 2.26-2.29 2.42l-3.2.4-.94-7.48 3.1-.39c1.32-.18 2.38.27 2.54 1.57a1.6 1.6 0 0 1-.98 1.81v.02c.87.04 1.61.41 1.77 1.65Zm-4.58-3.36.18 1.47 1.24-.16c.5-.06.8-.38.75-.85-.06-.47-.45-.68-.92-.62l-1.25.16Zm2.83 3.36c-.07-.54-.51-.75-1.18-.68l-1.3.16.2 1.63 1.31-.16c.63-.08 1.05-.4.97-.95Zm2.04-1.7c-.3-2.38 1.25-4.12 3.62-4.41a4.5 4.5 0 0 1 2.79.5l-.72 1.56a3.17 3.17 0 0 0-1.86-.35c-1.3.17-2.17 1.12-2 2.47.17 1.36 1.24 2.08 2.55 1.92a3.19 3.19 0 0 0 1.71-.8l1.08 1.34a4.56 4.56 0 0 1-2.58 1.17c-2.37.29-4.3-1-4.6-3.4Zm12.52.71.2 1.51-4.7.58-.93-7.49 4.64-.57.2 1.5-2.98.38.15 1.22 2.69-.33.19 1.5-2.7.34.23 1.74 3.01-.38Zm5-5.12-2.9.36.74 5.94-1.66.2-.94-7.48 4.57-.57.2 1.55Zm7.63 3.67.36 2.89-1.55.2-.17-1.35-4.4.55.17 1.34-1.55.2-.36-2.9.88-.1c.24-1.03.29-2.09.12-3.13l-.38-3.04 5.21-.65.76 6.11.91-.12Zm-4.94.62 2.39-.3-.57-4.55-1.9.24.2 1.5a8.09 8.09 0 0 1-.12 3.1Zm10.28-1.42-2.9.36-.32 1.59-1.86.23 2.02-7.86 1.76-.21 3.88 7.12-1.85.23-.73-1.46Zm-.7-1.4-1.26-2.54-.6 2.76 1.86-.23Zm11.77-.88c.21 1.75-.9 2.56-2.25 2.73l-3.09.39-.93-7.5 1.66-.2 3.61-.45.2 1.55-3.62.45.14 1.11 1.43-.17c1.35-.17 2.63.34 2.85 2.1Zm-1.71.22c-.08-.63-.54-.87-1.17-.79l-1.2.15.22 1.83 1.2-.15c.62-.08 1.01-.42.94-1.05l.01.01Zm8.27-1.03c.21 1.74-.9 2.55-2.25 2.72l-3.1.39-.93-7.5 1.66-.2.33 2.67 1.44-.18c1.35-.18 2.62.34 2.85 2.1Zm-1.72.21c-.08-.63-.54-.86-1.17-.79l-1.2.15.23 1.83 1.2-.15c.62-.07 1.01-.42.93-1.04h.01Zm3.5-5.6.93 7.5-1.65.2-.94-7.49 1.66-.2Zm1.34 3.65c-.3-2.4 1.25-4.13 3.62-4.44.96-.13 1.93.04 2.79.5l-.72 1.57a3.16 3.16 0 0 0-1.86-.36c-1.3.17-2.17 1.12-2 2.48.16 1.36 1.24 2.07 2.55 1.91a3.16 3.16 0 0 0 1.71-.8l1.08 1.34a4.59 4.59 0 0 1-2.58 1.17c-2.37.3-4.3-.99-4.6-3.38Zm12.38-3.83-1.97.25.75 5.98-1.66.2-.75-5.98-1.98.25-.18-1.5 5.6-.7.2 1.5Zm6.25.13c.17 1.47-.55 2.64-2.44 2.87l-1.02.12.32 2.57-1.66.2-.93-7.48 2.68-.33c1.88-.24 2.88.7 3.05 2.05Zm-1.76.25c-.08-.65-.56-.86-1.25-.79l-.87.11.24 1.91.87-.1c.69-.08 1.1-.46 1.01-1.13Zm10.21.07a3.82 3.82 0 0 1-3.46 4.4 3.83 3.83 0 0 1-4.44-3.42c-.3-2.35 1.24-4.12 3.46-4.4a3.82 3.82 0 0 1 4.44 3.42Zm-6.06.75c.17 1.35 1.19 2.08 2.39 1.93 1.2-.15 2.01-1.11 1.84-2.46-.17-1.34-1.2-2.08-2.39-1.93-1.2.15-2.01 1.11-1.85 2.45v.01Zm-77.76-7.38.45 3.6-11.22 1.4-2.23-17.93 11.1-1.38.44 3.61-7.12.89.36 2.93 6.4-.8.46 3.62-6.4.8.5 4.17 7.26-.91Zm14.65 1.84-4.93-5.74-3.37 6.77-5.08.63 5.5-10.28-7.12-7.73 5.05-.63L276 221l2.9-5.75 5.05-.63-4.98 9.24 7.84 8.63-5.09.63Zm17.67-14.59c.44 3.51-1.32 6.3-5.86 6.87l-2.44.3.76 6.15-3.97.5-2.23-17.94 6.4-.8c4.56-.56 6.95 1.69 7.34 4.92Zm-4.22.6c-.2-1.56-1.35-2.07-3-1.85l-2.1.26.58 4.59 2.1-.26c1.65-.22 2.63-1.15 2.43-2.73l-.01-.01Zm11.39 3.99-.8.1.85 6.79-3.97.5-2.24-17.95 7.18-.89c4.02-.5 6.4 1.73 6.8 4.85.32 2.62-.83 4.87-3.52 5.85l5.99 6.36-4.97.62-5.32-6.23Zm-1.21-3.23 2.6-.33c1.6-.2 2.42-.93 2.23-2.41-.17-1.33-1.15-2-2.74-1.8l-2.62.33.53 4.2Zm23.87 3.65.45 3.6-11.22 1.4-2.24-17.93 11.1-1.38.45 3.61-7.13.89.37 2.93 6.4-.8.45 3.62-6.4.8.52 4.17 7.25-.91Zm12.12-15.13-1.23 3.72a9.48 9.48 0 0 0-4.2-.62c-1.25.15-1.58.65-1.51 1.25.07.54.44.86 1.55 1.34l3.2 1.5c2.32 1.04 3.75 2.32 4.07 4.82.42 3.46-1.7 5.63-5.88 6.15-2.34.3-4.73-.03-6.91-.96l1.35-3.79a9.88 9.88 0 0 0 5.25 1.01c1.44-.17 2.15-.76 2.03-1.7-.1-.83-.85-1.23-1.93-1.72l-2.95-1.37c-2.51-1.1-3.7-2.7-3.95-4.72-.36-2.93 1.32-5.03 5.12-5.5a14.8 14.8 0 0 1 5.99.6Zm13.94-1.73-1.23 3.71a9.47 9.47 0 0 0-4.19-.62c-1.25.15-1.58.65-1.52 1.25.07.54.44.86 1.55 1.35l3.2 1.5c2.32 1.04 3.75 2.31 4.07 4.81.43 3.46-1.7 5.63-5.87 6.15-2.35.3-4.74-.03-6.92-.96l1.35-3.79a9.86 9.86 0 0 0 5.26 1.02c1.43-.17 2.14-.77 2.02-1.72-.1-.82-.85-1.22-1.93-1.7l-2.95-1.37c-2.5-1.1-3.7-2.69-3.95-4.71-.36-2.94 1.33-5.04 5.12-5.5 2.02-.23 4.05-.03 5.99.57Z"/>
<path fill="#fff" fill-opacity=".16" d="m118.96 220.54 3.78-65.48 36.52 1.26 27.7 1.26-68 62.96Z"/>
<path fill="#fff" fill-opacity=".16" d="m117.86 255.8 5.03-100.74 36.52 1.26 61.7 2.52-103.25 96.96Z"/>
<path fill="#707070" d="M331.41 95s30.96 15.16 64.43 20.86c0 0 7.94 5.8 1.87 15.72 0 0-.85 1.44-5.77 1.04-4.92-.41-63.5-15.44-86.74-16.95L331.4 95Z"/>
<path fill="url(#d)" d="M331.41 95s30.96 15.16 64.43 20.86c0 0 7.94 5.8 1.87 15.72 0 0-.85 1.44-5.77 1.04-4.92-.41-63.5-15.44-86.74-16.95L331.4 95Z"/>
<path fill="#707070" d="M177.03 87.35s-32.31 12.01-66.2 14.37c0 0-8.46 4.97-3.4 15.44 0 0 .7 1.51 5.66 1.56 4.95.05 64.68-8.98 87.98-8.22l-24.04-23.15Z"/>
<path fill="url(#e)" d="M177.03 87.35s-32.31 12.01-66.2 14.37c0 0-8.46 4.97-3.4 15.44 0 0 .7 1.51 5.66 1.56 4.95.05 64.68-8.98 87.98-8.22l-24.04-23.15Z"/>
<path fill="#bed7d7" d="M427 41.7s-80.56 13.8-103.46 2.2c-27.94-14.17-66.2-14.88-66.2-14.88l-.27.05c-1.88-.13-38.8-2.41-67.26 8.64-23.93 9.24-102.67-12.5-102.67-12.5s-9.8 1.13-7.3 16.06l84.06 27.31s11.4 11.63 12.2 36.89l77.06 3.84-.07-.38 77.27 3.82c3.32-25.02 15.81-35.55 15.81-35.55l86.48-18.85c4-14.55-5.64-16.65-5.64-16.65Z"/>
<path fill="url(#f)" d="M427 41.7s-80.56 13.8-103.46 2.2C295.6 29.72 257.06 29 257.06 29c-1.88-.13-38.8-2.4-67.26 8.64C165.88 46.94 87.14 25.2 87.14 25.2s-9.8 1.13-7.3 16.06l84.06 27.31s11.4 11.63 12.2 36.89l77.06 3.84-.07-.38 77.27 3.82c3.32-25.02 15.81-35.55 15.81-35.55l86.48-18.85c4-14.55-5.64-16.65-5.64-16.65Z"/>
<path fill="#385b8f" d="M330.82 113.22c-.17 3.93-34.98 5.28-77.7 3.17-42.71-2.12-77.2-6.98-77.02-10.92.17-3.94 34.98-5.27 77.72-3.16 42.73 2.11 77.2 7.04 77 10.9Z"/>
<path fill="url(#g)" d="M330.82 113.22c-.17 3.93-34.98 5.28-77.7 3.17-42.71-2.12-77.2-6.98-77.02-10.92.17-3.94 34.98-5.27 77.72-3.16 42.73 2.11 77.2 7.04 77 10.9Z"/>
<path fill="#565656" d="m195.46 106.32-7.28-.22-4.14 50.08 7.28.22 4.14-50.08Z"/>
<path fill="#21202f" d="m191.36 147.7-3.63-.19-3.65-.18-55.94 6.96 59.08 2.86 59.1 2.85-54.96-12.3Z"/>
<path fill="#e5e1d1" d="M195.51 106.44c-.03.47-1.67.79-3.69.66-2.01-.13-3.62-.58-3.59-1.07.03-.5 1.68-.8 3.7-.67 2 .13 3.58.53 3.58 1.08Z"/>
<path fill="#565656" d="m318.67 109.96-7.28-.21-4.14 50.08 7.28.21 4.14-50.08Z"/>
<path fill="#21202f" d="m314.56 153.63-3.64-.16-3.63-.18-55.95 6.95 59.08 2.85 59.1 2.87-54.96-12.33Z"/>
<path fill="#e5e1d1" d="M318.72 112.53c-.03.5-1.67.81-3.69.67-2.02-.15-3.62-.56-3.6-1.06 0-.49 1.66-.8 3.68-.66 2.02.15 3.62.58 3.61 1.05Z"/>
<path opacity="0.2" d="M431.82 55.43s-4.1 3.77-6.55-6.48c0 0-62.32 17.8-97.68 19.1 0 0-12.3 10.87-18 37.82 0 0 13.55 1.03 19.8 4.26 0 0 3.53-23.2 17.03-34.57l85.1-18.12a1.45 1.45 0 0 0 .3-2.01ZM81.79 38.87s3.77 4.13 7.13-5.88c0 0 60.45 23.4 95.53 27.92 0 0 11.28 11.92 14.5 39.28 0 0-13.58-.22-20.08 2.42 0 0-1.42-23.43-13.85-35.98L81.93 40.86a1.45 1.45 0 0 1-.14-2Z"/>
<path opacity="0.2" d="M388.61 60.05a464.57 464.57 0 0 1-59.45 10.67s-10.7 5.7-17.42 33.51l4.91.59s1.6-19.03 15.58-31.3c0 0 36.75-6.94 56.38-13.47Zm-208.23 40.43s-1.68-25.1-15.13-35.17L86.63 40.93l82.24 23.42s13.85 9.33 16.1 35.3l-4.59.83Z"/>
<path fill="#fff" opacity="0.7" d="M407.63 46.08s-43.7 8.86-76.42 3.41c-3.67-.82-7.25-2-10.68-3.55-5.82-2.59-62.45-23.85-128.85-5 0 0-8 5.82 2.55 6.14 10.55.31 60.8-7.47 102.76 2.6 21.26 5.09 71.53 11.22 110.64-3.6ZM89.36 31.65a5.38 5.38 0 0 0-.91-5.08S148.3 46.1 185.74 41c0 0-3.43 2.02-2.22 5.17.3.78-1.02.18-1.02.18-14.68.47-29.36-.68-43.78-3.45a1891.81 1891.81 0 0 1-49.36-11.25Z"/>
<path d="M332.01 114s-1.2 2-8.25 2.96c0 0 46.2 7.6 66.25 14.28 0 0 8.14 1.8 8.36-6.52 0 0-3.67 1.28-11.6.13-7.92-1.16-49.83-14.24-49.83-14.24a50.96 50.96 0 0 0 1.18-10.9l-3.14-1.74A129.7 129.7 0 0 0 332 114Z"/>
<path d="m335.01 102.1-1.85 12.83a7.8 7.8 0 0 1-4.28 2.1s35.14 6.58 47.32 9.66c12.18 3.09 15.2 3.7 15.2 3.7s2.93.12 3.7-1.84c0 0-23.7-4.61-33.92-7.03-10.22-2.43-25.85-7.53-25.85-7.53l-.31-11.88Zm-159.91 4.38s1.05 2.1 8 3.63c0 0-46.67 3.81-67.22 8.81 0 0-8.2 1.14-7.8-7.17 0 0 3.53 1.57 11.54 1.13 8-.44 50.93-10.15 50.93-10.15a50.1 50.1 0 0 1-.3-10.96l3.28-1.49c.86 5.36 1.39 10.78 1.58 16.2Z"/>
<path d="m173.1 94.39.8 12.94a7.7 7.7 0 0 0 4.07 2.44s-35.54 3.68-47.95 5.76c-12.4 2.07-15.44 2.44-15.44 2.44s-2.94-.14-3.53-2.12c0 0 23.98-2.69 34.4-4.23 10.44-1.54 26.4-5.4 26.4-5.4l1.25-11.83Zm138.72 17.81a9.13 9.13 0 0 1 6.6.31l-.42 8.52a7.78 7.78 0 0 0-6.5-3.54l.32-5.3Z"/>
<path d="M311.82 112.2a9.13 9.13 0 0 1 6.6.31l-.42 8.52a7.78 7.78 0 0 0-6.5-3.54l.32-5.3Zm-123.22-6.01a9.14 9.14 0 0 1 6.6.32l-.42 8.51a7.78 7.78 0 0 0-6.5-3.54l.32-5.29Z"/>
<path d="M188.6 106.19a9.14 9.14 0 0 1 6.6.32l-.42 8.51a7.78 7.78 0 0 0-6.5-3.54l.32-5.29Z"/>
</g>

<use xlink:href="#dronbox" x="512" y="0"/>
<use xlink:href="#dronbox" x="1024" y="0"/>
<use xlink:href="#dronbox" x="1536" y="0"/>

<defs>
<linearGradient id="d" x1="0" x2="1" y1="0" y2="0" gradientTransform="rotate(-154.71 209.66 23.36) scale(81.0425)" gradientUnits="userSpaceOnUse"><stop offset="0" stop-color="#fff" stop-opacity=".13"/><stop offset="1" stop-opacity=".13"/></linearGradient><linearGradient id="e" x1="0" x2="1" y1="0" y2="0" gradientTransform="rotate(-10.18 21689.99 -98417.47) scale(4594.241)" gradientUnits="userSpaceOnUse"><stop offset="0" stop-color="#fff" stop-opacity=".13"/><stop offset="1" stop-opacity=".13"/></linearGradient><linearGradient id="f" x1="0" x2="1" y1="0" y2="0" gradientTransform="rotate(85.21 46817.12 53070.8) scale(9704.369)" gradientUnits="userSpaceOnUse"><stop offset="0" stop-opacity=".13"/><stop offset="1" stop-opacity=".13"/></linearGradient><linearGradient id="g" x1="0" x2="1" y1="0" y2="0" gradientTransform="rotate(-96.5 20261.4 -16827.99) scale(545.5742)" gradientUnits="userSpaceOnUse"><stop offset="0" stop-color="#fff" stop-opacity=".26"/><stop offset="1" stop-opacity=".26"/></linearGradient><radialGradient id="a" cx="0" cy="0" r="1" gradientTransform="rotate(2.9 -3236716.8 3525467.61) scale(18545.332)" gradientUnits="userSpaceOnUse"><stop offset="0" stop-opacity=".75"/><stop offset=".92" stop-opacity=".75"/><stop offset=".99" stop-opacity=".34"/><stop offset="1" stop-opacity="0"/></radialGradient><radialGradient id="b" cx="0" cy="0" r="1" gradientTransform="rotate(2.9 -3231524.1 3531958.48) scale(18545.332)" gradientUnits="userSpaceOnUse"><stop offset="0" stop-color="#005bff"/><stop offset=".94" stop-color="#0059ff"/><stop offset=".97" stop-color="#0051ff"/><stop offset=".98" stop-color="#04f"/><stop offset="1" stop-color="#002eff"/></radialGradient><radialGradient id="c" cx="0" cy="0" r="1" gradientTransform="rotate(2.9 -3588157.7 3993136.86) scale(23269.3)" gradientUnits="userSpaceOnUse"><stop offset="0" stop-color="#005bff"/><stop offset=".94" stop-color="#0059ff"/><stop offset=".97" stop-color="#0051ff"/><stop offset=".98" stop-color="#04f"/><stop offset="1" stop-color="#002eff"/></radialGradient></defs>
</svg>
