<svg xmlns="http://www.w3.org/2000/svg" xml:space="preserve" fill-rule="evenodd" stroke-miterlimit="10" clip-rule="evenodd" viewBox="0 0 44 53"><path fill="url(#a)" fill-rule="nonzero" d="M29.29 41.846c10.956-4.072 16.537-16.255 12.464-27.212C37.682 3.678 25.499-1.902 14.543 2.17 3.586 6.243-1.994 18.426 2.078 29.382 6.151 40.338 18.334 45.918 29.29 41.846Z"/><path fill="url(#b)" fill-rule="nonzero" d="M22 44A21.998 21.998 0 0 1 .423 17.708 21.994 21.994 0 0 1 17.708.423 22 22 0 1 1 22 44ZM22 .279A21.732 21.732 0 0 0 1.917 13.7a21.734 21.734 0 0 0 15.852 29.635A21.737 21.737 0 0 0 37.365 6.64 21.738 21.738 0 0 0 22 .279Z"/><path fill="#fff" fill-opacity=".14" fill-rule="nonzero" stroke="#fff" stroke-width=".5" d="M40.02 25.088c1.71-10.004-5.014-19.501-15.018-21.211C14.997 2.167 5.501 8.891 3.791 18.895 2.081 28.9 8.805 38.396 18.809 40.106c10.005 1.71 19.501-5.014 21.211-15.018Z"/><path fill="url(#c)" fill-rule="nonzero" d="M18.508 46h6.982a.47.47 0 0 1 .422.237.473.473 0 0 1-.004.484l-1.746 3.015-1.745 3.03a.49.49 0 0 1-.658.171.497.497 0 0 1-.179-.171l-1.745-3.03-1.731-3.015a.473.473 0 0 1 .165-.654.481.481 0 0 1 .239-.067Z"/><defs><linearGradient id="a" x1="0" x2="1" y1="0" y2="0" gradientTransform="rotate(-20.39 19587.168 -32710.65) scale(2286.104)" gradientUnits="userSpaceOnUse"><stop offset="0" stop-color="#f81158"/><stop offset="1" stop-color="#ef0e53"/></linearGradient><linearGradient id="b" x1="0" x2="1" y1="0" y2="0" gradientTransform="matrix(44 0 0 44 -.073 22)" gradientUnits="userSpaceOnUse"><stop offset="0" stop-color="#f61157"/><stop offset="1" stop-color="#ee0e52"/></linearGradient><linearGradient id="c" x1="0" x2="1" y1="0" y2="0" gradientTransform="translate(1927.26 1512.35) scale(428.845)" gradientUnits="userSpaceOnUse"><stop offset="0" stop-color="#f81158"/><stop offset="1" stop-color="#ef0e53"/></linearGradient></defs></svg>