<svg xmlns="http://www.w3.org/2000/svg" xml:space="preserve" fill-rule="evenodd" stroke-linejoin="round" stroke-miterlimit="2" clip-rule="evenodd" viewBox="0 0 57 64"><path fill="#41CB6E" d="M26.29 4.6h-6.4V0h17.24v4.6h-6.39v3.88a27.85 27.85 0 0 1 25.52 27.71A27.85 27.85 0 0 1 28.4 64 27.85 27.85 0 0 1 .52 36.19 27.85 27.85 0 0 1 26.29 8.46V4.59Zm4.13 32.63V20.1h-4v14.89l-7.18 4.13 1.98 3.42 9.2-5.3ZM44.88 3.62l-2.82 3.63 12.12 9.38L57 12.99 44.88 3.6ZM14.94 7.24l-2.82-3.63L0 12.98l2.82 3.63 12.12-9.37Z"/></svg>
