<svg xmlns="http://www.w3.org/2000/svg" fill-rule="evenodd" stroke-linejoin="round" stroke-miterlimit="2" clip-rule="evenodd" viewBox="0 0 320 560">
<path fill="#018836" d="M0 0h320v560H0z"/>
<path fill="#129847" fill-rule="nonzero" d="M40.04 480.77h19.89L0 540.78V560h.84l79.1-79.23H60.05L0 420.62v20.05h.01l40.03 40.1zM80 460.86L160 540.91V560h19.11L160 540.85v-19.98L80.01 440.8v20.04zM80 480.84v19.92L20.86 560h20.01L80 520.8v-19.92h.01l59 59.12h20.03L80 480.84zm88.4-.07h-8.33l79.1 79.23h.82v-19.22l-59.9-60h-5.85 5.77L160 460.71v-19.98l-40.03-40.1h-19.89l59.92-60v19.84l39.88-39.96h.01L160 280.54v19.85l-59.92-60.01h-.07l-20-20.05-20.02 20.05H40.04L0 280.49v20.05l60.03-60.14h20.04L160 320.44v-19.83l19.88 19.91L160 340.44V320.6l-79.93 80.04h19.89L160 460.8v19.97h8.4zm-88.39 40.17v19.91L60.88 560h19.13v-19.01L98.98 560H119L80 520.94zm0-100.18L160 500.82v19.99L199.12 560h20.03L160 500.76v-19.99h-.08l-79.91-80.06v20.05zm159.98 120.23L258.97 560H279l-39-39.06v20.05zm0-40.1L299.01 560h20.02l-79.04-79.23v20.11zm40.1-20.12h-20l59.9-60.01V400.7l-80 80.06h20.1L320 540.92v-20.05l-39.9-40.1zM240 320.52l-80-80.06v19.84l-19.88-19.92h-.08l-60.03-60.14v20.05l40.02 40.1h.09L160 280.36V260.5l59.91 60.02L160 380.53v-19.86l-39.9 39.97h19.88L160 420.7v19.98l79.99 80.07v-20.05L160 420.62v-19.97h-19.88L160 380.73v19.85l80-80.06h-6.89H240zM0 480.77h19.9L0 500.7v20.05l39.9-39.97H20L0 460.72v20.05zm280.1 0h19.88L320 500.82v-20.05H300.1L320 460.85V440.8l-39.9 39.97zm-40.11-120.22v-20.06l-60.04 60.16h-19.88l79.92 80.12V460.8l60.06-60.15h.05L320 380.73v-20.04l-39.88 39.96h-.08l-40.04 40.1v19.9l-59.9-60h19.87l40.03-40.1zM20.01 400.64l-20-20.04v20.05h.07L80 480.7v-20.04l-59.9-60.02h-.09zm220.07 0h-.09v19.92l-19.88-19.91H240V380.6l-20 20.05H200.1l39.88 39.96V420.7l20.02-20.04h.07L320 340.63V320.6l-79.91 80.05zm-180.03 0L0 340.5v20.05h.01l40.03 40.1h.08L80 440.6v-20.04l-19.89-19.91h-.07zM9.07 320.52v.01H.08L80 400.58v-20.05l-59.9-60.01H14.3h5.78l59.92-60.01v-20.05L.08 320.5v.01h9zm271.04 0h-.08v.01l-40.04 40.1v20.04l60.05-60.14h.06L320 300.6v-20.05l-39.88 39.96zm-160.08 0L80 360.61v20.05l60.04-60.15h-20.02zM80 300.47l20 20.04h.01v.01L80 340.56v19.92l-39.9-39.96 39.9-39.97v19.92zm166.71 20.05H240v20.04l20.01-20.04h-5.26 5.33L320 260.5v-20.05L240 320.52h6.72zM80.01 300.61l-19.88 19.9L80 340.44V300.6zm139.9 19.9v.01zm-139.9-40.09l40.02 40.1h20.02l-60.04-60.15v20.05zm219.97-40.04h-19.95l-40.04 40.1v20.06l60.05-60.15H320v-20.05l-20 20.04zM160 60.16v19.98h19.88L160 100.05V80.13l-79.93 80.13L160 240.32v-19.84l19.88 19.9h.08l60.03 60.16v-20.06l-40.03-40.1h-.07L160 200.43v19.85l-59.92-60.02L160 100.25v19.84l39.9-39.97H180L160 60.1V40.11L119.96 0h-20L160 60.15zM19.97 240.38H.01v20.06l20-20.05h19.96l40.04-40.1v-20.05l-60.04 60.14zM160 20.04v20l40.04 40.1h19.88l-59.92 60V120.3l-39.88 39.96h-.01v.01L160 200.22v-19.85l59.92 60.01h.07l20 20.05L260 240.39h19.96L320 200.3v-20.05l-60.04 60.14h-20.03L160 160.33v19.85l-19.88-19.92L160 140.34v19.85l79.93-80.06h-19.89L160 19.98V.01h-20.02L160 20.04zM.01 100.24l59.92 60.02L0 220.28v20.04l79.92-80.06h.02L.02 80.2v20.05H.01zm239.98 0l59.92 60.02-59.92 60.02v-19.92l-40.03-40.1 40.03-40.1v-20.05l-60.04 60.15L240 220.41v19.9l79.93-80.05L240 80.2v20.05h-.01zm0 40.1l19.89 19.92-19.89 19.92v20.05l39.9-39.97L240 120.3v20.04zm-239.98 0l19.89 19.92L0 180.18v20.05l39.9-39.97L0 120.3v20.04zm239.98 39.96l-20-20.04 20-20.04v40.08zM80.01 40.03V20.1l59.9 60.01 20.09.01L80.01.08v19.9L19.97 80.13 80 140.28l59.9-60.16h-19.88L80 120.23l-40.04-40.1 40.04-40.1zm179.93 40.1L320 140.28v-20.05l-40.04-40.1h-20.02zm40.04 0L320 100.18V80.13h-20zM80.01 60.1l19.92 20.13H80l.01-20.13-20.03 20.04 20.03 20.05 19.92-19.96 20.1-.1L80 40.17v19.92zm159.98.13l19.89 19.91h20.01L240 40.17v20.05zm0-40.1l59.92 60h20.01L240 .08V20.1h-.01zM160.07 0l79.92 80.06V60.02L180.09.01h-20.02zM59.93.01L0 60.01v20.05L79.93 0h-20zM320 40.11L279.95 0h-20.01L320 60.15V40.11zM19.9 0L0 19.91v20.06L39.91 0H19.9v.01zm220.09 19.9L220.11.02h-20l39.88 39.96V19.92zm60-19.9l20 20.04V.01h-20z"/>
</svg>
