<svg xmlns="http://www.w3.org/2000/svg" xml:space="preserve" fill-rule="evenodd" stroke-miterlimit="2.6" clip-rule="evenodd" viewBox="0 0 4805 1000"><path fill="#fff" d="M2937.8 81V69.2h5.1V36l2.6-13.3 6.1-21.6 6.2 21.6 2.5 13.3v33.3h5.2V81l59.9 183.7c-3.5 7-5.6 14.7-6.2 22.6h-134.7a60 60 0 0 0-6.1-22.6L2937.8 81Zm-916.3 408.4h-31.2l-4.1-28.3v-5h39.4v5l-4 28.3Z"/><path fill="none" stroke="#fff" stroke-width="1.7" d="M2021.5 489.4h-31.2l-4.1-28.3v-5h39.4v5l-4 28.3Z"/><path fill="#fff" d="M2123 546.3a40 40 0 0 0-10.3-7.7 63 63 0 0 0-55.3 0l-10.3 7.7a25.6 25.6 0 0 0-7.6 17v167.1h91.1V563.2c0-6.1-2.5-12.3-7.1-17h-.6Zm56.8-57h-31.2l-4.1-28.2v-5h38.9v5l-3.6 28.3Z"/><path fill="none" stroke="#fff" stroke-width="1.7" d="M2179.8 489.4h-31.2l-4.1-28.3v-5h38.9v5l-3.6 28.3Z"/><path fill="#fff" d="M2281.2 546.3a40 40 0 0 0-10.2-7.7 63 63 0 0 0-55.3 0 41 41 0 0 0-10.3 7.7 23.5 23.5 0 0 0-7.7 17v167.1h90.7V563.2c0-6.1-2.6-12.3-7.2-17Zm158.3 0a40 40 0 0 0-10.8-7.7 63 63 0 0 0-54.8 0c-4 2-7.7 5.1-10.7 7.7a25.1 25.1 0 0 0-7.2 17v167.1h90.6V563.2a27 27 0 0 0-7.1-17Zm-101.4-57h-31.8l-3.6-28.2v-5h39v5l-3.6 28.3Z"/><path fill="none" stroke="#fff" stroke-width="1.7" d="M2338 489.4h-31.7l-3.6-28.3v-5h39v5l-3.6 28.3Z"/><path fill="#fff" d="M2597.2 546.3a40 40 0 0 0-10.2-7.7 63 63 0 0 0-55.3 0l-10.3 7.7a25.6 25.6 0 0 0-7.7 17v167.1h90.7V563.2c0-6.1-2.6-12.3-7.2-17Zm-101.4-57h-31.2l-4.1-28.2v-5h39.4v5l-4 28.3Z"/><path fill="none" stroke="#fff" stroke-width="1.7" d="M2495.8 489.4h-31.2l-4.1-28.3v-5h39.4v5l-4 28.3Z"/><path fill="#fff" d="M2755.5 546.3a40 40 0 0 0-10.3-7.7 63 63 0 0 0-55.3 0 41 41 0 0 0-10.2 7.7 23.5 23.5 0 0 0-7.7 17v167.1h90.6V563.2c0-6.1-2.5-12.3-7.1-17Zm-101.4-57h-31.8l-4-28.2v-5h38.8v5l-3.5 28.3"/><path fill="none" stroke="#fff" stroke-width="1.7" d="M2654 489.4h-31.7l-4-28.3v-5h38.8v5l-3.5 28.3h.5Z"/><path fill="#fff" d="M2811.8 489.4h-30.7L2777 461v-5h39v5l-3.7 28.3"/><path fill="none" stroke="#fff" stroke-width="1.7" d="M2812.3 489.4h-31.2L2777 461v-5h39v5l-3.7 28.3Z"/><path fill="#fff" d="M2694 868.4h50.2V912H2694z"/><path fill="none" stroke="#fff" stroke-width="1.7" d="M2694 868.4h50.2V912H2694z"/><path fill="#fff" d="M2685.8 799.2h65.6V829h-65.6z"/><path fill="none" stroke="#fff" stroke-width="1.7" d="M2685.8 799.2h65.6V829h-65.6z"/><path fill="#fff" d="M2287.9 856.6v-15.4a45 45 0 0 0-44.6-44.6 45 45 0 0 0-44.6 44.6v105.2h88.7V857l.5-.5Zm157.7 59.5v-71.8a45 45 0 0 0-44.5-44.6 45 45 0 0 0-44.6 44.6v71.8h.5V947h88.1v-30.8h.5Zm158.3 0v-72.8a45 45 0 0 0-44.6-44.6 45 45 0 0 0-44.5 44.6v103h88.6v-29.7l.5-.5ZM2749.3 332c0-38-64-37-64 0h-93.7c0-36-63.5-36-63.5 0h-95.3c0-36-63.5-36.4-63.5 0h-94.2c0-36-64-36-64 0h-94.3c0-36-63.5-36-63.5 0h-93.2v-33h22l150.6-174 16.4-21.5h-1.6 1.6-1.6v-38c0-3.5.5-7.1 2.6-10.2 1-3.6 4-6.2 7.7-7.2h3.6c3.5 1 6.1 3.6 7.6 6.7 1.6 3.6 2.6 7.2 2.6 10.8V98H2631V65.7c0-3.6.5-7.2 2.6-10.3 1-3.6 4-6.2 7.7-7.2h3.6c3.5 1 6.1 3.6 7.6 6.7 1.6 3.6 2.6 7.2 2.6 10.8V103h-1.5v.5l16.3 21.6L2820 299.6h22.5v32.3h-93.2Zm-690.9 538h50.2v42.6h-50.2V870Z"/><path fill="none" stroke="#fff" stroke-width="1.7" d="M2058.4 870h50.2v42.6h-50.2z"/><path fill="#fff" d="M2050.7 799.2h65.6V829h-65.6z"/><path fill="none" stroke="#fff" stroke-width="1.7" d="M2050.7 799.2h65.6V829h-65.6z"/><path fill="#fff" d="M1864.3 81V69.2h-5.1V36l-2.6-13.3-6.1-21.6-6.2 21.6-2 13.3v33.3h-5.7V81l-59.9 183.7c5.1 9.2 5.1 14.3 6.7 22.6H1918c.5-7.7 2.5-15.4 6.1-22.1L1864.3 81ZM1809 537c-7.7-14.8-25.6-11.7-29.7 0v60.6h29.7V537Zm1102.2 0c-8.2-14.8-25.6-11.7-29.7 0v60.6h29.7V537Zm-1045.9 0c-5-14.3-26-14.3-29.7 0v60.6h29.7V537Zm1102.2 0c-5.6-14.3-26.6-14.3-29.7 0v60.6h29.7V537Zm-1049.4 0a16 16 0 0 0-29.7 0v60.6h29.7V537Zm1101.7 0a15.9 15.9 0 0 0-29.7 0v60.6h29.7V537ZM1779.3 652.6h29.7V718h-29.7v-65.6Zm1102.2 0h29.7V718h-29.7v-65.6Zm-1045.9 0h29.7V718h-29.7v-65.6Zm1102.2 0h29.7V718h-29.7v-65.6Zm-1049.4 0h29.7V718h-29.7v-65.6Zm1101.7 0h29.7V718H2990v-65.6Zm-1210.8 145h29.7v67.7h-29.7v-67.7Zm1102.2 0h29.7v67.7h-29.7v-67.7Zm-1045.9 0h29.7v67.7h-29.7v-67.7Zm1102.2 0h29.7v67.7h-29.7v-67.7Zm-1048.4 0h29.7v67.7h-29.7v-67.7Zm1101.7 0h29.7v67.7H2991v-67.7ZM1779.3 926h30.2v26h-30.2v-26Zm1101.7 0h30.2v26H2881v-26Zm-1045.4 0h30.2v26h-30.2v-26Zm1101.7 0h30.2v26h-30.2v-26Zm-1048.4 0h30.2v26h-30.2v-26Zm1102.2 0h30.2v26H2991v-26Zm-2611.6 2.5H418v24.1h-38.4v-24Z"/><path fill="none" stroke="#fff" stroke-width="1.7" d="M379.5 928.4h38.4v24.1h-38.4z"/><path fill="#fff" d="M4640.3 928.4h38.4v24.1h-38.4z"/><path fill="none" stroke="#fff" stroke-width="1.7" d="M4640.3 928.4h38.4v24.1h-38.4z"/><path fill="#fff" d="M254 928.4h38.4v24.1H254z"/><path fill="none" stroke="#fff" stroke-width="1.7" d="M254 928.4h38.4v24.1H254z"/><path fill="#fff" d="M4514.8 928.4h38.4v24.1h-38.4z"/><path fill="none" stroke="#fff" stroke-width="1.7" d="M4514.8 928.4h38.4v24.1h-38.4z"/><path fill="#fff" d="M124.5 928.4h38.4v24.1h-38.4z"/><path fill="none" stroke="#fff" stroke-width="1.7" d="M124.5 928.4h38.4v24.1h-38.4z"/><path fill="#fff" d="M4385.7 928.4h38.4v24.1h-38.4z"/><path fill="none" stroke="#fff" stroke-width="1.7" d="M4385.7 928.4h38.4v24.1h-38.4z"/><path fill="#fff" d="M479.9 402.1V351l-5.1-2.6V321c0-4.1-1.6-19-11.8-22h1278.4v78.4l-26.6 5.7v19h-40a5.1 5.1 0 0 1-5.1-3.6c-6.2-10.3-20.5-10.3-27.2 0a5.1 5.1 0 0 1-5 3.5H1579a5.1 5.1 0 0 1-5.1-3.5c-6.1-10.3-20.5-10.3-27.1 0a5.1 5.1 0 0 1-5.2 3.5h-65a5.1 5.1 0 0 1-5.1-3.5 16.3 16.3 0 0 0-27.7 0 5.2 5.2 0 0 1-5.1 3.5h-63a5.1 5.1 0 0 1-5.1-3.5 16.3 16.3 0 0 0-27.7 0 5.1 5.1 0 0 1-5.1 3.5h-61.5a5.1 5.1 0 0 1-5-3.5c-6.7-10.3-21.6-10.3-27.7 0a5.1 5.1 0 0 1-5.2 3.5h-62a5.1 5.1 0 0 1-5-3.5 16.3 16.3 0 0 0-27.7 0 5.1 5.1 0 0 1-5.1 3.5H1073a5.1 5.1 0 0 1-5.1-3.5c-6.7-10.3-21-10.3-27.2 0a5.1 5.1 0 0 1-5 3.5h-63a5.1 5.1 0 0 1-5.2-3.5 16.3 16.3 0 0 0-27.7 0 5.1 5.1 0 0 1-5 3.5h-65.6a5.1 5.1 0 0 1-5.2-3.5c-6.6-10.3-21-10.3-27.1 0a5.1 5.1 0 0 1-5.1 3.5h-64a5.1 5.1 0 0 1-5.2-3.5c-6.6-10.3-21-10.3-27.1 0a5.1 5.1 0 0 1-5.1 3.5h-61.5a5.1 5.1 0 0 1-5.1-3.5c-6.2-10.3-20.5-10.3-27.2 0a5.1 5.1 0 0 1-5 3.5H570a5.1 5.1 0 0 1-5-3.5 16.3 16.3 0 0 0-27.7 0 5.1 5.1 0 0 1-5.2 3.5H480Zm3842.8 0V351l5.1-2.6V321c0-5.1 2.1-19 11.8-22H3061.2v78.4l26.2 5.7v19h41a5.1 5.1 0 0 0 5-3.6c6.2-10.3 20.5-10.3 27.2 0 .5 2 2.6 3.5 5.1 3.5h57.9a5.1 5.1 0 0 0 5.1-3.5 16.3 16.3 0 0 1 27.7 0c.5 2 2.5 3.5 5.1 3.5h65a5.1 5.1 0 0 0 5.2-3.5 16.3 16.3 0 0 1 27.6 0c.5 2 2.6 3.5 5.1 3.5h63a5.1 5.1 0 0 0 5.2-3.5 15.8 15.8 0 0 1 27.1 0c1 2 3 3.5 5.1 3.5h62a5.1 5.1 0 0 0 5.1-3.5 16.3 16.3 0 0 1 27.7 0c.5 2 2.5 3.5 5.1 3.5h61.5c2.5 0 5-1 5.6-3.5 6.7-10.3 21-10.3 27.1 0 1 2.5 3.1 3.5 5.2 3.5h66a5.1 5.1 0 0 0 5.2-3.5c6.1-10.3 20.4-10.3 27.1 0 1 2 3 3.5 5.1 3.5h63.5a5.1 5.1 0 0 0 5.2-3.5c6.1-10.3 20.4-10.3 27.1 0 1 2 3 3.5 5.1 3.5h66a5.1 5.1 0 0 0 5.2-3.5c6.2-10.3 20.5-10.3 27.2 0 .5 2 3 3.5 5 3.5h64.1a5.1 5.1 0 0 0 5.1-3.5c6.2-10.3 20.5-10.3 27.2 0 .5 2 3 3.5 5 3.5h61a5.1 5.1 0 0 0 5.2-3.5 15.8 15.8 0 0 1 27.1 0c1 2 3 3.5 5.1 3.5h62a5.2 5.2 0 0 0 5.1-3.5 15.8 15.8 0 0 1 27.2 0c1 2 3 3.5 5 3.5h51.8Z"/><path fill="none" stroke="#fff" stroke-linecap="round" stroke-linejoin="round" stroke-width="10.8" d="M350.8 900.2V492.4m2050.3-84h436.3-436.3Zm550.5 350.3h-550.5 550.5ZM2401.1 456h437.4H2401ZM996 900.2H888.7h107.6ZM888.7 493h107.6-107.6Zm-825 0h206.8-207Zm206.8-60h-169 169Zm0 466.8h-209 209Zm217.2 77v-70.3 70.3Z"/><path fill="none" stroke="#fff" stroke-width="17.1" d="M481 758.6V461.1m1.5 439.1v-123 123Z"/><path fill="none" stroke="#fff" stroke-linecap="round" stroke-linejoin="round" stroke-width="10.8" d="M3063.3 377.5H2840M442 900.2V492.4v407.8Zm-126.5 0V492.4v407.8Zm-45 0h210-210Zm0-467.3h168.4-168.5Zm207.4 60H270.4 478Zm-.6 0H567h-89.7ZM567 900.2H459.4 567Zm0 0h-86.6H567ZM477.3 493v19.5V493Zm304.3 407.3H674h107.6ZM674 493h107.6H674Zm0 407.3H566.5 674ZM566.5 493H674 566.5ZM889 900.2H781.6 889ZM781.6 493H889 781.6Zm858.4 0h97.3-97.3Zm90.6 407.3H1640h90.6Zm-412.8 0h-107.5 107.5ZM1210.3 493h107.5-107.5Zm-107 407.3H995.6h107.5ZM995.6 493h107.5-107.5Zm215 407.3h-107.5 107.6ZM1103.3 493h107.6-107.6Zm429.2 407.3H1425h107.5ZM1425 493h107.5H1425Zm0 407.3h-107 107ZM1318 493h107.5-107.6Zm322 407.3h-107.5H1640ZM1532.5 493H1640h-107.6Zm868.7-84.6h-435.9 435.9ZM50 758.7h2351H50ZM2401 456h-437.4H2401Zm-434.4 439h-232.5 232.5Zm-116.1-404h-112.7 112.7Zm-114.2-82.6h114.2-114.2Zm5-30.8h220.8-220.7Zm109.2 61.6h-112.7 112.7Zm0 51.8h113.2-113.2Zm114.2-82.6h-114.2 114.2Zm-114.2 30.8h112.7-112.7Zm-97.3 0h4.6-4.6Zm0 0h4.6-4.6Zm233 17.4v-.5.5Zm154.2 520.2v-30.3 30.3Zm521.4-30.3h-521 521Zm289.8-51.3h-116.2 116.2Zm0 0h116.8-116.8Zm0-136h128-128Zm0-268.2h113.7-113.7Zm113.2-82.6h-112.6 112.6Z"/><path fill="none" stroke="#fff" stroke-linecap="round" stroke-linejoin="round" stroke-width="20.4" d="M2838.4 439h227"/><path fill="none" stroke="#fff" stroke-linecap="round" stroke-linejoin="round" stroke-width="10.8" d="M2837.4 408.3h114.2m-289.8 552.5v-14.4 14.4Zm0 15.9V950v26.7Zm289.8-485.8H2839h112.6Z"/><path fill="#fff" d="M3.6 976.7h4795v22.1H3.6z"/><path fill="none" stroke="#fff" stroke-linecap="round" stroke-linejoin="round" stroke-width="10.8" d="M4532.2 433h-169M396.4 369.2V433v-63.6Zm-126 0V433v-63.6Zm-127 0V433v-63.6ZM189 899.7V493.5v406.2Zm35.3 1V492.4v408.3Zm-126-1V492.4v407.3Zm4654.1-140.5H2401.6h2350.8Zm-838.9-266.3h-107.6 107.6Zm-107.6 407.3h107.6-107.6Zm726.3 0h209-209Zm0-467.3h211.5-211.5Zm207.4 60h-207.4 207.4Zm-35.8 407.3V492.4v407.8Zm-171.6 0h-210 210Zm81 0V492.4v407.8Zm-35.4 0V492.4v407.8Zm-91.2 0V492.4v407.8Zm-35.3 0V492.4v407.8Zm-90.7 0V492.4v407.8Zm-125 0h86.1-86Zm0 0h107.6-107.5Zm89.7-407.3h-89.6 89.6Zm-.5 0h207.4-207.4Z"/><path fill="none" stroke="#fff" stroke-linecap="round" stroke-width="17.1" d="M4319.1 900.2v-123m1.6-19v-297 297Z"/><path fill="none" stroke="#fff" stroke-linecap="round" stroke-linejoin="round" stroke-width="10.8" d="M3591.9 900.2h107.5m321.1 0h107.6-107.6Zm107.6 0h107.6H4128Zm-214.6 0h107.6-107.6ZM4128.1 493h-107.6 107.6Zm107.6 0H4128h107.6ZM3072 900.2h90.7-90.7Zm90.7-407.3h-97.3 97.3Zm429.2 0h-107.6 107.6Zm-107.6 407.3h107.6-107.6Zm215.1 0h107-107Z"/><path fill="none" stroke="#fff" stroke-linecap="round" stroke-linejoin="round" stroke-width="31.7" d="M4026.2 493h-434.3"/><path fill="none" stroke="#fff" stroke-linecap="round" stroke-linejoin="round" stroke-width="10.8" d="M3484.3 493h-107.6m-107 407.2h107.6-107.6Zm107.6 0h107.5-107.5Zm-215.2 0h107.6-107.6ZM3377.3 493h-215.7 215.7Z"/><path fill="none" stroke="#fff" stroke-linecap="round" stroke-linejoin="round" stroke-width="8.8" d="M2036.4 331.9v45.6m632-45.6v45.6V332Zm97.3 0v45.6V332Zm-255 0v45.6V332Zm97.3 0v45.6V332Zm-255.6 0v45.6V332Zm97.3 0v45.6V332Zm-255.6 0v45.6V332Zm97.9 0v45.6V332Zm-158.3 0v45.6V332Z"/><path fill="#fff" d="M1808 312.4h14.8v34.4H1808v-34.4Zm69.6 0h14.9v34.4h-14.9v-34.4Zm-33.3 0h14.9v34.4h-14.9v-34.4Zm1065.4 0h14.8v34.4h-14.8v-34.4Zm70.1 0h14.9v34.4h-14.9v-34.4Zm-33.8 0h14.9v34.4H2946v-34.4ZM549.6 521.2a27.6 27.6 0 0 1 27.6 27.7v48.7H522v-48.7a27.6 27.6 0 0 1 27.7-27.7Zm0 120.5a27.6 27.6 0 0 1 27.6 27.7v48.2H522v-48.2a27.6 27.6 0 0 1 27.7-27.7Zm2588-120.5a27.6 27.6 0 0 1 27.6 27.7v48.7h-54.8v-48.7a27.5 27.5 0 0 1 27.2-27.7Zm0 120.5a27.6 27.6 0 0 1 27.6 27.7v48.7h-54.8v-48.7a27.5 27.5 0 0 1 27.2-27.7ZM1156 521.2a27.6 27.6 0 0 1 27.6 27.7v48.7h-54.8v-48.7a27.5 27.5 0 0 1 27.2-27.7Zm0 120.5a27.6 27.6 0 0 1 27.6 27.7v48.2h-54.8v-48.2a27.5 27.5 0 0 1 27.2-27.7Zm2588-120.5a27.6 27.6 0 0 1 27.6 27.7v48.7h-54.8v-48.7a27.6 27.6 0 0 1 27.7-27.7h-.5Zm0 120.5a27.6 27.6 0 0 1 27.6 27.7v48.7h-54.8v-48.7a27.6 27.6 0 0 1 27.7-27.7h-.5ZM396 516c6.6 0 17.3 5.2 17.3 20.5v56H379v-56c0-15.3 11.3-20.5 17.4-20.5h-.5Zm4007.7 0c6.6 0 17.4 5.2 17.4 20.5v56h-34.8v-56c0-15.3 11.2-20.5 17.4-20.5Zm127 0c6.1 0 16.9 5.2 16.9 20.5v56h-34.3v-56c0-15.3 10.7-20.5 17.4-20.5Zm126.5 0c6.1 0 17.4 5.2 17.4 20.5v56h-34.8v-56c0-15.3 11.3-20.5 17.4-20.5Zm-253.5 125.7c6.6 0 17.4 5.1 17.4 20.5v56h-34.8v-56.5c0-15.4 11.2-20.5 17.4-20.5v.5Zm127 0c6.1 0 16.9 5.1 16.9 20.5v56h-34.3v-56.5c0-15.4 10.7-20.5 17.4-20.5v.5Zm126.5 0c6.1 0 17.4 5.1 17.4 20.5v56h-34.8v-56.5c0-15.4 11.3-20.5 17.4-20.5v.5ZM272.5 516c6.1 0 17.4 5.2 17.4 20.5v56h-34.8v-56c0-15.3 11.2-20.5 17.4-20.5Zm-129.6 0c6.2 0 17.4 5.2 17.4 20.5v56h-34.8v-56c0-15.3 11.3-20.5 17.4-20.5Zm253 125.7c6.7 0 17.4 5.1 17.4 20.5v56H379v-55.5c0-15.4 11.3-20.5 17.4-20.5l-.5-.5Zm-123.4 0c6.1 0 17.4 5.1 17.4 20.5v56h-34.8v-55.5c0-15.4 11.2-20.5 17.4-20.5v-.5Zm-129.6 0c6.2 0 17.4 5.1 17.4 20.5v56h-34.8v-55.5c0-15.4 11.3-20.5 17.4-20.5v-.5Zm507.6-120.5a27.6 27.6 0 0 1 27.6 27.7v48.7h-54.8v-48.7a27.5 27.5 0 0 1 27.2-27.7Zm0 120.5a27.6 27.6 0 0 1 27.6 27.7v48.2h-54.8v-48.2a27.5 27.5 0 0 1 27.2-27.7ZM3239 521.2a27.1 27.1 0 0 1 27.1 27.7v48.7h-54.8v-48.7a27.6 27.6 0 0 1 27.7-27.7Zm0 120.5a27.1 27.1 0 0 1 27.1 27.7v48.7h-54.8v-48.7a27.6 27.6 0 0 1 27.7-27.7ZM1257.4 521.2a27.1 27.1 0 0 1 27.1 27.7v48.7h-54.8v-48.7a27.6 27.6 0 0 1 27.7-27.7Zm0 120.5a27.1 27.1 0 0 1 27.1 27.7v48.2h-54.8v-48.2a27.6 27.6 0 0 1 27.7-27.7Zm2588-120.5a27.6 27.6 0 0 1 27.7 27.7v48.7h-55.4v-48.7a27.9 27.9 0 0 1 27.7-27.7Zm0 120.5a27.6 27.6 0 0 1 27.7 27.7v48.7h-55.4v-48.7a27.9 27.9 0 0 1 27.7-27.7ZM751.9 521.2a27.1 27.1 0 0 1 27.1 27.7v48.7h-54.8v-48.7a27.6 27.6 0 0 1 27.7-27.7Zm0 120.5a27.1 27.1 0 0 1 27.1 27.7v48.2h-54.8v-48.2a27.6 27.6 0 0 1 27.7-27.7Zm2588-120.5a27.6 27.6 0 0 1 27.6 27.7v48.7h-54.8v-48.7a27.5 27.5 0 0 1 27.2-27.7Zm0 120.5a27.6 27.6 0 0 1 27.6 27.7v48.7h-54.8v-48.7a27.5 27.5 0 0 1 27.2-27.7ZM1358.3 521.2a27.6 27.6 0 0 1 27.6 27.7v48.7h-54.8v-48.7a27.5 27.5 0 0 1 27.2-27.7Zm0 120.5a27.6 27.6 0 0 1 27.6 27.7v48.2h-54.8v-48.2a27.5 27.5 0 0 1 27.2-27.7Zm2588-120.5a27.6 27.6 0 0 1 27.6 27.7v48.7h-54.8v-48.7a27.5 27.5 0 0 1 27.2-27.7Zm0 120.5a27.6 27.6 0 0 1 27.6 27.7v48.7h-54.8v-48.7a27.5 27.5 0 0 1 27.2-27.7ZM852.8 521.2a27.6 27.6 0 0 1 27.6 27.7v48.7h-54.8v-48.7a27.5 27.5 0 0 1 27.2-27.7Zm0 120.5a27.6 27.6 0 0 1 27.6 27.7v48.2h-54.8v-48.2a27.5 27.5 0 0 1 27.2-27.7Zm2588.5-120.5a27.5 27.5 0 0 1 27.1 27.7v48.7h-54.8v-48.7a27.6 27.6 0 0 1 27.7-27.7Zm0 120.5a27.5 27.5 0 0 1 27.1 27.7v48.7h-54.8v-48.7a27.6 27.6 0 0 1 27.7-27.7ZM1459.7 521.2a27.5 27.5 0 0 1 27.1 27.7v48.7H1432v-48.7a27.5 27.5 0 0 1 27.2-27.7h.5Zm0 120.5a27.5 27.5 0 0 1 27.1 27.7v48.2H1432v-48.2a27.5 27.5 0 0 1 27.2-27.7h.5Zm2588-120.5a27.1 27.1 0 0 1 27.1 27.7v48.7h-54.2v-48.7a27.6 27.6 0 0 1 27.6-27.7h-.5Zm0 120.5a27.1 27.1 0 0 1 27.1 27.7v48.7h-54.2v-48.7a27.6 27.6 0 0 1 27.6-27.7h-.5ZM954.2 521.2a27.5 27.5 0 0 1 27.1 27.7v48.7H927v-48.7a27.6 27.6 0 0 1 27.7-27.7h-.5Zm0 120.5a27.5 27.5 0 0 1 27.1 27.7v48.2H927v-48.2a27.6 27.6 0 0 1 27.7-27.7h-.5Zm2588-120.5a27.1 27.1 0 0 1 27.1 27.7v48.7h-54.8v-48.7a27.6 27.6 0 0 1 27.7-27.7Zm0 120.5a27.1 27.1 0 0 1 27.1 27.7v48.7h-54.8v-48.7a27.6 27.6 0 0 1 27.7-27.7ZM1560.6 521.2a27.1 27.1 0 0 1 27.1 27.7v48.7H1533v-48.7a27.6 27.6 0 0 1 27.7-27.7Zm0 120.5a27.1 27.1 0 0 1 27.1 27.7v48.2H1533v-48.2a27.6 27.6 0 0 1 27.7-27.7Zm2588-120.5a27.6 27.6 0 0 1 27.7 27.7v48.7h-54.8v-48.7a27.5 27.5 0 0 1 27.1-27.7Zm0 120.5a27.6 27.6 0 0 1 27.7 27.7v48.7h-54.8v-48.7a27.5 27.5 0 0 1 27.1-27.7ZM1655.3 521.2a27.6 27.6 0 0 1 27.7 27.7v48.7h-54.8v-48.7a27.5 27.5 0 0 1 27.1-27.7Zm0 120.5a27.6 27.6 0 0 1 27.7 27.7v48.2h-54.8v-48.2a27.5 27.5 0 0 1 27.1-27.7Zm2588.5-120.5a27.1 27.1 0 0 1 27.2 27.7v48.7h-54.8v-48.7a27.6 27.6 0 0 1 27.6-27.7Zm0 120.5a27.1 27.1 0 0 1 27.2 27.7v48.7h-54.8v-48.7a27.6 27.6 0 0 1 27.6-27.7ZM1055.1 521.2a27.1 27.1 0 0 1 27.1 27.7v48.7h-54.8v-48.7a27.6 27.6 0 0 1 27.7-27.7Zm0 120.5a27.1 27.1 0 0 1 27.1 27.7v48.2h-54.8v-48.2a27.6 27.6 0 0 1 27.7-27.7Zm2588-120.5a27.6 27.6 0 0 1 27.6 27.7v48.7H3616v-48.7a27.5 27.5 0 0 1 27.2-27.7Zm0 120.5a27.6 27.6 0 0 1 27.6 27.7v48.7H3616v-48.7a27.5 27.5 0 0 1 27.2-27.7ZM549.6 796.1c15.3 0 22 11.3 22 29.7v44.7h-44v-44.7c0-18.4 7.1-29.7 22.5-29.7h-.5Zm2588 0c15.3 0 22.5 11.3 22.5 29.7v44.7h-45v-44.7c0-18.4 7.6-29.7 22.5-29.7Zm-1981.6 0c15.3 0 22 11.3 22 29.7v44.7h-44.6v-44.7c0-18.4 7.7-29.7 22.6-29.7Zm2588 0c15.3 0 22.5 11.3 22.5 29.7v44.7H3722v-44.7c0-18.4 7.1-29.7 22.5-29.7h-.5Zm-3347.6-6.2c8.2 0 17 1.6 17 19.5v59h-32.9v-59c0-18 7.2-19.5 15.4-19.5h.5Zm4007.3 0c8.7 0 17.4 3.6 17.4 18.5v48.2h-32.8v-48.2c0-15.4 7.2-18.5 15.4-18.5Zm127 0c8.2 0 16.9 3.6 16.9 18.5v48.2h-32.8v-48.2c0-15.4 7.2-18.5 15.4-18.5h.5Zm126.5 0c8.7 0 17.4 3.6 17.4 18.5v48.2h-32.8v-48.2c0-15.4 7.2-18.5 15.4-18.5Zm-4384.7 0c8.7 0 17.4 1.6 17.4 19.5v59h-32.8v-59c0-18 7.2-19.5 15.4-19.5Zm-129 0c8.1 0 16.8 2 16.8 20v58.5h-32.8v-58c0-17.9 7.2-20 15.4-20l.5-.5Zm507 6.2c15.3 0 22.5 11.3 22.5 29.7v44.7h-45v-44.7c0-18.4 7.6-29.7 22.5-29.7Zm2588.5 0c15.3 0 22 11.3 22 29.7v44.7h-44.6v-44.7c0-18.4 7.2-29.7 22.6-29.7Zm-1981.6 0c15.4 0 22 11.3 22 29.7v44.7h-45v-44.7c0-18.4 7.1-29.7 22.5-29.7h.5Zm2588 0c15.4 0 22 11.3 22 29.7v44.7H3823v-44.7c0-18.4 7.6-29.7 22.5-29.7Zm-3093.5 0c15.3 0 22 11.3 22 29.7v44.7h-44.6v-44.7c0-18.4 7.2-29.7 22.6-29.7Zm2588 0c15.3 0 22 11.3 22 29.7v44.7h-44.6v-44.7c0-18.4 7.7-29.7 22.6-29.7Zm-1981.6 0c15.3 0 22 11.3 22 29.7v44.7h-44.6v-44.7c0-18.4 7.7-29.7 22.6-29.7Zm2588 0c15.3 0 22.5 11.3 22.5 29.7v44.7h-45.6v-44.7c0-18.4 7.7-29.7 22.6-29.7h.5Zm-3093.5 0c15.3 0 22 11.3 22 29.7v44.7h-44.6v-44.7c0-18.4 7.7-29.7 22.6-29.7Zm2588.5 0c14.8 0 22 11.3 22 29.7v44.7h-45v-44.7c0-18.4 7.6-29.7 23-29.7Zm-1981.6 0c14.8 0 22 11.3 22 29.7v44.7h-45v-44.7c0-18.4 7.6-29.7 22.5-29.7h.5Zm2588 0c15.4 0 22 11.3 22 29.7v44.7h-44.5v-44.7c0-18.4 7.1-29.7 22.5-29.7Zm-3093.5 0c14.8 0 22 11.3 22 29.7v44.7h-45v-44.7c0-18.4 7.6-29.7 23-29.7Zm2588 0c15.3 0 22 11.3 22 29.7v44.7h-44.6v-44.7c0-18.4 7.2-29.7 22.6-29.7Zm-1981.6 0c15.4 0 22 11.3 22 29.7v44.7h-44.5v-44.7c0-18.4 7.1-29.7 22.5-29.7Zm2588 0c15.4 0 22 11.3 22 29.7v44.7h-44.5v-44.7c0-18.4 7.6-29.7 22.5-29.7Zm-2493.3 0c15.4 0 22.6 11.3 22.6 29.7v44.7h-45.1v-44.7c0-18.4 7.7-29.7 22.5-29.7Zm2588.5 0c15.4 0 22 11.3 22 29.7v44.7h-44.5v-44.7c0-18.4 7.2-29.7 22.5-29.7Zm-3188.7 0c15.3 0 22 11.3 22 29.7v44.7h-44.6v-44.7c0-18.4 7.2-29.7 22.6-29.7Zm2588 0c15.3 0 22 11.3 22 29.7v44.7h-44v-44.7c0-18.4 7.6-29.7 22.5-29.7"/><path fill="none" stroke="#fff" stroke-width="10.8" d="M3065.3 459.6h1254.9m-3838.2 0h1254.8H482Z"/><path fill="none" stroke="#fff" stroke-linecap="round" stroke-linejoin="round" stroke-width="10.8" d="M1962.6 377h877.9"/><path fill="none" stroke="#fff" stroke-width="10.8" d="M101.4 433.4V351l-5.1-2.6V321c0-8.2-3.6-22.6-15.4-22.6S66.1 312 65.6 321.1v27.7l-5.2 1.5v83.1h41Zm4599.8-.5v-82l5.1-2.6V321c0-8.2 3.6-22.6 15.4-22.6 11.3 0 14.8 13.4 14.8 22.6v27.7l5.2 1.5v83.1h-41l.5-.5Zm-4473.8.5V351l-5.1-2.6V321c0-8.2-3.6-22.6-15.4-22.6s-15.3 13.4-15.3 22.6v27.7l-5.2 1.5v83.1h41Zm4347.8-.5v-82l5.1-2.6V321c0-8.2 3.6-22.6 15.4-22.6 11.3 0 14.9 13.4 14.9 22.6v27.7l5.1 1.5v83.1h-41l.5-.5Zm-4221.8 0v-82l-5.1-2.6V321c0-8.2-3.6-22.6-15.4-22.6-11.3 0-14.8 13.4-14.8 22.6v27.7l-5.2 1.5v83.1h41l-.5-.5Zm4095.3.5V351l5.1-2.6V321c0-8.2 4.2-22.6 15.4-22.6 11.8 0 15.4 13.4 15.4 22.6v27.7l5.1 1.5v83.1h-41Zm-3968.8 0V351l-5.1-2.6V321c0-8.2-4.1-22.6-15.4-22.6-11.8 0-15.3 13.4-15.3 22.6v27.7l-5.2 1.5v83.1h41Zm3842.8-.5v-82l5.1-2.6V321c0-8.2 3.6-22.6 15.4-22.6 11.3 0 14.9 13.4 14.9 22.6v27.7l5.1 1.5v83.1h-41l.5-.5Z"/><path fill="none" stroke="#fff" stroke-linejoin="round" stroke-width="10.8" d="M4322.7 433h-2v28h5v297.5H4312V777h11.8v123.1l-8.8 6.2v70.3M60.4 432.9h-2v28.2h5.1v297.5H50.2v18.5h11.3v123.1l-8.7 6.2v70.3l7.6-543.8Zm4681.3 0h2v28.2h-4.6v297.5h13.4v18.5h-11.8v123.1l8.7 6.2v70.3l-7.7-543.8Zm-4640.3 0h2v28.2h-5v32.4l3-60.6Zm4599.8 0h-2v28.2h4.6v32.4l-2.6-60.6Zm-4473.8 0h2v28.2h-5v32.4l3-60.6Zm4347.8 0h-2.5v28.2h5v32.4l-2.5-60.6Zm-4221.8 0h2.6v28.2h-5.2v32.4l2.6-60.6Zm4095.3 0h-2v28.2h5v32.4l-3-60.6Zm-4261.8 0h-2.5v28.2h5v32.4l-2.5-60.6Zm4428.8 0h2v28.2h-5v32.4l3-60.6Zm-4303.3 0H311v28.2h5.1v32.4l-3.6-60.6Zm4177.3 0h2v28.2h-5v32.4l3-60.6Zm-4050.8 0h-2v28.2h5.1v32.4l-3-60.6Zm3924.8 0h1.5v28.2h-4.6v32.4l3.1-60.6Zm-3883.8 0h2v28.2h-5v297.5H490v18.5h-11v123.1l8.7 6.2v70.3L480 432.9Z"/><path fill="none" stroke="#fff" stroke-width="10.8" d="M4406.7 369.3V433m125.5-63.6V433v-63.6Zm126 0V433v-63.6Z"/><path fill="none" stroke="#fff" stroke-linejoin="round" stroke-width="10.8" d="M3018.7 376.5v-82.6a60 60 0 0 1 21.6-47.7 63.8 63.8 0 0 1 21 47.7v83.6l26 5.7v24.6h-22.5v311.9h9.3V776h-6.2v118.5l8.2 10.8v72.8M1783.9 377v-83a61.6 61.6 0 0 0-21.5-47.3 63.5 63.5 0 0 0-21 47.2V377l-26.7 6.2v25.1h22.6v311.9h-8.7v56.4h5.6v118.5l-8.2 10.8v70.8l58-599.7Zm1101.2 0v-83a63 63 0 0 0-22-47.8 64 64 0 0 0-21 47.7V377l-26.7 5.1v26.2h22.5v311.4h-8.7V776h5.7v118.5l-8.2 10.8v72.8L2885 377Zm-967.5 0v-83a59.6 59.6 0 0 1 21.5-47.3 63.5 63.5 0 0 1 21 47.2V377l26.1 6.2v25.1h-22.5v311.9h9.2v56.4h-6.2v118.5l8.2 10.8v70.8L1917.6 377Z"/><path fill="none" stroke="#fff" stroke-linecap="round" stroke-linejoin="round" stroke-miterlimit="1.5" stroke-width="10.4" d="m3018.7 376.5 57.4 601.7"/><path fill="#fff" d="M1984.7 729.4v29.3h43v-29.3l-6.2-16.4-1.5-210.3h-27.7l-1.5 210.8-6.7 15.4.6.5Zm157.7 0v29.3h43.5v-29.3l-6.6-16.4-1.5-210.3H2151l-1 210.8-7.2 15.4-.5.5Zm158.3-.5v29.8h43v-29.3l-6.2-16.4-1.5-210.3h-27l-1.6 210.8-6.6 15.4Zm158.2 0v29.8h43.6v-29.3l-6.7-16.4-1.5-210.3H2467l-1 210.8-7.2 15.4Zm158.3 0v29.8h43v-29.3l-6.1-16.4-1.6-210.3h-27.1l-1.5 210.8-6.7 15.4Zm157.7 0v29.8h43.6v-29.3l-6.7-16.4-1.5-210.3H2783l-1 210.8-7.2 15.4ZM456 299.1h-36l-85-116.5v-38l-2-9.2-7.2-6.1-.5-1-1-.6-1.5.5-.5 1-6.2 5.2-3.6 9.2h-85l-3-8.2-6.2-5.6-.5-1-1-.6-1.6.6-.5 1-6.7 6.1-2.5 9.3v38L95.8 332.3v15.4l5.1 2.5v19h85v-19l5.1-1.5v-27.2c1-20.5 11.8-22.5 15.4-22.5 3.6 0 14.3 2 15.4 22.5v27.2l5 2v18.5h85.6v-19l5.1-1.5v-27.2c.6-20.5 11.3-22.5 15.4-22.5 3 0 14.4 2.5 15.4 22.5v27.2l5.1 2v18.5h85v-19.5l5.1-1.5V321c0-6.1 2-18.5 11.3-22h1Zm3890.9 0h34.8l85.6-116.5v-38l2.5-9.2 6.7-6.1 1-1 1-.6 1 .5 1 1 6.2 5.2 2.6 8.7h86l2.6-8.2 6.1-5.6 1-1 1.1-.6 1 .5 1 1 6.7 6.2 2.6 9.3v38L4707 332.4v15.4l-5.1 2.5v19h-85.6v-19l-5.1-1.5v-27.2c-.5-20.5-11.8-22.5-15.4-22.5-3 0-13.8 2-14.8 22.5v27.2l-5.1 2v18.5h-85.6v-19l-5.1-1.5v-27.2c-.5-20.5-11.3-22.5-15.4-22.5-3.6 0-14.3 2.5-15.4 22.5v27.2l-5 2v18.5h-85.6v-19.5l-5.1-1.5V321c0-6.1-1.6-18.5-11.3-22"/><path fill="none" stroke="#fff" stroke-width="10" d="M2651.5 836.1h-22a71.3 71.3 0 0 0-70.2-62c-35.8 0-66 26.6-70.1 62h-18a71.8 71.8 0 0 0-70.1-59.5 71.6 71.6 0 0 0-70.2 59.5h-17.4a71.3 71.3 0 0 0-70.2-64.6 70.9 70.9 0 0 0-70.7 64.6h-22.5"/><path fill="none" stroke="#fff" stroke-width="10.4" d="M1728 759.2V406.8m1101.8 569.9V759.2v217.5Zm244.3-.6v-217 217Zm-244.3-217.4V456v302.7Zm244.3.5V406.8v352.4ZM1972.9 976.7V759.2v217.5ZM1728 976V759v217Zm244.8-217.4V456v302.7Z"/><path fill="none" stroke="#fff" stroke-linecap="round" stroke-linejoin="round" stroke-width="10" d="M572.6 402.1v57.5m2850.8-57.5v57.5-57.5Zm98.8 0v57.5-57.5Zm100.9.6v56.9-57Zm104-.6v57.5-57.5Zm99.3 0v57.5-57.5Zm103 0v57.5-57.5Zm101.9 0v57.5-57.5Zm98.9 0v57.5-57.5Zm99.3 0v57.5-57.5Zm-907.6 0v57.5-57.5Zm-101.9 0v57.5-57.5Zm-95.7 0v57.5-57.5Zm344.6 0v57.5-57.5Zm98.9 0v57.5-57.5Zm100.4.6v56.9-57Zm104-.6v57.5-57.5Zm99.8 0v57.5-57.5Zm102.5 0v57.5-57.5Zm102.4 0v57.5-57.5Zm98.3 0v57.5-57.5Zm99.4 0v57.5-57.5Zm-907 0v57.5-57.5Zm-102 0v57.5-57.5Zm-96.3 0v57.5-57.5Zm-2342.6 0v57.5-57.5Zm105.5 0v57.5-57.5Zm98.8 0v57.5-57.5Zm104 0v57.5-57.5Zm99.9 0v57.5-57.5Zm99.8.6v56.9-57Zm99.4 0v56.9-57Zm103-.6v57.5-57.5Zm96.7 0v57.5-57.5Zm-907.5 0v57.5-57.5Zm-98.4 0v57.5-57.5Zm-100.4 0v57.5-57.5Zm344.2 0v57.5-57.5Zm105.5 0v57.5-57.5Zm99.4 0v57.5-57.5Zm104 0v57.5-57.5Zm99.8.6v56.9-57Zm99.4 0v56.9-57Zm99.4-.6v57.5-57.5Zm103.4 0v57.5-57.5Zm95.8 0v57.5-57.5Zm-907 0v57.5-57.5Zm-98.4.6v56.9-57Z"/></svg>