<svg clip-rule="evenodd" fill-rule="evenodd" stroke-linejoin="round" stroke-miterlimit="2" viewBox="0 0 1500 1500" xmlns="http://www.w3.org/2000/svg"><path d="m1051.2 1359.6-102 61.4-195.6-660zm-473.4 46.5-113-30 282-616.8zm-455.1-310.3-44-104.4 657.6-231.1zm635.1-338.5 647.8 215.1-38.6 114.4zm-720.2-32.2 24.9-141.7 674.5 166.1zm715.2 20 200.4-665.2 143.7 42.6-344.1 622.5zm13.3-.4 600.9-402 4.6 82.2-605.6 319.8zm-691.5-267.7 24.4-61 631.4 326.6zm272.1-323.8 400 588.7-471-501zm403.4 575.2-24.4-685.7 61.3-9-37 694.7z" fill="#018836"/><path d="m751.3 777 70.2 677.3-55.4-21.1zm-526.6 438 516.3-450.3-439.2 530.3-77-80.2zm536.6-450.2 566.8 403.5-53 82.4zm-35.6-8-669.5 50 18.4 95.2 651-145.3zm35.6 0 716 6-72.3 125zm0-6.8 654-185.6 46.3 94.6zm-27.2-8.3-508.7-424-92.4 25 601 399zm12.6 0-192.7-670.3-75.5 73.9 268 596.4zm14.6 0 405.6-513 142.8 61.2z" fill="#1fa859"/></svg>