<svg viewBox="0 0 3840 400" xmlns="http://www.w3.org/2000/svg"><path fill="#fff" d="M3840 400H0V146.3c12.8-15.5 101-25.5 127.1-23.6 31.5 2.2 55 15.7 78 27.8 23.1 12.1 50.2 23.8 83 21.4 20.8-1.5 41.8-8.7 62.4-9 42.6-.7 65 26.5 77.3 51.4 11 22.3 16.6 49.6 59 53.3 27.7 2.3 57.7-4.3 86.5-9.8 28.8-5.4 60-9.8 84.8-3 21.1 5.7 34 18.4 48.3 29.6a87.2 87.2 0 0057 21.4c36.8-.9 74.3-26.6 108.5-21.4 27 4 36.9 26.2 64.2 29.9 20.3 2.7 43.2-5.7 62-14.9 18.8-9.2 37.6-20 59.3-23.6 43.4-7.2 84 16.8 125 2.8 45.6-15.4 48-58.7 75.2-83.2 29.6-31.1 63.5-39.4 88.5-37.6 31.4 2.2 54.9 15.7 78 27.8 23 12.2 50.1 23.8 82.8 21.4 20.9-1.5 41.9-8.6 62.5-9 42.6-.7 65 26.5 77.3 51.4 11 22.3 16.6 49.6 59 53.3 27.7 2.4 57.7-4.3 86.5-9.7 28.8-5.5 60-9.9 84.8-3.1 21.1 5.7 34 18.4 48.3 29.7a87.2 87.2 0 0057 21.3c36.8-.8 74.3-26.6 108.5-21.4 27 4.1 37 26.2 64.2 29.9 20.3 2.7 43.2-5.7 62-14.9 18.8-9.2 37.6-20 59.3-23.5 43.4-7.2 84 16.7 125.1 2.7 45.5-15.4 47.9-58.6 75.1-83.2 31.8-31.7 80.8-38.2 92.6-37.4 31.4 2.2 54.9 15.7 78 27.8 23 12.2 50.1 23.8 82.8 21.4 20.9-1.5 41.9-8.6 62.5-9 42.6-.7 65 26.5 77.3 51.4 11 22.3 16.6 49.6 59 53.3 27.7 2.4 57.7-4.3 86.5-9.7 28.8-5.5 60-9.8 84.8-3.1 21.1 5.7 34 18.4 48.3 29.7a87.2 87.2 0 0057 21.3c36.8-.8 74.3-26.6 108.5-21.4 27 4.1 37 26.2 64.2 29.9 20.3 2.7 43.2-5.7 62-14.9 18.8-9.1 37.6-20 59.3-23.5 43.4-7.2 84 16.7 125.1 2.7 45.5-15.4 47.9-58.6 75.1-83.2 19.3-17.3 32.1-29.9 62.6-34.5 30.5-4.6 56.2-.9 77.9 10.2v158.7z"/></svg>
