<svg viewBox="0 0 3840 400" xmlns="http://www.w3.org/2000/svg"><defs><linearGradient id="a" x1="10%" y1="10%" x2="80%" y2="0%"><stop offset="0%" stop-color="#b2f7ff"/><stop offset="100%" stop-color="#effdff"/></linearGradient></defs><path fill="url(#a)" d="M3038.8 911.7l-4207.4-10.9-2.6-377.5a41 41 0 0125 .5c31.2 12.6 6.5 39.6 26 56.9 12 10.3 32.3 14.7 53.5 11.6 23.7-3.6 48.1-16.3 69.6-12 24 4.9 25.8 27.6 45.6 37.1 17 8.1 42.9 4.7 64.6-2 21.7-6.7 42-16.4 64.4-21.1 76.7-16 65.5 50.6 122 59 22.8 3.4 49-5 72.5-3.3a63.3 63.3 0 0159.7 50.2c5.6 23.6 3.6 49.3 19.6 69.6 16 20.3 55.4 25.7 90.6 14 59.5-20 61.5 17.8 139.8 12.8 33-2.1 47-19 77.8-17.7 48.2 2 52.7 30.5 99.2 24.5 30-3.9 49.2-26.6 59-46.3C-72.3 737.3-64 714.9-38 702c29.7-14.8 72.3-11.4 98-29.4a43.3 43.3 0 0018.2-46.1c-13.3-64.6 173-98.5 231.2-26.2 12 10.4 32.3 14.8 53.5 11.7 23.7-3.6 48.2-16.3 69.6-12 24.1 4.9 25.9 27.6 45.7 37.1 16.9 8 42.8 4.7 64.5-2 21.8-6.7 42.1-16.4 64.5-21.1 76.6-16 65.5 50.6 122 59 22.7 3.4 49-5 72.5-3.4a63.3 63.3 0 0159.7 50.3c5.6 23.6 3.5 49.3 19.5 69.6 16 20.3 55.5 25.7 90.6 14 59.6-20 61.5 17.8 139.8 12.8 33-2.1 47.1-19 77.8-17.7 48.2 2 52.8 30.5 99.2 24.5 30-3.9 49.3-26.6 59.1-46.4 9.8-19.7 18.2-42.1 44.1-55 29.7-14.8 72.4-11.4 98.1-29.4 18-12.5 12.4-36.6 9.8-52-10-58.1 67-73.6 162.7-58.3 33.3 5.2 44 20.7 63.5 38 12.1 10.3 32.4 14.7 53.5 11.7 23.7-3.6 48.2-16.3 69.6-12 24.1 4.8 25.9 27.5 45.7 37 16.9 8.1 42.9 4.7 64.6-2 21.7-6.7 42-16.4 64.4-21 76.6-16.2 65.5 50.5 122 59 22.7 3.3 49-5 72.5-3.4a63.3 63.3 0 0159.7 50.3c5.6 23.5 3.6 49.3 19.5 69.5 16 20.3 55.5 25.7 90.6 14 59.6-20 61.5 17.8 139.9 12.8 33-2 47-19 77.7-17.6 48.2 2 52.8 30.4 99.2 24.4 30-3.9 49.3-26.5 59.1-46.3 9.8-19.8 18.2-42.2 44.1-55 29.8-14.9 72.4-11.5 98.1-29.5 18-12.5 20.3-30.6 18.2-46.1-2.2-15.5-14-30.7 2.3-53.2 16.2-22.6 91.7-36 112.3-30.2l.3 329.3z" transform="matrix(1 0 0 1 985 -521.8)"/></svg>
