<svg viewBox="0 0 340 340" xmlns="http://www.w3.org/2000/svg"><g transform="scale(.98)"><g><path fill="none" d="M0 0h363.5v340.6H0z"/><g transform="scale(.9)"><g transform="translate(22 218)"><g><g><path d="M112.1.1L144 31.5S107.8 104 .2 145.5C40 37 112.2.1 112.2.1z" fill="#ffa90a"/><animateTransform attributeName="transform" attributeType="XML" dur=".8s" keyTimes="0; 0.75; 1" repeatCount="indefinite" type="scale" values="1; .9 ; 1" calcMode="linear"/></g><animateTransform attributeName="transform" attributeType="XML" dur=".8s" keyTimes="0; 0.75; 1" repeatCount="indefinite" type="translate" values="0 0 ; 12.8 1 ; 0 0" calcMode="linear"/></g><g><g><path d="M112.8 5.3l26 25.6S109.2 90 21.3 124.1C53.8 35.4 112.8 5.3 112.8 5.3z" fill="#ffbb46"/><animateTransform attributeName="transform" attributeType="XML" dur=".4s" keyTimes="0; 0.5; 1" repeatCount="indefinite" type="scale" values="1; .9 ; 1" calcMode="linear"/></g><animateTransform attributeName="transform" attributeType="XML" dur=".4s" keyTimes="0; 0.5; 1" repeatCount="indefinite" type="translate" values="0 0 ; 12.8 1 ; 0 0" calcMode="linear"/></g><g><g><path d="M113.5 10.4l20.1 19.9s-22.9 45.8-91 72.1c25.2-68.7 70.9-92 70.9-92z" fill="#ffe033"/><animateTransform attributeName="transform" attributeType="XML" dur="1.2s" keyTimes="0; 0.6; 1" repeatCount="indefinite" type="scale" values="1; .9 ; 1" calcMode="linear"/></g><animateTransform attributeName="transform" attributeType="XML" dur="1.2s" keyTimes="0; 0.6; 1" repeatCount="indefinite" type="translate" values="0 0 ; 12.8 1 ; 0 0" calcMode="linear"/></g></g></g><path d="M323.4 163.2c2.7-6.6 21.5-40.5 41.3-60.3 23.2-23.1 72.4-41 76.6-36.8 4.2 4.2-13.7 53.4-36.8 76.5a262.3 262.3 0 01-60.3 41.5l-20.8-21z" fill="url(#_Linear2)" transform="matrix(1.81923 0 0 1.70196 -441.5 -111.4)"/><path d="M349 126.2s-24.2.6-25 1c-1 .2-17.8 11.5-32 29.3l39.2-2.9 17.8-27.4z" fill="url(#_Linear3)" transform="matrix(1.81923 0 0 1.70196 -441.5 -111.4)"/><path d="M381.2 159.4s-.7 24.1-1 25c-.3 1-11.5 17.8-29.3 32l2.9-39.2 27.4-17.8z" fill="url(#_Linear4)" transform="matrix(1.81923 0 0 1.70196 -441.5 -111.4)"/><path d="M407.8 75.3L432 99.6c7.5-16.7 11.4-31.3 9.2-33.5-2.2-2.2-16.8 1.7-33.5 9.2z" fill="url(#_Linear5)" transform="matrix(1.81923 0 0 1.70196 -441.5 -111.4)"/><path d="M325.5 163.2c-1 2-1.8 3.5-2.1 4.4l16.4 16.5 4.4-2.2-18.7-18.7z" fill="url(#_Linear6)" transform="matrix(1.81923 0 0 1.70196 -441.5 -111.4)"/><path d="M326.1 157.5a102 102 0 00-2.7 5.5l21 21a79 79 0 005.5-2.7l-23.8-23.8z" fill="url(#_Linear7)" transform="matrix(1.81923 0 0 1.70196 -441.5 -111.4)"/><path d="M349.5 161c-15.1 15.2-28 26.7-29 25.9-.8-.9 10.8-13.9 25.9-29 15.1-15.1 17.6-16.2 18.5-15.4.8.9-.3 3.4-15.4 18.5z" fill="url(#_Linear8)" transform="matrix(1.81923 0 0 1.70196 -441.5 -111.4)"/><ellipse cx="383.6" cy="123.8" rx="15.6" ry="15.7" fill="#fff" fill-opacity=".8" transform="matrix(1.82008 0 0 1.70196 -441.9 -111.4)"/>
<animateTransform attributeName="transform" attributeType="XML" dur="2s" keyTimes="0; 0.8; 1" repeatCount="indefinite" type="translate" values="-16 0 ; -16 14 ; -16 0" calcMode="linear"/></g></g><defs><linearGradient id="_Linear2" x1="0" y1="0" x2="1" y2="0" gradientUnits="userSpaceOnUse" gradientTransform="matrix(149.828 0 0 150.846 292 140.9)"><stop offset="0" stop-color="#ca3058"/><stop offset="1" stop-color="#ff9948"/></linearGradient><linearGradient id="_Linear3" x1="0" y1="0" x2="1" y2="0" gradientUnits="userSpaceOnUse" gradientTransform="matrix(0 -149.828 150.846 0 292 140.9)"><stop offset="0" stop-color="#ff9948"/><stop offset="1" stop-color="#ca3058"/></linearGradient><linearGradient id="_Linear4" x1="0" y1="0" x2="1" y2="0" gradientUnits="userSpaceOnUse" gradientTransform="matrix(0 -149.828 150.846 0 292 140.9)"><stop offset="0" stop-color="#ff9948"/><stop offset="1" stop-color="#ca3058"/></linearGradient><linearGradient id="_Linear5" x1="0" y1="0" x2="1" y2="0" gradientUnits="userSpaceOnUse" gradientTransform="matrix(149.828 0 0 150.846 292 140.9)"><stop offset="0" stop-color="#ca3058"/><stop offset="1" stop-color="#ff9948"/></linearGradient><linearGradient id="_Linear6" x1="0" y1="0" x2="1" y2="0" gradientUnits="userSpaceOnUse" gradientTransform="matrix(18.9436 -18.9957 19.1248 19.0724 316.9 191)"><stop offset="0" stop-color="#ff9948"/><stop offset=".5" stop-color="#d64854"/><stop offset="1" stop-color="#ca3058"/></linearGradient><linearGradient id="_Linear7" x1="0" y1="0" x2="1" y2="0" gradientUnits="userSpaceOnUse" gradientTransform="matrix(34.0722 -29.7519 29.9542 34.3039 307.1 194.4)"><stop offset="0" stop-color="#ff9948"/><stop offset="1" stop-color="#ca3058"/></linearGradient><linearGradient id="_Linear8" x1="0" y1="0" x2="1" y2="0" gradientUnits="userSpaceOnUse" gradientTransform="matrix(0 -149.828 150.846 0 292 140.9)"><stop offset="0" stop-color="#ff9948"/><stop offset="1" stop-color="#ca3058"/></linearGradient></defs></svg>
