<svg xmlns="http://www.w3.org/2000/svg" fill-rule="evenodd" stroke-linejoin="round" stroke-miterlimit="2" clip-rule="evenodd" viewBox="0 0 354 361"><defs/><path fill="none" d="M0 0h353.9v360.8H0z"/><g fill-rule="nonzero"><path fill="#ffa90a" d="M111.9 195.2l31.8 31.4S107.6 298.9 0 340.6C39.7 232 111.9 195.1 111.9 195.1z"/><path fill="#ffbb46" d="M112.6 200.3l26 25.7S109 285 21 319c32.4-88.7 91.5-118.8 91.5-118.8z"/><path fill="#ffe033" d="M113.2 205.5l20.2 19.8s-23 45.9-91 72.2c25.1-68.7 70.8-92 70.8-92z"/></g><path fill="url(#_Linear1)" fill-rule="nonzero" d="M323.4 163.2c2.7-6.6 21.5-40.5 41.3-60.3 23.2-23.1 72.4-41 76.6-36.8 4.2 4.2-13.7 53.4-36.8 76.5a262.3 262.3 0 01-60.3 41.5l-20.8-21z" transform="matrix(1.70195 0 0 1.70196 -413.6 -111.4)"/><path fill="#01d4d7" fill-rule="nonzero" d="M180.3 103.3s-41 1.2-42.6 1.7c-1.5.5-30.2 19.6-54.2 50l66.6-5 30.2-46.7zM235.2 159.9s-1.1 41-1.6 42.6a234 234 0 01-50 54.2l5-66.6 46.6-30.2z"/><path fill="#036795" fill-rule="nonzero" d="M140.4 166.3c-1.8 3.4-3 6-3.7 7.5l28.1 28c1.5-.6 4-1.9 7.4-3.7l-31.8-31.8z"/><path fill="#047db5" fill-rule="nonzero" d="M141.5 156.6c-2.3 4.3-4 7.6-4.8 9.4l35.7 35.8c2-.8 5.2-2.4 9.5-4.7l-40.4-40.5z"/><path fill="#01d4d7" fill-rule="nonzero" d="M181.2 162.6c-25.8 25.8-47.8 45.5-49.2 44-1.5-1.5 18.2-23.5 44-49.3 25.7-25.7 30-27.6 31.4-26.1 1.5 1.4-.4 5.6-26.2 31.4z"/><ellipse cx="383.6" cy="123.8" fill="#fff" fill-opacity=".8" rx="15.6" ry="15.7" transform="matrix(1.70275 0 0 1.70196 -413.9 -111.4)"/><defs><linearGradient id="_Linear1" x1="0" x2="1" y1="0" y2="0" gradientTransform="matrix(149.828 0 0 150.846 292 140.9)" gradientUnits="userSpaceOnUse"><stop offset="0" stop-color="#00a2c6"/><stop offset=".5" stop-color="#01bccc"/><stop offset="1" stop-color="#03ffdd"/></linearGradient></defs></svg>