<svg xmlns="http://www.w3.org/2000/svg" viewBox="0 0 340 340" fill="#fff"><defs/><g transform="scale(.93554 1)"><path d="M146.7 166.3c5-11.2 39.2-68.8 75.3-102.6C264 24.4 353.5-6 361.2 1.1c7.7 7.1-24.9 90.8-67 130.2-36 33.8-97.6 65.8-109.6 70.5l-37.9-35.5z"/><path d="M193.3 103.3s-43.9 1.2-45.5 1.7c-1.7.5-32.3 19.6-58 50l71.2-5 32.3-46.7zM252 159.9s-1.3 41-1.8 42.6c-.5 1.5-21 30.2-53.5 54.2l5.4-66.6 49.8-30.2zM150.6 166.3c-1.9 3.4-3.2 6-3.9 7.5l30 28c1.6-.6 4.4-1.9 8-3.7l-34-31.8z"/><path d="M194.3 162.6c-27.6 25.8-51.1 45.5-52.7 44-1.5-1.5 19.5-23.5 47-49.3 27.5-25.7 32-27.6 33.6-26.1 1.6 1.4-.4 5.6-28 31.4z"/></g></svg>
