<svg xmlns="http://www.w3.org/2000/svg" fill-rule="evenodd" stroke-linejoin="round" stroke-miterlimit="2" clip-rule="evenodd" viewBox="0 0 9 8"><defs/><path fill="none" d="M0 0h8.56v7.95H0z"/><circle cx="2.67" cy="5.29" r="2.17" fill="url(#_Linear1)"/><path fill="#fff" d="M2.67 2.64a2.65 2.65 0 100 5.3 2.65 2.65 0 000-5.3zm0 .48a2.17 2.17 0 110 4.34 2.17 2.17 0 010-4.34z"/><circle cx="5.9" cy="5.29" r="2.17" fill="url(#_Linear2)"/><path fill="#fff" d="M5.9 2.64a2.65 2.65 0 100 5.3 2.65 2.65 0 000-5.3zm0 .48a2.17 2.17 0 110 4.34 2.17 2.17 0 010-4.34z"/><circle cx="4.12" cy="2.67" r="2.17" fill="url(#_Linear3)"/><path fill="#fff" d="M4.12.02a2.65 2.65 0 100 5.3 2.65 2.65 0 000-5.3zm0 .48a2.17 2.17 0 110 4.34 2.17 2.17 0 010-4.34z"/><defs><linearGradient id="_Linear1" x1="0" x2="1" y1="0" y2="0" gradientTransform="matrix(0 4.33786 -5.10897 0 2.67 3.12)" gradientUnits="userSpaceOnUse"><stop offset="0" stop-color="#0eb91b"/><stop offset="1" stop-color="#4fdc3f"/></linearGradient><linearGradient id="_Linear2" x1="0" x2="1" y1="0" y2="0" gradientTransform="matrix(0 4.33786 -4.22856 0 5.9 3.12)" gradientUnits="userSpaceOnUse"><stop offset="0" stop-color="#0184f2"/><stop offset="1" stop-color="#46affe"/></linearGradient><linearGradient id="_Linear3" x1="0" x2="1" y1="0" y2="0" gradientTransform="rotate(90 1.81 2.31) scale(4.33786)" gradientUnits="userSpaceOnUse"><stop offset="0" stop-color="#e81216"/><stop offset="1" stop-color="#fc5154"/></linearGradient></defs></svg>