<svg xmlns="http://www.w3.org/2000/svg" fill="none" viewBox="0 0 320 636">
  <path fill="#84E1D7" d="m245 526.4 9.2 14.7 8.9-2-8.3-18.2-9.7 5.5ZM82 377.4l-1.2-18.9-10.5 1.6 3.1 16.1 8.6 1.2Z"/>
  <path fill="#F65010" d="m303.3 213-21.2-8.2-7.7 9 23 12.7 6-13.4ZM215.8 189.4l1.4-22.7-11-4.6-5 25.8 14.6 1.5ZM116 74.5l4.3 28.2 15.6-3.8-7-23.8-13-.6Z"/>
  <path fill="#84E1D7" d="M300.9 379 309 397l9.7-5.5-9.1-14.7-8.8 2ZM166.8 410.7l.7 16.3 9-1.1-2.3-14-7.4-1.2ZM131.5 503.8 121 520.1l9.5 5 7.3-15-6.3-6.3Z"/>
  <path fill="#9F2EEB" d="m322.3 130.3-14.4-3.7-.5 6.5 14.5 4 .4-6.8ZM250.6 407.4l-7.5 21 9.6 1.6 8-21-10.1-1.6ZM37.7 509.4l-7.4 21 9.6 1.7 8-21.2-10.2-1.5ZM237 235.4l3 17.1 7.3-3-3.2-16.8-7.1 2.7ZM122.6 346l-9.2 10.7 5.6 3.1 9-10.7-5.4-3ZM-15.1 258l10.8 16.1 6.1-5.9-10.6-16.4-6.3 6.2ZM103.2 24.6 92.3 8.5l-6.1 5.9 10.7 16.5 6.3-6.3ZM227.2 99l-14.7-15.3-5.4 8 14.7 14.9 5.4-7.5Z"/>
  <path fill="#FFA115" d="m181.2 68.7-17.6-3.4-1.7 15.1 15.3 2.6 4-14.3ZM310.4 303.4l-7.8-6-6.4 7.7 6.6 6.9 7.6-8.6ZM154.8 141.8l-4 9.6 8.5 2.7 3.2-8.5-7.7-3.8ZM169.6 291.4l-15.6 3.7 4.2 12.9 13.4-3.5-2-13.1ZM60.6 325l8.6-6.1-5-8.9-10 7 6.4 8ZM90.6 208.2l11.5 10.3 11-11.1-9.4-11.7-13 12.5ZM18.2 189.4l-10 8.5L19.4 209l8.6-10.2-9.8-9.4ZM13.9 15.3l2 8.3 8.5-1.5-.6-8.3-10 1.5ZM12 86.2l-6-9.5-7.7 5.8 5.5 8.1 8.3-4.4ZM262.4 83l4.4 9.6 11.3-6.2-6.1-9.1-9.6 5.7ZM300.5 478l2.3 9.1 9-1.3-2.5-10.6-8.8 2.8ZM123.1 423l6.5 8.1 8.6-6.1-5-8.8-10 6.8ZM237 360.2l6.4 8.1 8.6-6.1-5-8.8-10 6.8ZM-14.7 447.1l11.5 10.2 11-11-9.4-11.7-13 12.5ZM225.7 592.3l11.4 10.2 11-11.1-9.4-11.6-13 12.5Z"/>
  <path fill="#F65010" d="m57.5 441.5.6 8.3 10-1.5-2-8.3-8.6 1.5ZM70.9 78.8l.6 8.3 9.9-1.5-2-8.3-8.5 1.5Z"/>
  <path fill="#FFA115" d="m40.4 414.6 8.8 9 7-8-7.8-7.7-8 6.7Z"/>
  <path fill="#DF6B8E" d="m61.9 167.7 16 11.8 6.8-8.2-16-11.4-6.8 7.8ZM228.3 408.2l-13.7 13.4 6.3 7.9 14.1-13.3-6.7-8Z"/>
  <path fill="#F65010" d="m27 314.7-12-3-3.7 22.2 11.4 3.2 4.3-22.4Z"/>
  <path fill="#DF6B8E" d="M307.5 15.2 295 13.1l-2.2 23.2 12 2.3 2.7-23.4ZM244.5 158.8l15 7 4.1-7.9-14.9-6.6-4.2 7.5ZM119.4 575.7l5 7 12.1-10-4.6-7-12.5 10ZM319.5 267.4l-8-12.8-5.3 3 7 13.8 6.3-4ZM227.3 288.2l19 2.7.4-9.4-18.7-.9-.7 7.6ZM162.8 237.9l4 5.2 13.8-9.7-5.4-6.2-12.4 10.7ZM63.4 261.6 64 278l7.9-1-2-15.8-6.5.5ZM225 32l-18.4-6.7-3.1 7.3 18.1 8.6 3.4-9.3ZM168.5 24.3l-5.7-3-6.1 11.3 4.5 2.7 7.3-11ZM82.3 122.9l-9.1-7.5-3.3 3.5 8.6 8.6 3.8-4.6ZM46 36.6 39.8 32l-9.1 12.4 4.8 4L46 36.6ZM184.4 381l5.1-.2V368l-6.2.6 1.1 12.4ZM218.5 478.8l4.3 4.1 8.3-8.5-3.3-3.6-9.3 8Z"/>
</svg>
