<svg viewBox="0 0 59 59" xmlns="http://www.w3.org/2000/svg" xml:space="preserve" style="fill-rule:evenodd;clip-rule:evenodd;stroke-linejoin:round;stroke-miterlimit:2"><path d="M59 29.03C59 13.01 46 0 29.97 0h-.94C13.01 0 0 13 0 29.03c0 16.02 13 29.03 29.03 29.03h.94c16.02 0 29.03-13 29.03-29.03Z" style="fill:url(#a)"/><path d="M56.2 26.69a26.7 26.7 0 1 0-26.7 26.7 26.7 26.7 0 0 0 26.7-26.7Z" style="fill:url(#b)"/><path d="m43.2 24.16-11.4-11.4a2.56 2.56 0 0 0-3.65 0l-11.4 11.39v.01a2.58 2.58 0 0 0 1.79 4.39h.45v8.39A3.02 3.02 0 0 0 22 39.95h4.47c.45 0 .81-.37.81-.82v-6.58c0-.75.62-1.37 1.38-1.37h2.63c.76 0 1.37.62 1.37 1.37v6.58c0 .45.37.82.82.82h4.46a3.02 3.02 0 0 0 3.01-3.01v-8.4h.43a2.6 2.6 0 0 0 1.82-4.4v.02Z" style="fill:#fff;fill-rule:nonzero"/><defs><linearGradient id="a" x1="0" y1="0" x2="1" y2="0" gradientUnits="userSpaceOnUse" gradientTransform="scale(84.4729) rotate(61.53 .26 .14)"><stop offset="0" style="stop-color:#977cff;stop-opacity:1"/><stop offset="1" style="stop-color:#7d64fd;stop-opacity:1"/></linearGradient><linearGradient id="b" x1="0" y1="0" x2="1" y2="0" gradientUnits="userSpaceOnUse" gradientTransform="scale(77.3751) rotate(61.14 .28 .17)"><stop offset="0" style="stop-color:#7255fb;stop-opacity:1"/><stop offset="1" style="stop-color:#a28cff;stop-opacity:1"/></linearGradient></defs></svg>