<svg xmlns="http://www.w3.org/2000/svg" fill="none" viewBox="0 0 195 61"><defs/><path fill="#BDBBBB" d="M97.44 18.24c-4.16-4.88-9.4-7.52-15.05-7.52-6.03 0-11.6 3.1-15.15 7.7-.01.14-.03.27-.03.42 0 6.4 3.84 16 13.41 24.31 6.12 5.31 15.12 9.69 17.7 11.27 2.51-1.63 10-6.28 15.56-11.27 9.43-8.46 17.7-19.31 10.25-28.27a18.9 18.9 0 00-11.65-4.17c-5.64 0-10.88 2.65-15.04 7.53z"/><path fill="#E0E0E0" d="M101.08 40.23c13.98-4.57 37.4-17.13 26.93-30.38-3.37-3-9.13-7.33-13.35-7.33-6.19 0-12.25 3.16-16.8 10.09-4.57-6.92-8.93-10.09-15.13-10.09-6.6 0-12.04 6.92-15.94 13.45l-.03.6c0 5.21 1.4 11.94 4.58 18.94 7.64 6.24 18.57 8.37 29.73 4.72z"/><path fill="#120B00" d="M98.87 58h-.06c-1.9-.04-12.51-7.62-17.82-12.17C69.7 36.18 64 27.1 64 18.84 64 8.8 72.93 0 83.1 0 88.76 0 94 2.64 98.17 7.53 102.32 2.65 107.56 0 113.2 0c10.18 0 19.11 8.8 19.11 18.84 0 19.21-30.74 37.99-32.05 38.78-.43.24-.9.38-1.4.38zM83.1 4.2c-7.32 0-15.04 7.46-15.04 14.64 0 6.42 5.92 15.7 15.5 24.02 6.12 5.31 12.66 8.5 15.24 10.08 2.51-1.62 8.61-5.1 14.17-10.08 9.43-8.46 14.9-17.5 14.9-24.02 0-7.18-7.35-14.95-14.68-14.95-3.42 0-8.57 1.18-12.94 7.87-.5.76-1.2 1.69-2.1 1.69-.9 0-1.5-.93-1.98-1.69C91.8 5.06 86.54 4.2 83.1 4.2z"/><path fill="#fff" d="M85.02 9.05c-.52-.72-1.78-.86-2.8-.3A2.1 2.1 0 0081.17 10c-1.35-.54-3.26-.38-4.95.54-2.35 1.27-3.38 3.52-2.29 5 1.08 1.5 3.86 1.68 6.21.4 1.98-1.07 3.01-2.84 2.64-4.26.45 0 .92-.1 1.36-.33 1.02-.56 1.42-1.6.89-2.31z"/><path fill="#BDBBBB" d="M166.58 28.5c-3.3-3.87-7.47-5.98-11.96-5.98-4.79 0-9.22 2.46-12.05 6.12l-.01.34c0 5.1 3.05 12.72 10.66 19.33 4.86 4.22 12.02 7.7 14.07 8.95 2-1.29 7.95-4.99 12.37-8.95 7.5-6.73 14.07-15.36 8.15-22.48a15.02 15.02 0 00-9.27-3.32c-4.48.01-8.65 2.12-11.96 6z"/><path fill="#E0E0E0" d="M169.48 45.99c11.12-3.64 29.74-13.62 21.42-24.16-2.69-2.39-7.27-5.82-10.62-5.82-4.92 0-9.74 2.5-13.36 8.01-3.63-5.5-7.1-8.01-12.03-8.01-5.25 0-9.57 5.5-12.67 10.68l-.02.48c0 4.15 1.11 9.5 3.63 15.07 6.08 4.95 14.77 6.65 23.65 3.75z"/><path fill="#120B00" d="M167.72 60.11h-.04c-1.52-.03-9.95-6.05-14.18-9.67-8.96-7.68-13.5-14.9-13.5-21.46C140 21 147.1 14 155.2 14c4.48 0 8.65 2.1 11.96 5.98 3.3-3.87 7.47-5.98 11.96-5.98 8.09 0 15.19 7 15.19 14.98 0 15.27-24.44 30.2-25.48 30.83-.34.2-.72.3-1.11.3zm-12.53-42.77c-5.82 0-11.95 5.93-11.95 11.64 0 5.1 4.7 12.49 12.32 19.1 4.86 4.22 10.07 6.75 12.12 8.01 2-1.3 6.84-4.05 11.26-8.02 7.5-6.72 11.84-13.9 11.84-19.09 0-5.7-5.84-11.89-11.66-11.89-2.72 0-6.82.94-10.3 6.26-.39.6-.94 1.34-1.66 1.34s-1.19-.73-1.58-1.34c-3.48-5.32-7.66-6-10.39-6z"/><path fill="#fff" d="M156.71 21.2c-.42-.58-1.41-.69-2.22-.25-.46.25-.75.63-.85 1.01a4.83 4.83 0 00-3.94.43c-1.86 1-2.68 2.8-1.81 3.98.86 1.19 3.07 1.33 4.93.31 1.58-.85 2.4-2.26 2.1-3.39.36 0 .74-.07 1.08-.26.81-.44 1.13-1.26.71-1.84z"/><path fill="#BDBBBB" d="M26.58 28.5c-3.3-3.87-7.47-5.98-11.96-5.98-4.79 0-9.22 2.46-12.05 6.12l-.02.34c0 5.1 3.06 12.72 10.67 19.33 4.86 4.22 12.02 7.7 14.07 8.95 2-1.29 7.95-4.99 12.37-8.95 7.5-6.73 14.07-15.36 8.15-22.48a15.02 15.02 0 00-9.27-3.32c-4.48.01-8.65 2.12-11.96 6z"/><path fill="#E0E0E0" d="M29.48 45.99C40.6 42.35 59.22 32.37 50.9 21.83c-2.69-2.39-7.27-5.82-10.62-5.82-4.92 0-9.74 2.5-13.36 8.01-3.63-5.5-7.1-8.01-12.03-8.01-5.25 0-9.57 5.5-12.67 10.68l-.02.48c0 4.15 1.11 9.5 3.63 15.07 6.08 4.95 14.77 6.65 23.65 3.75z"/><path fill="#120B00" d="M27.72 60.11h-.04c-1.52-.03-9.95-6.05-14.18-9.67C4.54 42.76 0 35.54 0 28.98 0 21 7.1 14 15.2 14c4.48 0 8.65 2.1 11.96 5.98 3.3-3.87 7.47-5.98 11.96-5.98 8.09 0 15.19 7 15.19 14.98 0 15.27-24.44 30.2-25.48 30.83-.34.2-.72.3-1.1.3zM15.2 17.34c-5.82 0-11.95 5.93-11.95 11.64 0 5.1 4.7 12.49 12.32 19.1 4.86 4.22 10.07 6.75 12.12 8.01 2-1.3 6.84-4.05 11.26-8.02 7.5-6.72 11.84-13.9 11.84-19.09 0-5.7-5.84-11.89-11.66-11.89-2.72 0-6.82.94-10.3 6.26-.39.6-.94 1.34-1.66 1.34s-1.19-.73-1.58-1.34c-3.48-5.32-7.66-6-10.39-6z"/><path fill="#fff" d="M16.71 21.2c-.41-.58-1.41-.69-2.22-.25-.46.25-.75.63-.85 1.01a4.83 4.83 0 00-3.94.43c-1.86 1-2.68 2.8-1.81 3.98.86 1.19 3.07 1.33 4.93.31 1.58-.85 2.4-2.26 2.1-3.39.36 0 .74-.07 1.08-.26.81-.44 1.13-1.26.71-1.84z"/></svg>