<svg viewBox="0 0 51 47" xmlns="http://www.w3.org/2000/svg" xml:space="preserve" style="fill-rule:evenodd;clip-rule:evenodd"><path d="M51 13A13 13 0 0 0 38 0H13A13 13 0 0 0 0 13v21a13 13 0 0 0 13 13h25a13 13 0 0 0 13-13V13Z" style="fill:#5427b3"/><path d="M48 13A10 10 0 0 0 38 3H13A10 10 0 0 0 3 13v21a10 10 0 0 0 10 10h25a10 10 0 0 0 10-10V13Z" style="fill:#391c78"/><path d="M47 13A11 11 0 0 0 36 2H14A11 11 0 0 0 3 13v17a11 11 0 0 0 11 11h22a11 11 0 0 0 11-11V13Z" style="fill:#7f57d3"/><path d="m24.5 12.03.04-.62-.62.1-7 1.15-.44.07.02.44.78 18.85.02.48h6l.03-.47 1.17-20Zm2 19.94-.04.64.64-.12 5.83-1.13.38-.08.02-.38 1.17-18.87.03-.57-.56.04-5.84.38-.44.03-.02.44-1.17 19.62Z" style="fill:#fff;fill-rule:nonzero;stroke:#000;stroke-width:1px"/></svg>