<svg xmlns="http://www.w3.org/2000/svg" fill-rule="evenodd" stroke-linejoin="round" stroke-miterlimit="2" clip-rule="evenodd" viewBox="0 0 25 25" xml:space="preserve">
  <circle cx="12.5" cy="12.5" r="10" fill="#ebebeb"/>
  <path fill="url(#a)" d="M25 12.5C25 19.4 19.4 25 12.5 25S0 19.4 0 12.5 5.6 0 12.5 0 25 5.6 25 12.5ZM8.5 19h7.8c.5 0 1-.4 1-1v-4.8H7.5V18c0 .6.4 1 1 1ZM7 12.7v-1.3c0-.5.4-1 1-1h2.8c-1.3 0-3.2-1.3-2.8-2.7C8.3 6.6 9.4 6 10.5 6c1.5 0 2 3.2 2 3.2S12.9 6 14.4 6c1 0 2.1.6 2.5 1.7.4 1.4-1.5 2.7-2.9 2.7h3c.5 0 1 .5 1 1v1.3H7Zm6.3-2.8c2.2-1.1 2.2-2.7 2.2-2.7-1.7.7-2.1 2.7-2.2 2.7Zm-4-2.7c1.9.7 2.3 2.7 2.3 2.7-2.2-1.1-2.2-2.7-2.2-2.7h-.1Z"/>
  <defs>
    <linearGradient id="a" x1="0" x2="1" y1="0" y2="0" gradientTransform="scale(43.9) rotate(51 .7 0)" gradientUnits="userSpaceOnUse">
      <stop offset="0" stop-color="#ca3327"/>
      <stop offset="1" stop-color="#ff1616"/>
    </linearGradient>
  </defs>
</svg>
