<svg xmlns="http://www.w3.org/2000/svg" fill="none" viewBox="0 0 23 23"><defs/><path fill="#fff" d="M22.7 11.4c0-.8-.6-1.7-1.3-2A3 3 0 0119.7 8c-.2-.5-.1-1.5.2-2.2.4-.7.1-1.8-.4-2.4-.6-.5-1.7-.8-2.4-.4-.7.3-1.7.4-2.2.2-.5-.2-1.1-1-1.4-1.7a2.2 2.2 0 00-2-1.3c-.8 0-1.7.6-2 1.3-.3.7-1 1.5-1.4 1.7-.5.2-1.5.1-2.2-.2-.7-.4-1.8-.1-2.4.4-.6.6-.8 1.7-.4 2.4.3.7.4 1.7.2 2.2-.2.5-1 1.1-1.7 1.4-.8.3-1.4 1.2-1.4 2s.6 1.7 1.4 2c.7.3 1.5 1 1.7 1.4.2.5.1 1.5-.2 2.2-.4.7-.2 1.8.4 2.4.6.6 1.7.8 2.4.4.7-.3 1.7-.4 2.2-.2.5.2 1.1 1 1.4 1.7.3.8 1.2 1.4 2 1.4s1.7-.6 2-1.4c.3-.7.9-1.5 1.4-1.7.5-.2 1.5-.1 2.2.2.7.4 1.8.2 2.4-.4.5-.6.8-1.7.4-2.4-.3-.7-.4-1.7-.2-2.2.2-.5 1-1.1 1.7-1.4.7-.3 1.3-1.2 1.3-2zm-11.2 4.1a4.1 4.1 0 110-8.2 4.1 4.1 0 010 8.2z"/></svg>