<svg xmlns="http://www.w3.org/2000/svg" fill-rule="nonzero" stroke-linejoin="round" stroke-miterlimit="2" clip-rule="evenodd" viewBox="0 0 30 25">
  <path class="sound-off" d="M27.6 7.7a2 2 0 00-2.8 0l-1.6 1.6-1.6-1.6a2 2 0 00-2.8 2.8l1.6 1.6-1.6 1.6a2 2 0 102.8 2.8l1.6-1.6 1.6 1.6a2 2 0 002.8-2.8L26 12.1l1.6-1.6c.8-.8.8-2 0-2.8zM12 .4L5.4 5H2a2 2 0 00-2 2v10.1c0 1.1.9 2 2 2h3.4l6.5 4.7a2 2 0 003.2-1.6V2A2 2 0 0011.9.4z"/>
  <path class="sound-on" d="M12 .4L5.3 5H2a2 2 0 00-2 2v10.1c0 1.1.9 2 2 2h3.4l6.5 4.7a2 2 0 003.2-1.6V2C15 .4 13.3-.6 11.9.4zm12.5.3a2 2 0 00-2.8 2.8 12.2 12.2 0 010 17.2 2 2 0 002.8 2.8 16.2 16.2 0 000-22.8zM20.2 5a2 2 0 00-2.8 2.8 6 6 0 010 8.6 2 2 0 002.8 2.8 10.1 10.1 0 000-14.2z"/>
</svg>
