<svg xmlns="http://www.w3.org/2000/svg" fill="none" viewBox="0 0 59 59">
<defs/>
<rect width="59" height="58.06" fill="url(#paint1_linear)" rx="29.03"/>
<rect width="59" height="58.06" fill="url(#paint2_linear)" fill-opacity=".2" rx="29.03"/>
<rect width="53.38" height="53.38" x="2.81" fill="url(#paint4_linear)" rx="26.69"/>

<path class="sound-off" fill="#fff" d="M45.42 22.6a1.97 1.97 0 00-2.78 0l-1.62 1.6-1.61-1.6a1.97 1.97 0 00-2.79 2.78L38.23 27l-1.61 1.61a1.97 1.97 0 002.79 2.79l1.61-1.62 1.62 1.62a1.97 1.97 0 002.78-2.79L43.81 27l1.61-1.62c.77-.76.77-2.02 0-2.79zM29.85 15.37L23.35 20h-3.38c-1.09 0-1.97.89-1.97 1.97v10.03c0 1.09.88 1.97 1.97 1.97h3.38l6.5 4.64c1.3.93 3.12 0 3.12-1.6V16.98c0-1.6-1.81-2.54-3.12-1.61z"/>
<g class="sound-on">
<path fill="#fff" d="M39.5 15.7a1.99 1.99 0 00-2.8 2.8 12.16 12.16 0 010 17.18 1.99 1.99 0 002.8 2.8 16.15 16.15 0 000-22.79z"/>
<path fill="#fff" d="M35.22 19.98a1.99 1.99 0 00-2.81 2.8 6.08 6.08 0 010 8.62 1.99 1.99 0 002.82 2.8 10.06 10.06 0 00-.01-14.22zM26.94 15.37l-6.55 4.68h-3.4c-1.1 0-1.99.89-1.99 1.99v10.1c0 1.1.89 1.98 1.99 1.98h3.4l6.55 4.68c1.32.94 3.14 0 3.14-1.62v-20.2c0-1.6-1.82-2.55-3.14-1.6z"/>
</g>

<defs>
  <linearGradient id="paint1_linear" x1="29.5" x2="29.5" y1="0" y2="58.06" gradientUnits="userSpaceOnUse">
  <stop stop-color="#DDDCDC"/>
  <stop offset="1" stop-color="#B1B1B1"/>
  </linearGradient>
  <linearGradient id="paint2_linear" x1="22.13" x2="62.39" y1="-13.48" y2="60.78" gradientUnits="userSpaceOnUse">
  <stop/>
  <stop offset="1" stop-color="#616161"/>
  </linearGradient>
  <linearGradient id="paint4_linear" x1="29.5" x2="29.5" y1="0" y2="53.38" gradientUnits="userSpaceOnUse">
  <stop stop-color="#DDDCDC"/>
  <stop offset="1" stop-color="#B1B1B1"/>
  </linearGradient>
</defs>
</svg>
