<svg viewBox="0 0 20 20" xmlns="http://www.w3.org/2000/svg" xml:space="preserve" style="fill-rule:evenodd;clip-rule:evenodd;stroke-linejoin:round;stroke-miterlimit:2"><path d="M19.29 6c-.26-.27-.6-.45-.97-.52l-4.64-.7-.18-.43C12.81 2.68 11.72.02 10 0 8.25-.02 7.14 2.71 6.47 4.37l-.16.42-4.64.69c-.39.07-.7.26-.96.52-.37.37-.58.89-.66 1.43-.08.48-.06 1 .03 1.45.1.54.32 1.01.61 1.3l3.1 3-.49 2.94-.02.22v.08c-.3 1.12-.18 1.96.13 2.53.14.26.32.47.53.63.58.47 1.38.54 2.04.2v.01l4.01-2.07 4.02 2.07c.7.36 1.55.25 2.14-.27.31-.28.56-.67.68-1.2a4 4 0 0 0-.12-1.91v-.07l-.03-.23-.49-2.93 3.1-3c.31-.31.53-.79.64-1.32.09-.45.1-.97.02-1.45A2.58 2.58 0 0 0 19.29 6Z" style="fill:#a15d04"/><path d="m18.5 6.17-5.26-.8c-.52-1.06-1.72-4.9-3.21-4.92C8.53.43 7.34 4.4 6.85 5.37l-5.24.8c-1.3.25-1.17 2.8-.57 3.4l3.56 3.47-.59 3.5c-.02.11-.02.22-.02.3-.66 2.4.71 3.04 1.48 2.62l4.58-2.38 4.57 2.38c.78.42 2.2-.2 1.49-2.62l-.01-.3-.59-3.5 3.54-3.49c.67-.65.72-3.13-.55-3.38Z" style="fill:url(#a)"/><path d="M3.27 6.9c.26.28 4.28.2 4.5-.05.41-.46 2.46-4.06 1.9-4.41-.54-.36-2.06 2.5-2.25 3.82-1.11.24-3.65.3-4.15.64Z" style="fill:#fff;fill-opacity:.75"/><path d="M4.94 15.85a5.3 5.3 0 0 1 .1-1.8c.11-.43.47-1.45.63-1.2.37.55-.55 3.15-.73 3Z" style="fill:#fff;fill-opacity:.5"/><path d="M14.63 6.78c.07-.08 1.2-.16 1.67-.13.43.03 1.4.17 1.19.32-.49.33-2.98-.05-2.86-.19Z" style="fill:#fff;fill-opacity:.46"/><defs><radialGradient id="a" cx="0" cy="0" r="1" gradientUnits="userSpaceOnUse" gradientTransform="matrix(-8.56936 -2.79097 2.82266 -8.66665 10.15 10.31)"><stop offset="0" style="stop-color:#ffde4c;stop-opacity:1"/><stop offset=".65" style="stop-color:#ffd541;stop-opacity:1"/><stop offset="1" style="stop-color:#fd9f00;stop-opacity:1"/></radialGradient></defs></svg>