<svg xmlns="http://www.w3.org/2000/svg" viewBox="0 0 121.8 121.8"><defs/><path d="M20.2 101.45a57.19 57.19 0 0060.9 13 14.3 14.3 0 01-6.1-11.7v-1.9c-15 5.4-32.4 2.1-44.4-9.9a42.7 42.7 0 01-4.3-54.9v9.8c0 3.3 2.7 6 6 6s6-2.7 6-6v-26.4c0-3.3-2.7-6-6-6h-3.6L6 13.35c-3.3 0-6 2.7-6 6s2.7 6 6 6h9.8c-2.1 2.6-3.9 5.4-5.5 8.3a57.38 57.38 0 009.9 67.8zM89.4 108.85H115.8c3.3 0 6-2.7 6-6s-2.7-6-6-6h-10.4c2.1-2.6 4-5.4 5.5-8.3 12-21.8 8.7-49.7-9.7-68.1-16.4-16.6-40.5-20.9-61-13.1 3.9 2.6 6.5 7 6.5 12v1.5c14.9-5.2 32.1-1.8 44 10.1a42.63 42.63 0 0111.5 39.1c-1.2 5.4-3.4 10.7-6.8 15.4v-9c0-3.3-2.7-6-6-6s-6 2.7-6 6v26.5a6 6 0 006 5.9z"/></svg>